<?xml version="1.0" encoding="utf-8" standalone="no"?>
<!DOCTYPE svg PUBLIC "-//W3C//DTD SVG 1.1//EN"
  "http://www.w3.org/Graphics/SVG/1.1/DTD/svg11.dtd">
<svg xmlns:xlink="http://www.w3.org/1999/xlink" width="864pt" height="432pt" viewBox="0 0 864 432" xmlns="http://www.w3.org/2000/svg" version="1.1">
 <metadata>
  <rdf:RDF xmlns:dc="http://purl.org/dc/elements/1.1/" xmlns:cc="http://creativecommons.org/ns#" xmlns:rdf="http://www.w3.org/1999/02/22-rdf-syntax-ns#">
   <cc:Work>
    <dc:type rdf:resource="http://purl.org/dc/dcmitype/StillImage"/>
    <dc:date>2026-06-11T07:32:24.066936</dc:date>
    <dc:format>image/svg+xml</dc:format>
    <dc:creator>
     <cc:Agent>
      <dc:title>Matplotlib v3.8.4, https://matplotlib.org/</dc:title>
     </cc:Agent>
    </dc:creator>
   </cc:Work>
  </rdf:RDF>
 </metadata>
 <defs>
  <style type="text/css">*{stroke-linejoin: round; stroke-linecap: butt}</style>
 </defs>
 <g id="figure_1">
  <g id="patch_1">
   <path d="M 0 432 
L 864 432 
L 864 0 
L 0 0 
z
" style="fill: #ffffff"/>
  </g>
  <g id="axes_1">
   <g id="patch_2">
    <path d="M 108 345.6 
L 777.6 345.6 
L 777.6 51.84 
L 108 51.84 
z
" style="fill: #ffffff"/>
   </g>
   <g id="matplotlib.axis_1">
    <g id="xtick_1">
     <g id="line2d_1">
      <path d="M 168.872727 345.6 
L 168.872727 51.84 
" clip-path="url(#p1fec54dcd8)" style="fill: none; stroke-dasharray: 2.96,1.28; stroke-dashoffset: 0; stroke: #cccccc; stroke-opacity: 0.6; stroke-width: 0.8"/>
     </g>
     <g id="line2d_2"/>
     <g id="text_1">
      <!-- 2026-05-21 -->
      <g style="fill: #262626" transform="translate(123.540734 380.949415) rotate(-30) scale(0.1 -0.1)">
       <defs>
        <path id="LiberationSans-32" d="M 322 0 
L 322 397 
Q 481 763 711 1042 
Q 941 1322 1194 1548 
Q 1447 1775 1695 1969 
Q 1944 2163 2144 2356 
Q 2344 2550 2467 2762 
Q 2591 2975 2591 3244 
Q 2591 3606 2378 3806 
Q 2166 4006 1788 4006 
Q 1428 4006 1195 3811 
Q 963 3616 922 3263 
L 347 3316 
Q 409 3844 795 4156 
Q 1181 4469 1788 4469 
Q 2453 4469 2811 4155 
Q 3169 3841 3169 3263 
Q 3169 3006 3051 2753 
Q 2934 2500 2703 2247 
Q 2472 1994 1819 1463 
Q 1459 1169 1246 933 
Q 1034 697 941 478 
L 3238 478 
L 3238 0 
L 322 0 
z
" transform="scale(0.015625)"/>
        <path id="LiberationSans-30" d="M 3309 2203 
Q 3309 1100 2920 518 
Q 2531 -63 1772 -63 
Q 1013 -63 631 515 
Q 250 1094 250 2203 
Q 250 3338 620 3903 
Q 991 4469 1791 4469 
Q 2569 4469 2939 3897 
Q 3309 3325 3309 2203 
z
M 2738 2203 
Q 2738 3156 2517 3584 
Q 2297 4013 1791 4013 
Q 1272 4013 1045 3591 
Q 819 3169 819 2203 
Q 819 1266 1048 831 
Q 1278 397 1778 397 
Q 2275 397 2506 840 
Q 2738 1284 2738 2203 
z
" transform="scale(0.015625)"/>
        <path id="LiberationSans-36" d="M 3278 1441 
Q 3278 744 2900 340 
Q 2522 -63 1856 -63 
Q 1113 -63 719 490 
Q 325 1044 325 2100 
Q 325 3244 734 3856 
Q 1144 4469 1900 4469 
Q 2897 4469 3156 3572 
L 2619 3475 
Q 2453 4013 1894 4013 
Q 1413 4013 1148 3564 
Q 884 3116 884 2266 
Q 1038 2550 1316 2698 
Q 1594 2847 1953 2847 
Q 2563 2847 2920 2465 
Q 3278 2084 3278 1441 
z
M 2706 1416 
Q 2706 1894 2472 2153 
Q 2238 2413 1819 2413 
Q 1425 2413 1183 2183 
Q 941 1953 941 1550 
Q 941 1041 1192 716 
Q 1444 391 1838 391 
Q 2244 391 2475 664 
Q 2706 938 2706 1416 
z
" transform="scale(0.015625)"/>
        <path id="LiberationSans-2d" d="M 284 1450 
L 284 1950 
L 1847 1950 
L 1847 1450 
L 284 1450 
z
" transform="scale(0.015625)"/>
        <path id="LiberationSans-35" d="M 3291 1434 
Q 3291 738 2877 337 
Q 2463 -63 1728 -63 
Q 1113 -63 734 206 
Q 356 475 256 984 
L 825 1050 
Q 1003 397 1741 397 
Q 2194 397 2450 670 
Q 2706 944 2706 1422 
Q 2706 1838 2448 2094 
Q 2191 2350 1753 2350 
Q 1525 2350 1328 2278 
Q 1131 2206 934 2034 
L 384 2034 
L 531 4403 
L 3034 4403 
L 3034 3925 
L 1044 3925 
L 959 2528 
Q 1325 2809 1869 2809 
Q 2519 2809 2905 2428 
Q 3291 2047 3291 1434 
z
" transform="scale(0.015625)"/>
        <path id="LiberationSans-31" d="M 488 0 
L 488 478 
L 1609 478 
L 1609 3866 
L 616 3156 
L 616 3688 
L 1656 4403 
L 2175 4403 
L 2175 478 
L 3247 478 
L 3247 0 
L 488 0 
z
" transform="scale(0.015625)"/>
       </defs>
       <use xlink:href="#LiberationSans-32"/>
       <use xlink:href="#LiberationSans-30" x="55.615234"/>
       <use xlink:href="#LiberationSans-32" x="111.230469"/>
       <use xlink:href="#LiberationSans-36" x="166.845703"/>
       <use xlink:href="#LiberationSans-2d" x="222.460938"/>
       <use xlink:href="#LiberationSans-30" x="255.761719"/>
       <use xlink:href="#LiberationSans-35" x="311.376953"/>
       <use xlink:href="#LiberationSans-2d" x="366.992188"/>
       <use xlink:href="#LiberationSans-32" x="400.292969"/>
       <use xlink:href="#LiberationSans-31" x="455.908203"/>
      </g>
     </g>
    </g>
    <g id="xtick_2">
     <g id="line2d_3">
      <path d="M 290.618182 345.6 
L 290.618182 51.84 
" clip-path="url(#p1fec54dcd8)" style="fill: none; stroke-dasharray: 2.96,1.28; stroke-dashoffset: 0; stroke: #cccccc; stroke-opacity: 0.6; stroke-width: 0.8"/>
     </g>
     <g id="line2d_4"/>
     <g id="text_2">
      <!-- 2026-05-25 -->
      <g style="fill: #262626" transform="translate(245.286189 380.949415) rotate(-30) scale(0.1 -0.1)">
       <use xlink:href="#LiberationSans-32"/>
       <use xlink:href="#LiberationSans-30" x="55.615234"/>
       <use xlink:href="#LiberationSans-32" x="111.230469"/>
       <use xlink:href="#LiberationSans-36" x="166.845703"/>
       <use xlink:href="#LiberationSans-2d" x="222.460938"/>
       <use xlink:href="#LiberationSans-30" x="255.761719"/>
       <use xlink:href="#LiberationSans-35" x="311.376953"/>
       <use xlink:href="#LiberationSans-2d" x="366.992188"/>
       <use xlink:href="#LiberationSans-32" x="400.292969"/>
       <use xlink:href="#LiberationSans-35" x="455.908203"/>
      </g>
     </g>
    </g>
    <g id="xtick_3">
     <g id="line2d_5">
      <path d="M 412.363636 345.6 
L 412.363636 51.84 
" clip-path="url(#p1fec54dcd8)" style="fill: none; stroke-dasharray: 2.96,1.28; stroke-dashoffset: 0; stroke: #cccccc; stroke-opacity: 0.6; stroke-width: 0.8"/>
     </g>
     <g id="line2d_6"/>
     <g id="text_3">
      <!-- 2026-05-29 -->
      <g style="fill: #262626" transform="translate(367.031643 380.949415) rotate(-30) scale(0.1 -0.1)">
       <defs>
        <path id="LiberationSans-39" d="M 3256 2291 
Q 3256 1156 2842 546 
Q 2428 -63 1663 -63 
Q 1147 -63 836 154 
Q 525 372 391 856 
L 928 941 
Q 1097 391 1672 391 
Q 2156 391 2422 841 
Q 2688 1291 2700 2125 
Q 2575 1844 2272 1673 
Q 1969 1503 1606 1503 
Q 1013 1503 656 1909 
Q 300 2316 300 2988 
Q 300 3678 687 4073 
Q 1075 4469 1766 4469 
Q 2500 4469 2878 3925 
Q 3256 3381 3256 2291 
z
M 2644 2834 
Q 2644 3366 2400 3689 
Q 2156 4013 1747 4013 
Q 1341 4013 1106 3736 
Q 872 3459 872 2988 
Q 872 2506 1106 2226 
Q 1341 1947 1741 1947 
Q 1984 1947 2193 2058 
Q 2403 2169 2523 2372 
Q 2644 2575 2644 2834 
z
" transform="scale(0.015625)"/>
       </defs>
       <use xlink:href="#LiberationSans-32"/>
       <use xlink:href="#LiberationSans-30" x="55.615234"/>
       <use xlink:href="#LiberationSans-32" x="111.230469"/>
       <use xlink:href="#LiberationSans-36" x="166.845703"/>
       <use xlink:href="#LiberationSans-2d" x="222.460938"/>
       <use xlink:href="#LiberationSans-30" x="255.761719"/>
       <use xlink:href="#LiberationSans-35" x="311.376953"/>
       <use xlink:href="#LiberationSans-2d" x="366.992188"/>
       <use xlink:href="#LiberationSans-32" x="400.292969"/>
       <use xlink:href="#LiberationSans-39" x="455.908203"/>
      </g>
     </g>
    </g>
    <g id="xtick_4">
     <g id="line2d_7">
      <path d="M 503.672727 345.6 
L 503.672727 51.84 
" clip-path="url(#p1fec54dcd8)" style="fill: none; stroke-dasharray: 2.96,1.28; stroke-dashoffset: 0; stroke: #cccccc; stroke-opacity: 0.6; stroke-width: 0.8"/>
     </g>
     <g id="line2d_8"/>
     <g id="text_4">
      <!-- 2026-06-01 -->
      <g style="fill: #262626" transform="translate(458.340734 380.949415) rotate(-30) scale(0.1 -0.1)">
       <use xlink:href="#LiberationSans-32"/>
       <use xlink:href="#LiberationSans-30" x="55.615234"/>
       <use xlink:href="#LiberationSans-32" x="111.230469"/>
       <use xlink:href="#LiberationSans-36" x="166.845703"/>
       <use xlink:href="#LiberationSans-2d" x="222.460938"/>
       <use xlink:href="#LiberationSans-30" x="255.761719"/>
       <use xlink:href="#LiberationSans-36" x="311.376953"/>
       <use xlink:href="#LiberationSans-2d" x="366.992188"/>
       <use xlink:href="#LiberationSans-30" x="400.292969"/>
       <use xlink:href="#LiberationSans-31" x="455.908203"/>
      </g>
     </g>
    </g>
    <g id="xtick_5">
     <g id="line2d_9">
      <path d="M 625.418182 345.6 
L 625.418182 51.84 
" clip-path="url(#p1fec54dcd8)" style="fill: none; stroke-dasharray: 2.96,1.28; stroke-dashoffset: 0; stroke: #cccccc; stroke-opacity: 0.6; stroke-width: 0.8"/>
     </g>
     <g id="line2d_10"/>
     <g id="text_5">
      <!-- 2026-06-05 -->
      <g style="fill: #262626" transform="translate(580.086189 380.949415) rotate(-30) scale(0.1 -0.1)">
       <use xlink:href="#LiberationSans-32"/>
       <use xlink:href="#LiberationSans-30" x="55.615234"/>
       <use xlink:href="#LiberationSans-32" x="111.230469"/>
       <use xlink:href="#LiberationSans-36" x="166.845703"/>
       <use xlink:href="#LiberationSans-2d" x="222.460938"/>
       <use xlink:href="#LiberationSans-30" x="255.761719"/>
       <use xlink:href="#LiberationSans-36" x="311.376953"/>
       <use xlink:href="#LiberationSans-2d" x="366.992188"/>
       <use xlink:href="#LiberationSans-30" x="400.292969"/>
       <use xlink:href="#LiberationSans-35" x="455.908203"/>
      </g>
     </g>
    </g>
    <g id="xtick_6">
     <g id="line2d_11">
      <path d="M 747.163636 345.6 
L 747.163636 51.84 
" clip-path="url(#p1fec54dcd8)" style="fill: none; stroke-dasharray: 2.96,1.28; stroke-dashoffset: 0; stroke: #cccccc; stroke-opacity: 0.6; stroke-width: 0.8"/>
     </g>
     <g id="line2d_12"/>
     <g id="text_6">
      <!-- 2026-06-09 -->
      <g style="fill: #262626" transform="translate(701.831643 380.949415) rotate(-30) scale(0.1 -0.1)">
       <use xlink:href="#LiberationSans-32"/>
       <use xlink:href="#LiberationSans-30" x="55.615234"/>
       <use xlink:href="#LiberationSans-32" x="111.230469"/>
       <use xlink:href="#LiberationSans-36" x="166.845703"/>
       <use xlink:href="#LiberationSans-2d" x="222.460938"/>
       <use xlink:href="#LiberationSans-30" x="255.761719"/>
       <use xlink:href="#LiberationSans-36" x="311.376953"/>
       <use xlink:href="#LiberationSans-2d" x="366.992188"/>
       <use xlink:href="#LiberationSans-30" x="400.292969"/>
       <use xlink:href="#LiberationSans-39" x="455.908203"/>
      </g>
     </g>
    </g>
    <g id="text_7">
     <!-- Fecha -->
     <g style="fill: #262626" transform="translate(428.904688 393.993293) scale(0.1 -0.1)">
      <defs>
       <path id="LiberationSans-46" d="M 1122 3916 
L 1122 2278 
L 3578 2278 
L 3578 1784 
L 1122 1784 
L 1122 0 
L 525 0 
L 525 4403 
L 3653 4403 
L 3653 3916 
L 1122 3916 
z
" transform="scale(0.015625)"/>
       <path id="LiberationSans-65" d="M 863 1572 
Q 863 991 1103 675 
Q 1344 359 1806 359 
Q 2172 359 2392 506 
Q 2613 653 2691 878 
L 3184 738 
Q 2881 -63 1806 -63 
Q 1056 -63 664 384 
Q 272 831 272 1713 
Q 272 2550 664 2997 
Q 1056 3444 1784 3444 
Q 3275 3444 3275 1647 
L 3275 1572 
L 863 1572 
z
M 2694 2003 
Q 2647 2538 2422 2783 
Q 2197 3028 1775 3028 
Q 1366 3028 1127 2754 
Q 888 2481 869 2003 
L 2694 2003 
z
" transform="scale(0.015625)"/>
       <path id="LiberationSans-63" d="M 859 1706 
Q 859 1031 1071 706 
Q 1284 381 1713 381 
Q 2013 381 2214 543 
Q 2416 706 2463 1044 
L 3031 1006 
Q 2966 519 2616 228 
Q 2266 -63 1728 -63 
Q 1019 -63 645 385 
Q 272 834 272 1694 
Q 272 2547 647 2995 
Q 1022 3444 1722 3444 
Q 2241 3444 2583 3175 
Q 2925 2906 3013 2434 
L 2434 2391 
Q 2391 2672 2212 2837 
Q 2034 3003 1706 3003 
Q 1259 3003 1059 2706 
Q 859 2409 859 1706 
z
" transform="scale(0.015625)"/>
       <path id="LiberationSans-68" d="M 991 2803 
Q 1172 3134 1426 3289 
Q 1681 3444 2072 3444 
Q 2622 3444 2883 3170 
Q 3144 2897 3144 2253 
L 3144 0 
L 2578 0 
L 2578 2144 
Q 2578 2500 2512 2673 
Q 2447 2847 2297 2928 
Q 2147 3009 1881 3009 
Q 1484 3009 1245 2734 
Q 1006 2459 1006 1994 
L 1006 0 
L 444 0 
L 444 4638 
L 1006 4638 
L 1006 3431 
Q 1006 3241 995 3037 
Q 984 2834 981 2803 
L 991 2803 
z
" transform="scale(0.015625)"/>
       <path id="LiberationSans-61" d="M 1294 -63 
Q 784 -63 528 206 
Q 272 475 272 944 
Q 272 1469 617 1750 
Q 963 2031 1731 2050 
L 2491 2063 
L 2491 2247 
Q 2491 2659 2316 2837 
Q 2141 3016 1766 3016 
Q 1388 3016 1216 2887 
Q 1044 2759 1009 2478 
L 422 2531 
Q 566 3444 1778 3444 
Q 2416 3444 2737 3151 
Q 3059 2859 3059 2306 
L 3059 850 
Q 3059 600 3125 473 
Q 3191 347 3375 347 
Q 3456 347 3559 369 
L 3559 19 
Q 3347 -31 3125 -31 
Q 2813 -31 2670 133 
Q 2528 297 2509 647 
L 2491 647 
Q 2275 259 1989 98 
Q 1703 -63 1294 -63 
z
M 1422 359 
Q 1731 359 1972 500 
Q 2213 641 2352 886 
Q 2491 1131 2491 1391 
L 2491 1669 
L 1875 1656 
Q 1478 1650 1273 1575 
Q 1069 1500 959 1344 
Q 850 1188 850 934 
Q 850 659 998 509 
Q 1147 359 1422 359 
z
" transform="scale(0.015625)"/>
      </defs>
      <use xlink:href="#LiberationSans-46"/>
      <use xlink:href="#LiberationSans-65" x="61.083984"/>
      <use xlink:href="#LiberationSans-63" x="116.699219"/>
      <use xlink:href="#LiberationSans-68" x="166.699219"/>
      <use xlink:href="#LiberationSans-61" x="222.314453"/>
     </g>
    </g>
   </g>
   <g id="matplotlib.axis_2">
    <g id="ytick_1">
     <g id="line2d_13">
      <path d="M 108 345.435191 
L 777.6 345.435191 
" clip-path="url(#p1fec54dcd8)" style="fill: none; stroke-dasharray: 2.96,1.28; stroke-dashoffset: 0; stroke: #cccccc; stroke-opacity: 0.6; stroke-width: 0.8"/>
     </g>
     <g id="line2d_14"/>
     <g id="text_8">
      <!-- 0 -->
      <g style="fill: #262626" transform="translate(98.939063 349.058628) scale(0.1 -0.1)">
       <use xlink:href="#LiberationSans-30"/>
      </g>
     </g>
    </g>
    <g id="ytick_2">
     <g id="line2d_15">
      <path d="M 108 306.025922 
L 777.6 306.025922 
" clip-path="url(#p1fec54dcd8)" style="fill: none; stroke-dasharray: 2.96,1.28; stroke-dashoffset: 0; stroke: #cccccc; stroke-opacity: 0.6; stroke-width: 0.8"/>
     </g>
     <g id="line2d_16"/>
     <g id="text_9">
      <!-- 250 -->
      <g style="fill: #262626" transform="translate(87.817188 309.64936) scale(0.1 -0.1)">
       <use xlink:href="#LiberationSans-32"/>
       <use xlink:href="#LiberationSans-35" x="55.615234"/>
       <use xlink:href="#LiberationSans-30" x="111.230469"/>
      </g>
     </g>
    </g>
    <g id="ytick_3">
     <g id="line2d_17">
      <path d="M 108 266.616654 
L 777.6 266.616654 
" clip-path="url(#p1fec54dcd8)" style="fill: none; stroke-dasharray: 2.96,1.28; stroke-dashoffset: 0; stroke: #cccccc; stroke-opacity: 0.6; stroke-width: 0.8"/>
     </g>
     <g id="line2d_18"/>
     <g id="text_10">
      <!-- 500 -->
      <g style="fill: #262626" transform="translate(87.817188 270.240092) scale(0.1 -0.1)">
       <use xlink:href="#LiberationSans-35"/>
       <use xlink:href="#LiberationSans-30" x="55.615234"/>
       <use xlink:href="#LiberationSans-30" x="111.230469"/>
      </g>
     </g>
    </g>
    <g id="ytick_4">
     <g id="line2d_19">
      <path d="M 108 227.207386 
L 777.6 227.207386 
" clip-path="url(#p1fec54dcd8)" style="fill: none; stroke-dasharray: 2.96,1.28; stroke-dashoffset: 0; stroke: #cccccc; stroke-opacity: 0.6; stroke-width: 0.8"/>
     </g>
     <g id="line2d_20"/>
     <g id="text_11">
      <!-- 750 -->
      <g style="fill: #262626" transform="translate(87.817188 230.830823) scale(0.1 -0.1)">
       <defs>
        <path id="LiberationSans-37" d="M 3238 3947 
Q 2563 2916 2284 2331 
Q 2006 1747 1867 1178 
Q 1728 609 1728 0 
L 1141 0 
Q 1141 844 1498 1776 
Q 1856 2709 2694 3925 
L 328 3925 
L 328 4403 
L 3238 4403 
L 3238 3947 
z
" transform="scale(0.015625)"/>
       </defs>
       <use xlink:href="#LiberationSans-37"/>
       <use xlink:href="#LiberationSans-35" x="55.615234"/>
       <use xlink:href="#LiberationSans-30" x="111.230469"/>
      </g>
     </g>
    </g>
    <g id="ytick_5">
     <g id="line2d_21">
      <path d="M 108 187.798117 
L 777.6 187.798117 
" clip-path="url(#p1fec54dcd8)" style="fill: none; stroke-dasharray: 2.96,1.28; stroke-dashoffset: 0; stroke: #cccccc; stroke-opacity: 0.6; stroke-width: 0.8"/>
     </g>
     <g id="line2d_22"/>
     <g id="text_12">
      <!-- 1000 -->
      <g style="fill: #262626" transform="translate(82.25625 191.421555) scale(0.1 -0.1)">
       <use xlink:href="#LiberationSans-31"/>
       <use xlink:href="#LiberationSans-30" x="55.615234"/>
       <use xlink:href="#LiberationSans-30" x="111.230469"/>
       <use xlink:href="#LiberationSans-30" x="166.845703"/>
      </g>
     </g>
    </g>
    <g id="ytick_6">
     <g id="line2d_23">
      <path d="M 108 148.388849 
L 777.6 148.388849 
" clip-path="url(#p1fec54dcd8)" style="fill: none; stroke-dasharray: 2.96,1.28; stroke-dashoffset: 0; stroke: #cccccc; stroke-opacity: 0.6; stroke-width: 0.8"/>
     </g>
     <g id="line2d_24"/>
     <g id="text_13">
      <!-- 1250 -->
      <g style="fill: #262626" transform="translate(82.25625 152.012286) scale(0.1 -0.1)">
       <use xlink:href="#LiberationSans-31"/>
       <use xlink:href="#LiberationSans-32" x="55.615234"/>
       <use xlink:href="#LiberationSans-35" x="111.230469"/>
       <use xlink:href="#LiberationSans-30" x="166.845703"/>
      </g>
     </g>
    </g>
    <g id="ytick_7">
     <g id="line2d_25">
      <path d="M 108 108.97958 
L 777.6 108.97958 
" clip-path="url(#p1fec54dcd8)" style="fill: none; stroke-dasharray: 2.96,1.28; stroke-dashoffset: 0; stroke: #cccccc; stroke-opacity: 0.6; stroke-width: 0.8"/>
     </g>
     <g id="line2d_26"/>
     <g id="text_14">
      <!-- 1500 -->
      <g style="fill: #262626" transform="translate(82.25625 112.603018) scale(0.1 -0.1)">
       <use xlink:href="#LiberationSans-31"/>
       <use xlink:href="#LiberationSans-35" x="55.615234"/>
       <use xlink:href="#LiberationSans-30" x="111.230469"/>
       <use xlink:href="#LiberationSans-30" x="166.845703"/>
      </g>
     </g>
    </g>
    <g id="ytick_8">
     <g id="line2d_27">
      <path d="M 108 69.570312 
L 777.6 69.570312 
" clip-path="url(#p1fec54dcd8)" style="fill: none; stroke-dasharray: 2.96,1.28; stroke-dashoffset: 0; stroke: #cccccc; stroke-opacity: 0.6; stroke-width: 0.8"/>
     </g>
     <g id="line2d_28"/>
     <g id="text_15">
      <!-- 1750 -->
      <g style="fill: #262626" transform="translate(82.25625 73.193749) scale(0.1 -0.1)">
       <use xlink:href="#LiberationSans-31"/>
       <use xlink:href="#LiberationSans-37" x="55.615234"/>
       <use xlink:href="#LiberationSans-35" x="111.230469"/>
       <use xlink:href="#LiberationSans-30" x="166.845703"/>
      </g>
     </g>
    </g>
    <g id="text_16">
     <!-- Cierre -->
     <g style="fill: #262626" transform="translate(76.18125 212.3325) rotate(-90) scale(0.1 -0.1)">
      <defs>
       <path id="LiberationSans-43" d="M 2475 3981 
Q 1744 3981 1337 3511 
Q 931 3041 931 2222 
Q 931 1413 1354 920 
Q 1778 428 2500 428 
Q 3425 428 3891 1344 
L 4378 1100 
Q 4106 531 3614 234 
Q 3122 -63 2472 -63 
Q 1806 -63 1320 214 
Q 834 491 579 1005 
Q 325 1519 325 2222 
Q 325 3275 894 3872 
Q 1463 4469 2469 4469 
Q 3172 4469 3644 4194 
Q 4116 3919 4338 3378 
L 3772 3191 
Q 3619 3575 3280 3778 
Q 2941 3981 2475 3981 
z
" transform="scale(0.015625)"/>
       <path id="LiberationSans-69" d="M 428 4100 
L 428 4638 
L 991 4638 
L 991 4100 
L 428 4100 
z
M 428 0 
L 428 3381 
L 991 3381 
L 991 0 
L 428 0 
z
" transform="scale(0.015625)"/>
       <path id="LiberationSans-72" d="M 444 0 
L 444 2594 
Q 444 2950 425 3381 
L 956 3381 
Q 981 2806 981 2691 
L 994 2691 
Q 1128 3125 1303 3284 
Q 1478 3444 1797 3444 
Q 1909 3444 2025 3413 
L 2025 2897 
Q 1913 2928 1725 2928 
Q 1375 2928 1190 2626 
Q 1006 2325 1006 1763 
L 1006 0 
L 444 0 
z
" transform="scale(0.015625)"/>
      </defs>
      <use xlink:href="#LiberationSans-43"/>
      <use xlink:href="#LiberationSans-69" x="72.216797"/>
      <use xlink:href="#LiberationSans-65" x="94.433594"/>
      <use xlink:href="#LiberationSans-72" x="150.048828"/>
      <use xlink:href="#LiberationSans-72" x="183.349609"/>
      <use xlink:href="#LiberationSans-65" x="216.650391"/>
     </g>
    </g>
   </g>
   <g id="line2d_29">
    <path d="M 138.436364 297.789385 
L 168.872727 297.357461 
L 199.309091 296.753709 
L 321.054545 296.830954 
L 351.490909 296.433706 
L 381.927273 296.172027 
L 412.363636 296.242966 
L 503.672727 297.149379 
L 534.109091 295.747983 
L 564.545455 296.526711 
L 594.981818 296.373803 
L 625.418182 296.987013 
L 716.727273 297.901306 
L 747.163636 299.633741 
" clip-path="url(#p1fec54dcd8)" style="fill: none; stroke: #1f77b4; stroke-width: 1.5; stroke-linecap: round"/>
   </g>
   <g id="line2d_30">
    <path d="M 138.436364 274.879992 
L 168.872727 274.563139 
L 199.309091 271.738281 
L 321.054545 266.003444 
L 351.490909 267.319714 
L 381.927273 263.764995 
L 412.363636 264.078701 
L 503.672727 265.01979 
L 534.109091 263.221155 
L 564.545455 259.913923 
L 594.981818 262.959472 
L 625.418182 271.916412 
L 716.727273 268.141007 
L 747.163636 270.477184 
" clip-path="url(#p1fec54dcd8)" style="fill: none; stroke: #ff7f0e; stroke-width: 1.5; stroke-linecap: round"/>
   </g>
   <g id="line2d_31">
    <path d="M 138.436364 303.659788 
L 168.872727 303.115943 
L 199.309091 303.453284 
L 321.054545 303.61565 
L 351.490909 302.581551 
L 381.927273 302.242633 
L 412.363636 302.772291 
L 503.672727 304.250927 
L 534.109091 304.99813 
L 564.545455 306.022769 
L 594.981818 305.428479 
L 625.418182 306.651742 
L 716.727273 306.779427 
L 747.163636 306.941793 
" clip-path="url(#p1fec54dcd8)" style="fill: none; stroke: #2ca02c; stroke-width: 1.5; stroke-linecap: round"/>
   </g>
   <g id="line2d_32">
    <path d="M 138.436364 101.077233 
L 168.872727 94.47697 
L 199.309091 88.029609 
L 321.054545 88.166753 
L 351.490909 93.551641 
L 381.927273 92.306304 
L 412.363636 91.204422 
L 503.672727 88.71219 
L 534.109091 76.605655 
L 564.545455 73.296855 
L 594.981818 68.392768 
L 625.418182 86.636103 
L 716.727273 69.721637 
L 747.163636 65.192727 
" clip-path="url(#p1fec54dcd8)" style="fill: none; stroke: #d62728; stroke-width: 1.5; stroke-linecap: round"/>
   </g>
   <g id="line2d_33">
    <path d="M 138.436364 279.580725 
L 168.872727 280.083588 
L 199.309091 280.151371 
L 321.054545 278.910768 
L 351.490909 278.934417 
L 381.927273 278.19037 
L 412.363636 275.007677 
L 503.672727 272.926866 
L 534.109091 269.521904 
L 564.545455 269.890774 
L 594.981818 279.399444 
L 625.418182 284.629841 
L 716.727273 282.916326 
L 747.163636 283.616235 
" clip-path="url(#p1fec54dcd8)" style="fill: none; stroke: #9467bd; stroke-width: 1.5; stroke-linecap: round"/>
   </g>
   <g id="line2d_34">
    <path d="M 138.436364 269.627523 
L 168.872727 269.772547 
L 199.309091 268.76367 
L 321.054545 269.19875 
L 351.490909 269.782004 
L 381.927273 270.176097 
L 412.363636 270.63955 
L 503.672727 271.30005 
L 534.109091 271.107733 
L 564.545455 270.499256 
L 594.981818 269.985358 
L 625.418182 268.487805 
L 716.727273 268.665936 
L 747.163636 268.544557 
" clip-path="url(#p1fec54dcd8)" style="fill: none; stroke: #8c564b; stroke-width: 1.5; stroke-linecap: round"/>
   </g>
   <g id="line2d_35">
    <path d="M 138.436364 207.887386 
L 168.872727 208.929365 
L 199.309091 206.731904 
L 321.054545 202.214029 
L 351.490909 201.99649 
L 381.927273 205.505492 
L 412.363636 207.365608 
L 503.672727 209.022375 
L 534.109091 202.015405 
L 564.545455 199.434887 
L 594.981818 197.180679 
L 625.418182 202.887133 
L 716.727273 201.096378 
L 747.163636 201.244558 
" clip-path="url(#p1fec54dcd8)" style="fill: none; stroke: #e377c2; stroke-width: 1.5; stroke-linecap: round"/>
   </g>
   <g id="line2d_36">
    <path d="M 138.436364 176.131396 
L 168.872727 179.845335 
L 199.309091 183.346448 
L 321.054545 187.336242 
L 351.490909 187.216436 
L 381.927273 188.554773 
L 412.363636 194.683703 
L 503.672727 196.293181 
L 534.109091 195.006857 
L 564.545455 193.815122 
L 594.981818 192.156786 
L 625.418182 192.232449 
L 716.727273 191.778453 
L 747.163636 192.749493 
" clip-path="url(#p1fec54dcd8)" style="fill: none; stroke: #7f7f7f; stroke-width: 1.5; stroke-linecap: round"/>
   </g>
   <g id="line2d_37">
    <path d="M 138.436364 317.044753 
L 168.872727 317.642199 
L 199.309091 317.049482 
L 321.054545 317.205543 
L 351.490909 317.453035 
L 381.927273 317.664268 
L 412.363636 315.310745 
L 503.672727 312.394459 
L 534.109091 313.775362 
L 564.545455 315.387988 
L 594.981818 315.681193 
L 625.418182 316.168291 
L 716.727273 316.658543 
L 747.163636 317.793529 
" clip-path="url(#p1fec54dcd8)" style="fill: none; stroke: #bcbd22; stroke-width: 1.5; stroke-linecap: round"/>
   </g>
   <g id="line2d_38">
    <path d="M 138.436364 284.128556 
L 168.872727 284.325602 
L 199.309091 285.064921 
L 321.054545 284.133285 
L 351.490909 284.14117 
L 381.927273 283.936239 
L 412.363636 285.479507 
L 503.672727 286.105326 
L 534.109091 288.394215 
L 564.545455 288.845059 
L 594.981818 286.764248 
L 625.418182 287.3412 
L 716.727273 288.164066 
L 747.163636 288.014309 
" clip-path="url(#p1fec54dcd8)" style="fill: none; stroke: #17becf; stroke-width: 1.5; stroke-linecap: round"/>
   </g>
   <g id="line2d_39">
    <path d="M 138.436364 309.285856 
L 168.872727 308.905952 
L 199.309091 308.49452 
L 321.054545 309.15029 
L 351.490909 308.975313 
L 381.927273 309.052554 
L 412.363636 309.914829 
L 503.672727 310.201729 
L 534.109091 310.299464 
L 564.545455 310.24429 
L 594.981818 309.46714 
L 625.418182 308.742009 
L 716.727273 308.838167 
L 747.163636 308.075204 
" clip-path="url(#p1fec54dcd8)" style="fill: none; stroke: #1f77b4; stroke-width: 1.5; stroke-linecap: round"/>
   </g>
   <g id="line2d_40">
    <path d="M 138.436364 297.831946 
L 168.872727 297.671158 
L 199.309091 297.138343 
L 321.054545 297.081596 
L 351.490909 298.257568 
L 381.927273 298.65954 
L 412.363636 298.252839 
L 503.672727 298.68319 
L 534.109091 297.992739 
L 564.545455 298.010076 
L 594.981818 296.427399 
L 625.418182 296.194099 
L 716.727273 296.392723 
L 747.163636 296.142076 
" clip-path="url(#p1fec54dcd8)" style="fill: none; stroke: #ff7f0e; stroke-width: 1.5; stroke-linecap: round"/>
   </g>
   <g id="line2d_41">
    <path d="M 138.436364 184.823506 
L 168.872727 181.232529 
L 199.309091 177.551707 
L 321.054545 177.592695 
L 351.490909 174.726844 
L 381.927273 167.809729 
L 412.363636 171.246224 
L 503.672727 174.840357 
L 534.109091 177.685695 
L 564.545455 175.379464 
L 594.981818 168.050918 
L 625.418182 167.081446 
L 716.727273 164.286544 
L 747.163636 164.991177 
" clip-path="url(#p1fec54dcd8)" style="fill: none; stroke: #2ca02c; stroke-width: 1.5; stroke-linecap: round"/>
   </g>
   <g id="line2d_42">
    <path d="M 138.436364 263.055628 
L 168.872727 263.024109 
L 199.309091 261.376799 
L 321.054545 261.43039 
L 351.490909 261.707833 
L 381.927273 260.750975 
L 412.363636 261.816603 
L 503.672727 264.015642 
L 534.109091 264.499589 
L 564.545455 264.720275 
L 594.981818 263.61367 
L 625.418182 262.871196 
L 716.727273 263.452877 
L 747.163636 261.867048 
" clip-path="url(#p1fec54dcd8)" style="fill: none; stroke: #d62728; stroke-width: 1.5; stroke-linecap: round"/>
   </g>
   <g id="line2d_43">
    <path d="M 138.436364 266.925621 
L 168.872727 266.676557 
L 199.309091 266.846803 
L 321.054545 267.718536 
L 351.490909 267.398533 
L 381.927273 267.601886 
L 412.363636 267.565627 
L 503.672727 267.36543 
L 534.109091 270.135115 
L 564.545455 271.101431 
L 594.981818 269.491953 
L 625.418182 268.022779 
L 716.727273 268.875591 
L 747.163636 267.367008 
" clip-path="url(#p1fec54dcd8)" style="fill: none; stroke: #9467bd; stroke-width: 1.5; stroke-linecap: round"/>
   </g>
   <g id="line2d_44">
    <path d="M 138.436364 301.25425 
L 168.872727 300.637888 
L 199.309091 300.938976 
L 321.054545 301.41346 
L 351.490909 301.151782 
L 381.927273 301.616813 
L 412.363636 301.422918 
L 503.672727 301.910021 
L 534.109091 301.870612 
L 564.545455 302.354554 
L 594.981818 302.444408 
L 625.418182 301.322033 
L 716.727273 301.646765 
L 747.163636 300.942127 
" clip-path="url(#p1fec54dcd8)" style="fill: none; stroke: #8c564b; stroke-width: 1.5; stroke-linecap: round"/>
   </g>
   <g id="line2d_45">
    <path d="M 138.436364 250.055303 
L 168.872727 249.689584 
L 199.309091 249.235589 
L 321.054545 248.907701 
L 351.490909 245.294662 
L 381.927273 245.289938 
L 412.363636 245.728164 
L 503.672727 250.778862 
L 534.109091 251.226546 
L 564.545455 247.23045 
L 594.981818 246.506891 
L 625.418182 251.956406 
L 716.727273 253.156022 
L 747.163636 253.28213 
" clip-path="url(#p1fec54dcd8)" style="fill: none; stroke: #e377c2; stroke-width: 1.5; stroke-linecap: round"/>
   </g>
   <g id="line2d_46">
    <path d="M 138.436364 327.622202 
L 168.872727 327.168207 
L 199.309091 326.138836 
L 321.054545 326.56288 
L 351.490909 326.480909 
L 381.927273 326.536082 
L 412.363636 326.720517 
L 503.672727 327.280129 
L 534.109091 327.204463 
L 564.545455 327.354219 
L 594.981818 326.477756 
L 625.418182 326.394209 
L 716.727273 326.594408 
L 747.163636 326.581797 
" clip-path="url(#p1fec54dcd8)" style="fill: none; stroke: #7f7f7f; stroke-width: 1.5; stroke-linecap: round"/>
   </g>
   <g id="line2d_47">
    <path d="M 138.436364 279.060525 
L 168.872727 279.37107 
L 199.309091 279.45304 
L 321.054545 279.853439 
L 351.490909 280.383098 
L 381.927273 278.125738 
L 412.363636 274.460676 
L 503.672727 272.840167 
L 534.109091 275.868374 
L 564.545455 278.070564 
L 594.981818 277.958643 
L 625.418182 279.752549 
L 716.727273 280.529704 
L 747.163636 281.842818 
" clip-path="url(#p1fec54dcd8)" style="fill: none; stroke: #bcbd22; stroke-width: 1.5; stroke-linecap: round"/>
   </g>
   <g id="line2d_48">
    <path d="M 138.436364 331.520567 
L 168.872727 331.296721 
L 199.309091 331.476428 
L 321.054545 331.618301 
L 351.490909 331.618301 
L 381.927273 331.681356 
L 412.363636 331.719189 
L 503.672727 332.247273 
L 534.109091 331.928846 
L 564.545455 332.102247 
L 594.981818 331.928846 
L 625.418182 331.903625 
L 716.727273 332.1921 
L 747.163636 332.062838 
" clip-path="url(#p1fec54dcd8)" style="fill: none; stroke: #17becf; stroke-width: 1.5; stroke-linecap: round"/>
   </g>
   <g id="line2d_49">
    <path d="M 138.436364 310.208034 
L 168.872727 310.832278 
L 199.309091 311.4912 
L 321.054545 311.565289 
L 351.490909 311.921548 
L 381.927273 311.661448 
L 412.363636 312.151699 
L 503.672727 310.067737 
L 534.109091 310.310497 
L 564.545455 311.582629 
L 594.981818 310.966268 
L 625.418182 313.103826 
L 716.727273 312.545792 
L 747.163636 312.616728 
" clip-path="url(#p1fec54dcd8)" style="fill: none; stroke: #1f77b4; stroke-width: 1.5; stroke-linecap: round"/>
   </g>
   <g id="line2d_50">
    <path d="M 138.436364 315.774199 
L 168.872727 315.520403 
L 199.309091 315.156261 
L 321.054545 315.001778 
L 351.490909 315.332814 
L 381.927273 313.324519 
L 412.363636 309.843893 
L 503.672727 306.317552 
L 534.109091 306.880315 
L 564.545455 309.126643 
L 594.981818 308.179245 
L 625.418182 311.751302 
L 716.727273 312.044505 
L 747.163636 312.991905 
" clip-path="url(#p1fec54dcd8)" style="fill: none; stroke: #ff7f0e; stroke-width: 1.5; stroke-linecap: round"/>
   </g>
   <g id="line2d_51">
    <path d="M 138.436364 322.981366 
L 168.872727 322.830035 
L 199.309091 322.666092 
L 321.054545 322.899394 
L 351.490909 322.185298 
L 381.927273 322.434365 
L 412.363636 322.804813 
L 503.672727 323.321862 
L 534.109091 323.236737 
L 564.545455 323.336049 
L 594.981818 323.243044 
L 625.418182 322.335055 
L 716.727273 322.562051 
L 747.163636 321.999287 
" clip-path="url(#p1fec54dcd8)" style="fill: none; stroke: #2ca02c; stroke-width: 1.5; stroke-linecap: round"/>
   </g>
   <g id="line2d_52">
    <path d="M 138.436364 323.815267 
L 168.872727 323.773493 
L 199.309091 323.857827 
L 321.054545 323.901966 
L 351.490909 324.546703 
L 381.927273 322.839493 
L 412.363636 320.758684 
L 503.672727 320.110796 
L 534.109091 321.447558 
L 564.545455 323.019199 
L 594.981818 323.098018 
L 625.418182 324.070638 
L 716.727273 323.922459 
L 747.163636 324.616061 
" clip-path="url(#p1fec54dcd8)" style="fill: none; stroke: #d62728; stroke-width: 1.5; stroke-linecap: round"/>
   </g>
   <g id="line2d_53">
    <path d="M 138.436364 279.659544 
L 168.872727 279.566539 
L 199.309091 278.28022 
L 321.054545 277.085333 
L 351.490909 276.018131 
L 381.927273 275.74384 
L 412.363636 276.738529 
L 503.672727 279.877084 
L 534.109091 278.638059 
L 564.545455 278.644361 
L 594.981818 279.471955 
L 625.418182 283.799095 
L 716.727273 280.969508 
L 747.163636 282.903718 
" clip-path="url(#p1fec54dcd8)" style="fill: none; stroke: #9467bd; stroke-width: 1.5; stroke-linecap: round"/>
   </g>
   <g id="line2d_54">
    <path d="M 138.436364 282.12499 
L 168.872727 281.253257 
L 199.309091 281.667844 
L 321.054545 280.438272 
L 351.490909 278.797269 
L 381.927273 278.461506 
L 412.363636 279.471955 
L 503.672727 276.763752 
L 534.109091 275.020286 
L 564.545455 276.596657 
L 594.981818 275.299302 
L 625.418182 279.989005 
L 716.727273 278.15569 
L 747.163636 277.979132 
" clip-path="url(#p1fec54dcd8)" style="fill: none; stroke: #8c564b; stroke-width: 1.5; stroke-linecap: round"/>
   </g>
   <g id="line2d_55">
    <path d="M 138.436364 285.012902 
L 168.872727 285.142161 
L 199.309091 284.197917 
L 321.054545 286.028086 
L 351.490909 284.900977 
L 381.927273 285.134281 
L 412.363636 285.484236 
L 503.672727 285.555174 
L 534.109091 285.860986 
L 564.545455 286.006014 
L 594.981818 282.93682 
L 625.418182 282.463909 
L 716.727273 281.344685 
L 747.163636 280.331079 
" clip-path="url(#p1fec54dcd8)" style="fill: none; stroke: #e377c2; stroke-width: 1.5; stroke-linecap: round"/>
   </g>
   <g id="line2d_56">
    <path d="M 138.436364 293.296729 
L 168.872727 293.238404 
L 199.309091 293.591509 
L 321.054545 293.969837 
L 351.490909 293.791711 
L 381.927273 294.211022 
L 412.363636 293.988758 
L 503.672727 294.554674 
L 534.109091 295.413794 
L 564.545455 296.18937 
L 594.981818 294.962954 
L 625.418182 294.428562 
L 716.727273 295.043345 
L 747.163636 294.195262 
" clip-path="url(#p1fec54dcd8)" style="fill: none; stroke: #7f7f7f; stroke-width: 1.5; stroke-linecap: round"/>
   </g>
   <g id="line2d_57">
    <path d="M 138.436364 324.808379 
L 168.872727 326.307509 
L 199.309091 326.476181 
L 321.054545 326.744163 
L 351.490909 326.748892 
L 381.927273 326.692143 
L 412.363636 327.1887 
L 503.672727 327.369982 
L 534.109091 327.612744 
L 564.545455 327.008993 
L 594.981818 326.875002 
L 625.418182 326.695296 
L 716.727273 326.54554 
L 747.163636 326.695296 
" clip-path="url(#p1fec54dcd8)" style="fill: none; stroke: #bcbd22; stroke-width: 1.5; stroke-linecap: round"/>
   </g>
   <g id="line2d_58">
    <path d="M 138.436364 320.799669 
L 168.872727 320.955731 
L 199.309091 321.014056 
L 321.054545 321.819581 
L 351.490909 322.120669 
L 381.927273 322.268845 
L 412.363636 322.53683 
L 503.672727 321.887364 
L 534.109091 321.858991 
L 564.545455 321.390808 
L 594.981818 321.468051 
L 625.418182 321.802241 
L 716.727273 321.513765 
L 747.163636 321.961454 
" clip-path="url(#p1fec54dcd8)" style="fill: none; stroke: #17becf; stroke-width: 1.5; stroke-linecap: round"/>
   </g>
   <g id="patch_3">
    <path d="M 108 345.6 
L 108 51.84 
" style="fill: none; stroke: #cccccc; stroke-linejoin: miter; stroke-linecap: square"/>
   </g>
   <g id="patch_4">
    <path d="M 777.6 345.6 
L 777.6 51.84 
" style="fill: none; stroke: #cccccc; stroke-linejoin: miter; stroke-linecap: square"/>
   </g>
   <g id="patch_5">
    <path d="M 108 345.6 
L 777.6 345.6 
" style="fill: none; stroke: #cccccc; stroke-linejoin: miter; stroke-linecap: square"/>
   </g>
   <g id="patch_6">
    <path d="M 108 51.84 
L 777.6 51.84 
" style="fill: none; stroke: #cccccc; stroke-linejoin: miter; stroke-linecap: square"/>
   </g>
   <g id="text_17">
    <!-- Precio de cierre - últimos 15 días -->
    <g style="fill: #262626" transform="translate(349.099688 45.84) scale(0.12 -0.12)">
     <defs>
      <path id="LiberationSans-Bold-50" d="M 4050 3009 
Q 4050 2584 3856 2250 
Q 3663 1916 3302 1733 
Q 2941 1550 2444 1550 
L 1350 1550 
L 1350 0 
L 428 0 
L 428 4403 
L 2406 4403 
Q 3197 4403 3623 4039 
Q 4050 3675 4050 3009 
z
M 3122 2994 
Q 3122 3688 2303 3688 
L 1350 3688 
L 1350 2259 
L 2328 2259 
Q 2709 2259 2915 2448 
Q 3122 2638 3122 2994 
z
" transform="scale(0.015625)"/>
      <path id="LiberationSans-Bold-72" d="M 447 0 
L 447 2588 
Q 447 2866 439 3052 
Q 431 3238 422 3381 
L 1259 3381 
Q 1269 3325 1284 3039 
Q 1300 2753 1300 2659 
L 1313 2659 
Q 1441 3016 1541 3161 
Q 1641 3306 1778 3376 
Q 1916 3447 2122 3447 
Q 2291 3447 2394 3400 
L 2394 2666 
Q 2181 2713 2019 2713 
Q 1691 2713 1508 2447 
Q 1325 2181 1325 1659 
L 1325 0 
L 447 0 
z
" transform="scale(0.015625)"/>
      <path id="LiberationSans-Bold-65" d="M 1831 -63 
Q 1069 -63 659 389 
Q 250 841 250 1706 
Q 250 2544 665 2994 
Q 1081 3444 1844 3444 
Q 2572 3444 2956 2961 
Q 3341 2478 3341 1547 
L 3341 1522 
L 1172 1522 
Q 1172 1028 1355 776 
Q 1538 525 1875 525 
Q 2341 525 2463 928 
L 3291 856 
Q 2931 -63 1831 -63 
z
M 1831 2891 
Q 1522 2891 1355 2675 
Q 1188 2459 1178 2072 
L 2491 2072 
Q 2466 2481 2294 2686 
Q 2122 2891 1831 2891 
z
" transform="scale(0.015625)"/>
      <path id="LiberationSans-Bold-63" d="M 1856 -63 
Q 1088 -63 669 395 
Q 250 853 250 1672 
Q 250 2509 672 2976 
Q 1094 3444 1869 3444 
Q 2466 3444 2856 3144 
Q 3247 2844 3347 2316 
L 2463 2272 
Q 2425 2531 2275 2686 
Q 2125 2841 1850 2841 
Q 1172 2841 1172 1706 
Q 1172 538 1863 538 
Q 2113 538 2281 695 
Q 2450 853 2491 1166 
L 3372 1125 
Q 3325 778 3123 506 
Q 2922 234 2594 85 
Q 2266 -63 1856 -63 
z
" transform="scale(0.015625)"/>
      <path id="LiberationSans-Bold-69" d="M 447 3991 
L 447 4638 
L 1325 4638 
L 1325 3991 
L 447 3991 
z
M 447 0 
L 447 3381 
L 1325 3381 
L 1325 0 
L 447 0 
z
" transform="scale(0.015625)"/>
      <path id="LiberationSans-Bold-6f" d="M 3659 1694 
Q 3659 872 3203 404 
Q 2747 -63 1941 -63 
Q 1150 -63 700 406 
Q 250 875 250 1694 
Q 250 2509 700 2976 
Q 1150 3444 1959 3444 
Q 2788 3444 3223 2992 
Q 3659 2541 3659 1694 
z
M 2741 1694 
Q 2741 2297 2544 2569 
Q 2347 2841 1972 2841 
Q 1172 2841 1172 1694 
Q 1172 1128 1367 833 
Q 1563 538 1931 538 
Q 2741 538 2741 1694 
z
" transform="scale(0.015625)"/>
      <path id="LiberationSans-Bold-20" transform="scale(0.015625)"/>
      <path id="LiberationSans-Bold-64" d="M 2638 0 
Q 2625 47 2608 236 
Q 2591 425 2591 550 
L 2578 550 
Q 2294 -63 1497 -63 
Q 906 -63 584 398 
Q 263 859 263 1688 
Q 263 2528 602 2986 
Q 941 3444 1563 3444 
Q 1922 3444 2183 3294 
Q 2444 3144 2584 2847 
L 2591 2847 
L 2584 3403 
L 2584 4638 
L 3463 4638 
L 3463 738 
Q 3463 425 3488 0 
L 2638 0 
z
M 2597 1709 
Q 2597 2256 2414 2551 
Q 2231 2847 1875 2847 
Q 1522 2847 1350 2561 
Q 1178 2275 1178 1688 
Q 1178 538 1869 538 
Q 2216 538 2406 842 
Q 2597 1147 2597 1709 
z
" transform="scale(0.015625)"/>
      <path id="LiberationSans-Bold-2d" d="M 250 1278 
L 250 2041 
L 1875 2041 
L 1875 1278 
L 250 1278 
z
" transform="scale(0.015625)"/>
      <path id="LiberationSans-Bold-fa" d="M 1275 3381 
L 1275 1484 
Q 1275 594 1875 594 
Q 2194 594 2389 867 
Q 2584 1141 2584 1569 
L 2584 3381 
L 3463 3381 
L 3463 756 
Q 3463 325 3488 0 
L 2650 0 
Q 2613 450 2613 672 
L 2597 672 
Q 2422 288 2151 112 
Q 1881 -63 1509 -63 
Q 972 -63 684 267 
Q 397 597 397 1234 
L 397 3381 
L 1275 3381 
z
M 1448 3697 
L 1448 3794 
L 2235 4694 
L 3042 4694 
L 3042 4559 
L 1979 3697 
L 1448 3697 
z
" transform="scale(0.015625)"/>
      <path id="LiberationSans-Bold-6c" d="M 447 0 
L 447 4638 
L 1325 4638 
L 1325 0 
L 447 0 
z
" transform="scale(0.015625)"/>
      <path id="LiberationSans-Bold-74" d="M 1313 -56 
Q 925 -56 715 155 
Q 506 366 506 794 
L 506 2788 
L 78 2788 
L 78 3381 
L 550 3381 
L 825 4175 
L 1375 4175 
L 1375 3381 
L 2016 3381 
L 2016 2788 
L 1375 2788 
L 1375 1031 
Q 1375 784 1469 667 
Q 1563 550 1759 550 
Q 1863 550 2053 594 
L 2053 50 
Q 1728 -56 1313 -56 
z
" transform="scale(0.015625)"/>
      <path id="LiberationSans-Bold-6d" d="M 2438 0 
L 2438 1897 
Q 2438 2788 1925 2788 
Q 1659 2788 1492 2516 
Q 1325 2244 1325 1813 
L 1325 0 
L 447 0 
L 447 2625 
Q 447 2897 439 3070 
Q 431 3244 422 3381 
L 1259 3381 
Q 1269 3322 1284 3064 
Q 1300 2806 1300 2709 
L 1313 2709 
Q 1475 3097 1717 3272 
Q 1959 3447 2297 3447 
Q 3072 3447 3238 2709 
L 3256 2709 
Q 3428 3103 3668 3275 
Q 3909 3447 4281 3447 
Q 4775 3447 5034 3111 
Q 5294 2775 5294 2147 
L 5294 0 
L 4422 0 
L 4422 1897 
Q 4422 2788 3909 2788 
Q 3653 2788 3489 2539 
Q 3325 2291 3309 1853 
L 3309 0 
L 2438 0 
z
" transform="scale(0.015625)"/>
      <path id="LiberationSans-Bold-73" d="M 3297 988 
Q 3297 497 2895 217 
Q 2494 -63 1784 -63 
Q 1088 -63 717 157 
Q 347 378 225 844 
L 997 959 
Q 1063 719 1223 619 
Q 1384 519 1784 519 
Q 2153 519 2322 612 
Q 2491 706 2491 906 
Q 2491 1069 2355 1164 
Q 2219 1259 1894 1325 
Q 1150 1472 890 1598 
Q 631 1725 495 1926 
Q 359 2128 359 2422 
Q 359 2906 732 3176 
Q 1106 3447 1791 3447 
Q 2394 3447 2761 3212 
Q 3128 2978 3219 2534 
L 2441 2453 
Q 2403 2659 2256 2761 
Q 2109 2863 1791 2863 
Q 1478 2863 1322 2783 
Q 1166 2703 1166 2516 
Q 1166 2369 1286 2283 
Q 1406 2197 1691 2141 
Q 2088 2059 2395 1973 
Q 2703 1888 2889 1769 
Q 3075 1650 3186 1464 
Q 3297 1278 3297 988 
z
" transform="scale(0.015625)"/>
      <path id="LiberationSans-Bold-31" d="M 403 0 
L 403 653 
L 1494 653 
L 1494 3656 
L 438 2997 
L 438 3688 
L 1541 4403 
L 2372 4403 
L 2372 653 
L 3381 653 
L 3381 0 
L 403 0 
z
" transform="scale(0.015625)"/>
      <path id="LiberationSans-Bold-35" d="M 3381 1466 
Q 3381 766 2945 351 
Q 2509 -63 1750 -63 
Q 1088 -63 689 235 
Q 291 534 197 1100 
L 1075 1172 
Q 1144 891 1319 762 
Q 1494 634 1759 634 
Q 2088 634 2283 843 
Q 2478 1053 2478 1447 
Q 2478 1794 2293 2001 
Q 2109 2209 1778 2209 
Q 1413 2209 1181 1925 
L 325 1925 
L 478 4403 
L 3125 4403 
L 3125 3750 
L 1275 3750 
L 1203 2638 
Q 1522 2919 2000 2919 
Q 2628 2919 3004 2528 
Q 3381 2138 3381 1466 
z
" transform="scale(0.015625)"/>
      <path id="LiberationSans-Bold-ed" d="M 453 0 
L 453 3381 
L 1331 3381 
L 1331 0 
L 453 0 
z
M 360 3697 
L 360 3794 
L 1147 4694 
L 1954 4694 
L 1954 4559 
L 891 3697 
L 360 3697 
z
" transform="scale(0.015625)"/>
      <path id="LiberationSans-Bold-61" d="M 1228 -63 
Q 738 -63 463 204 
Q 188 472 188 956 
Q 188 1481 530 1756 
Q 872 2031 1522 2038 
L 2250 2050 
L 2250 2222 
Q 2250 2553 2134 2714 
Q 2019 2875 1756 2875 
Q 1513 2875 1398 2764 
Q 1284 2653 1256 2397 
L 341 2441 
Q 425 2934 792 3189 
Q 1159 3444 1794 3444 
Q 2434 3444 2781 3128 
Q 3128 2813 3128 2231 
L 3128 1000 
Q 3128 716 3192 608 
Q 3256 500 3406 500 
Q 3506 500 3600 519 
L 3600 44 
Q 3522 25 3459 9 
Q 3397 -6 3334 -15 
Q 3272 -25 3201 -31 
Q 3131 -38 3038 -38 
Q 2706 -38 2548 125 
Q 2391 288 2359 603 
L 2341 603 
Q 1972 -63 1228 -63 
z
M 2250 1566 
L 1800 1559 
Q 1494 1547 1366 1492 
Q 1238 1438 1170 1325 
Q 1103 1213 1103 1025 
Q 1103 784 1214 667 
Q 1325 550 1509 550 
Q 1716 550 1886 662 
Q 2056 775 2153 973 
Q 2250 1172 2250 1394 
L 2250 1566 
z
" transform="scale(0.015625)"/>
     </defs>
     <use xlink:href="#LiberationSans-Bold-50"/>
     <use xlink:href="#LiberationSans-Bold-72" x="66.699219"/>
     <use xlink:href="#LiberationSans-Bold-65" x="105.615234"/>
     <use xlink:href="#LiberationSans-Bold-63" x="161.230469"/>
     <use xlink:href="#LiberationSans-Bold-69" x="216.845703"/>
     <use xlink:href="#LiberationSans-Bold-6f" x="244.628906"/>
     <use xlink:href="#LiberationSans-Bold-20" x="305.712891"/>
     <use xlink:href="#LiberationSans-Bold-64" x="333.496094"/>
     <use xlink:href="#LiberationSans-Bold-65" x="394.580078"/>
     <use xlink:href="#LiberationSans-Bold-20" x="450.195312"/>
     <use xlink:href="#LiberationSans-Bold-63" x="477.978516"/>
     <use xlink:href="#LiberationSans-Bold-69" x="533.59375"/>
     <use xlink:href="#LiberationSans-Bold-65" x="561.376953"/>
     <use xlink:href="#LiberationSans-Bold-72" x="616.992188"/>
     <use xlink:href="#LiberationSans-Bold-72" x="655.908203"/>
     <use xlink:href="#LiberationSans-Bold-65" x="694.824219"/>
     <use xlink:href="#LiberationSans-Bold-20" x="750.439453"/>
     <use xlink:href="#LiberationSans-Bold-2d" x="778.222656"/>
     <use xlink:href="#LiberationSans-Bold-20" x="811.523438"/>
     <use xlink:href="#LiberationSans-Bold-fa" x="839.306641"/>
     <use xlink:href="#LiberationSans-Bold-6c" x="900.390625"/>
     <use xlink:href="#LiberationSans-Bold-74" x="928.173828"/>
     <use xlink:href="#LiberationSans-Bold-69" x="961.474609"/>
     <use xlink:href="#LiberationSans-Bold-6d" x="989.257812"/>
     <use xlink:href="#LiberationSans-Bold-6f" x="1078.173828"/>
     <use xlink:href="#LiberationSans-Bold-73" x="1139.257812"/>
     <use xlink:href="#LiberationSans-Bold-20" x="1194.873047"/>
     <use xlink:href="#LiberationSans-Bold-31" x="1222.65625"/>
     <use xlink:href="#LiberationSans-Bold-35" x="1278.271484"/>
     <use xlink:href="#LiberationSans-Bold-20" x="1333.886719"/>
     <use xlink:href="#LiberationSans-Bold-64" x="1361.669922"/>
     <use xlink:href="#LiberationSans-Bold-ed" x="1422.753906"/>
     <use xlink:href="#LiberationSans-Bold-61" x="1450.537109"/>
     <use xlink:href="#LiberationSans-Bold-73" x="1506.152344"/>
    </g>
   </g>
   <g id="legend_1">
    <g id="line2d_59">
     <path style="fill: none; stroke: #1f77b4; stroke-width: 1.5; stroke-linecap: round"/>
    </g>
    <g id="text_18">
     <!-- AAPL -->
     <g style="fill: #262626" transform="translate(-586 405.910875) scale(0.1 -0.1)">
      <defs>
       <path id="LiberationSans-41" d="M 3647 0 
L 3144 1288 
L 1138 1288 
L 631 0 
L 13 0 
L 1809 4403 
L 2488 4403 
L 4256 0 
L 3647 0 
z
M 2141 3953 
L 2113 3866 
Q 2034 3606 1881 3200 
L 1319 1753 
L 2966 1753 
L 2400 3206 
Q 2313 3422 2225 3694 
L 2141 3953 
z
" transform="scale(0.015625)"/>
       <path id="LiberationSans-50" d="M 3931 3078 
Q 3931 2453 3523 2084 
Q 3116 1716 2416 1716 
L 1122 1716 
L 1122 0 
L 525 0 
L 525 4403 
L 2378 4403 
Q 3119 4403 3525 4056 
Q 3931 3709 3931 3078 
z
M 3331 3072 
Q 3331 3925 2306 3925 
L 1122 3925 
L 1122 2188 
L 2331 2188 
Q 3331 2188 3331 3072 
z
" transform="scale(0.015625)"/>
       <path id="LiberationSans-4c" d="M 525 0 
L 525 4403 
L 1122 4403 
L 1122 488 
L 3347 488 
L 3347 0 
L 525 0 
z
" transform="scale(0.015625)"/>
      </defs>
      <use xlink:href="#LiberationSans-41"/>
      <use xlink:href="#LiberationSans-41" x="66.699219"/>
      <use xlink:href="#LiberationSans-50" x="133.398438"/>
      <use xlink:href="#LiberationSans-4c" x="200.097656"/>
     </g>
    </g>
    <g id="line2d_60">
     <path style="fill: none; stroke: #ff7f0e; stroke-width: 1.5; stroke-linecap: round"/>
    </g>
    <g id="text_19">
     <!-- AMD -->
     <g style="fill: #262626" transform="translate(-512.428125 405.910875) scale(0.1 -0.1)">
      <defs>
       <path id="LiberationSans-4d" d="M 4269 0 
L 4269 2938 
Q 4269 3425 4297 3875 
Q 4144 3316 4022 3000 
L 2884 0 
L 2466 0 
L 1313 3000 
L 1138 3531 
L 1034 3875 
L 1044 3528 
L 1056 2938 
L 1056 0 
L 525 0 
L 525 4403 
L 1309 4403 
L 2481 1350 
Q 2544 1166 2601 955 
Q 2659 744 2678 650 
Q 2703 775 2783 1029 
Q 2863 1284 2891 1350 
L 4041 4403 
L 4806 4403 
L 4806 0 
L 4269 0 
z
" transform="scale(0.015625)"/>
       <path id="LiberationSans-44" d="M 4316 2247 
Q 4316 1566 4050 1055 
Q 3784 544 3296 272 
Q 2809 0 2172 0 
L 525 0 
L 525 4403 
L 1981 4403 
Q 3100 4403 3708 3842 
Q 4316 3281 4316 2247 
z
M 3716 2247 
Q 3716 3066 3267 3495 
Q 2819 3925 1969 3925 
L 1122 3925 
L 1122 478 
L 2103 478 
Q 2588 478 2955 690 
Q 3322 903 3519 1303 
Q 3716 1703 3716 2247 
z
" transform="scale(0.015625)"/>
      </defs>
      <use xlink:href="#LiberationSans-41"/>
      <use xlink:href="#LiberationSans-4d" x="66.699219"/>
      <use xlink:href="#LiberationSans-44" x="150"/>
     </g>
    </g>
    <g id="line2d_61">
     <path style="fill: none; stroke: #2ca02c; stroke-width: 1.5; stroke-linecap: round"/>
    </g>
    <g id="text_20">
     <!-- AMZN -->
     <g style="fill: #262626" transform="translate(-442.20625 405.910875) scale(0.1 -0.1)">
      <defs>
       <path id="LiberationSans-5a" d="M 3709 0 
L 203 0 
L 203 447 
L 2884 3916 
L 431 3916 
L 431 4403 
L 3563 4403 
L 3563 3969 
L 881 488 
L 3709 488 
L 3709 0 
z
" transform="scale(0.015625)"/>
       <path id="LiberationSans-4e" d="M 3381 0 
L 1025 3750 
L 1041 3447 
L 1056 2925 
L 1056 0 
L 525 0 
L 525 4403 
L 1219 4403 
L 3600 628 
Q 3563 1241 3563 1516 
L 3563 4403 
L 4100 4403 
L 4100 0 
L 3381 0 
z
" transform="scale(0.015625)"/>
      </defs>
      <use xlink:href="#LiberationSans-41"/>
      <use xlink:href="#LiberationSans-4d" x="66.699219"/>
      <use xlink:href="#LiberationSans-5a" x="150"/>
      <use xlink:href="#LiberationSans-4e" x="211.083984"/>
     </g>
    </g>
    <g id="line2d_62">
     <path style="fill: none; stroke: #d62728; stroke-width: 1.5; stroke-linecap: round"/>
    </g>
    <g id="text_21">
     <!-- ASML -->
     <g style="fill: #262626" transform="translate(-365.876562 405.910875) scale(0.1 -0.1)">
      <defs>
       <path id="LiberationSans-53" d="M 3975 1216 
Q 3975 606 3498 271 
Q 3022 -63 2156 -63 
Q 547 -63 291 1056 
L 869 1172 
Q 969 775 1294 589 
Q 1619 403 2178 403 
Q 2756 403 3070 601 
Q 3384 800 3384 1184 
Q 3384 1400 3286 1534 
Q 3188 1669 3009 1756 
Q 2831 1844 2584 1903 
Q 2338 1963 2038 2031 
Q 1516 2147 1245 2262 
Q 975 2378 819 2520 
Q 663 2663 580 2853 
Q 497 3044 497 3291 
Q 497 3856 930 4162 
Q 1363 4469 2169 4469 
Q 2919 4469 3316 4239 
Q 3713 4009 3872 3456 
L 3284 3353 
Q 3188 3703 2916 3861 
Q 2644 4019 2163 4019 
Q 1634 4019 1356 3844 
Q 1078 3669 1078 3322 
Q 1078 3119 1186 2986 
Q 1294 2853 1497 2761 
Q 1700 2669 2306 2534 
Q 2509 2488 2711 2439 
Q 2913 2391 3097 2323 
Q 3281 2256 3442 2165 
Q 3603 2075 3722 1944 
Q 3841 1813 3908 1634 
Q 3975 1456 3975 1216 
z
" transform="scale(0.015625)"/>
      </defs>
      <use xlink:href="#LiberationSans-41"/>
      <use xlink:href="#LiberationSans-53" x="66.699219"/>
      <use xlink:href="#LiberationSans-4d" x="133.398438"/>
      <use xlink:href="#LiberationSans-4c" x="216.699219"/>
     </g>
    </g>
    <g id="line2d_63">
     <path style="fill: none; stroke: #9467bd; stroke-width: 1.5; stroke-linecap: round"/>
    </g>
    <g id="text_22">
     <!-- AVGO -->
     <g style="fill: #262626" transform="translate(-290.645312 405.910875) scale(0.1 -0.1)">
      <defs>
       <path id="LiberationSans-56" d="M 2444 0 
L 1825 0 
L 28 4403 
L 656 4403 
L 1875 1303 
L 2138 525 
L 2400 1303 
L 3613 4403 
L 4241 4403 
L 2444 0 
z
" transform="scale(0.015625)"/>
       <path id="LiberationSans-47" d="M 322 2222 
Q 322 3294 897 3881 
Q 1472 4469 2513 4469 
Q 3244 4469 3700 4222 
Q 4156 3975 4403 3431 
L 3834 3263 
Q 3647 3638 3317 3809 
Q 2988 3981 2497 3981 
Q 1734 3981 1331 3520 
Q 928 3059 928 2222 
Q 928 1388 1356 905 
Q 1784 422 2541 422 
Q 2972 422 3345 553 
Q 3719 684 3950 909 
L 3950 1703 
L 2634 1703 
L 2634 2203 
L 4500 2203 
L 4500 684 
Q 4150 328 3642 132 
Q 3134 -63 2541 -63 
Q 1850 -63 1350 212 
Q 850 488 586 1005 
Q 322 1522 322 2222 
z
" transform="scale(0.015625)"/>
       <path id="LiberationSans-4f" d="M 4672 2222 
Q 4672 1531 4408 1012 
Q 4144 494 3650 215 
Q 3156 -63 2484 -63 
Q 1806 -63 1314 212 
Q 822 488 562 1008 
Q 303 1528 303 2222 
Q 303 3278 881 3873 
Q 1459 4469 2491 4469 
Q 3163 4469 3656 4201 
Q 4150 3934 4411 3425 
Q 4672 2916 4672 2222 
z
M 4063 2222 
Q 4063 3044 3652 3512 
Q 3241 3981 2491 3981 
Q 1734 3981 1321 3518 
Q 909 3056 909 2222 
Q 909 1394 1326 908 
Q 1744 422 2484 422 
Q 3247 422 3655 892 
Q 4063 1363 4063 2222 
z
" transform="scale(0.015625)"/>
      </defs>
      <use xlink:href="#LiberationSans-41"/>
      <use xlink:href="#LiberationSans-56" x="59.324219"/>
      <use xlink:href="#LiberationSans-47" x="126.023438"/>
      <use xlink:href="#LiberationSans-4f" x="203.806641"/>
     </g>
    </g>
    <g id="line2d_64">
     <path style="fill: none; stroke: #8c564b; stroke-width: 1.5; stroke-linecap: round"/>
    </g>
    <g id="text_23">
     <!-- BRK-B -->
     <g style="fill: #262626" transform="translate(-214.485937 405.910875) scale(0.1 -0.1)">
      <defs>
       <path id="LiberationSans-42" d="M 3931 1241 
Q 3931 653 3503 326 
Q 3075 0 2313 0 
L 525 0 
L 525 4403 
L 2125 4403 
Q 3675 4403 3675 3334 
Q 3675 2944 3456 2678 
Q 3238 2413 2838 2322 
Q 3363 2259 3647 1970 
Q 3931 1681 3931 1241 
z
M 3075 3263 
Q 3075 3619 2831 3772 
Q 2588 3925 2125 3925 
L 1122 3925 
L 1122 2531 
L 2125 2531 
Q 2603 2531 2839 2711 
Q 3075 2891 3075 3263 
z
M 3328 1288 
Q 3328 2066 2234 2066 
L 1122 2066 
L 1122 478 
L 2281 478 
Q 2828 478 3078 681 
Q 3328 884 3328 1288 
z
" transform="scale(0.015625)"/>
       <path id="LiberationSans-52" d="M 3638 0 
L 2494 1828 
L 1122 1828 
L 1122 0 
L 525 0 
L 525 4403 
L 2597 4403 
Q 3341 4403 3745 4070 
Q 4150 3738 4150 3144 
Q 4150 2653 3864 2318 
Q 3578 1984 3075 1897 
L 4325 0 
L 3638 0 
z
M 3550 3138 
Q 3550 3522 3289 3723 
Q 3028 3925 2538 3925 
L 1122 3925 
L 1122 2300 
L 2563 2300 
Q 3034 2300 3292 2520 
Q 3550 2741 3550 3138 
z
" transform="scale(0.015625)"/>
       <path id="LiberationSans-4b" d="M 3456 0 
L 1697 2125 
L 1122 1688 
L 1122 0 
L 525 0 
L 525 4403 
L 1122 4403 
L 1122 2197 
L 3244 4403 
L 3947 4403 
L 2072 2491 
L 4197 0 
L 3456 0 
z
" transform="scale(0.015625)"/>
      </defs>
      <use xlink:href="#LiberationSans-42"/>
      <use xlink:href="#LiberationSans-52" x="66.699219"/>
      <use xlink:href="#LiberationSans-4b" x="138.916016"/>
      <use xlink:href="#LiberationSans-2d" x="205.615234"/>
      <use xlink:href="#LiberationSans-42" x="238.916016"/>
     </g>
    </g>
    <g id="line2d_65">
     <path style="fill: none; stroke: #e377c2; stroke-width: 1.5; stroke-linecap: round"/>
    </g>
    <g id="text_24">
     <!-- CAT -->
     <g style="fill: #262626" transform="translate(-135.923437 405.910875) scale(0.1 -0.1)">
      <defs>
       <path id="LiberationSans-54" d="M 2250 3916 
L 2250 0 
L 1656 0 
L 1656 3916 
L 144 3916 
L 144 4403 
L 3763 4403 
L 3763 3916 
L 2250 3916 
z
" transform="scale(0.015625)"/>
      </defs>
      <use xlink:href="#LiberationSans-43"/>
      <use xlink:href="#LiberationSans-41" x="72.216797"/>
      <use xlink:href="#LiberationSans-54" x="131.541016"/>
     </g>
    </g>
    <g id="line2d_66">
     <path style="fill: none; stroke: #7f7f7f; stroke-width: 1.5; stroke-linecap: round"/>
    </g>
    <g id="text_25">
     <!-- COST -->
     <g style="fill: #262626" transform="translate(-68.660937 405.910875) scale(0.1 -0.1)">
      <use xlink:href="#LiberationSans-43"/>
      <use xlink:href="#LiberationSans-4f" x="72.216797"/>
      <use xlink:href="#LiberationSans-53" x="150"/>
      <use xlink:href="#LiberationSans-54" x="216.699219"/>
     </g>
    </g>
    <g id="line2d_67">
     <path d="M -1 402.410875 
L -0.882812 402.410875 
" style="fill: none; stroke: #bcbd22; stroke-width: 1.5; stroke-linecap: round"/>
    </g>
    <g id="text_26">
     <!-- CRM -->
     <g style="fill: #262626" transform="translate(7.117188 405.910875) scale(0.1 -0.1)">
      <use xlink:href="#LiberationSans-43"/>
      <use xlink:href="#LiberationSans-52" x="72.216797"/>
      <use xlink:href="#LiberationSans-4d" x="144.433594"/>
     </g>
    </g>
    <g id="line2d_68">
     <path d="M 49.890625 402.410875 
L 59.890625 402.410875 
L 69.890625 402.410875 
" style="fill: none; stroke: #17becf; stroke-width: 1.5; stroke-linecap: round"/>
    </g>
    <g id="text_27">
     <!-- GOOGL -->
     <g style="fill: #262626" transform="translate(77.890625 405.910875) scale(0.1 -0.1)">
      <use xlink:href="#LiberationSans-47"/>
      <use xlink:href="#LiberationSans-4f" x="77.783203"/>
      <use xlink:href="#LiberationSans-4f" x="155.566406"/>
      <use xlink:href="#LiberationSans-47" x="233.349609"/>
      <use xlink:href="#LiberationSans-4c" x="311.132812"/>
     </g>
    </g>
    <g id="line2d_69">
     <path d="M 134.564063 402.410875 
L 144.564063 402.410875 
L 154.564063 402.410875 
" style="fill: none; stroke: #1f77b4; stroke-width: 1.5; stroke-linecap: round"/>
    </g>
    <g id="text_28">
     <!-- JNJ -->
     <g style="fill: #262626" transform="translate(162.564063 405.910875) scale(0.1 -0.1)">
      <defs>
       <path id="LiberationSans-4a" d="M 1428 -63 
Q 309 -63 100 1094 
L 684 1191 
Q 741 828 937 625 
Q 1134 422 1431 422 
Q 1756 422 1943 645 
Q 2131 869 2131 1300 
L 2131 3916 
L 1284 3916 
L 1284 4403 
L 2725 4403 
L 2725 1313 
Q 2725 672 2378 304 
Q 2031 -63 1428 -63 
z
" transform="scale(0.015625)"/>
      </defs>
      <use xlink:href="#LiberationSans-4a"/>
      <use xlink:href="#LiberationSans-4e" x="50"/>
      <use xlink:href="#LiberationSans-4a" x="122.216797"/>
     </g>
    </g>
    <g id="line2d_70">
     <path d="M 199.785938 402.410875 
L 209.785938 402.410875 
L 219.785938 402.410875 
" style="fill: none; stroke: #ff7f0e; stroke-width: 1.5; stroke-linecap: round"/>
    </g>
    <g id="text_29">
     <!-- JPM -->
     <g style="fill: #262626" transform="translate(227.785938 405.910875) scale(0.1 -0.1)">
      <use xlink:href="#LiberationSans-4a"/>
      <use xlink:href="#LiberationSans-50" x="50"/>
      <use xlink:href="#LiberationSans-4d" x="116.699219"/>
     </g>
    </g>
    <g id="line2d_71">
     <path d="M 267.785938 402.410875 
L 277.785938 402.410875 
L 287.785938 402.410875 
" style="fill: none; stroke: #2ca02c; stroke-width: 1.5; stroke-linecap: round"/>
    </g>
    <g id="text_30">
     <!-- LLY -->
     <g style="fill: #262626" transform="translate(295.785938 405.910875) scale(0.1 -0.1)">
      <defs>
       <path id="LiberationSans-59" d="M 2428 1825 
L 2428 0 
L 1834 0 
L 1834 1825 
L 141 4403 
L 797 4403 
L 2138 2306 
L 3472 4403 
L 4128 4403 
L 2428 1825 
z
" transform="scale(0.015625)"/>
      </defs>
      <use xlink:href="#LiberationSans-4c"/>
      <use xlink:href="#LiberationSans-4c" x="55.615234"/>
      <use xlink:href="#LiberationSans-59" x="103.855469"/>
     </g>
    </g>
    <g id="line2d_72">
     <path d="M 332.840625 402.410875 
L 342.840625 402.410875 
L 352.840625 402.410875 
" style="fill: none; stroke: #d62728; stroke-width: 1.5; stroke-linecap: round"/>
    </g>
    <g id="text_31">
     <!-- LMT -->
     <g style="fill: #262626" transform="translate(360.840625 405.910875) scale(0.1 -0.1)">
      <use xlink:href="#LiberationSans-4c"/>
      <use xlink:href="#LiberationSans-4d" x="55.615234"/>
      <use xlink:href="#LiberationSans-54" x="138.916016"/>
     </g>
    </g>
    <g id="line2d_73">
     <path d="M 400.839063 402.410875 
L 410.839063 402.410875 
L 420.839063 402.410875 
" style="fill: none; stroke: #9467bd; stroke-width: 1.5; stroke-linecap: round"/>
    </g>
    <g id="text_32">
     <!-- MA -->
     <g style="fill: #262626" transform="translate(428.839063 405.910875) scale(0.1 -0.1)">
      <use xlink:href="#LiberationSans-4d"/>
      <use xlink:href="#LiberationSans-41" x="83.300781"/>
     </g>
    </g>
    <g id="line2d_74">
     <path d="M 463.839063 402.410875 
L 473.839063 402.410875 
L 483.839063 402.410875 
" style="fill: none; stroke: #8c564b; stroke-width: 1.5; stroke-linecap: round"/>
    </g>
    <g id="text_33">
     <!-- MCD -->
     <g style="fill: #262626" transform="translate(491.839063 405.910875) scale(0.1 -0.1)">
      <use xlink:href="#LiberationSans-4d"/>
      <use xlink:href="#LiberationSans-43" x="83.300781"/>
      <use xlink:href="#LiberationSans-44" x="155.517578"/>
     </g>
    </g>
    <g id="line2d_75">
     <path d="M 534.6125 402.410875 
L 544.6125 402.410875 
L 554.6125 402.410875 
" style="fill: none; stroke: #e377c2; stroke-width: 1.5; stroke-linecap: round"/>
    </g>
    <g id="text_34">
     <!-- META -->
     <g style="fill: #262626" transform="translate(562.6125 405.910875) scale(0.1 -0.1)">
      <defs>
       <path id="LiberationSans-45" d="M 525 0 
L 525 4403 
L 3866 4403 
L 3866 3916 
L 1122 3916 
L 1122 2503 
L 3678 2503 
L 3678 2022 
L 1122 2022 
L 1122 488 
L 3994 488 
L 3994 0 
L 525 0 
z
" transform="scale(0.015625)"/>
      </defs>
      <use xlink:href="#LiberationSans-4d"/>
      <use xlink:href="#LiberationSans-45" x="83.300781"/>
      <use xlink:href="#LiberationSans-54" x="150"/>
      <use xlink:href="#LiberationSans-41" x="203.708984"/>
     </g>
    </g>
    <g id="line2d_76">
     <path d="M 609.653125 402.410875 
L 619.653125 402.410875 
L 629.653125 402.410875 
" style="fill: none; stroke: #7f7f7f; stroke-width: 1.5; stroke-linecap: round"/>
    </g>
    <g id="text_35">
     <!-- MRK -->
     <g style="fill: #262626" transform="translate(637.653125 405.910875) scale(0.1 -0.1)">
      <use xlink:href="#LiberationSans-4d"/>
      <use xlink:href="#LiberationSans-52" x="83.300781"/>
      <use xlink:href="#LiberationSans-4b" x="155.517578"/>
     </g>
    </g>
    <g id="line2d_77">
     <path d="M 679.875 402.410875 
L 689.875 402.410875 
L 699.875 402.410875 
" style="fill: none; stroke: #bcbd22; stroke-width: 1.5; stroke-linecap: round"/>
    </g>
    <g id="text_36">
     <!-- MSFT -->
     <g style="fill: #262626" transform="translate(707.875 405.910875) scale(0.1 -0.1)">
      <use xlink:href="#LiberationSans-4d"/>
      <use xlink:href="#LiberationSans-53" x="83.300781"/>
      <use xlink:href="#LiberationSans-46" x="150"/>
      <use xlink:href="#LiberationSans-54" x="211.083984"/>
     </g>
    </g>
    <g id="line2d_78">
     <path d="M 755.090625 402.410875 
L 765.090625 402.410875 
L 775.090625 402.410875 
" style="fill: none; stroke: #17becf; stroke-width: 1.5; stroke-linecap: round"/>
    </g>
    <g id="text_37">
     <!-- NEE -->
     <g style="fill: #262626" transform="translate(783.090625 405.910875) scale(0.1 -0.1)">
      <use xlink:href="#LiberationSans-4e"/>
      <use xlink:href="#LiberationSans-45" x="72.216797"/>
      <use xlink:href="#LiberationSans-45" x="138.916016"/>
     </g>
    </g>
    <g id="line2d_79">
     <path d="M 823.653125 402.410875 
L 833.653125 402.410875 
L 843.653125 402.410875 
" style="fill: none; stroke: #1f77b4; stroke-width: 1.5; stroke-linecap: round"/>
    </g>
    <g id="text_38">
     <!-- NVDA -->
     <g style="fill: #262626" transform="translate(851.653125 405.910875) scale(0.1 -0.1)">
      <use xlink:href="#LiberationSans-4e"/>
      <use xlink:href="#LiberationSans-56" x="72.216797"/>
      <use xlink:href="#LiberationSans-44" x="138.916016"/>
      <use xlink:href="#LiberationSans-41" x="211.132812"/>
     </g>
    </g>
    <g id="line2d_80">
     <path style="fill: none; stroke: #ff7f0e; stroke-width: 1.5; stroke-linecap: round"/>
    </g>
    <g id="text_39">
     <!-- ORCL -->
     <g style="fill: #262626" transform="translate(927.4375 405.910875) scale(0.1 -0.1)">
      <use xlink:href="#LiberationSans-4f"/>
      <use xlink:href="#LiberationSans-52" x="77.783203"/>
      <use xlink:href="#LiberationSans-43" x="150"/>
      <use xlink:href="#LiberationSans-4c" x="222.216797"/>
     </g>
    </g>
    <g id="line2d_81">
     <path style="fill: none; stroke: #2ca02c; stroke-width: 1.5; stroke-linecap: round"/>
    </g>
    <g id="text_40">
     <!-- PG -->
     <g style="fill: #262626" transform="translate(1003.220313 405.910875) scale(0.1 -0.1)">
      <use xlink:href="#LiberationSans-50"/>
      <use xlink:href="#LiberationSans-47" x="66.699219"/>
     </g>
    </g>
    <g id="line2d_82">
     <path style="fill: none; stroke: #d62728; stroke-width: 1.5; stroke-linecap: round"/>
    </g>
    <g id="text_41">
     <!-- PLTR -->
     <g style="fill: #262626" transform="translate(1065.66875 405.910875) scale(0.1 -0.1)">
      <use xlink:href="#LiberationSans-50"/>
      <use xlink:href="#LiberationSans-4c" x="66.699219"/>
      <use xlink:href="#LiberationSans-54" x="114.939453"/>
      <use xlink:href="#LiberationSans-52" x="176.023438"/>
     </g>
    </g>
    <g id="line2d_83">
     <path style="fill: none; stroke: #9467bd; stroke-width: 1.5; stroke-linecap: round"/>
    </g>
    <g id="text_42">
     <!-- TSLA -->
     <g style="fill: #262626" transform="translate(1138.492188 405.910875) scale(0.1 -0.1)">
      <use xlink:href="#LiberationSans-54"/>
      <use xlink:href="#LiberationSans-53" x="61.083984"/>
      <use xlink:href="#LiberationSans-4c" x="127.783203"/>
      <use xlink:href="#LiberationSans-41" x="183.398438"/>
     </g>
    </g>
    <g id="line2d_84">
     <path style="fill: none; stroke: #8c564b; stroke-width: 1.5; stroke-linecap: round"/>
    </g>
    <g id="text_43">
     <!-- TSM -->
     <g style="fill: #262626" transform="translate(1211.501563 405.910875) scale(0.1 -0.1)">
      <use xlink:href="#LiberationSans-54"/>
      <use xlink:href="#LiberationSans-53" x="61.083984"/>
      <use xlink:href="#LiberationSans-4d" x="127.783203"/>
     </g>
    </g>
    <g id="line2d_85">
     <path style="fill: none; stroke: #e377c2; stroke-width: 1.5; stroke-linecap: round"/>
    </g>
    <g id="text_44">
     <!-- UNH -->
     <g style="fill: #262626" transform="translate(1280.609375 405.910875) scale(0.1 -0.1)">
      <defs>
       <path id="LiberationSans-55" d="M 2284 -63 
Q 1744 -63 1341 134 
Q 938 331 716 706 
Q 494 1081 494 1600 
L 494 4403 
L 1091 4403 
L 1091 1650 
Q 1091 1047 1397 734 
Q 1703 422 2281 422 
Q 2875 422 3204 745 
Q 3534 1069 3534 1691 
L 3534 4403 
L 4128 4403 
L 4128 1656 
Q 4128 1122 3901 734 
Q 3675 347 3261 142 
Q 2847 -63 2284 -63 
z
" transform="scale(0.015625)"/>
       <path id="LiberationSans-48" d="M 3503 0 
L 3503 2041 
L 1122 2041 
L 1122 0 
L 525 0 
L 525 4403 
L 1122 4403 
L 1122 2541 
L 3503 2541 
L 3503 4403 
L 4100 4403 
L 4100 0 
L 3503 0 
z
" transform="scale(0.015625)"/>
      </defs>
      <use xlink:href="#LiberationSans-55"/>
      <use xlink:href="#LiberationSans-4e" x="72.216797"/>
      <use xlink:href="#LiberationSans-48" x="144.433594"/>
     </g>
    </g>
    <g id="line2d_86">
     <path style="fill: none; stroke: #7f7f7f; stroke-width: 1.5; stroke-linecap: round"/>
    </g>
    <g id="text_45">
     <!-- V -->
     <g style="fill: #262626" transform="translate(1350.275 405.910875) scale(0.1 -0.1)">
      <use xlink:href="#LiberationSans-56"/>
     </g>
    </g>
    <g id="line2d_87">
     <path style="fill: none; stroke: #bcbd22; stroke-width: 1.5; stroke-linecap: round"/>
    </g>
    <g id="text_46">
     <!-- WMT -->
     <g style="fill: #262626" transform="translate(1404.945313 405.910875) scale(0.1 -0.1)">
      <defs>
       <path id="LiberationSans-57" d="M 4722 0 
L 4009 0 
L 3247 2797 
Q 3172 3059 3028 3738 
Q 2947 3375 2890 3131 
Q 2834 2888 2038 0 
L 1325 0 
L 28 4403 
L 650 4403 
L 1441 1606 
Q 1581 1081 1700 525 
Q 1775 869 1873 1275 
Q 1972 1681 2741 4403 
L 3313 4403 
L 4078 1663 
Q 4253 991 4353 525 
L 4381 634 
Q 4466 994 4519 1220 
Q 4572 1447 5397 4403 
L 6019 4403 
L 4722 0 
z
" transform="scale(0.015625)"/>
      </defs>
      <use xlink:href="#LiberationSans-57"/>
      <use xlink:href="#LiberationSans-4d" x="94.384766"/>
      <use xlink:href="#LiberationSans-54" x="177.685547"/>
     </g>
    </g>
    <g id="line2d_88">
     <path style="fill: none; stroke: #17becf; stroke-width: 1.5; stroke-linecap: round"/>
    </g>
    <g id="text_47">
     <!-- XOM -->
     <g style="fill: #262626" transform="translate(1476.821875 405.910875) scale(0.1 -0.1)">
      <defs>
       <path id="LiberationSans-58" d="M 3475 0 
L 2153 1925 
L 803 0 
L 144 0 
L 1819 2288 
L 272 4403 
L 931 4403 
L 2156 2675 
L 3347 4403 
L 4006 4403 
L 2500 2309 
L 4134 0 
L 3475 0 
z
" transform="scale(0.015625)"/>
      </defs>
      <use xlink:href="#LiberationSans-58"/>
      <use xlink:href="#LiberationSans-4f" x="66.699219"/>
      <use xlink:href="#LiberationSans-4d" x="144.482422"/>
     </g>
    </g>
   </g>
  </g>
 </g>
 <defs>
  <clipPath id="p1fec54dcd8">
   <rect x="108" y="51.84" width="669.6" height="293.76"/>
  </clipPath>
 </defs>
</svg>
