<?xml version="1.0" encoding="utf-8" standalone="no"?>
<!DOCTYPE svg PUBLIC "-//W3C//DTD SVG 1.1//EN"
  "http://www.w3.org/Graphics/SVG/1.1/DTD/svg11.dtd">
<svg xmlns:xlink="http://www.w3.org/1999/xlink" width="864pt" height="432pt" viewBox="0 0 864 432" xmlns="http://www.w3.org/2000/svg" version="1.1">
 <metadata>
  <rdf:RDF xmlns:dc="http://purl.org/dc/elements/1.1/" xmlns:cc="http://creativecommons.org/ns#" xmlns:rdf="http://www.w3.org/1999/02/22-rdf-syntax-ns#">
   <cc:Work>
    <dc:type rdf:resource="http://purl.org/dc/dcmitype/StillImage"/>
    <dc:date>2026-04-09T05:11:24.471207</dc:date>
    <dc:format>image/svg+xml</dc:format>
    <dc:creator>
     <cc:Agent>
      <dc:title>Matplotlib v3.8.4, https://matplotlib.org/</dc:title>
     </cc:Agent>
    </dc:creator>
   </cc:Work>
  </rdf:RDF>
 </metadata>
 <defs>
  <style type="text/css">*{stroke-linejoin: round; stroke-linecap: butt}</style>
 </defs>
 <g id="figure_1">
  <g id="patch_1">
   <path d="M 0 432 
L 864 432 
L 864 0 
L 0 0 
z
" style="fill: #ffffff"/>
  </g>
  <g id="axes_1">
   <g id="patch_2">
    <path d="M 108 345.6 
L 777.6 345.6 
L 777.6 51.84 
L 108 51.84 
z
" style="fill: #ffffff"/>
   </g>
   <g id="matplotlib.axis_1">
    <g id="xtick_1">
     <g id="line2d_1">
      <path d="M 108 345.6 
L 108 51.84 
" clip-path="url(#pf233d084f2)" style="fill: none; stroke-dasharray: 2.96,1.28; stroke-dashoffset: 0; stroke: #cccccc; stroke-opacity: 0.6; stroke-width: 0.8"/>
     </g>
     <g id="line2d_2"/>
     <g id="text_1">
      <!-- 2026-03-17 -->
      <g style="fill: #262626" transform="translate(62.668007 380.949415) rotate(-30) scale(0.1 -0.1)">
       <defs>
        <path id="LiberationSans-32" d="M 322 0 
L 322 397 
Q 481 763 711 1042 
Q 941 1322 1194 1548 
Q 1447 1775 1695 1969 
Q 1944 2163 2144 2356 
Q 2344 2550 2467 2762 
Q 2591 2975 2591 3244 
Q 2591 3606 2378 3806 
Q 2166 4006 1788 4006 
Q 1428 4006 1195 3811 
Q 963 3616 922 3263 
L 347 3316 
Q 409 3844 795 4156 
Q 1181 4469 1788 4469 
Q 2453 4469 2811 4155 
Q 3169 3841 3169 3263 
Q 3169 3006 3051 2753 
Q 2934 2500 2703 2247 
Q 2472 1994 1819 1463 
Q 1459 1169 1246 933 
Q 1034 697 941 478 
L 3238 478 
L 3238 0 
L 322 0 
z
" transform="scale(0.015625)"/>
        <path id="LiberationSans-30" d="M 3309 2203 
Q 3309 1100 2920 518 
Q 2531 -63 1772 -63 
Q 1013 -63 631 515 
Q 250 1094 250 2203 
Q 250 3338 620 3903 
Q 991 4469 1791 4469 
Q 2569 4469 2939 3897 
Q 3309 3325 3309 2203 
z
M 2738 2203 
Q 2738 3156 2517 3584 
Q 2297 4013 1791 4013 
Q 1272 4013 1045 3591 
Q 819 3169 819 2203 
Q 819 1266 1048 831 
Q 1278 397 1778 397 
Q 2275 397 2506 840 
Q 2738 1284 2738 2203 
z
" transform="scale(0.015625)"/>
        <path id="LiberationSans-36" d="M 3278 1441 
Q 3278 744 2900 340 
Q 2522 -63 1856 -63 
Q 1113 -63 719 490 
Q 325 1044 325 2100 
Q 325 3244 734 3856 
Q 1144 4469 1900 4469 
Q 2897 4469 3156 3572 
L 2619 3475 
Q 2453 4013 1894 4013 
Q 1413 4013 1148 3564 
Q 884 3116 884 2266 
Q 1038 2550 1316 2698 
Q 1594 2847 1953 2847 
Q 2563 2847 2920 2465 
Q 3278 2084 3278 1441 
z
M 2706 1416 
Q 2706 1894 2472 2153 
Q 2238 2413 1819 2413 
Q 1425 2413 1183 2183 
Q 941 1953 941 1550 
Q 941 1041 1192 716 
Q 1444 391 1838 391 
Q 2244 391 2475 664 
Q 2706 938 2706 1416 
z
" transform="scale(0.015625)"/>
        <path id="LiberationSans-2d" d="M 284 1450 
L 284 1950 
L 1847 1950 
L 1847 1450 
L 284 1450 
z
" transform="scale(0.015625)"/>
        <path id="LiberationSans-33" d="M 3278 1216 
Q 3278 606 2890 271 
Q 2503 -63 1784 -63 
Q 1116 -63 717 239 
Q 319 541 244 1131 
L 825 1184 
Q 938 403 1784 403 
Q 2209 403 2451 612 
Q 2694 822 2694 1234 
Q 2694 1594 2417 1795 
Q 2141 1997 1619 1997 
L 1300 1997 
L 1300 2484 
L 1606 2484 
Q 2069 2484 2323 2686 
Q 2578 2888 2578 3244 
Q 2578 3597 2370 3801 
Q 2163 4006 1753 4006 
Q 1381 4006 1151 3815 
Q 922 3625 884 3278 
L 319 3322 
Q 381 3863 767 4166 
Q 1153 4469 1759 4469 
Q 2422 4469 2789 4161 
Q 3156 3853 3156 3303 
Q 3156 2881 2920 2617 
Q 2684 2353 2234 2259 
L 2234 2247 
Q 2728 2194 3003 1916 
Q 3278 1638 3278 1216 
z
" transform="scale(0.015625)"/>
        <path id="LiberationSans-31" d="M 488 0 
L 488 478 
L 1609 478 
L 1609 3866 
L 616 3156 
L 616 3688 
L 1656 4403 
L 2175 4403 
L 2175 478 
L 3247 478 
L 3247 0 
L 488 0 
z
" transform="scale(0.015625)"/>
        <path id="LiberationSans-37" d="M 3238 3947 
Q 2563 2916 2284 2331 
Q 2006 1747 1867 1178 
Q 1728 609 1728 0 
L 1141 0 
Q 1141 844 1498 1776 
Q 1856 2709 2694 3925 
L 328 3925 
L 328 4403 
L 3238 4403 
L 3238 3947 
z
" transform="scale(0.015625)"/>
       </defs>
       <use xlink:href="#LiberationSans-32"/>
       <use xlink:href="#LiberationSans-30" x="55.615234"/>
       <use xlink:href="#LiberationSans-32" x="111.230469"/>
       <use xlink:href="#LiberationSans-36" x="166.845703"/>
       <use xlink:href="#LiberationSans-2d" x="222.460938"/>
       <use xlink:href="#LiberationSans-30" x="255.761719"/>
       <use xlink:href="#LiberationSans-33" x="311.376953"/>
       <use xlink:href="#LiberationSans-2d" x="366.992188"/>
       <use xlink:href="#LiberationSans-31" x="400.292969"/>
       <use xlink:href="#LiberationSans-37" x="455.908203"/>
      </g>
     </g>
    </g>
    <g id="xtick_2">
     <g id="line2d_3">
      <path d="M 229.745455 345.6 
L 229.745455 51.84 
" clip-path="url(#pf233d084f2)" style="fill: none; stroke-dasharray: 2.96,1.28; stroke-dashoffset: 0; stroke: #cccccc; stroke-opacity: 0.6; stroke-width: 0.8"/>
     </g>
     <g id="line2d_4"/>
     <g id="text_2">
      <!-- 2026-03-21 -->
      <g style="fill: #262626" transform="translate(184.413461 380.949415) rotate(-30) scale(0.1 -0.1)">
       <use xlink:href="#LiberationSans-32"/>
       <use xlink:href="#LiberationSans-30" x="55.615234"/>
       <use xlink:href="#LiberationSans-32" x="111.230469"/>
       <use xlink:href="#LiberationSans-36" x="166.845703"/>
       <use xlink:href="#LiberationSans-2d" x="222.460938"/>
       <use xlink:href="#LiberationSans-30" x="255.761719"/>
       <use xlink:href="#LiberationSans-33" x="311.376953"/>
       <use xlink:href="#LiberationSans-2d" x="366.992188"/>
       <use xlink:href="#LiberationSans-32" x="400.292969"/>
       <use xlink:href="#LiberationSans-31" x="455.908203"/>
      </g>
     </g>
    </g>
    <g id="xtick_3">
     <g id="line2d_5">
      <path d="M 351.490909 345.6 
L 351.490909 51.84 
" clip-path="url(#pf233d084f2)" style="fill: none; stroke-dasharray: 2.96,1.28; stroke-dashoffset: 0; stroke: #cccccc; stroke-opacity: 0.6; stroke-width: 0.8"/>
     </g>
     <g id="line2d_6"/>
     <g id="text_3">
      <!-- 2026-03-25 -->
      <g style="fill: #262626" transform="translate(306.158916 380.949415) rotate(-30) scale(0.1 -0.1)">
       <defs>
        <path id="LiberationSans-35" d="M 3291 1434 
Q 3291 738 2877 337 
Q 2463 -63 1728 -63 
Q 1113 -63 734 206 
Q 356 475 256 984 
L 825 1050 
Q 1003 397 1741 397 
Q 2194 397 2450 670 
Q 2706 944 2706 1422 
Q 2706 1838 2448 2094 
Q 2191 2350 1753 2350 
Q 1525 2350 1328 2278 
Q 1131 2206 934 2034 
L 384 2034 
L 531 4403 
L 3034 4403 
L 3034 3925 
L 1044 3925 
L 959 2528 
Q 1325 2809 1869 2809 
Q 2519 2809 2905 2428 
Q 3291 2047 3291 1434 
z
" transform="scale(0.015625)"/>
       </defs>
       <use xlink:href="#LiberationSans-32"/>
       <use xlink:href="#LiberationSans-30" x="55.615234"/>
       <use xlink:href="#LiberationSans-32" x="111.230469"/>
       <use xlink:href="#LiberationSans-36" x="166.845703"/>
       <use xlink:href="#LiberationSans-2d" x="222.460938"/>
       <use xlink:href="#LiberationSans-30" x="255.761719"/>
       <use xlink:href="#LiberationSans-33" x="311.376953"/>
       <use xlink:href="#LiberationSans-2d" x="366.992188"/>
       <use xlink:href="#LiberationSans-32" x="400.292969"/>
       <use xlink:href="#LiberationSans-35" x="455.908203"/>
      </g>
     </g>
    </g>
    <g id="xtick_4">
     <g id="line2d_7">
      <path d="M 473.236364 345.6 
L 473.236364 51.84 
" clip-path="url(#pf233d084f2)" style="fill: none; stroke-dasharray: 2.96,1.28; stroke-dashoffset: 0; stroke: #cccccc; stroke-opacity: 0.6; stroke-width: 0.8"/>
     </g>
     <g id="line2d_8"/>
     <g id="text_4">
      <!-- 2026-03-29 -->
      <g style="fill: #262626" transform="translate(427.904371 380.949415) rotate(-30) scale(0.1 -0.1)">
       <defs>
        <path id="LiberationSans-39" d="M 3256 2291 
Q 3256 1156 2842 546 
Q 2428 -63 1663 -63 
Q 1147 -63 836 154 
Q 525 372 391 856 
L 928 941 
Q 1097 391 1672 391 
Q 2156 391 2422 841 
Q 2688 1291 2700 2125 
Q 2575 1844 2272 1673 
Q 1969 1503 1606 1503 
Q 1013 1503 656 1909 
Q 300 2316 300 2988 
Q 300 3678 687 4073 
Q 1075 4469 1766 4469 
Q 2500 4469 2878 3925 
Q 3256 3381 3256 2291 
z
M 2644 2834 
Q 2644 3366 2400 3689 
Q 2156 4013 1747 4013 
Q 1341 4013 1106 3736 
Q 872 3459 872 2988 
Q 872 2506 1106 2226 
Q 1341 1947 1741 1947 
Q 1984 1947 2193 2058 
Q 2403 2169 2523 2372 
Q 2644 2575 2644 2834 
z
" transform="scale(0.015625)"/>
       </defs>
       <use xlink:href="#LiberationSans-32"/>
       <use xlink:href="#LiberationSans-30" x="55.615234"/>
       <use xlink:href="#LiberationSans-32" x="111.230469"/>
       <use xlink:href="#LiberationSans-36" x="166.845703"/>
       <use xlink:href="#LiberationSans-2d" x="222.460938"/>
       <use xlink:href="#LiberationSans-30" x="255.761719"/>
       <use xlink:href="#LiberationSans-33" x="311.376953"/>
       <use xlink:href="#LiberationSans-2d" x="366.992188"/>
       <use xlink:href="#LiberationSans-32" x="400.292969"/>
       <use xlink:href="#LiberationSans-39" x="455.908203"/>
      </g>
     </g>
    </g>
    <g id="xtick_5">
     <g id="line2d_9">
      <path d="M 564.545455 345.6 
L 564.545455 51.84 
" clip-path="url(#pf233d084f2)" style="fill: none; stroke-dasharray: 2.96,1.28; stroke-dashoffset: 0; stroke: #cccccc; stroke-opacity: 0.6; stroke-width: 0.8"/>
     </g>
     <g id="line2d_10"/>
     <g id="text_5">
      <!-- 2026-04-01 -->
      <g style="fill: #262626" transform="translate(519.213461 380.949415) rotate(-30) scale(0.1 -0.1)">
       <defs>
        <path id="LiberationSans-34" d="M 2753 997 
L 2753 0 
L 2222 0 
L 2222 997 
L 147 997 
L 147 1434 
L 2163 4403 
L 2753 4403 
L 2753 1441 
L 3372 1441 
L 3372 997 
L 2753 997 
z
M 2222 3769 
Q 2216 3750 2134 3603 
Q 2053 3456 2013 3397 
L 884 1734 
L 716 1503 
L 666 1441 
L 2222 1441 
L 2222 3769 
z
" transform="scale(0.015625)"/>
       </defs>
       <use xlink:href="#LiberationSans-32"/>
       <use xlink:href="#LiberationSans-30" x="55.615234"/>
       <use xlink:href="#LiberationSans-32" x="111.230469"/>
       <use xlink:href="#LiberationSans-36" x="166.845703"/>
       <use xlink:href="#LiberationSans-2d" x="222.460938"/>
       <use xlink:href="#LiberationSans-30" x="255.761719"/>
       <use xlink:href="#LiberationSans-34" x="311.376953"/>
       <use xlink:href="#LiberationSans-2d" x="366.992188"/>
       <use xlink:href="#LiberationSans-30" x="400.292969"/>
       <use xlink:href="#LiberationSans-31" x="455.908203"/>
      </g>
     </g>
    </g>
    <g id="xtick_6">
     <g id="line2d_11">
      <path d="M 686.290909 345.6 
L 686.290909 51.84 
" clip-path="url(#pf233d084f2)" style="fill: none; stroke-dasharray: 2.96,1.28; stroke-dashoffset: 0; stroke: #cccccc; stroke-opacity: 0.6; stroke-width: 0.8"/>
     </g>
     <g id="line2d_12"/>
     <g id="text_6">
      <!-- 2026-04-05 -->
      <g style="fill: #262626" transform="translate(640.958916 380.949415) rotate(-30) scale(0.1 -0.1)">
       <use xlink:href="#LiberationSans-32"/>
       <use xlink:href="#LiberationSans-30" x="55.615234"/>
       <use xlink:href="#LiberationSans-32" x="111.230469"/>
       <use xlink:href="#LiberationSans-36" x="166.845703"/>
       <use xlink:href="#LiberationSans-2d" x="222.460938"/>
       <use xlink:href="#LiberationSans-30" x="255.761719"/>
       <use xlink:href="#LiberationSans-34" x="311.376953"/>
       <use xlink:href="#LiberationSans-2d" x="366.992188"/>
       <use xlink:href="#LiberationSans-30" x="400.292969"/>
       <use xlink:href="#LiberationSans-35" x="455.908203"/>
      </g>
     </g>
    </g>
    <g id="text_7">
     <!-- Fecha -->
     <g style="fill: #262626" transform="translate(428.904688 393.993293) scale(0.1 -0.1)">
      <defs>
       <path id="LiberationSans-46" d="M 1122 3916 
L 1122 2278 
L 3578 2278 
L 3578 1784 
L 1122 1784 
L 1122 0 
L 525 0 
L 525 4403 
L 3653 4403 
L 3653 3916 
L 1122 3916 
z
" transform="scale(0.015625)"/>
       <path id="LiberationSans-65" d="M 863 1572 
Q 863 991 1103 675 
Q 1344 359 1806 359 
Q 2172 359 2392 506 
Q 2613 653 2691 878 
L 3184 738 
Q 2881 -63 1806 -63 
Q 1056 -63 664 384 
Q 272 831 272 1713 
Q 272 2550 664 2997 
Q 1056 3444 1784 3444 
Q 3275 3444 3275 1647 
L 3275 1572 
L 863 1572 
z
M 2694 2003 
Q 2647 2538 2422 2783 
Q 2197 3028 1775 3028 
Q 1366 3028 1127 2754 
Q 888 2481 869 2003 
L 2694 2003 
z
" transform="scale(0.015625)"/>
       <path id="LiberationSans-63" d="M 859 1706 
Q 859 1031 1071 706 
Q 1284 381 1713 381 
Q 2013 381 2214 543 
Q 2416 706 2463 1044 
L 3031 1006 
Q 2966 519 2616 228 
Q 2266 -63 1728 -63 
Q 1019 -63 645 385 
Q 272 834 272 1694 
Q 272 2547 647 2995 
Q 1022 3444 1722 3444 
Q 2241 3444 2583 3175 
Q 2925 2906 3013 2434 
L 2434 2391 
Q 2391 2672 2212 2837 
Q 2034 3003 1706 3003 
Q 1259 3003 1059 2706 
Q 859 2409 859 1706 
z
" transform="scale(0.015625)"/>
       <path id="LiberationSans-68" d="M 991 2803 
Q 1172 3134 1426 3289 
Q 1681 3444 2072 3444 
Q 2622 3444 2883 3170 
Q 3144 2897 3144 2253 
L 3144 0 
L 2578 0 
L 2578 2144 
Q 2578 2500 2512 2673 
Q 2447 2847 2297 2928 
Q 2147 3009 1881 3009 
Q 1484 3009 1245 2734 
Q 1006 2459 1006 1994 
L 1006 0 
L 444 0 
L 444 4638 
L 1006 4638 
L 1006 3431 
Q 1006 3241 995 3037 
Q 984 2834 981 2803 
L 991 2803 
z
" transform="scale(0.015625)"/>
       <path id="LiberationSans-61" d="M 1294 -63 
Q 784 -63 528 206 
Q 272 475 272 944 
Q 272 1469 617 1750 
Q 963 2031 1731 2050 
L 2491 2063 
L 2491 2247 
Q 2491 2659 2316 2837 
Q 2141 3016 1766 3016 
Q 1388 3016 1216 2887 
Q 1044 2759 1009 2478 
L 422 2531 
Q 566 3444 1778 3444 
Q 2416 3444 2737 3151 
Q 3059 2859 3059 2306 
L 3059 850 
Q 3059 600 3125 473 
Q 3191 347 3375 347 
Q 3456 347 3559 369 
L 3559 19 
Q 3347 -31 3125 -31 
Q 2813 -31 2670 133 
Q 2528 297 2509 647 
L 2491 647 
Q 2275 259 1989 98 
Q 1703 -63 1294 -63 
z
M 1422 359 
Q 1731 359 1972 500 
Q 2213 641 2352 886 
Q 2491 1131 2491 1391 
L 2491 1669 
L 1875 1656 
Q 1478 1650 1273 1575 
Q 1069 1500 959 1344 
Q 850 1188 850 934 
Q 850 659 998 509 
Q 1147 359 1422 359 
z
" transform="scale(0.015625)"/>
      </defs>
      <use xlink:href="#LiberationSans-46"/>
      <use xlink:href="#LiberationSans-65" x="61.083984"/>
      <use xlink:href="#LiberationSans-63" x="116.699219"/>
      <use xlink:href="#LiberationSans-68" x="166.699219"/>
      <use xlink:href="#LiberationSans-61" x="222.314453"/>
     </g>
    </g>
   </g>
   <g id="matplotlib.axis_2">
    <g id="ytick_1">
     <g id="line2d_13">
      <path d="M 108 309.719541 
L 777.6 309.719541 
" clip-path="url(#pf233d084f2)" style="fill: none; stroke-dasharray: 2.96,1.28; stroke-dashoffset: 0; stroke: #cccccc; stroke-opacity: 0.6; stroke-width: 0.8"/>
     </g>
     <g id="line2d_14"/>
     <g id="text_8">
      <!-- 200 -->
      <g style="fill: #262626" transform="translate(87.817188 313.342979) scale(0.1 -0.1)">
       <use xlink:href="#LiberationSans-32"/>
       <use xlink:href="#LiberationSans-30" x="55.615234"/>
       <use xlink:href="#LiberationSans-30" x="111.230469"/>
      </g>
     </g>
    </g>
    <g id="ytick_2">
     <g id="line2d_15">
      <path d="M 108 268.945366 
L 777.6 268.945366 
" clip-path="url(#pf233d084f2)" style="fill: none; stroke-dasharray: 2.96,1.28; stroke-dashoffset: 0; stroke: #cccccc; stroke-opacity: 0.6; stroke-width: 0.8"/>
     </g>
     <g id="line2d_16"/>
     <g id="text_9">
      <!-- 400 -->
      <g style="fill: #262626" transform="translate(87.817188 272.568804) scale(0.1 -0.1)">
       <use xlink:href="#LiberationSans-34"/>
       <use xlink:href="#LiberationSans-30" x="55.615234"/>
       <use xlink:href="#LiberationSans-30" x="111.230469"/>
      </g>
     </g>
    </g>
    <g id="ytick_3">
     <g id="line2d_17">
      <path d="M 108 228.171191 
L 777.6 228.171191 
" clip-path="url(#pf233d084f2)" style="fill: none; stroke-dasharray: 2.96,1.28; stroke-dashoffset: 0; stroke: #cccccc; stroke-opacity: 0.6; stroke-width: 0.8"/>
     </g>
     <g id="line2d_18"/>
     <g id="text_10">
      <!-- 600 -->
      <g style="fill: #262626" transform="translate(87.817188 231.794629) scale(0.1 -0.1)">
       <use xlink:href="#LiberationSans-36"/>
       <use xlink:href="#LiberationSans-30" x="55.615234"/>
       <use xlink:href="#LiberationSans-30" x="111.230469"/>
      </g>
     </g>
    </g>
    <g id="ytick_4">
     <g id="line2d_19">
      <path d="M 108 187.397016 
L 777.6 187.397016 
" clip-path="url(#pf233d084f2)" style="fill: none; stroke-dasharray: 2.96,1.28; stroke-dashoffset: 0; stroke: #cccccc; stroke-opacity: 0.6; stroke-width: 0.8"/>
     </g>
     <g id="line2d_20"/>
     <g id="text_11">
      <!-- 800 -->
      <g style="fill: #262626" transform="translate(87.817188 191.020454) scale(0.1 -0.1)">
       <defs>
        <path id="LiberationSans-38" d="M 3281 1228 
Q 3281 619 2893 278 
Q 2506 -63 1781 -63 
Q 1075 -63 676 271 
Q 278 606 278 1222 
Q 278 1653 525 1947 
Q 772 2241 1156 2303 
L 1156 2316 
Q 797 2400 589 2681 
Q 381 2963 381 3341 
Q 381 3844 757 4156 
Q 1134 4469 1769 4469 
Q 2419 4469 2795 4162 
Q 3172 3856 3172 3334 
Q 3172 2956 2962 2675 
Q 2753 2394 2391 2322 
L 2391 2309 
Q 2813 2241 3047 1952 
Q 3281 1663 3281 1228 
z
M 2588 3303 
Q 2588 4050 1769 4050 
Q 1372 4050 1164 3862 
Q 956 3675 956 3303 
Q 956 2925 1170 2726 
Q 1384 2528 1775 2528 
Q 2172 2528 2380 2711 
Q 2588 2894 2588 3303 
z
M 2697 1281 
Q 2697 1691 2453 1898 
Q 2209 2106 1769 2106 
Q 1341 2106 1100 1882 
Q 859 1659 859 1269 
Q 859 359 1788 359 
Q 2247 359 2472 579 
Q 2697 800 2697 1281 
z
" transform="scale(0.015625)"/>
       </defs>
       <use xlink:href="#LiberationSans-38"/>
       <use xlink:href="#LiberationSans-30" x="55.615234"/>
       <use xlink:href="#LiberationSans-30" x="111.230469"/>
      </g>
     </g>
    </g>
    <g id="ytick_5">
     <g id="line2d_21">
      <path d="M 108 146.622841 
L 777.6 146.622841 
" clip-path="url(#pf233d084f2)" style="fill: none; stroke-dasharray: 2.96,1.28; stroke-dashoffset: 0; stroke: #cccccc; stroke-opacity: 0.6; stroke-width: 0.8"/>
     </g>
     <g id="line2d_22"/>
     <g id="text_12">
      <!-- 1000 -->
      <g style="fill: #262626" transform="translate(82.25625 150.246279) scale(0.1 -0.1)">
       <use xlink:href="#LiberationSans-31"/>
       <use xlink:href="#LiberationSans-30" x="55.615234"/>
       <use xlink:href="#LiberationSans-30" x="111.230469"/>
       <use xlink:href="#LiberationSans-30" x="166.845703"/>
      </g>
     </g>
    </g>
    <g id="ytick_6">
     <g id="line2d_23">
      <path d="M 108 105.848666 
L 777.6 105.848666 
" clip-path="url(#pf233d084f2)" style="fill: none; stroke-dasharray: 2.96,1.28; stroke-dashoffset: 0; stroke: #cccccc; stroke-opacity: 0.6; stroke-width: 0.8"/>
     </g>
     <g id="line2d_24"/>
     <g id="text_13">
      <!-- 1200 -->
      <g style="fill: #262626" transform="translate(82.25625 109.472104) scale(0.1 -0.1)">
       <use xlink:href="#LiberationSans-31"/>
       <use xlink:href="#LiberationSans-32" x="55.615234"/>
       <use xlink:href="#LiberationSans-30" x="111.230469"/>
       <use xlink:href="#LiberationSans-30" x="166.845703"/>
      </g>
     </g>
    </g>
    <g id="ytick_7">
     <g id="line2d_25">
      <path d="M 108 65.074491 
L 777.6 65.074491 
" clip-path="url(#pf233d084f2)" style="fill: none; stroke-dasharray: 2.96,1.28; stroke-dashoffset: 0; stroke: #cccccc; stroke-opacity: 0.6; stroke-width: 0.8"/>
     </g>
     <g id="line2d_26"/>
     <g id="text_14">
      <!-- 1400 -->
      <g style="fill: #262626" transform="translate(82.25625 68.697929) scale(0.1 -0.1)">
       <use xlink:href="#LiberationSans-31"/>
       <use xlink:href="#LiberationSans-34" x="55.615234"/>
       <use xlink:href="#LiberationSans-30" x="111.230469"/>
       <use xlink:href="#LiberationSans-30" x="166.845703"/>
      </g>
     </g>
    </g>
    <g id="text_15">
     <!-- Cierre -->
     <g style="fill: #262626" transform="translate(76.18125 212.3325) rotate(-90) scale(0.1 -0.1)">
      <defs>
       <path id="LiberationSans-43" d="M 2475 3981 
Q 1744 3981 1337 3511 
Q 931 3041 931 2222 
Q 931 1413 1354 920 
Q 1778 428 2500 428 
Q 3425 428 3891 1344 
L 4378 1100 
Q 4106 531 3614 234 
Q 3122 -63 2472 -63 
Q 1806 -63 1320 214 
Q 834 491 579 1005 
Q 325 1519 325 2222 
Q 325 3275 894 3872 
Q 1463 4469 2469 4469 
Q 3172 4469 3644 4194 
Q 4116 3919 4338 3378 
L 3772 3191 
Q 3619 3575 3280 3778 
Q 2941 3981 2475 3981 
z
" transform="scale(0.015625)"/>
       <path id="LiberationSans-69" d="M 428 4100 
L 428 4638 
L 991 4638 
L 991 4100 
L 428 4100 
z
M 428 0 
L 428 3381 
L 991 3381 
L 991 0 
L 428 0 
z
" transform="scale(0.015625)"/>
       <path id="LiberationSans-72" d="M 444 0 
L 444 2594 
Q 444 2950 425 3381 
L 956 3381 
Q 981 2806 981 2691 
L 994 2691 
Q 1128 3125 1303 3284 
Q 1478 3444 1797 3444 
Q 1909 3444 2025 3413 
L 2025 2897 
Q 1913 2928 1725 2928 
Q 1375 2928 1190 2626 
Q 1006 2325 1006 1763 
L 1006 0 
L 444 0 
z
" transform="scale(0.015625)"/>
      </defs>
      <use xlink:href="#LiberationSans-43"/>
      <use xlink:href="#LiberationSans-69" x="72.216797"/>
      <use xlink:href="#LiberationSans-65" x="94.433594"/>
      <use xlink:href="#LiberationSans-72" x="150.048828"/>
      <use xlink:href="#LiberationSans-72" x="183.349609"/>
      <use xlink:href="#LiberationSans-65" x="216.650391"/>
     </g>
    </g>
   </g>
   <g id="line2d_27">
    <path d="M 138.436364 299.538229 
L 168.872727 299.738022 
L 199.309091 299.935777 
L 290.618182 299.222229 
L 321.054545 299.191649 
L 351.490909 298.991857 
L 381.927273 298.936811 
L 412.363636 299.770642 
L 503.672727 300.213041 
L 534.109091 298.753328 
L 564.545455 298.378203 
L 594.981818 298.319082 
L 716.727273 297.719704 
L 747.163636 298.812449 
" clip-path="url(#pf233d084f2)" style="fill: none; stroke: #1f77b4; stroke-width: 1.5; stroke-linecap: round"/>
   </g>
   <g id="line2d_28">
    <path d="M 138.436364 309.82963 
L 168.872727 308.645141 
L 199.309091 309.448392 
L 290.618182 309.173169 
L 321.054545 308.624755 
L 351.490909 305.587078 
L 381.927273 308.950947 
L 412.363636 309.313837 
L 503.672727 310.526871 
L 534.109091 309.020265 
L 564.545455 307.638018 
L 594.981818 306.151801 
L 716.727273 305.605428 
L 747.163636 305.330201 
" clip-path="url(#pf233d084f2)" style="fill: none; stroke: #ff7f0e; stroke-width: 1.5; stroke-linecap: round"/>
   </g>
   <g id="line2d_29">
    <path d="M 138.436364 307.707337 
L 168.872727 307.933633 
L 199.309091 308.624755 
L 290.618182 307.65229 
L 321.054545 308.243515 
L 351.490909 307.332212 
L 381.927273 308.182356 
L 412.363636 309.854097 
L 503.672727 309.525864 
L 534.109091 308.033528 
L 564.545455 307.564624 
L 594.981818 307.727722 
L 716.727273 307.112034 
L 747.163636 306.912238 
" clip-path="url(#pf233d084f2)" style="fill: none; stroke: #2ca02c; stroke-width: 1.5; stroke-linecap: round"/>
   </g>
   <g id="line2d_30">
    <path d="M 138.436364 74.214013 
L 168.872727 71.926588 
L 199.309091 81.944806 
L 290.618182 71.268089 
L 321.054545 65.192727 
L 351.490909 66.320139 
L 381.927273 79.447388 
L 412.363636 84.958024 
L 503.672727 94.847802 
L 534.109091 81.214957 
L 564.545455 73.278253 
L 594.981818 81.948887 
L 716.727273 84.644054 
L 747.163636 84.146621 
" clip-path="url(#pf233d084f2)" style="fill: none; stroke: #d62728; stroke-width: 1.5; stroke-linecap: round"/>
   </g>
   <g id="line2d_31">
    <path d="M 138.436364 286.084792 
L 168.872727 285.287656 
L 199.309091 287.189769 
L 290.618182 284.743318 
L 321.054545 285.603654 
L 351.490909 285.497643 
L 381.927273 287.411987 
L 412.363636 289.193823 
L 503.672727 290.675962 
L 534.109091 287.39364 
L 564.545455 286.582237 
L 594.981818 286.366135 
L 716.727273 286.390598 
L 747.163636 282.40696 
" clip-path="url(#pf233d084f2)" style="fill: none; stroke: #9467bd; stroke-width: 1.5; stroke-linecap: round"/>
   </g>
   <g id="line2d_32">
    <path d="M 138.436364 251.724393 
L 168.872727 252.333965 
L 199.309091 252.444057 
L 290.618182 252.639771 
L 321.054545 252.772292 
L 351.490909 253.412444 
L 381.927273 253.600008 
L 412.363636 254.982252 
L 503.672727 253.724366 
L 534.109091 252.79879 
L 564.545455 252.941502 
L 594.981818 253.175953 
L 716.727273 253.373708 
L 747.163636 253.027131 
" clip-path="url(#pf233d084f2)" style="fill: none; stroke: #8c564b; stroke-width: 1.5; stroke-linecap: round"/>
   </g>
   <g id="line2d_33">
    <path d="M 138.436364 209.084801 
L 168.872727 210.098033 
L 199.309091 211.682114 
L 290.618182 207.437521 
L 321.054545 204.39373 
L 351.490909 203.902407 
L 381.927273 207.133755 
L 412.363636 208.721905 
L 503.672727 214.424179 
L 534.109091 206.059351 
L 564.545455 201.602737 
L 594.981818 204.273453 
L 716.727273 203.453888 
L 747.163636 202.801499 
" clip-path="url(#pf233d084f2)" style="fill: none; stroke: #e377c2; stroke-width: 1.5; stroke-linecap: round"/>
   </g>
   <g id="line2d_34">
    <path d="M 138.436364 150.716572 
L 168.872727 151.764459 
L 199.309091 152.263945 
L 290.618182 153.6095 
L 321.054545 151.960179 
L 351.490909 151.748158 
L 381.927273 150.771608 
L 412.363636 149.91332 
L 503.672727 147.320076 
L 534.109091 147.350662 
L 564.545455 147.324157 
L 594.981818 143.572928 
L 716.727273 142.841039 
L 747.163636 143.929702 
" clip-path="url(#pf233d084f2)" style="fill: none; stroke: #7f7f7f; stroke-width: 1.5; stroke-linecap: round"/>
   </g>
   <g id="line2d_35">
    <path d="M 138.436364 310.873451 
L 168.872727 310.740933 
L 199.309091 310.661423 
L 290.618182 310.7022 
L 321.054545 313.181268 
L 351.490909 313.39737 
L 381.927273 312.647127 
L 412.363636 313.93763 
L 503.672727 312.771488 
L 534.109091 312.43714 
L 564.545455 312.524803 
L 594.981818 312.333167 
L 716.727273 312.771488 
L 747.163636 313.193499 
" clip-path="url(#pf233d084f2)" style="fill: none; stroke: #bcbd22; stroke-width: 1.5; stroke-linecap: round"/>
   </g>
   <g id="line2d_36">
    <path d="M 138.436364 287.764686 
L 168.872727 287.878853 
L 199.309091 289.128583 
L 290.618182 288.91248 
L 321.054545 291.281459 
L 351.490909 291.181564 
L 381.927273 293.222307 
L 412.363636 294.563781 
L 503.672727 294.735032 
L 534.109091 291.868608 
L 564.545455 289.864554 
L 594.981818 290.19483 
L 716.727273 289.334494 
L 747.163636 288.21932 
" clip-path="url(#pf233d084f2)" style="fill: none; stroke: #17becf; stroke-width: 1.5; stroke-linecap: round"/>
   </g>
   <g id="line2d_37">
    <path d="M 138.436364 302.119235 
L 168.872727 302.053995 
L 199.309091 302.508629 
L 290.618182 302.498435 
L 321.054545 302.529014 
L 351.490909 301.578979 
L 381.927273 301.719647 
L 412.363636 301.472965 
L 503.672727 301.057066 
L 534.109091 300.659519 
L 564.545455 300.724759 
L 594.981818 300.94494 
L 716.727273 301.366951 
L 747.163636 301.88886 
" clip-path="url(#pf233d084f2)" style="fill: none; stroke: #1f77b4; stroke-width: 1.5; stroke-linecap: round"/>
   </g>
   <g id="line2d_38">
    <path d="M 138.436364 291.831912 
L 168.872727 291.78502 
L 199.309091 292.072479 
L 290.618182 291.38951 
L 321.054545 290.881873 
L 351.490909 290.266179 
L 381.927273 291.032736 
L 412.363636 292.830879 
L 503.672727 292.64128 
L 534.109091 290.523059 
L 564.545455 290.274336 
L 594.981818 290.433355 
L 716.727273 290.260064 
L 747.163636 289.862519 
" clip-path="url(#pf233d084f2)" style="fill: none; stroke: #ff7f0e; stroke-width: 1.5; stroke-linecap: round"/>
   </g>
   <g id="line2d_39">
    <path d="M 138.436364 163.330062 
L 168.872727 163.442188 
L 199.309091 165.643991 
L 290.618182 164.859093 
L 321.054545 166.394235 
L 351.490909 163.684795 
L 381.927273 167.621541 
L 412.363636 171.446161 
L 503.672727 169.735681 
L 534.109091 162.979397 
L 564.545455 155.894885 
L 594.981818 159.756199 
L 716.727273 161.493183 
L 747.163636 160.671578 
" clip-path="url(#pf233d084f2)" style="fill: none; stroke: #2ca02c; stroke-width: 1.5; stroke-linecap: round"/>
   </g>
   <g id="line2d_40">
    <path d="M 138.436364 219.551525 
L 168.872727 220.523993 
L 199.309091 222.579014 
L 290.618182 224.858289 
L 321.054545 226.097828 
L 351.490909 223.237513 
L 381.927273 222.599397 
L 412.363636 224.941871 
L 503.672727 228.462725 
L 534.109091 227.276195 
L 564.545455 224.574906 
L 594.981818 223.524978 
L 716.727273 220.44448 
L 747.163636 222.523965 
" clip-path="url(#pf233d084f2)" style="fill: none; stroke: #d62728; stroke-width: 1.5; stroke-linecap: round"/>
   </g>
   <g id="line2d_41">
    <path d="M 138.436364 250.90891 
L 168.872727 250.364572 
L 199.309091 249.308522 
L 290.618182 248.480807 
L 321.054545 248.776422 
L 351.490909 247.995593 
L 381.927273 248.405375 
L 412.363636 251.771286 
L 503.672727 249.781504 
L 534.109091 248.627594 
L 564.545455 250.260602 
L 594.981818 249.895671 
L 716.727273 248.252472 
L 747.163636 248.908937 
" clip-path="url(#pf233d084f2)" style="fill: none; stroke: #9467bd; stroke-width: 1.5; stroke-linecap: round"/>
   </g>
   <g id="line2d_42">
    <path d="M 138.436364 286.125562 
L 168.872727 287.379373 
L 199.309091 287.528195 
L 290.618182 287.605667 
L 321.054545 287.734107 
L 351.490909 286.947162 
L 381.927273 287.511888 
L 412.363636 288.129617 
L 503.672727 287.593435 
L 534.109091 287.132685 
L 564.545455 287.846233 
L 594.981818 287.876813 
L 716.727273 287.342672 
L 747.163636 288.343679 
" clip-path="url(#pf233d084f2)" style="fill: none; stroke: #8c564b; stroke-width: 1.5; stroke-linecap: round"/>
   </g>
   <g id="line2d_43">
    <path d="M 138.436364 224.974497 
L 168.872727 226.805254 
L 199.309091 229.463738 
L 290.618182 227.343476 
L 321.054545 229.6146 
L 351.490909 229.212968 
L 381.927273 238.866262 
L 412.363636 243.314726 
L 503.672727 241.141455 
L 534.109091 233.853071 
L 564.545455 232.405593 
L 594.981818 233.378049 
L 716.727273 233.671623 
L 747.163636 233.257772 
" clip-path="url(#pf233d084f2)" style="fill: none; stroke: #e377c2; stroke-width: 1.5; stroke-linecap: round"/>
   </g>
   <g id="line2d_44">
    <path d="M 138.436364 327.150501 
L 168.872727 327.211663 
L 199.309091 327.215739 
L 290.618182 326.909933 
L 321.054545 326.769262 
L 351.490909 326.157649 
L 381.927273 326.247353 
L 412.363636 326.104644 
L 503.672727 326.416566 
L 534.109091 325.970088 
L 564.545455 325.85796 
L 594.981818 325.851843 
L 716.727273 325.855921 
L 747.163636 326.175998 
" clip-path="url(#pf233d084f2)" style="fill: none; stroke: #7f7f7f; stroke-width: 1.5; stroke-linecap: round"/>
   </g>
   <g id="line2d_45">
    <path d="M 138.436364 270.619144 
L 168.872727 271.183871 
L 199.309091 272.641546 
L 290.618182 272.411171 
L 321.054545 274.502888 
L 351.490909 274.849465 
L 381.927273 275.883092 
L 412.363636 277.758706 
L 503.672727 277.312229 
L 534.109091 275.026832 
L 564.545455 275.189932 
L 594.981818 274.356101 
L 716.727273 274.474343 
L 747.163636 274.594626 
" clip-path="url(#pf233d084f2)" style="fill: none; stroke: #bcbd22; stroke-width: 1.5; stroke-linecap: round"/>
   </g>
   <g id="line2d_46">
    <path d="M 138.436364 331.949621 
L 168.872727 331.654008 
L 199.309091 332.247273 
L 290.618182 332.098446 
L 321.054545 331.815066 
L 351.490909 331.908846 
L 381.927273 331.908846 
L 412.363636 331.859918 
L 503.672727 331.727401 
L 534.109091 331.55819 
L 564.545455 331.564306 
L 594.981818 331.503144 
L 716.727273 331.588769 
L 747.163636 331.397132 
" clip-path="url(#pf233d084f2)" style="fill: none; stroke: #17becf; stroke-width: 1.5; stroke-linecap: round"/>
   </g>
   <g id="line2d_47">
    <path d="M 138.436364 313.715411 
L 168.872727 314.090533 
L 199.309091 315.285217 
L 290.618182 314.685836 
L 321.054545 314.775539 
L 351.490909 314.06607 
L 381.927273 315.582866 
L 412.363636 316.341266 
L 503.672727 316.820364 
L 534.109091 314.938637 
L 564.545455 314.66341 
L 594.981818 314.329062 
L 716.727273 314.278094 
L 747.163636 314.184312 
" clip-path="url(#pf233d084f2)" style="fill: none; stroke: #1f77b4; stroke-width: 1.5; stroke-linecap: round"/>
   </g>
   <g id="line2d_48">
    <path d="M 138.436364 319.321861 
L 168.872727 318.787717 
L 199.309091 319.978325 
L 290.618182 319.028286 
L 321.054545 320.50635 
L 351.490909 320.72449 
L 381.927273 321.378917 
L 412.363636 322.021109 
L 503.672727 322.196438 
L 534.109091 320.502271 
L 564.545455 320.88555 
L 594.981818 320.651096 
L 716.727273 320.82235 
L 747.163636 321.305523 
" clip-path="url(#pf233d084f2)" style="fill: none; stroke: #ff7f0e; stroke-width: 1.5; stroke-linecap: round"/>
   </g>
   <g id="line2d_49">
    <path d="M 138.436364 320.583819 
L 168.872727 320.965059 
L 199.309091 321.079226 
L 290.618182 321.138348 
L 321.054545 321.307561 
L 351.490909 321.15262 
L 381.927273 321.458426 
L 412.363636 321.399302 
L 503.672727 320.989523 
L 534.109091 321.046606 
L 564.545455 321.117962 
L 594.981818 321.315717 
L 716.727273 321.38707 
L 747.163636 321.686761 
" clip-path="url(#pf233d084f2)" style="fill: none; stroke: #2ca02c; stroke-width: 1.5; stroke-linecap: round"/>
   </g>
   <g id="line2d_50">
    <path d="M 138.436364 319.348362 
L 168.872727 318.7551 
L 199.309091 319.774454 
L 290.618182 317.703125 
L 321.054545 318.938582 
L 351.490909 318.901884 
L 381.927273 320.41053 
L 412.363636 321.327949 
L 503.672727 322.451277 
L 534.109091 320.671485 
L 564.545455 320.62867 
L 594.981818 320.227045 
L 716.727273 320.335099 
L 747.163636 319.898812 
" clip-path="url(#pf233d084f2)" style="fill: none; stroke: #d62728; stroke-width: 1.5; stroke-linecap: round"/>
   </g>
   <g id="line2d_51">
    <path d="M 138.436364 270.417314 
L 168.872727 272.961625 
L 199.309091 275.477391 
L 290.618182 272.849492 
L 321.054545 272.405055 
L 351.490909 271.809749 
L 381.927273 274.631328 
L 412.363636 276.72712 
L 503.672727 278.062472 
L 534.109091 274.704718 
L 564.545455 272.765904 
L 594.981818 276.979918 
L 716.727273 278.563992 
L 747.163636 279.821878 
" clip-path="url(#pf233d084f2)" style="fill: none; stroke: #9467bd; stroke-width: 1.5; stroke-linecap: round"/>
   </g>
   <g id="line2d_52">
    <path d="M 138.436364 281.265282 
L 168.872727 281.424301 
L 199.309091 283.371271 
L 290.618182 281.493616 
L 321.054545 280.515038 
L 351.490909 279.597619 
L 381.927273 284.009388 
L 412.363636 283.880948 
L 503.672727 285.968584 
L 534.109091 281.595551 
L 564.545455 280.873853 
L 594.981818 281.373333 
L 716.727273 280.818804 
L 747.163636 280.093024 
" clip-path="url(#pf233d084f2)" style="fill: none; stroke: #8c564b; stroke-width: 1.5; stroke-linecap: round"/>
   </g>
   <g id="line2d_53">
    <path d="M 138.436364 292.527113 
L 168.872727 293.320167 
L 199.309091 294.308942 
L 290.618182 295.542359 
L 321.054545 294.983754 
L 351.490909 295.336453 
L 381.927273 295.84613 
L 412.363636 297.687084 
L 503.672727 297.122358 
L 534.109091 295.328297 
L 564.545455 294.637171 
L 594.981818 293.968475 
L 716.727273 293.13261 
L 747.163636 287.756529 
" clip-path="url(#pf233d084f2)" style="fill: none; stroke: #e377c2; stroke-width: 1.5; stroke-linecap: round"/>
   </g>
   <g id="line2d_54">
    <path d="M 138.436364 289.532249 
L 168.872727 289.391578 
L 199.309091 289.002184 
L 290.618182 288.427266 
L 321.054545 288.565897 
L 351.490909 288.331447 
L 381.927273 288.205048 
L 412.363636 290.245797 
L 503.672727 289.426232 
L 534.109091 288.875785 
L 564.545455 289.636219 
L 594.981818 289.169359 
L 716.727273 288.653566 
L 747.163636 288.812585 
" clip-path="url(#pf233d084f2)" style="fill: none; stroke: #7f7f7f; stroke-width: 1.5; stroke-linecap: round"/>
   </g>
   <g id="line2d_55">
    <path d="M 138.436364 325.625546 
L 168.872727 325.806993 
L 199.309091 326.229005 
L 290.618182 325.882424 
L 321.054545 325.611275 
L 351.490909 325.405367 
L 381.927273 325.584772 
L 412.363636 325.440024 
L 503.672727 325.315663 
L 534.109091 325.156644 
L 564.545455 325.062864 
L 594.981818 324.848798 
L 716.727273 324.644928 
L 747.163636 325.521573 
" clip-path="url(#pf233d084f2)" style="fill: none; stroke: #bcbd22; stroke-width: 1.5; stroke-linecap: round"/>
   </g>
   <g id="line2d_56">
    <path d="M 138.436364 318.365706 
L 168.872727 318.249498 
L 199.309091 317.941654 
L 290.618182 317.644001 
L 321.054545 316.77755 
L 351.490909 317.209758 
L 381.927273 316.767359 
L 412.363636 315.633834 
L 503.672727 315.535977 
L 534.109091 315.904983 
L 564.545455 317.715357 
L 594.981818 317.733705 
L 716.727273 317.187332 
L 747.163636 317.07724 
" clip-path="url(#pf233d084f2)" style="fill: none; stroke: #17becf; stroke-width: 1.5; stroke-linecap: round"/>
   </g>
   <g id="patch_3">
    <path d="M 108 345.6 
L 108 51.84 
" style="fill: none; stroke: #cccccc; stroke-linejoin: miter; stroke-linecap: square"/>
   </g>
   <g id="patch_4">
    <path d="M 777.6 345.6 
L 777.6 51.84 
" style="fill: none; stroke: #cccccc; stroke-linejoin: miter; stroke-linecap: square"/>
   </g>
   <g id="patch_5">
    <path d="M 108 345.6 
L 777.6 345.6 
" style="fill: none; stroke: #cccccc; stroke-linejoin: miter; stroke-linecap: square"/>
   </g>
   <g id="patch_6">
    <path d="M 108 51.84 
L 777.6 51.84 
" style="fill: none; stroke: #cccccc; stroke-linejoin: miter; stroke-linecap: square"/>
   </g>
   <g id="text_16">
    <!-- Precio de cierre - últimos 15 días -->
    <g style="fill: #262626" transform="translate(349.099688 45.84) scale(0.12 -0.12)">
     <defs>
      <path id="LiberationSans-Bold-50" d="M 4050 3009 
Q 4050 2584 3856 2250 
Q 3663 1916 3302 1733 
Q 2941 1550 2444 1550 
L 1350 1550 
L 1350 0 
L 428 0 
L 428 4403 
L 2406 4403 
Q 3197 4403 3623 4039 
Q 4050 3675 4050 3009 
z
M 3122 2994 
Q 3122 3688 2303 3688 
L 1350 3688 
L 1350 2259 
L 2328 2259 
Q 2709 2259 2915 2448 
Q 3122 2638 3122 2994 
z
" transform="scale(0.015625)"/>
      <path id="LiberationSans-Bold-72" d="M 447 0 
L 447 2588 
Q 447 2866 439 3052 
Q 431 3238 422 3381 
L 1259 3381 
Q 1269 3325 1284 3039 
Q 1300 2753 1300 2659 
L 1313 2659 
Q 1441 3016 1541 3161 
Q 1641 3306 1778 3376 
Q 1916 3447 2122 3447 
Q 2291 3447 2394 3400 
L 2394 2666 
Q 2181 2713 2019 2713 
Q 1691 2713 1508 2447 
Q 1325 2181 1325 1659 
L 1325 0 
L 447 0 
z
" transform="scale(0.015625)"/>
      <path id="LiberationSans-Bold-65" d="M 1831 -63 
Q 1069 -63 659 389 
Q 250 841 250 1706 
Q 250 2544 665 2994 
Q 1081 3444 1844 3444 
Q 2572 3444 2956 2961 
Q 3341 2478 3341 1547 
L 3341 1522 
L 1172 1522 
Q 1172 1028 1355 776 
Q 1538 525 1875 525 
Q 2341 525 2463 928 
L 3291 856 
Q 2931 -63 1831 -63 
z
M 1831 2891 
Q 1522 2891 1355 2675 
Q 1188 2459 1178 2072 
L 2491 2072 
Q 2466 2481 2294 2686 
Q 2122 2891 1831 2891 
z
" transform="scale(0.015625)"/>
      <path id="LiberationSans-Bold-63" d="M 1856 -63 
Q 1088 -63 669 395 
Q 250 853 250 1672 
Q 250 2509 672 2976 
Q 1094 3444 1869 3444 
Q 2466 3444 2856 3144 
Q 3247 2844 3347 2316 
L 2463 2272 
Q 2425 2531 2275 2686 
Q 2125 2841 1850 2841 
Q 1172 2841 1172 1706 
Q 1172 538 1863 538 
Q 2113 538 2281 695 
Q 2450 853 2491 1166 
L 3372 1125 
Q 3325 778 3123 506 
Q 2922 234 2594 85 
Q 2266 -63 1856 -63 
z
" transform="scale(0.015625)"/>
      <path id="LiberationSans-Bold-69" d="M 447 3991 
L 447 4638 
L 1325 4638 
L 1325 3991 
L 447 3991 
z
M 447 0 
L 447 3381 
L 1325 3381 
L 1325 0 
L 447 0 
z
" transform="scale(0.015625)"/>
      <path id="LiberationSans-Bold-6f" d="M 3659 1694 
Q 3659 872 3203 404 
Q 2747 -63 1941 -63 
Q 1150 -63 700 406 
Q 250 875 250 1694 
Q 250 2509 700 2976 
Q 1150 3444 1959 3444 
Q 2788 3444 3223 2992 
Q 3659 2541 3659 1694 
z
M 2741 1694 
Q 2741 2297 2544 2569 
Q 2347 2841 1972 2841 
Q 1172 2841 1172 1694 
Q 1172 1128 1367 833 
Q 1563 538 1931 538 
Q 2741 538 2741 1694 
z
" transform="scale(0.015625)"/>
      <path id="LiberationSans-Bold-20" transform="scale(0.015625)"/>
      <path id="LiberationSans-Bold-64" d="M 2638 0 
Q 2625 47 2608 236 
Q 2591 425 2591 550 
L 2578 550 
Q 2294 -63 1497 -63 
Q 906 -63 584 398 
Q 263 859 263 1688 
Q 263 2528 602 2986 
Q 941 3444 1563 3444 
Q 1922 3444 2183 3294 
Q 2444 3144 2584 2847 
L 2591 2847 
L 2584 3403 
L 2584 4638 
L 3463 4638 
L 3463 738 
Q 3463 425 3488 0 
L 2638 0 
z
M 2597 1709 
Q 2597 2256 2414 2551 
Q 2231 2847 1875 2847 
Q 1522 2847 1350 2561 
Q 1178 2275 1178 1688 
Q 1178 538 1869 538 
Q 2216 538 2406 842 
Q 2597 1147 2597 1709 
z
" transform="scale(0.015625)"/>
      <path id="LiberationSans-Bold-2d" d="M 250 1278 
L 250 2041 
L 1875 2041 
L 1875 1278 
L 250 1278 
z
" transform="scale(0.015625)"/>
      <path id="LiberationSans-Bold-fa" d="M 1275 3381 
L 1275 1484 
Q 1275 594 1875 594 
Q 2194 594 2389 867 
Q 2584 1141 2584 1569 
L 2584 3381 
L 3463 3381 
L 3463 756 
Q 3463 325 3488 0 
L 2650 0 
Q 2613 450 2613 672 
L 2597 672 
Q 2422 288 2151 112 
Q 1881 -63 1509 -63 
Q 972 -63 684 267 
Q 397 597 397 1234 
L 397 3381 
L 1275 3381 
z
M 1448 3697 
L 1448 3794 
L 2235 4694 
L 3042 4694 
L 3042 4559 
L 1979 3697 
L 1448 3697 
z
" transform="scale(0.015625)"/>
      <path id="LiberationSans-Bold-6c" d="M 447 0 
L 447 4638 
L 1325 4638 
L 1325 0 
L 447 0 
z
" transform="scale(0.015625)"/>
      <path id="LiberationSans-Bold-74" d="M 1313 -56 
Q 925 -56 715 155 
Q 506 366 506 794 
L 506 2788 
L 78 2788 
L 78 3381 
L 550 3381 
L 825 4175 
L 1375 4175 
L 1375 3381 
L 2016 3381 
L 2016 2788 
L 1375 2788 
L 1375 1031 
Q 1375 784 1469 667 
Q 1563 550 1759 550 
Q 1863 550 2053 594 
L 2053 50 
Q 1728 -56 1313 -56 
z
" transform="scale(0.015625)"/>
      <path id="LiberationSans-Bold-6d" d="M 2438 0 
L 2438 1897 
Q 2438 2788 1925 2788 
Q 1659 2788 1492 2516 
Q 1325 2244 1325 1813 
L 1325 0 
L 447 0 
L 447 2625 
Q 447 2897 439 3070 
Q 431 3244 422 3381 
L 1259 3381 
Q 1269 3322 1284 3064 
Q 1300 2806 1300 2709 
L 1313 2709 
Q 1475 3097 1717 3272 
Q 1959 3447 2297 3447 
Q 3072 3447 3238 2709 
L 3256 2709 
Q 3428 3103 3668 3275 
Q 3909 3447 4281 3447 
Q 4775 3447 5034 3111 
Q 5294 2775 5294 2147 
L 5294 0 
L 4422 0 
L 4422 1897 
Q 4422 2788 3909 2788 
Q 3653 2788 3489 2539 
Q 3325 2291 3309 1853 
L 3309 0 
L 2438 0 
z
" transform="scale(0.015625)"/>
      <path id="LiberationSans-Bold-73" d="M 3297 988 
Q 3297 497 2895 217 
Q 2494 -63 1784 -63 
Q 1088 -63 717 157 
Q 347 378 225 844 
L 997 959 
Q 1063 719 1223 619 
Q 1384 519 1784 519 
Q 2153 519 2322 612 
Q 2491 706 2491 906 
Q 2491 1069 2355 1164 
Q 2219 1259 1894 1325 
Q 1150 1472 890 1598 
Q 631 1725 495 1926 
Q 359 2128 359 2422 
Q 359 2906 732 3176 
Q 1106 3447 1791 3447 
Q 2394 3447 2761 3212 
Q 3128 2978 3219 2534 
L 2441 2453 
Q 2403 2659 2256 2761 
Q 2109 2863 1791 2863 
Q 1478 2863 1322 2783 
Q 1166 2703 1166 2516 
Q 1166 2369 1286 2283 
Q 1406 2197 1691 2141 
Q 2088 2059 2395 1973 
Q 2703 1888 2889 1769 
Q 3075 1650 3186 1464 
Q 3297 1278 3297 988 
z
" transform="scale(0.015625)"/>
      <path id="LiberationSans-Bold-31" d="M 403 0 
L 403 653 
L 1494 653 
L 1494 3656 
L 438 2997 
L 438 3688 
L 1541 4403 
L 2372 4403 
L 2372 653 
L 3381 653 
L 3381 0 
L 403 0 
z
" transform="scale(0.015625)"/>
      <path id="LiberationSans-Bold-35" d="M 3381 1466 
Q 3381 766 2945 351 
Q 2509 -63 1750 -63 
Q 1088 -63 689 235 
Q 291 534 197 1100 
L 1075 1172 
Q 1144 891 1319 762 
Q 1494 634 1759 634 
Q 2088 634 2283 843 
Q 2478 1053 2478 1447 
Q 2478 1794 2293 2001 
Q 2109 2209 1778 2209 
Q 1413 2209 1181 1925 
L 325 1925 
L 478 4403 
L 3125 4403 
L 3125 3750 
L 1275 3750 
L 1203 2638 
Q 1522 2919 2000 2919 
Q 2628 2919 3004 2528 
Q 3381 2138 3381 1466 
z
" transform="scale(0.015625)"/>
      <path id="LiberationSans-Bold-ed" d="M 453 0 
L 453 3381 
L 1331 3381 
L 1331 0 
L 453 0 
z
M 360 3697 
L 360 3794 
L 1147 4694 
L 1954 4694 
L 1954 4559 
L 891 3697 
L 360 3697 
z
" transform="scale(0.015625)"/>
      <path id="LiberationSans-Bold-61" d="M 1228 -63 
Q 738 -63 463 204 
Q 188 472 188 956 
Q 188 1481 530 1756 
Q 872 2031 1522 2038 
L 2250 2050 
L 2250 2222 
Q 2250 2553 2134 2714 
Q 2019 2875 1756 2875 
Q 1513 2875 1398 2764 
Q 1284 2653 1256 2397 
L 341 2441 
Q 425 2934 792 3189 
Q 1159 3444 1794 3444 
Q 2434 3444 2781 3128 
Q 3128 2813 3128 2231 
L 3128 1000 
Q 3128 716 3192 608 
Q 3256 500 3406 500 
Q 3506 500 3600 519 
L 3600 44 
Q 3522 25 3459 9 
Q 3397 -6 3334 -15 
Q 3272 -25 3201 -31 
Q 3131 -38 3038 -38 
Q 2706 -38 2548 125 
Q 2391 288 2359 603 
L 2341 603 
Q 1972 -63 1228 -63 
z
M 2250 1566 
L 1800 1559 
Q 1494 1547 1366 1492 
Q 1238 1438 1170 1325 
Q 1103 1213 1103 1025 
Q 1103 784 1214 667 
Q 1325 550 1509 550 
Q 1716 550 1886 662 
Q 2056 775 2153 973 
Q 2250 1172 2250 1394 
L 2250 1566 
z
" transform="scale(0.015625)"/>
     </defs>
     <use xlink:href="#LiberationSans-Bold-50"/>
     <use xlink:href="#LiberationSans-Bold-72" x="66.699219"/>
     <use xlink:href="#LiberationSans-Bold-65" x="105.615234"/>
     <use xlink:href="#LiberationSans-Bold-63" x="161.230469"/>
     <use xlink:href="#LiberationSans-Bold-69" x="216.845703"/>
     <use xlink:href="#LiberationSans-Bold-6f" x="244.628906"/>
     <use xlink:href="#LiberationSans-Bold-20" x="305.712891"/>
     <use xlink:href="#LiberationSans-Bold-64" x="333.496094"/>
     <use xlink:href="#LiberationSans-Bold-65" x="394.580078"/>
     <use xlink:href="#LiberationSans-Bold-20" x="450.195312"/>
     <use xlink:href="#LiberationSans-Bold-63" x="477.978516"/>
     <use xlink:href="#LiberationSans-Bold-69" x="533.59375"/>
     <use xlink:href="#LiberationSans-Bold-65" x="561.376953"/>
     <use xlink:href="#LiberationSans-Bold-72" x="616.992188"/>
     <use xlink:href="#LiberationSans-Bold-72" x="655.908203"/>
     <use xlink:href="#LiberationSans-Bold-65" x="694.824219"/>
     <use xlink:href="#LiberationSans-Bold-20" x="750.439453"/>
     <use xlink:href="#LiberationSans-Bold-2d" x="778.222656"/>
     <use xlink:href="#LiberationSans-Bold-20" x="811.523438"/>
     <use xlink:href="#LiberationSans-Bold-fa" x="839.306641"/>
     <use xlink:href="#LiberationSans-Bold-6c" x="900.390625"/>
     <use xlink:href="#LiberationSans-Bold-74" x="928.173828"/>
     <use xlink:href="#LiberationSans-Bold-69" x="961.474609"/>
     <use xlink:href="#LiberationSans-Bold-6d" x="989.257812"/>
     <use xlink:href="#LiberationSans-Bold-6f" x="1078.173828"/>
     <use xlink:href="#LiberationSans-Bold-73" x="1139.257812"/>
     <use xlink:href="#LiberationSans-Bold-20" x="1194.873047"/>
     <use xlink:href="#LiberationSans-Bold-31" x="1222.65625"/>
     <use xlink:href="#LiberationSans-Bold-35" x="1278.271484"/>
     <use xlink:href="#LiberationSans-Bold-20" x="1333.886719"/>
     <use xlink:href="#LiberationSans-Bold-64" x="1361.669922"/>
     <use xlink:href="#LiberationSans-Bold-ed" x="1422.753906"/>
     <use xlink:href="#LiberationSans-Bold-61" x="1450.537109"/>
     <use xlink:href="#LiberationSans-Bold-73" x="1506.152344"/>
    </g>
   </g>
   <g id="legend_1">
    <g id="line2d_57">
     <path style="fill: none; stroke: #1f77b4; stroke-width: 1.5; stroke-linecap: round"/>
    </g>
    <g id="text_17">
     <!-- AAPL -->
     <g style="fill: #262626" transform="translate(-586 405.910875) scale(0.1 -0.1)">
      <defs>
       <path id="LiberationSans-41" d="M 3647 0 
L 3144 1288 
L 1138 1288 
L 631 0 
L 13 0 
L 1809 4403 
L 2488 4403 
L 4256 0 
L 3647 0 
z
M 2141 3953 
L 2113 3866 
Q 2034 3606 1881 3200 
L 1319 1753 
L 2966 1753 
L 2400 3206 
Q 2313 3422 2225 3694 
L 2141 3953 
z
" transform="scale(0.015625)"/>
       <path id="LiberationSans-50" d="M 3931 3078 
Q 3931 2453 3523 2084 
Q 3116 1716 2416 1716 
L 1122 1716 
L 1122 0 
L 525 0 
L 525 4403 
L 2378 4403 
Q 3119 4403 3525 4056 
Q 3931 3709 3931 3078 
z
M 3331 3072 
Q 3331 3925 2306 3925 
L 1122 3925 
L 1122 2188 
L 2331 2188 
Q 3331 2188 3331 3072 
z
" transform="scale(0.015625)"/>
       <path id="LiberationSans-4c" d="M 525 0 
L 525 4403 
L 1122 4403 
L 1122 488 
L 3347 488 
L 3347 0 
L 525 0 
z
" transform="scale(0.015625)"/>
      </defs>
      <use xlink:href="#LiberationSans-41"/>
      <use xlink:href="#LiberationSans-41" x="66.699219"/>
      <use xlink:href="#LiberationSans-50" x="133.398438"/>
      <use xlink:href="#LiberationSans-4c" x="200.097656"/>
     </g>
    </g>
    <g id="line2d_58">
     <path style="fill: none; stroke: #ff7f0e; stroke-width: 1.5; stroke-linecap: round"/>
    </g>
    <g id="text_18">
     <!-- AMD -->
     <g style="fill: #262626" transform="translate(-512.428125 405.910875) scale(0.1 -0.1)">
      <defs>
       <path id="LiberationSans-4d" d="M 4269 0 
L 4269 2938 
Q 4269 3425 4297 3875 
Q 4144 3316 4022 3000 
L 2884 0 
L 2466 0 
L 1313 3000 
L 1138 3531 
L 1034 3875 
L 1044 3528 
L 1056 2938 
L 1056 0 
L 525 0 
L 525 4403 
L 1309 4403 
L 2481 1350 
Q 2544 1166 2601 955 
Q 2659 744 2678 650 
Q 2703 775 2783 1029 
Q 2863 1284 2891 1350 
L 4041 4403 
L 4806 4403 
L 4806 0 
L 4269 0 
z
" transform="scale(0.015625)"/>
       <path id="LiberationSans-44" d="M 4316 2247 
Q 4316 1566 4050 1055 
Q 3784 544 3296 272 
Q 2809 0 2172 0 
L 525 0 
L 525 4403 
L 1981 4403 
Q 3100 4403 3708 3842 
Q 4316 3281 4316 2247 
z
M 3716 2247 
Q 3716 3066 3267 3495 
Q 2819 3925 1969 3925 
L 1122 3925 
L 1122 478 
L 2103 478 
Q 2588 478 2955 690 
Q 3322 903 3519 1303 
Q 3716 1703 3716 2247 
z
" transform="scale(0.015625)"/>
      </defs>
      <use xlink:href="#LiberationSans-41"/>
      <use xlink:href="#LiberationSans-4d" x="66.699219"/>
      <use xlink:href="#LiberationSans-44" x="150"/>
     </g>
    </g>
    <g id="line2d_59">
     <path style="fill: none; stroke: #2ca02c; stroke-width: 1.5; stroke-linecap: round"/>
    </g>
    <g id="text_19">
     <!-- AMZN -->
     <g style="fill: #262626" transform="translate(-442.20625 405.910875) scale(0.1 -0.1)">
      <defs>
       <path id="LiberationSans-5a" d="M 3709 0 
L 203 0 
L 203 447 
L 2884 3916 
L 431 3916 
L 431 4403 
L 3563 4403 
L 3563 3969 
L 881 488 
L 3709 488 
L 3709 0 
z
" transform="scale(0.015625)"/>
       <path id="LiberationSans-4e" d="M 3381 0 
L 1025 3750 
L 1041 3447 
L 1056 2925 
L 1056 0 
L 525 0 
L 525 4403 
L 1219 4403 
L 3600 628 
Q 3563 1241 3563 1516 
L 3563 4403 
L 4100 4403 
L 4100 0 
L 3381 0 
z
" transform="scale(0.015625)"/>
      </defs>
      <use xlink:href="#LiberationSans-41"/>
      <use xlink:href="#LiberationSans-4d" x="66.699219"/>
      <use xlink:href="#LiberationSans-5a" x="150"/>
      <use xlink:href="#LiberationSans-4e" x="211.083984"/>
     </g>
    </g>
    <g id="line2d_60">
     <path style="fill: none; stroke: #d62728; stroke-width: 1.5; stroke-linecap: round"/>
    </g>
    <g id="text_20">
     <!-- ASML -->
     <g style="fill: #262626" transform="translate(-365.876562 405.910875) scale(0.1 -0.1)">
      <defs>
       <path id="LiberationSans-53" d="M 3975 1216 
Q 3975 606 3498 271 
Q 3022 -63 2156 -63 
Q 547 -63 291 1056 
L 869 1172 
Q 969 775 1294 589 
Q 1619 403 2178 403 
Q 2756 403 3070 601 
Q 3384 800 3384 1184 
Q 3384 1400 3286 1534 
Q 3188 1669 3009 1756 
Q 2831 1844 2584 1903 
Q 2338 1963 2038 2031 
Q 1516 2147 1245 2262 
Q 975 2378 819 2520 
Q 663 2663 580 2853 
Q 497 3044 497 3291 
Q 497 3856 930 4162 
Q 1363 4469 2169 4469 
Q 2919 4469 3316 4239 
Q 3713 4009 3872 3456 
L 3284 3353 
Q 3188 3703 2916 3861 
Q 2644 4019 2163 4019 
Q 1634 4019 1356 3844 
Q 1078 3669 1078 3322 
Q 1078 3119 1186 2986 
Q 1294 2853 1497 2761 
Q 1700 2669 2306 2534 
Q 2509 2488 2711 2439 
Q 2913 2391 3097 2323 
Q 3281 2256 3442 2165 
Q 3603 2075 3722 1944 
Q 3841 1813 3908 1634 
Q 3975 1456 3975 1216 
z
" transform="scale(0.015625)"/>
      </defs>
      <use xlink:href="#LiberationSans-41"/>
      <use xlink:href="#LiberationSans-53" x="66.699219"/>
      <use xlink:href="#LiberationSans-4d" x="133.398438"/>
      <use xlink:href="#LiberationSans-4c" x="216.699219"/>
     </g>
    </g>
    <g id="line2d_61">
     <path style="fill: none; stroke: #9467bd; stroke-width: 1.5; stroke-linecap: round"/>
    </g>
    <g id="text_21">
     <!-- AVGO -->
     <g style="fill: #262626" transform="translate(-290.645312 405.910875) scale(0.1 -0.1)">
      <defs>
       <path id="LiberationSans-56" d="M 2444 0 
L 1825 0 
L 28 4403 
L 656 4403 
L 1875 1303 
L 2138 525 
L 2400 1303 
L 3613 4403 
L 4241 4403 
L 2444 0 
z
" transform="scale(0.015625)"/>
       <path id="LiberationSans-47" d="M 322 2222 
Q 322 3294 897 3881 
Q 1472 4469 2513 4469 
Q 3244 4469 3700 4222 
Q 4156 3975 4403 3431 
L 3834 3263 
Q 3647 3638 3317 3809 
Q 2988 3981 2497 3981 
Q 1734 3981 1331 3520 
Q 928 3059 928 2222 
Q 928 1388 1356 905 
Q 1784 422 2541 422 
Q 2972 422 3345 553 
Q 3719 684 3950 909 
L 3950 1703 
L 2634 1703 
L 2634 2203 
L 4500 2203 
L 4500 684 
Q 4150 328 3642 132 
Q 3134 -63 2541 -63 
Q 1850 -63 1350 212 
Q 850 488 586 1005 
Q 322 1522 322 2222 
z
" transform="scale(0.015625)"/>
       <path id="LiberationSans-4f" d="M 4672 2222 
Q 4672 1531 4408 1012 
Q 4144 494 3650 215 
Q 3156 -63 2484 -63 
Q 1806 -63 1314 212 
Q 822 488 562 1008 
Q 303 1528 303 2222 
Q 303 3278 881 3873 
Q 1459 4469 2491 4469 
Q 3163 4469 3656 4201 
Q 4150 3934 4411 3425 
Q 4672 2916 4672 2222 
z
M 4063 2222 
Q 4063 3044 3652 3512 
Q 3241 3981 2491 3981 
Q 1734 3981 1321 3518 
Q 909 3056 909 2222 
Q 909 1394 1326 908 
Q 1744 422 2484 422 
Q 3247 422 3655 892 
Q 4063 1363 4063 2222 
z
" transform="scale(0.015625)"/>
      </defs>
      <use xlink:href="#LiberationSans-41"/>
      <use xlink:href="#LiberationSans-56" x="59.324219"/>
      <use xlink:href="#LiberationSans-47" x="126.023438"/>
      <use xlink:href="#LiberationSans-4f" x="203.806641"/>
     </g>
    </g>
    <g id="line2d_62">
     <path style="fill: none; stroke: #8c564b; stroke-width: 1.5; stroke-linecap: round"/>
    </g>
    <g id="text_22">
     <!-- BRK-B -->
     <g style="fill: #262626" transform="translate(-214.485937 405.910875) scale(0.1 -0.1)">
      <defs>
       <path id="LiberationSans-42" d="M 3931 1241 
Q 3931 653 3503 326 
Q 3075 0 2313 0 
L 525 0 
L 525 4403 
L 2125 4403 
Q 3675 4403 3675 3334 
Q 3675 2944 3456 2678 
Q 3238 2413 2838 2322 
Q 3363 2259 3647 1970 
Q 3931 1681 3931 1241 
z
M 3075 3263 
Q 3075 3619 2831 3772 
Q 2588 3925 2125 3925 
L 1122 3925 
L 1122 2531 
L 2125 2531 
Q 2603 2531 2839 2711 
Q 3075 2891 3075 3263 
z
M 3328 1288 
Q 3328 2066 2234 2066 
L 1122 2066 
L 1122 478 
L 2281 478 
Q 2828 478 3078 681 
Q 3328 884 3328 1288 
z
" transform="scale(0.015625)"/>
       <path id="LiberationSans-52" d="M 3638 0 
L 2494 1828 
L 1122 1828 
L 1122 0 
L 525 0 
L 525 4403 
L 2597 4403 
Q 3341 4403 3745 4070 
Q 4150 3738 4150 3144 
Q 4150 2653 3864 2318 
Q 3578 1984 3075 1897 
L 4325 0 
L 3638 0 
z
M 3550 3138 
Q 3550 3522 3289 3723 
Q 3028 3925 2538 3925 
L 1122 3925 
L 1122 2300 
L 2563 2300 
Q 3034 2300 3292 2520 
Q 3550 2741 3550 3138 
z
" transform="scale(0.015625)"/>
       <path id="LiberationSans-4b" d="M 3456 0 
L 1697 2125 
L 1122 1688 
L 1122 0 
L 525 0 
L 525 4403 
L 1122 4403 
L 1122 2197 
L 3244 4403 
L 3947 4403 
L 2072 2491 
L 4197 0 
L 3456 0 
z
" transform="scale(0.015625)"/>
      </defs>
      <use xlink:href="#LiberationSans-42"/>
      <use xlink:href="#LiberationSans-52" x="66.699219"/>
      <use xlink:href="#LiberationSans-4b" x="138.916016"/>
      <use xlink:href="#LiberationSans-2d" x="205.615234"/>
      <use xlink:href="#LiberationSans-42" x="238.916016"/>
     </g>
    </g>
    <g id="line2d_63">
     <path style="fill: none; stroke: #e377c2; stroke-width: 1.5; stroke-linecap: round"/>
    </g>
    <g id="text_23">
     <!-- CAT -->
     <g style="fill: #262626" transform="translate(-135.923437 405.910875) scale(0.1 -0.1)">
      <defs>
       <path id="LiberationSans-54" d="M 2250 3916 
L 2250 0 
L 1656 0 
L 1656 3916 
L 144 3916 
L 144 4403 
L 3763 4403 
L 3763 3916 
L 2250 3916 
z
" transform="scale(0.015625)"/>
      </defs>
      <use xlink:href="#LiberationSans-43"/>
      <use xlink:href="#LiberationSans-41" x="72.216797"/>
      <use xlink:href="#LiberationSans-54" x="131.541016"/>
     </g>
    </g>
    <g id="line2d_64">
     <path style="fill: none; stroke: #7f7f7f; stroke-width: 1.5; stroke-linecap: round"/>
    </g>
    <g id="text_24">
     <!-- COST -->
     <g style="fill: #262626" transform="translate(-68.660937 405.910875) scale(0.1 -0.1)">
      <use xlink:href="#LiberationSans-43"/>
      <use xlink:href="#LiberationSans-4f" x="72.216797"/>
      <use xlink:href="#LiberationSans-53" x="150"/>
      <use xlink:href="#LiberationSans-54" x="216.699219"/>
     </g>
    </g>
    <g id="line2d_65">
     <path d="M -1 402.410875 
L -0.882812 402.410875 
" style="fill: none; stroke: #bcbd22; stroke-width: 1.5; stroke-linecap: round"/>
    </g>
    <g id="text_25">
     <!-- CRM -->
     <g style="fill: #262626" transform="translate(7.117188 405.910875) scale(0.1 -0.1)">
      <use xlink:href="#LiberationSans-43"/>
      <use xlink:href="#LiberationSans-52" x="72.216797"/>
      <use xlink:href="#LiberationSans-4d" x="144.433594"/>
     </g>
    </g>
    <g id="line2d_66">
     <path d="M 49.890625 402.410875 
L 59.890625 402.410875 
L 69.890625 402.410875 
" style="fill: none; stroke: #17becf; stroke-width: 1.5; stroke-linecap: round"/>
    </g>
    <g id="text_26">
     <!-- GOOGL -->
     <g style="fill: #262626" transform="translate(77.890625 405.910875) scale(0.1 -0.1)">
      <use xlink:href="#LiberationSans-47"/>
      <use xlink:href="#LiberationSans-4f" x="77.783203"/>
      <use xlink:href="#LiberationSans-4f" x="155.566406"/>
      <use xlink:href="#LiberationSans-47" x="233.349609"/>
      <use xlink:href="#LiberationSans-4c" x="311.132812"/>
     </g>
    </g>
    <g id="line2d_67">
     <path d="M 134.564063 402.410875 
L 144.564063 402.410875 
L 154.564063 402.410875 
" style="fill: none; stroke: #1f77b4; stroke-width: 1.5; stroke-linecap: round"/>
    </g>
    <g id="text_27">
     <!-- JNJ -->
     <g style="fill: #262626" transform="translate(162.564063 405.910875) scale(0.1 -0.1)">
      <defs>
       <path id="LiberationSans-4a" d="M 1428 -63 
Q 309 -63 100 1094 
L 684 1191 
Q 741 828 937 625 
Q 1134 422 1431 422 
Q 1756 422 1943 645 
Q 2131 869 2131 1300 
L 2131 3916 
L 1284 3916 
L 1284 4403 
L 2725 4403 
L 2725 1313 
Q 2725 672 2378 304 
Q 2031 -63 1428 -63 
z
" transform="scale(0.015625)"/>
      </defs>
      <use xlink:href="#LiberationSans-4a"/>
      <use xlink:href="#LiberationSans-4e" x="50"/>
      <use xlink:href="#LiberationSans-4a" x="122.216797"/>
     </g>
    </g>
    <g id="line2d_68">
     <path d="M 199.785938 402.410875 
L 209.785938 402.410875 
L 219.785938 402.410875 
" style="fill: none; stroke: #ff7f0e; stroke-width: 1.5; stroke-linecap: round"/>
    </g>
    <g id="text_28">
     <!-- JPM -->
     <g style="fill: #262626" transform="translate(227.785938 405.910875) scale(0.1 -0.1)">
      <use xlink:href="#LiberationSans-4a"/>
      <use xlink:href="#LiberationSans-50" x="50"/>
      <use xlink:href="#LiberationSans-4d" x="116.699219"/>
     </g>
    </g>
    <g id="line2d_69">
     <path d="M 267.785938 402.410875 
L 277.785938 402.410875 
L 287.785938 402.410875 
" style="fill: none; stroke: #2ca02c; stroke-width: 1.5; stroke-linecap: round"/>
    </g>
    <g id="text_29">
     <!-- LLY -->
     <g style="fill: #262626" transform="translate(295.785938 405.910875) scale(0.1 -0.1)">
      <defs>
       <path id="LiberationSans-59" d="M 2428 1825 
L 2428 0 
L 1834 0 
L 1834 1825 
L 141 4403 
L 797 4403 
L 2138 2306 
L 3472 4403 
L 4128 4403 
L 2428 1825 
z
" transform="scale(0.015625)"/>
      </defs>
      <use xlink:href="#LiberationSans-4c"/>
      <use xlink:href="#LiberationSans-4c" x="55.615234"/>
      <use xlink:href="#LiberationSans-59" x="103.855469"/>
     </g>
    </g>
    <g id="line2d_70">
     <path d="M 332.840625 402.410875 
L 342.840625 402.410875 
L 352.840625 402.410875 
" style="fill: none; stroke: #d62728; stroke-width: 1.5; stroke-linecap: round"/>
    </g>
    <g id="text_30">
     <!-- LMT -->
     <g style="fill: #262626" transform="translate(360.840625 405.910875) scale(0.1 -0.1)">
      <use xlink:href="#LiberationSans-4c"/>
      <use xlink:href="#LiberationSans-4d" x="55.615234"/>
      <use xlink:href="#LiberationSans-54" x="138.916016"/>
     </g>
    </g>
    <g id="line2d_71">
     <path d="M 400.839063 402.410875 
L 410.839063 402.410875 
L 420.839063 402.410875 
" style="fill: none; stroke: #9467bd; stroke-width: 1.5; stroke-linecap: round"/>
    </g>
    <g id="text_31">
     <!-- MA -->
     <g style="fill: #262626" transform="translate(428.839063 405.910875) scale(0.1 -0.1)">
      <use xlink:href="#LiberationSans-4d"/>
      <use xlink:href="#LiberationSans-41" x="83.300781"/>
     </g>
    </g>
    <g id="line2d_72">
     <path d="M 463.839063 402.410875 
L 473.839063 402.410875 
L 483.839063 402.410875 
" style="fill: none; stroke: #8c564b; stroke-width: 1.5; stroke-linecap: round"/>
    </g>
    <g id="text_32">
     <!-- MCD -->
     <g style="fill: #262626" transform="translate(491.839063 405.910875) scale(0.1 -0.1)">
      <use xlink:href="#LiberationSans-4d"/>
      <use xlink:href="#LiberationSans-43" x="83.300781"/>
      <use xlink:href="#LiberationSans-44" x="155.517578"/>
     </g>
    </g>
    <g id="line2d_73">
     <path d="M 534.6125 402.410875 
L 544.6125 402.410875 
L 554.6125 402.410875 
" style="fill: none; stroke: #e377c2; stroke-width: 1.5; stroke-linecap: round"/>
    </g>
    <g id="text_33">
     <!-- META -->
     <g style="fill: #262626" transform="translate(562.6125 405.910875) scale(0.1 -0.1)">
      <defs>
       <path id="LiberationSans-45" d="M 525 0 
L 525 4403 
L 3866 4403 
L 3866 3916 
L 1122 3916 
L 1122 2503 
L 3678 2503 
L 3678 2022 
L 1122 2022 
L 1122 488 
L 3994 488 
L 3994 0 
L 525 0 
z
" transform="scale(0.015625)"/>
      </defs>
      <use xlink:href="#LiberationSans-4d"/>
      <use xlink:href="#LiberationSans-45" x="83.300781"/>
      <use xlink:href="#LiberationSans-54" x="150"/>
      <use xlink:href="#LiberationSans-41" x="203.708984"/>
     </g>
    </g>
    <g id="line2d_74">
     <path d="M 609.653125 402.410875 
L 619.653125 402.410875 
L 629.653125 402.410875 
" style="fill: none; stroke: #7f7f7f; stroke-width: 1.5; stroke-linecap: round"/>
    </g>
    <g id="text_34">
     <!-- MRK -->
     <g style="fill: #262626" transform="translate(637.653125 405.910875) scale(0.1 -0.1)">
      <use xlink:href="#LiberationSans-4d"/>
      <use xlink:href="#LiberationSans-52" x="83.300781"/>
      <use xlink:href="#LiberationSans-4b" x="155.517578"/>
     </g>
    </g>
    <g id="line2d_75">
     <path d="M 679.875 402.410875 
L 689.875 402.410875 
L 699.875 402.410875 
" style="fill: none; stroke: #bcbd22; stroke-width: 1.5; stroke-linecap: round"/>
    </g>
    <g id="text_35">
     <!-- MSFT -->
     <g style="fill: #262626" transform="translate(707.875 405.910875) scale(0.1 -0.1)">
      <use xlink:href="#LiberationSans-4d"/>
      <use xlink:href="#LiberationSans-53" x="83.300781"/>
      <use xlink:href="#LiberationSans-46" x="150"/>
      <use xlink:href="#LiberationSans-54" x="211.083984"/>
     </g>
    </g>
    <g id="line2d_76">
     <path d="M 755.090625 402.410875 
L 765.090625 402.410875 
L 775.090625 402.410875 
" style="fill: none; stroke: #17becf; stroke-width: 1.5; stroke-linecap: round"/>
    </g>
    <g id="text_36">
     <!-- NEE -->
     <g style="fill: #262626" transform="translate(783.090625 405.910875) scale(0.1 -0.1)">
      <use xlink:href="#LiberationSans-4e"/>
      <use xlink:href="#LiberationSans-45" x="72.216797"/>
      <use xlink:href="#LiberationSans-45" x="138.916016"/>
     </g>
    </g>
    <g id="line2d_77">
     <path d="M 823.653125 402.410875 
L 833.653125 402.410875 
L 843.653125 402.410875 
" style="fill: none; stroke: #1f77b4; stroke-width: 1.5; stroke-linecap: round"/>
    </g>
    <g id="text_37">
     <!-- NVDA -->
     <g style="fill: #262626" transform="translate(851.653125 405.910875) scale(0.1 -0.1)">
      <use xlink:href="#LiberationSans-4e"/>
      <use xlink:href="#LiberationSans-56" x="72.216797"/>
      <use xlink:href="#LiberationSans-44" x="138.916016"/>
      <use xlink:href="#LiberationSans-41" x="211.132812"/>
     </g>
    </g>
    <g id="line2d_78">
     <path style="fill: none; stroke: #ff7f0e; stroke-width: 1.5; stroke-linecap: round"/>
    </g>
    <g id="text_38">
     <!-- ORCL -->
     <g style="fill: #262626" transform="translate(927.4375 405.910875) scale(0.1 -0.1)">
      <use xlink:href="#LiberationSans-4f"/>
      <use xlink:href="#LiberationSans-52" x="77.783203"/>
      <use xlink:href="#LiberationSans-43" x="150"/>
      <use xlink:href="#LiberationSans-4c" x="222.216797"/>
     </g>
    </g>
    <g id="line2d_79">
     <path style="fill: none; stroke: #2ca02c; stroke-width: 1.5; stroke-linecap: round"/>
    </g>
    <g id="text_39">
     <!-- PG -->
     <g style="fill: #262626" transform="translate(1003.220313 405.910875) scale(0.1 -0.1)">
      <use xlink:href="#LiberationSans-50"/>
      <use xlink:href="#LiberationSans-47" x="66.699219"/>
     </g>
    </g>
    <g id="line2d_80">
     <path style="fill: none; stroke: #d62728; stroke-width: 1.5; stroke-linecap: round"/>
    </g>
    <g id="text_40">
     <!-- PLTR -->
     <g style="fill: #262626" transform="translate(1065.66875 405.910875) scale(0.1 -0.1)">
      <use xlink:href="#LiberationSans-50"/>
      <use xlink:href="#LiberationSans-4c" x="66.699219"/>
      <use xlink:href="#LiberationSans-54" x="114.939453"/>
      <use xlink:href="#LiberationSans-52" x="176.023438"/>
     </g>
    </g>
    <g id="line2d_81">
     <path style="fill: none; stroke: #9467bd; stroke-width: 1.5; stroke-linecap: round"/>
    </g>
    <g id="text_41">
     <!-- TSLA -->
     <g style="fill: #262626" transform="translate(1138.492188 405.910875) scale(0.1 -0.1)">
      <use xlink:href="#LiberationSans-54"/>
      <use xlink:href="#LiberationSans-53" x="61.083984"/>
      <use xlink:href="#LiberationSans-4c" x="127.783203"/>
      <use xlink:href="#LiberationSans-41" x="183.398438"/>
     </g>
    </g>
    <g id="line2d_82">
     <path style="fill: none; stroke: #8c564b; stroke-width: 1.5; stroke-linecap: round"/>
    </g>
    <g id="text_42">
     <!-- TSM -->
     <g style="fill: #262626" transform="translate(1211.501563 405.910875) scale(0.1 -0.1)">
      <use xlink:href="#LiberationSans-54"/>
      <use xlink:href="#LiberationSans-53" x="61.083984"/>
      <use xlink:href="#LiberationSans-4d" x="127.783203"/>
     </g>
    </g>
    <g id="line2d_83">
     <path style="fill: none; stroke: #e377c2; stroke-width: 1.5; stroke-linecap: round"/>
    </g>
    <g id="text_43">
     <!-- UNH -->
     <g style="fill: #262626" transform="translate(1280.609375 405.910875) scale(0.1 -0.1)">
      <defs>
       <path id="LiberationSans-55" d="M 2284 -63 
Q 1744 -63 1341 134 
Q 938 331 716 706 
Q 494 1081 494 1600 
L 494 4403 
L 1091 4403 
L 1091 1650 
Q 1091 1047 1397 734 
Q 1703 422 2281 422 
Q 2875 422 3204 745 
Q 3534 1069 3534 1691 
L 3534 4403 
L 4128 4403 
L 4128 1656 
Q 4128 1122 3901 734 
Q 3675 347 3261 142 
Q 2847 -63 2284 -63 
z
" transform="scale(0.015625)"/>
       <path id="LiberationSans-48" d="M 3503 0 
L 3503 2041 
L 1122 2041 
L 1122 0 
L 525 0 
L 525 4403 
L 1122 4403 
L 1122 2541 
L 3503 2541 
L 3503 4403 
L 4100 4403 
L 4100 0 
L 3503 0 
z
" transform="scale(0.015625)"/>
      </defs>
      <use xlink:href="#LiberationSans-55"/>
      <use xlink:href="#LiberationSans-4e" x="72.216797"/>
      <use xlink:href="#LiberationSans-48" x="144.433594"/>
     </g>
    </g>
    <g id="line2d_84">
     <path style="fill: none; stroke: #7f7f7f; stroke-width: 1.5; stroke-linecap: round"/>
    </g>
    <g id="text_44">
     <!-- V -->
     <g style="fill: #262626" transform="translate(1350.275 405.910875) scale(0.1 -0.1)">
      <use xlink:href="#LiberationSans-56"/>
     </g>
    </g>
    <g id="line2d_85">
     <path style="fill: none; stroke: #bcbd22; stroke-width: 1.5; stroke-linecap: round"/>
    </g>
    <g id="text_45">
     <!-- WMT -->
     <g style="fill: #262626" transform="translate(1404.945313 405.910875) scale(0.1 -0.1)">
      <defs>
       <path id="LiberationSans-57" d="M 4722 0 
L 4009 0 
L 3247 2797 
Q 3172 3059 3028 3738 
Q 2947 3375 2890 3131 
Q 2834 2888 2038 0 
L 1325 0 
L 28 4403 
L 650 4403 
L 1441 1606 
Q 1581 1081 1700 525 
Q 1775 869 1873 1275 
Q 1972 1681 2741 4403 
L 3313 4403 
L 4078 1663 
Q 4253 991 4353 525 
L 4381 634 
Q 4466 994 4519 1220 
Q 4572 1447 5397 4403 
L 6019 4403 
L 4722 0 
z
" transform="scale(0.015625)"/>
      </defs>
      <use xlink:href="#LiberationSans-57"/>
      <use xlink:href="#LiberationSans-4d" x="94.384766"/>
      <use xlink:href="#LiberationSans-54" x="177.685547"/>
     </g>
    </g>
    <g id="line2d_86">
     <path style="fill: none; stroke: #17becf; stroke-width: 1.5; stroke-linecap: round"/>
    </g>
    <g id="text_46">
     <!-- XOM -->
     <g style="fill: #262626" transform="translate(1476.821875 405.910875) scale(0.1 -0.1)">
      <defs>
       <path id="LiberationSans-58" d="M 3475 0 
L 2153 1925 
L 803 0 
L 144 0 
L 1819 2288 
L 272 4403 
L 931 4403 
L 2156 2675 
L 3347 4403 
L 4006 4403 
L 2500 2309 
L 4134 0 
L 3475 0 
z
" transform="scale(0.015625)"/>
      </defs>
      <use xlink:href="#LiberationSans-58"/>
      <use xlink:href="#LiberationSans-4f" x="66.699219"/>
      <use xlink:href="#LiberationSans-4d" x="144.482422"/>
     </g>
    </g>
   </g>
  </g>
 </g>
 <defs>
  <clipPath id="pf233d084f2">
   <rect x="108" y="51.84" width="669.6" height="293.76"/>
  </clipPath>
 </defs>
</svg>
