<?xml version="1.0" encoding="utf-8" standalone="no"?>
<!DOCTYPE svg PUBLIC "-//W3C//DTD SVG 1.1//EN"
  "http://www.w3.org/Graphics/SVG/1.1/DTD/svg11.dtd">
<svg xmlns:xlink="http://www.w3.org/1999/xlink" width="864pt" height="432pt" viewBox="0 0 864 432" xmlns="http://www.w3.org/2000/svg" version="1.1">
 <metadata>
  <rdf:RDF xmlns:dc="http://purl.org/dc/elements/1.1/" xmlns:cc="http://creativecommons.org/ns#" xmlns:rdf="http://www.w3.org/1999/02/22-rdf-syntax-ns#">
   <cc:Work>
    <dc:type rdf:resource="http://purl.org/dc/dcmitype/StillImage"/>
    <dc:date>2026-06-29T07:30:28.885054</dc:date>
    <dc:format>image/svg+xml</dc:format>
    <dc:creator>
     <cc:Agent>
      <dc:title>Matplotlib v3.8.4, https://matplotlib.org/</dc:title>
     </cc:Agent>
    </dc:creator>
   </cc:Work>
  </rdf:RDF>
 </metadata>
 <defs>
  <style type="text/css">*{stroke-linejoin: round; stroke-linecap: butt}</style>
 </defs>
 <g id="figure_1">
  <g id="patch_1">
   <path d="M 0 432 
L 864 432 
L 864 0 
L 0 0 
z
" style="fill: #ffffff"/>
  </g>
  <g id="axes_1">
   <g id="patch_2">
    <path d="M 108 345.6 
L 777.6 345.6 
L 777.6 51.84 
L 108 51.84 
z
" style="fill: #ffffff"/>
   </g>
   <g id="matplotlib.axis_1">
    <g id="xtick_1">
     <g id="line2d_1">
      <path d="M 138.436364 345.6 
L 138.436364 51.84 
" clip-path="url(#p51dfdb2594)" style="fill: none; stroke-dasharray: 2.96,1.28; stroke-dashoffset: 0; stroke: #cccccc; stroke-opacity: 0.6; stroke-width: 0.8"/>
     </g>
     <g id="line2d_2"/>
     <g id="text_1">
      <!-- 2026-06-05 -->
      <g style="fill: #262626" transform="translate(93.104371 380.949415) rotate(-30) scale(0.1 -0.1)">
       <defs>
        <path id="LiberationSans-32" d="M 322 0 
L 322 397 
Q 481 763 711 1042 
Q 941 1322 1194 1548 
Q 1447 1775 1695 1969 
Q 1944 2163 2144 2356 
Q 2344 2550 2467 2762 
Q 2591 2975 2591 3244 
Q 2591 3606 2378 3806 
Q 2166 4006 1788 4006 
Q 1428 4006 1195 3811 
Q 963 3616 922 3263 
L 347 3316 
Q 409 3844 795 4156 
Q 1181 4469 1788 4469 
Q 2453 4469 2811 4155 
Q 3169 3841 3169 3263 
Q 3169 3006 3051 2753 
Q 2934 2500 2703 2247 
Q 2472 1994 1819 1463 
Q 1459 1169 1246 933 
Q 1034 697 941 478 
L 3238 478 
L 3238 0 
L 322 0 
z
" transform="scale(0.015625)"/>
        <path id="LiberationSans-30" d="M 3309 2203 
Q 3309 1100 2920 518 
Q 2531 -63 1772 -63 
Q 1013 -63 631 515 
Q 250 1094 250 2203 
Q 250 3338 620 3903 
Q 991 4469 1791 4469 
Q 2569 4469 2939 3897 
Q 3309 3325 3309 2203 
z
M 2738 2203 
Q 2738 3156 2517 3584 
Q 2297 4013 1791 4013 
Q 1272 4013 1045 3591 
Q 819 3169 819 2203 
Q 819 1266 1048 831 
Q 1278 397 1778 397 
Q 2275 397 2506 840 
Q 2738 1284 2738 2203 
z
" transform="scale(0.015625)"/>
        <path id="LiberationSans-36" d="M 3278 1441 
Q 3278 744 2900 340 
Q 2522 -63 1856 -63 
Q 1113 -63 719 490 
Q 325 1044 325 2100 
Q 325 3244 734 3856 
Q 1144 4469 1900 4469 
Q 2897 4469 3156 3572 
L 2619 3475 
Q 2453 4013 1894 4013 
Q 1413 4013 1148 3564 
Q 884 3116 884 2266 
Q 1038 2550 1316 2698 
Q 1594 2847 1953 2847 
Q 2563 2847 2920 2465 
Q 3278 2084 3278 1441 
z
M 2706 1416 
Q 2706 1894 2472 2153 
Q 2238 2413 1819 2413 
Q 1425 2413 1183 2183 
Q 941 1953 941 1550 
Q 941 1041 1192 716 
Q 1444 391 1838 391 
Q 2244 391 2475 664 
Q 2706 938 2706 1416 
z
" transform="scale(0.015625)"/>
        <path id="LiberationSans-2d" d="M 284 1450 
L 284 1950 
L 1847 1950 
L 1847 1450 
L 284 1450 
z
" transform="scale(0.015625)"/>
        <path id="LiberationSans-35" d="M 3291 1434 
Q 3291 738 2877 337 
Q 2463 -63 1728 -63 
Q 1113 -63 734 206 
Q 356 475 256 984 
L 825 1050 
Q 1003 397 1741 397 
Q 2194 397 2450 670 
Q 2706 944 2706 1422 
Q 2706 1838 2448 2094 
Q 2191 2350 1753 2350 
Q 1525 2350 1328 2278 
Q 1131 2206 934 2034 
L 384 2034 
L 531 4403 
L 3034 4403 
L 3034 3925 
L 1044 3925 
L 959 2528 
Q 1325 2809 1869 2809 
Q 2519 2809 2905 2428 
Q 3291 2047 3291 1434 
z
" transform="scale(0.015625)"/>
       </defs>
       <use xlink:href="#LiberationSans-32"/>
       <use xlink:href="#LiberationSans-30" x="55.615234"/>
       <use xlink:href="#LiberationSans-32" x="111.230469"/>
       <use xlink:href="#LiberationSans-36" x="166.845703"/>
       <use xlink:href="#LiberationSans-2d" x="222.460938"/>
       <use xlink:href="#LiberationSans-30" x="255.761719"/>
       <use xlink:href="#LiberationSans-36" x="311.376953"/>
       <use xlink:href="#LiberationSans-2d" x="366.992188"/>
       <use xlink:href="#LiberationSans-30" x="400.292969"/>
       <use xlink:href="#LiberationSans-35" x="455.908203"/>
      </g>
     </g>
    </g>
    <g id="xtick_2">
     <g id="line2d_3">
      <path d="M 254.384416 345.6 
L 254.384416 51.84 
" clip-path="url(#p51dfdb2594)" style="fill: none; stroke-dasharray: 2.96,1.28; stroke-dashoffset: 0; stroke: #cccccc; stroke-opacity: 0.6; stroke-width: 0.8"/>
     </g>
     <g id="line2d_4"/>
     <g id="text_2">
      <!-- 2026-06-09 -->
      <g style="fill: #262626" transform="translate(209.052423 380.949415) rotate(-30) scale(0.1 -0.1)">
       <defs>
        <path id="LiberationSans-39" d="M 3256 2291 
Q 3256 1156 2842 546 
Q 2428 -63 1663 -63 
Q 1147 -63 836 154 
Q 525 372 391 856 
L 928 941 
Q 1097 391 1672 391 
Q 2156 391 2422 841 
Q 2688 1291 2700 2125 
Q 2575 1844 2272 1673 
Q 1969 1503 1606 1503 
Q 1013 1503 656 1909 
Q 300 2316 300 2988 
Q 300 3678 687 4073 
Q 1075 4469 1766 4469 
Q 2500 4469 2878 3925 
Q 3256 3381 3256 2291 
z
M 2644 2834 
Q 2644 3366 2400 3689 
Q 2156 4013 1747 4013 
Q 1341 4013 1106 3736 
Q 872 3459 872 2988 
Q 872 2506 1106 2226 
Q 1341 1947 1741 1947 
Q 1984 1947 2193 2058 
Q 2403 2169 2523 2372 
Q 2644 2575 2644 2834 
z
" transform="scale(0.015625)"/>
       </defs>
       <use xlink:href="#LiberationSans-32"/>
       <use xlink:href="#LiberationSans-30" x="55.615234"/>
       <use xlink:href="#LiberationSans-32" x="111.230469"/>
       <use xlink:href="#LiberationSans-36" x="166.845703"/>
       <use xlink:href="#LiberationSans-2d" x="222.460938"/>
       <use xlink:href="#LiberationSans-30" x="255.761719"/>
       <use xlink:href="#LiberationSans-36" x="311.376953"/>
       <use xlink:href="#LiberationSans-2d" x="366.992188"/>
       <use xlink:href="#LiberationSans-30" x="400.292969"/>
       <use xlink:href="#LiberationSans-39" x="455.908203"/>
      </g>
     </g>
    </g>
    <g id="xtick_3">
     <g id="line2d_5">
      <path d="M 370.332468 345.6 
L 370.332468 51.84 
" clip-path="url(#p51dfdb2594)" style="fill: none; stroke-dasharray: 2.96,1.28; stroke-dashoffset: 0; stroke: #cccccc; stroke-opacity: 0.6; stroke-width: 0.8"/>
     </g>
     <g id="line2d_6"/>
     <g id="text_3">
      <!-- 2026-06-13 -->
      <g style="fill: #262626" transform="translate(325.000474 380.949415) rotate(-30) scale(0.1 -0.1)">
       <defs>
        <path id="LiberationSans-31" d="M 488 0 
L 488 478 
L 1609 478 
L 1609 3866 
L 616 3156 
L 616 3688 
L 1656 4403 
L 2175 4403 
L 2175 478 
L 3247 478 
L 3247 0 
L 488 0 
z
" transform="scale(0.015625)"/>
        <path id="LiberationSans-33" d="M 3278 1216 
Q 3278 606 2890 271 
Q 2503 -63 1784 -63 
Q 1116 -63 717 239 
Q 319 541 244 1131 
L 825 1184 
Q 938 403 1784 403 
Q 2209 403 2451 612 
Q 2694 822 2694 1234 
Q 2694 1594 2417 1795 
Q 2141 1997 1619 1997 
L 1300 1997 
L 1300 2484 
L 1606 2484 
Q 2069 2484 2323 2686 
Q 2578 2888 2578 3244 
Q 2578 3597 2370 3801 
Q 2163 4006 1753 4006 
Q 1381 4006 1151 3815 
Q 922 3625 884 3278 
L 319 3322 
Q 381 3863 767 4166 
Q 1153 4469 1759 4469 
Q 2422 4469 2789 4161 
Q 3156 3853 3156 3303 
Q 3156 2881 2920 2617 
Q 2684 2353 2234 2259 
L 2234 2247 
Q 2728 2194 3003 1916 
Q 3278 1638 3278 1216 
z
" transform="scale(0.015625)"/>
       </defs>
       <use xlink:href="#LiberationSans-32"/>
       <use xlink:href="#LiberationSans-30" x="55.615234"/>
       <use xlink:href="#LiberationSans-32" x="111.230469"/>
       <use xlink:href="#LiberationSans-36" x="166.845703"/>
       <use xlink:href="#LiberationSans-2d" x="222.460938"/>
       <use xlink:href="#LiberationSans-30" x="255.761719"/>
       <use xlink:href="#LiberationSans-36" x="311.376953"/>
       <use xlink:href="#LiberationSans-2d" x="366.992188"/>
       <use xlink:href="#LiberationSans-31" x="400.292969"/>
       <use xlink:href="#LiberationSans-33" x="455.908203"/>
      </g>
     </g>
    </g>
    <g id="xtick_4">
     <g id="line2d_7">
      <path d="M 486.280519 345.6 
L 486.280519 51.84 
" clip-path="url(#p51dfdb2594)" style="fill: none; stroke-dasharray: 2.96,1.28; stroke-dashoffset: 0; stroke: #cccccc; stroke-opacity: 0.6; stroke-width: 0.8"/>
     </g>
     <g id="line2d_8"/>
     <g id="text_4">
      <!-- 2026-06-17 -->
      <g style="fill: #262626" transform="translate(440.948526 380.949415) rotate(-30) scale(0.1 -0.1)">
       <defs>
        <path id="LiberationSans-37" d="M 3238 3947 
Q 2563 2916 2284 2331 
Q 2006 1747 1867 1178 
Q 1728 609 1728 0 
L 1141 0 
Q 1141 844 1498 1776 
Q 1856 2709 2694 3925 
L 328 3925 
L 328 4403 
L 3238 4403 
L 3238 3947 
z
" transform="scale(0.015625)"/>
       </defs>
       <use xlink:href="#LiberationSans-32"/>
       <use xlink:href="#LiberationSans-30" x="55.615234"/>
       <use xlink:href="#LiberationSans-32" x="111.230469"/>
       <use xlink:href="#LiberationSans-36" x="166.845703"/>
       <use xlink:href="#LiberationSans-2d" x="222.460938"/>
       <use xlink:href="#LiberationSans-30" x="255.761719"/>
       <use xlink:href="#LiberationSans-36" x="311.376953"/>
       <use xlink:href="#LiberationSans-2d" x="366.992188"/>
       <use xlink:href="#LiberationSans-31" x="400.292969"/>
       <use xlink:href="#LiberationSans-37" x="455.908203"/>
      </g>
     </g>
    </g>
    <g id="xtick_5">
     <g id="line2d_9">
      <path d="M 602.228571 345.6 
L 602.228571 51.84 
" clip-path="url(#p51dfdb2594)" style="fill: none; stroke-dasharray: 2.96,1.28; stroke-dashoffset: 0; stroke: #cccccc; stroke-opacity: 0.6; stroke-width: 0.8"/>
     </g>
     <g id="line2d_10"/>
     <g id="text_5">
      <!-- 2026-06-21 -->
      <g style="fill: #262626" transform="translate(556.896578 380.949415) rotate(-30) scale(0.1 -0.1)">
       <use xlink:href="#LiberationSans-32"/>
       <use xlink:href="#LiberationSans-30" x="55.615234"/>
       <use xlink:href="#LiberationSans-32" x="111.230469"/>
       <use xlink:href="#LiberationSans-36" x="166.845703"/>
       <use xlink:href="#LiberationSans-2d" x="222.460938"/>
       <use xlink:href="#LiberationSans-30" x="255.761719"/>
       <use xlink:href="#LiberationSans-36" x="311.376953"/>
       <use xlink:href="#LiberationSans-2d" x="366.992188"/>
       <use xlink:href="#LiberationSans-32" x="400.292969"/>
       <use xlink:href="#LiberationSans-31" x="455.908203"/>
      </g>
     </g>
    </g>
    <g id="xtick_6">
     <g id="line2d_11">
      <path d="M 718.176623 345.6 
L 718.176623 51.84 
" clip-path="url(#p51dfdb2594)" style="fill: none; stroke-dasharray: 2.96,1.28; stroke-dashoffset: 0; stroke: #cccccc; stroke-opacity: 0.6; stroke-width: 0.8"/>
     </g>
     <g id="line2d_12"/>
     <g id="text_6">
      <!-- 2026-06-25 -->
      <g style="fill: #262626" transform="translate(672.84463 380.949415) rotate(-30) scale(0.1 -0.1)">
       <use xlink:href="#LiberationSans-32"/>
       <use xlink:href="#LiberationSans-30" x="55.615234"/>
       <use xlink:href="#LiberationSans-32" x="111.230469"/>
       <use xlink:href="#LiberationSans-36" x="166.845703"/>
       <use xlink:href="#LiberationSans-2d" x="222.460938"/>
       <use xlink:href="#LiberationSans-30" x="255.761719"/>
       <use xlink:href="#LiberationSans-36" x="311.376953"/>
       <use xlink:href="#LiberationSans-2d" x="366.992188"/>
       <use xlink:href="#LiberationSans-32" x="400.292969"/>
       <use xlink:href="#LiberationSans-35" x="455.908203"/>
      </g>
     </g>
    </g>
    <g id="text_7">
     <!-- Fecha -->
     <g style="fill: #262626" transform="translate(428.904688 393.993293) scale(0.1 -0.1)">
      <defs>
       <path id="LiberationSans-46" d="M 1122 3916 
L 1122 2278 
L 3578 2278 
L 3578 1784 
L 1122 1784 
L 1122 0 
L 525 0 
L 525 4403 
L 3653 4403 
L 3653 3916 
L 1122 3916 
z
" transform="scale(0.015625)"/>
       <path id="LiberationSans-65" d="M 863 1572 
Q 863 991 1103 675 
Q 1344 359 1806 359 
Q 2172 359 2392 506 
Q 2613 653 2691 878 
L 3184 738 
Q 2881 -63 1806 -63 
Q 1056 -63 664 384 
Q 272 831 272 1713 
Q 272 2550 664 2997 
Q 1056 3444 1784 3444 
Q 3275 3444 3275 1647 
L 3275 1572 
L 863 1572 
z
M 2694 2003 
Q 2647 2538 2422 2783 
Q 2197 3028 1775 3028 
Q 1366 3028 1127 2754 
Q 888 2481 869 2003 
L 2694 2003 
z
" transform="scale(0.015625)"/>
       <path id="LiberationSans-63" d="M 859 1706 
Q 859 1031 1071 706 
Q 1284 381 1713 381 
Q 2013 381 2214 543 
Q 2416 706 2463 1044 
L 3031 1006 
Q 2966 519 2616 228 
Q 2266 -63 1728 -63 
Q 1019 -63 645 385 
Q 272 834 272 1694 
Q 272 2547 647 2995 
Q 1022 3444 1722 3444 
Q 2241 3444 2583 3175 
Q 2925 2906 3013 2434 
L 2434 2391 
Q 2391 2672 2212 2837 
Q 2034 3003 1706 3003 
Q 1259 3003 1059 2706 
Q 859 2409 859 1706 
z
" transform="scale(0.015625)"/>
       <path id="LiberationSans-68" d="M 991 2803 
Q 1172 3134 1426 3289 
Q 1681 3444 2072 3444 
Q 2622 3444 2883 3170 
Q 3144 2897 3144 2253 
L 3144 0 
L 2578 0 
L 2578 2144 
Q 2578 2500 2512 2673 
Q 2447 2847 2297 2928 
Q 2147 3009 1881 3009 
Q 1484 3009 1245 2734 
Q 1006 2459 1006 1994 
L 1006 0 
L 444 0 
L 444 4638 
L 1006 4638 
L 1006 3431 
Q 1006 3241 995 3037 
Q 984 2834 981 2803 
L 991 2803 
z
" transform="scale(0.015625)"/>
       <path id="LiberationSans-61" d="M 1294 -63 
Q 784 -63 528 206 
Q 272 475 272 944 
Q 272 1469 617 1750 
Q 963 2031 1731 2050 
L 2491 2063 
L 2491 2247 
Q 2491 2659 2316 2837 
Q 2141 3016 1766 3016 
Q 1388 3016 1216 2887 
Q 1044 2759 1009 2478 
L 422 2531 
Q 566 3444 1778 3444 
Q 2416 3444 2737 3151 
Q 3059 2859 3059 2306 
L 3059 850 
Q 3059 600 3125 473 
Q 3191 347 3375 347 
Q 3456 347 3559 369 
L 3559 19 
Q 3347 -31 3125 -31 
Q 2813 -31 2670 133 
Q 2528 297 2509 647 
L 2491 647 
Q 2275 259 1989 98 
Q 1703 -63 1294 -63 
z
M 1422 359 
Q 1731 359 1972 500 
Q 2213 641 2352 886 
Q 2491 1131 2491 1391 
L 2491 1669 
L 1875 1656 
Q 1478 1650 1273 1575 
Q 1069 1500 959 1344 
Q 850 1188 850 934 
Q 850 659 998 509 
Q 1147 359 1422 359 
z
" transform="scale(0.015625)"/>
      </defs>
      <use xlink:href="#LiberationSans-46"/>
      <use xlink:href="#LiberationSans-65" x="61.083984"/>
      <use xlink:href="#LiberationSans-63" x="116.699219"/>
      <use xlink:href="#LiberationSans-68" x="166.699219"/>
      <use xlink:href="#LiberationSans-61" x="222.314453"/>
     </g>
    </g>
   </g>
   <g id="matplotlib.axis_2">
    <g id="ytick_1">
     <g id="line2d_13">
      <path d="M 108 344.402887 
L 777.6 344.402887 
" clip-path="url(#p51dfdb2594)" style="fill: none; stroke-dasharray: 2.96,1.28; stroke-dashoffset: 0; stroke: #cccccc; stroke-opacity: 0.6; stroke-width: 0.8"/>
     </g>
     <g id="line2d_14"/>
     <g id="text_8">
      <!-- 0 -->
      <g style="fill: #262626" transform="translate(98.939063 348.026324) scale(0.1 -0.1)">
       <use xlink:href="#LiberationSans-30"/>
      </g>
     </g>
    </g>
    <g id="ytick_2">
     <g id="line2d_15">
      <path d="M 108 308.229771 
L 777.6 308.229771 
" clip-path="url(#p51dfdb2594)" style="fill: none; stroke-dasharray: 2.96,1.28; stroke-dashoffset: 0; stroke: #cccccc; stroke-opacity: 0.6; stroke-width: 0.8"/>
     </g>
     <g id="line2d_16"/>
     <g id="text_9">
      <!-- 250 -->
      <g style="fill: #262626" transform="translate(87.817188 311.853209) scale(0.1 -0.1)">
       <use xlink:href="#LiberationSans-32"/>
       <use xlink:href="#LiberationSans-35" x="55.615234"/>
       <use xlink:href="#LiberationSans-30" x="111.230469"/>
      </g>
     </g>
    </g>
    <g id="ytick_3">
     <g id="line2d_17">
      <path d="M 108 272.056655 
L 777.6 272.056655 
" clip-path="url(#p51dfdb2594)" style="fill: none; stroke-dasharray: 2.96,1.28; stroke-dashoffset: 0; stroke: #cccccc; stroke-opacity: 0.6; stroke-width: 0.8"/>
     </g>
     <g id="line2d_18"/>
     <g id="text_10">
      <!-- 500 -->
      <g style="fill: #262626" transform="translate(87.817188 275.680093) scale(0.1 -0.1)">
       <use xlink:href="#LiberationSans-35"/>
       <use xlink:href="#LiberationSans-30" x="55.615234"/>
       <use xlink:href="#LiberationSans-30" x="111.230469"/>
      </g>
     </g>
    </g>
    <g id="ytick_4">
     <g id="line2d_19">
      <path d="M 108 235.88354 
L 777.6 235.88354 
" clip-path="url(#p51dfdb2594)" style="fill: none; stroke-dasharray: 2.96,1.28; stroke-dashoffset: 0; stroke: #cccccc; stroke-opacity: 0.6; stroke-width: 0.8"/>
     </g>
     <g id="line2d_20"/>
     <g id="text_11">
      <!-- 750 -->
      <g style="fill: #262626" transform="translate(87.817188 239.506977) scale(0.1 -0.1)">
       <use xlink:href="#LiberationSans-37"/>
       <use xlink:href="#LiberationSans-35" x="55.615234"/>
       <use xlink:href="#LiberationSans-30" x="111.230469"/>
      </g>
     </g>
    </g>
    <g id="ytick_5">
     <g id="line2d_21">
      <path d="M 108 199.710424 
L 777.6 199.710424 
" clip-path="url(#p51dfdb2594)" style="fill: none; stroke-dasharray: 2.96,1.28; stroke-dashoffset: 0; stroke: #cccccc; stroke-opacity: 0.6; stroke-width: 0.8"/>
     </g>
     <g id="line2d_22"/>
     <g id="text_12">
      <!-- 1000 -->
      <g style="fill: #262626" transform="translate(82.25625 203.333861) scale(0.1 -0.1)">
       <use xlink:href="#LiberationSans-31"/>
       <use xlink:href="#LiberationSans-30" x="55.615234"/>
       <use xlink:href="#LiberationSans-30" x="111.230469"/>
       <use xlink:href="#LiberationSans-30" x="166.845703"/>
      </g>
     </g>
    </g>
    <g id="ytick_6">
     <g id="line2d_23">
      <path d="M 108 163.537308 
L 777.6 163.537308 
" clip-path="url(#p51dfdb2594)" style="fill: none; stroke-dasharray: 2.96,1.28; stroke-dashoffset: 0; stroke: #cccccc; stroke-opacity: 0.6; stroke-width: 0.8"/>
     </g>
     <g id="line2d_24"/>
     <g id="text_13">
      <!-- 1250 -->
      <g style="fill: #262626" transform="translate(82.25625 167.160746) scale(0.1 -0.1)">
       <use xlink:href="#LiberationSans-31"/>
       <use xlink:href="#LiberationSans-32" x="55.615234"/>
       <use xlink:href="#LiberationSans-35" x="111.230469"/>
       <use xlink:href="#LiberationSans-30" x="166.845703"/>
      </g>
     </g>
    </g>
    <g id="ytick_7">
     <g id="line2d_25">
      <path d="M 108 127.364193 
L 777.6 127.364193 
" clip-path="url(#p51dfdb2594)" style="fill: none; stroke-dasharray: 2.96,1.28; stroke-dashoffset: 0; stroke: #cccccc; stroke-opacity: 0.6; stroke-width: 0.8"/>
     </g>
     <g id="line2d_26"/>
     <g id="text_14">
      <!-- 1500 -->
      <g style="fill: #262626" transform="translate(82.25625 130.98763) scale(0.1 -0.1)">
       <use xlink:href="#LiberationSans-31"/>
       <use xlink:href="#LiberationSans-35" x="55.615234"/>
       <use xlink:href="#LiberationSans-30" x="111.230469"/>
       <use xlink:href="#LiberationSans-30" x="166.845703"/>
      </g>
     </g>
    </g>
    <g id="ytick_8">
     <g id="line2d_27">
      <path d="M 108 91.191077 
L 777.6 91.191077 
" clip-path="url(#p51dfdb2594)" style="fill: none; stroke-dasharray: 2.96,1.28; stroke-dashoffset: 0; stroke: #cccccc; stroke-opacity: 0.6; stroke-width: 0.8"/>
     </g>
     <g id="line2d_28"/>
     <g id="text_15">
      <!-- 1750 -->
      <g style="fill: #262626" transform="translate(82.25625 94.814514) scale(0.1 -0.1)">
       <use xlink:href="#LiberationSans-31"/>
       <use xlink:href="#LiberationSans-37" x="55.615234"/>
       <use xlink:href="#LiberationSans-35" x="111.230469"/>
       <use xlink:href="#LiberationSans-30" x="166.845703"/>
      </g>
     </g>
    </g>
    <g id="ytick_9">
     <g id="line2d_29">
      <path d="M 108 55.017961 
L 777.6 55.017961 
" clip-path="url(#p51dfdb2594)" style="fill: none; stroke-dasharray: 2.96,1.28; stroke-dashoffset: 0; stroke: #cccccc; stroke-opacity: 0.6; stroke-width: 0.8"/>
     </g>
     <g id="line2d_30"/>
     <g id="text_16">
      <!-- 2000 -->
      <g style="fill: #262626" transform="translate(82.25625 58.641399) scale(0.1 -0.1)">
       <use xlink:href="#LiberationSans-32"/>
       <use xlink:href="#LiberationSans-30" x="55.615234"/>
       <use xlink:href="#LiberationSans-30" x="111.230469"/>
       <use xlink:href="#LiberationSans-30" x="166.845703"/>
      </g>
     </g>
    </g>
    <g id="text_17">
     <!-- Cierre -->
     <g style="fill: #262626" transform="translate(76.18125 212.3325) rotate(-90) scale(0.1 -0.1)">
      <defs>
       <path id="LiberationSans-43" d="M 2475 3981 
Q 1744 3981 1337 3511 
Q 931 3041 931 2222 
Q 931 1413 1354 920 
Q 1778 428 2500 428 
Q 3425 428 3891 1344 
L 4378 1100 
Q 4106 531 3614 234 
Q 3122 -63 2472 -63 
Q 1806 -63 1320 214 
Q 834 491 579 1005 
Q 325 1519 325 2222 
Q 325 3275 894 3872 
Q 1463 4469 2469 4469 
Q 3172 4469 3644 4194 
Q 4116 3919 4338 3378 
L 3772 3191 
Q 3619 3575 3280 3778 
Q 2941 3981 2475 3981 
z
" transform="scale(0.015625)"/>
       <path id="LiberationSans-69" d="M 428 4100 
L 428 4638 
L 991 4638 
L 991 4100 
L 428 4100 
z
M 428 0 
L 428 3381 
L 991 3381 
L 991 0 
L 428 0 
z
" transform="scale(0.015625)"/>
       <path id="LiberationSans-72" d="M 444 0 
L 444 2594 
Q 444 2950 425 3381 
L 956 3381 
Q 981 2806 981 2691 
L 994 2691 
Q 1128 3125 1303 3284 
Q 1478 3444 1797 3444 
Q 1909 3444 2025 3413 
L 2025 2897 
Q 1913 2928 1725 2928 
Q 1375 2928 1190 2626 
Q 1006 2325 1006 1763 
L 1006 0 
L 444 0 
z
" transform="scale(0.015625)"/>
      </defs>
      <use xlink:href="#LiberationSans-43"/>
      <use xlink:href="#LiberationSans-69" x="72.216797"/>
      <use xlink:href="#LiberationSans-65" x="94.433594"/>
      <use xlink:href="#LiberationSans-72" x="150.048828"/>
      <use xlink:href="#LiberationSans-72" x="183.349609"/>
      <use xlink:href="#LiberationSans-65" x="216.650391"/>
     </g>
    </g>
   </g>
   <g id="line2d_31">
    <path d="M 138.436364 299.933106 
L 225.397403 300.77232 
L 254.384416 302.362494 
L 283.371429 302.21346 
L 312.358442 301.627453 
L 341.345455 302.278569 
L 428.306494 301.513145 
L 457.293506 301.105116 
L 486.280519 301.581151 
L 515.267532 301.283085 
L 631.215584 301.427777 
L 660.202597 301.819897 
L 689.18961 301.996422 
L 718.176623 304.590757 
L 747.163636 303.34206 
" clip-path="url(#p51dfdb2594)" style="fill: none; stroke: #1f77b4; stroke-width: 1.5; stroke-linecap: round"/>
   </g>
   <g id="line2d_32">
    <path d="M 138.436364 276.921215 
L 225.397403 273.455833 
L 254.384416 275.600172 
L 283.371429 278.944018 
L 312.358442 273.727852 
L 341.345455 270.382563 
L 428.306494 265.218488 
L 457.293506 271.001846 
L 486.280519 270.250896 
L 515.267532 266.649499 
L 631.215584 264.586183 
L 660.202597 269.184514 
L 689.18961 269.200428 
L 718.176623 267.344021 
L 747.163636 268.93419 
" clip-path="url(#p51dfdb2594)" style="fill: none; stroke: #ff7f0e; stroke-width: 1.5; stroke-linecap: round"/>
   </g>
   <g id="line2d_33">
    <path d="M 138.436364 308.8042 
L 225.397403 308.921401 
L 254.384416 309.070434 
L 283.371429 309.966081 
L 312.358442 309.458211 
L 341.345455 309.886499 
L 428.306494 308.805647 
L 457.293506 308.808541 
L 486.280519 310.038427 
L 515.267532 309.041496 
L 631.215584 310.719929 
L 660.202597 310.528934 
L 689.18961 310.505783 
L 718.176623 311.556252 
L 747.163636 310.734397 
" clip-path="url(#p51dfdb2594)" style="fill: none; stroke: #2ca02c; stroke-width: 1.5; stroke-linecap: round"/>
   </g>
   <g id="line2d_34">
    <path d="M 138.436364 106.855484 
L 225.397403 91.329976 
L 254.384416 87.172964 
L 283.371429 93.478673 
L 312.358442 69.56245 
L 341.345455 74.761241 
L 428.306494 70.549245 
L 457.293506 83.393598 
L 486.280519 74.14197 
L 515.267532 65.192727 
L 631.215584 65.254953 
L 660.202597 87.073135 
L 689.18961 89.343351 
L 718.176623 77.99801 
L 747.163636 84.7349 
" clip-path="url(#p51dfdb2594)" style="fill: none; stroke: #d62728; stroke-width: 1.5; stroke-linecap: round"/>
   </g>
   <g id="line2d_35">
    <path d="M 138.436364 288.590662 
L 225.397403 287.017855 
L 254.384416 287.66029 
L 283.371429 290.562821 
L 312.358442 288.613813 
L 341.345455 289.120236 
L 428.306494 287.402738 
L 457.293506 289.89579 
L 486.280519 287.553219 
L 515.267532 284.883641 
L 631.215584 287.664631 
L 660.202597 289.398048 
L 689.18961 289.120236 
L 718.176623 289.577465 
L 747.163636 291.587246 
" clip-path="url(#p51dfdb2594)" style="fill: none; stroke: #9467bd; stroke-width: 1.5; stroke-linecap: round"/>
   </g>
   <g id="line2d_36">
    <path d="M 138.436364 273.774154 
L 225.397403 273.937657 
L 254.384416 273.826246 
L 283.371429 274.418037 
L 312.358442 274.112734 
L 341.345455 273.612099 
L 428.306494 272.704879 
L 457.293506 272.787351 
L 486.280519 273.318374 
L 515.267532 273.581715 
L 631.215584 273.693127 
L 660.202597 273.096995 
L 689.18961 272.80761 
L 718.176623 273.820457 
L 747.163636 272.250543 
" clip-path="url(#p51dfdb2594)" style="fill: none; stroke: #8c564b; stroke-width: 1.5; stroke-linecap: round"/>
   </g>
   <g id="line2d_37">
    <path d="M 138.436364 213.560382 
L 225.397403 211.916678 
L 254.384416 212.052689 
L 283.371429 220.522992 
L 312.358442 214.522591 
L 341.345455 212.65027 
L 428.306494 209.270256 
L 457.293506 207.601948 
L 486.280519 206.08847 
L 515.267532 201.762162 
L 631.215584 196.486672 
L 660.202597 201.990779 
L 689.18961 200.513465 
L 718.176623 191.461505 
L 747.163636 200.0765 
" clip-path="url(#p51dfdb2594)" style="fill: none; stroke: #e377c2; stroke-width: 1.5; stroke-linecap: round"/>
   </g>
   <g id="line2d_38">
    <path d="M 138.436364 203.780624 
L 225.397403 203.363909 
L 254.384416 204.25521 
L 283.371429 202.11666 
L 312.358442 203.227897 
L 341.345455 202.264249 
L 428.306494 202.683852 
L 457.293506 201.637729 
L 486.280519 204.689288 
L 515.267532 206.735241 
L 631.215584 206.749716 
L 660.202597 205.83381 
L 689.18961 205.340404 
L 718.176623 208.067862 
L 747.163636 206.577531 
" clip-path="url(#p51dfdb2594)" style="fill: none; stroke: #7f7f7f; stroke-width: 1.5; stroke-linecap: round"/>
   </g>
   <g id="line2d_39">
    <path d="M 138.436364 317.539284 
L 225.397403 317.989277 
L 254.384416 319.031063 
L 283.371429 319.672051 
L 312.358442 320.318827 
L 341.345455 320.399854 
L 428.306494 320.593742 
L 457.293506 321.004668 
L 486.280519 321.972661 
L 515.267532 322.441465 
L 631.215584 322.681655 
L 660.202597 322.204169 
L 689.18961 322.299667 
L 718.176623 322.671525 
L 747.163636 321.487942 
" clip-path="url(#p51dfdb2594)" style="fill: none; stroke: #bcbd22; stroke-width: 1.5; stroke-linecap: round"/>
   </g>
   <g id="line2d_40">
    <path d="M 138.436364 291.079374 
L 225.397403 291.834669 
L 254.384416 291.697209 
L 283.371429 292.837386 
L 312.358442 292.636266 
L 341.345455 292.359903 
L 428.306494 290.960725 
L 457.293506 290.396425 
L 486.280519 291.765215 
L 515.267532 291.15172 
L 631.215584 293.806827 
L 660.202597 294.320484 
L 689.18961 294.442025 
L 718.176623 294.670642 
L 747.163636 295.585095 
" clip-path="url(#p51dfdb2594)" style="fill: none; stroke: #17becf; stroke-width: 1.5; stroke-linecap: round"/>
   </g>
   <g id="line2d_41">
    <path d="M 138.436364 310.722822 
L 225.397403 310.811084 
L 254.384416 310.110773 
L 283.371429 309.895181 
L 312.358442 309.918332 
L 341.345455 309.550814 
L 428.306494 310.304661 
L 457.293506 310.374114 
L 486.280519 310.515912 
L 515.267532 311.356575 
L 631.215584 310.936968 
L 660.202597 309.809813 
L 689.18961 309.532003 
L 718.176623 308.970596 
L 747.163636 307.555504 
" clip-path="url(#p51dfdb2594)" style="fill: none; stroke: #1f77b4; stroke-width: 1.5; stroke-linecap: round"/>
   </g>
   <g id="line2d_42">
    <path d="M 138.436364 299.205303 
L 225.397403 299.387617 
L 254.384416 299.157552 
L 283.371429 299.672657 
L 312.358442 299.043248 
L 341.345455 297.99712 
L 428.306494 298.188115 
L 457.293506 296.489423 
L 486.280519 296.153739 
L 515.267532 297.346004 
L 631.215584 296.440228 
L 660.202597 296.055345 
L 689.18961 296.155183 
L 718.176623 295.913549 
L 747.163636 296.791834 
" clip-path="url(#p51dfdb2594)" style="fill: none; stroke: #ff7f0e; stroke-width: 1.5; stroke-linecap: round"/>
   </g>
   <g id="line2d_43">
    <path d="M 138.436364 180.694934 
L 225.397403 178.12954 
L 254.384416 178.776311 
L 283.371429 179.978713 
L 312.358442 176.422179 
L 341.345455 180.466326 
L 428.306494 180.994457 
L 457.293506 181.985597 
L 486.280519 183.504868 
L 515.267532 185.448096 
L 631.215584 184.940224 
L 660.202597 184.216761 
L 689.18961 182.743784 
L 718.176623 181.234652 
L 747.163636 169.597029 
" clip-path="url(#p51dfdb2594)" style="fill: none; stroke: #2ca02c; stroke-width: 1.5; stroke-linecap: round"/>
   </g>
   <g id="line2d_44">
    <path d="M 138.436364 268.618761 
L 225.397403 269.152677 
L 254.384416 267.697071 
L 283.371429 268.436447 
L 312.358442 265.013027 
L 341.345455 266.221206 
L 428.306494 267.663794 
L 457.293506 266.85496 
L 486.280519 267.380194 
L 515.267532 270.472271 
L 631.215584 272.982686 
L 660.202597 271.525632 
L 689.18961 273.266282 
L 718.176623 271.330301 
L 747.163636 270.985932 
" clip-path="url(#p51dfdb2594)" style="fill: none; stroke: #d62728; stroke-width: 1.5; stroke-linecap: round"/>
   </g>
   <g id="line2d_45">
    <path d="M 138.436364 273.347314 
L 225.397403 274.130096 
L 254.384416 272.745393 
L 283.371429 273.636699 
L 312.358442 274.008555 
L 341.345455 273.506472 
L 428.306494 273.410975 
L 457.293506 271.864216 
L 486.280519 273.070951 
L 515.267532 273.533964 
L 631.215584 274.358713 
L 660.202597 273.782835 
L 689.18961 272.865486 
L 718.176623 273.659846 
L 747.163636 272.198456 
" clip-path="url(#p51dfdb2594)" style="fill: none; stroke: #9467bd; stroke-width: 1.5; stroke-linecap: round"/>
   </g>
   <g id="line2d_46">
    <path d="M 138.436364 303.912149 
L 225.397403 304.210215 
L 254.384416 303.563439 
L 283.371429 303.524374 
L 312.358442 303.198816 
L 341.345455 303.193027 
L 428.306494 303.00348 
L 457.293506 302.741587 
L 486.280519 303.336271 
L 515.267532 304.090122 
L 631.215584 305.321452 
L 660.202597 305.095732 
L 689.18961 304.774514 
L 718.176623 306.125941 
L 747.163636 305.370647 
" clip-path="url(#p51dfdb2594)" style="fill: none; stroke: #8c564b; stroke-width: 1.5; stroke-linecap: round"/>
   </g>
   <g id="line2d_47">
    <path d="M 138.436364 258.600256 
L 225.397403 259.701364 
L 254.384416 259.817116 
L 283.371429 261.786387 
L 312.358442 262.155351 
L 341.345455 262.365157 
L 428.306494 258.530807 
L 457.293506 257.557021 
L 486.280519 262.278336 
L 515.267532 260.883508 
L 631.215584 262.818045 
L 660.202597 263.056782 
L 689.18961 263.712244 
L 718.176623 265.85369 
L 747.163636 264.785859 
" clip-path="url(#p51dfdb2594)" style="fill: none; stroke: #e377c2; stroke-width: 1.5; stroke-linecap: round"/>
   </g>
   <g id="line2d_48">
    <path d="M 138.436364 326.925484 
L 225.397403 327.109244 
L 254.384416 327.097669 
L 283.371429 327.171462 
L 312.358442 326.929825 
L 341.345455 327.177249 
L 428.306494 327.777723 
L 457.293506 327.738656 
L 486.280519 327.699589 
L 515.267532 327.926756 
L 631.215584 327.693801 
L 660.202597 327.097669 
L 689.18961 326.952976 
L 718.176623 326.251218 
L 747.163636 325.786754 
" clip-path="url(#p51dfdb2594)" style="fill: none; stroke: #7f7f7f; stroke-width: 1.5; stroke-linecap: round"/>
   </g>
   <g id="line2d_49">
    <path d="M 138.436364 284.113876 
L 225.397403 284.827214 
L 254.384416 286.0325 
L 283.371429 286.907892 
L 312.358442 287.923631 
L 341.345455 287.865755 
L 428.306494 286.560626 
L 457.293506 287.418656 
L 486.280519 289.577465 
L 515.267532 289.506567 
L 631.215584 291.251558 
L 660.202597 290.296587 
L 689.18961 291.523581 
L 718.176623 293.351047 
L 747.163636 290.436939 
" clip-path="url(#p51dfdb2594)" style="fill: none; stroke: #bcbd22; stroke-width: 1.5; stroke-linecap: round"/>
   </g>
   <g id="line2d_50">
    <path d="M 138.436364 331.982486 
L 225.397403 332.247273 
L 254.384416 332.128625 
L 283.371429 332.086664 
L 312.358442 332.127179 
L 341.345455 331.960782 
L 428.306494 331.941972 
L 457.293506 331.926055 
L 486.280519 331.998402 
L 515.267532 331.850816 
L 631.215584 331.947759 
L 660.202597 331.897117 
L 689.18961 331.724933 
L 718.176623 331.713358 
L 747.163636 331.588923 
" clip-path="url(#p51dfdb2594)" style="fill: none; stroke: #17becf; stroke-width: 1.5; stroke-linecap: round"/>
   </g>
   <g id="line2d_51">
    <path d="M 138.436364 314.726462 
L 225.397403 314.214251 
L 254.384416 314.279363 
L 283.371429 315.403624 
L 312.358442 314.759743 
L 341.345455 314.71344 
L 428.306494 313.662974 
L 457.293506 314.392223 
L 486.280519 314.791575 
L 515.267532 313.917631 
L 631.215584 314.212805 
L 660.202597 315.458608 
L 689.18961 315.609087 
L 718.176623 316.080783 
L 747.163636 316.545247 
" clip-path="url(#p51dfdb2594)" style="fill: none; stroke: #1f77b4; stroke-width: 1.5; stroke-linecap: round"/>
   </g>
   <g id="line2d_52">
    <path d="M 138.436364 313.485002 
L 225.397403 313.754128 
L 254.384416 314.623731 
L 283.371429 315.282083 
L 312.358442 317.765004 
L 341.345455 317.760663 
L 428.306494 316.529331 
L 457.293506 317.152955 
L 486.280519 317.847479 
L 515.267532 317.737514 
L 631.215584 319.071576 
L 660.202597 320.505479 
L 689.18961 321.609483 
L 718.176623 322.343073 
L 747.163636 322.911716 
" clip-path="url(#p51dfdb2594)" style="fill: none; stroke: #ff7f0e; stroke-width: 1.5; stroke-linecap: round"/>
   </g>
   <g id="line2d_53">
    <path d="M 138.436364 323.199654 
L 225.397403 323.40801 
L 254.384416 322.891459 
L 283.371429 322.836475 
L 312.358442 322.939207 
L 341.345455 322.755447 
L 428.306494 322.632458 
L 457.293506 322.338732 
L 486.280519 322.61799 
L 515.267532 322.644034 
L 631.215584 323.034705 
L 660.202597 322.574582 
L 689.18961 322.403846 
L 718.176623 322.916056 
L 747.163636 322.840815 
" clip-path="url(#p51dfdb2594)" style="fill: none; stroke: #2ca02c; stroke-width: 1.5; stroke-linecap: round"/>
   </g>
   <g id="line2d_54">
    <path d="M 138.436364 324.792718 
L 225.397403 324.656706 
L 254.384416 325.293352 
L 283.371429 325.56248 
L 312.358442 325.436599 
L 341.345455 325.883699 
L 428.306494 324.911364 
L 457.293506 325.122616 
L 486.280519 325.50171 
L 515.267532 325.814246 
L 631.215584 327.112138 
L 660.202597 327.517277 
L 689.18961 327.980292 
L 718.176623 328.881727 
L 747.163636 328.062767 
" clip-path="url(#p51dfdb2594)" style="fill: none; stroke: #d62728; stroke-width: 1.5; stroke-linecap: round"/>
   </g>
   <g id="line2d_55">
    <path d="M 138.436364 287.828134 
L 225.397403 285.230902 
L 254.384416 287.006282 
L 283.371429 289.18969 
L 312.358442 286.648891 
L 341.345455 285.59553 
L 428.306494 284.912582 
L 457.293506 285.851634 
L 486.280519 287.049688 
L 515.267532 286.455004 
L 631.215584 285.795207 
L 660.202597 289.186798 
L 689.18961 290.066526 
L 718.176623 290.125851 
L 747.163636 289.461713 
" clip-path="url(#p51dfdb2594)" style="fill: none; stroke: #9467bd; stroke-width: 1.5; stroke-linecap: round"/>
   </g>
   <g id="line2d_56">
    <path d="M 138.436364 284.330915 
L 225.397403 282.648145 
L 254.384416 282.486086 
L 283.371429 285.259843 
L 312.358442 283.47723 
L 341.345455 283.063412 
L 428.306494 280.535635 
L 457.293506 282.788497 
L 486.280519 281.87404 
L 515.267532 277.537607 
L 631.215584 276.734561 
L 660.202597 281.260541 
L 689.18961 280.61811 
L 718.176623 281.463114 
L 747.163636 281.8451 
" clip-path="url(#p51dfdb2594)" style="fill: none; stroke: #8c564b; stroke-width: 1.5; stroke-linecap: round"/>
   </g>
   <g id="line2d_57">
    <path d="M 138.436364 286.602589 
L 225.397403 285.575271 
L 254.384416 284.6449 
L 283.371429 285.446497 
L 312.358442 285.72286 
L 341.345455 285.293123 
L 428.306494 284.928496 
L 457.293506 285.419005 
L 486.280519 286.593907 
L 515.267532 286.386998 
L 631.215584 285.559357 
L 660.202597 285.187496 
L 689.18961 285.686687 
L 718.176623 284.278828 
L 747.163636 282.490427 
" clip-path="url(#p51dfdb2594)" style="fill: none; stroke: #e377c2; stroke-width: 1.5; stroke-linecap: round"/>
   </g>
   <g id="line2d_58">
    <path d="M 138.436364 297.584746 
L 225.397403 298.149045 
L 254.384416 297.370604 
L 283.371429 297.67301 
L 312.358442 298.238758 
L 341.345455 297.755482 
L 428.306494 297.548572 
L 457.293506 296.202934 
L 486.280519 296.59939 
L 515.267532 297.053727 
L 631.215584 297.146328 
L 660.202597 296.874305 
L 689.18961 296.331708 
L 718.176623 296.579136 
L 747.163636 295.752938 
" clip-path="url(#p51dfdb2594)" style="fill: none; stroke: #7f7f7f; stroke-width: 1.5; stroke-linecap: round"/>
   </g>
   <g id="line2d_59">
    <path d="M 138.436364 327.201847 
L 225.397403 327.064389 
L 254.384416 327.201847 
L 283.371429 326.954423 
L 312.358442 326.967445 
L 341.345455 326.889311 
L 428.306494 326.921144 
L 457.293506 326.890758 
L 486.280519 327.310367 
L 515.267532 327.447824 
L 631.215584 327.447824 
L 660.202597 327.123713 
L 689.18961 327.184484 
L 718.176623 327.650394 
L 747.163636 327.663415 
" clip-path="url(#p51dfdb2594)" style="fill: none; stroke: #bcbd22; stroke-width: 1.5; stroke-linecap: round"/>
   </g>
   <g id="line2d_60">
    <path d="M 138.436364 322.710593 
L 225.397403 322.445806 
L 254.384416 322.856732 
L 283.371429 322.609309 
L 312.358442 323.190971 
L 341.345455 323.131649 
L 428.306494 324.012825 
L 457.293506 323.876814 
L 486.280519 324.038869 
L 515.267532 324.462819 
L 631.215584 324.367321 
L 660.202597 324.18501 
L 689.18961 324.59449 
L 718.176623 324.500438 
L 747.163636 324.646579 
" clip-path="url(#p51dfdb2594)" style="fill: none; stroke: #17becf; stroke-width: 1.5; stroke-linecap: round"/>
   </g>
   <g id="patch_3">
    <path d="M 108 345.6 
L 108 51.84 
" style="fill: none; stroke: #cccccc; stroke-linejoin: miter; stroke-linecap: square"/>
   </g>
   <g id="patch_4">
    <path d="M 777.6 345.6 
L 777.6 51.84 
" style="fill: none; stroke: #cccccc; stroke-linejoin: miter; stroke-linecap: square"/>
   </g>
   <g id="patch_5">
    <path d="M 108 345.6 
L 777.6 345.6 
" style="fill: none; stroke: #cccccc; stroke-linejoin: miter; stroke-linecap: square"/>
   </g>
   <g id="patch_6">
    <path d="M 108 51.84 
L 777.6 51.84 
" style="fill: none; stroke: #cccccc; stroke-linejoin: miter; stroke-linecap: square"/>
   </g>
   <g id="text_18">
    <!-- Precio de cierre - últimos 15 días -->
    <g style="fill: #262626" transform="translate(349.099688 45.84) scale(0.12 -0.12)">
     <defs>
      <path id="LiberationSans-Bold-50" d="M 4050 3009 
Q 4050 2584 3856 2250 
Q 3663 1916 3302 1733 
Q 2941 1550 2444 1550 
L 1350 1550 
L 1350 0 
L 428 0 
L 428 4403 
L 2406 4403 
Q 3197 4403 3623 4039 
Q 4050 3675 4050 3009 
z
M 3122 2994 
Q 3122 3688 2303 3688 
L 1350 3688 
L 1350 2259 
L 2328 2259 
Q 2709 2259 2915 2448 
Q 3122 2638 3122 2994 
z
" transform="scale(0.015625)"/>
      <path id="LiberationSans-Bold-72" d="M 447 0 
L 447 2588 
Q 447 2866 439 3052 
Q 431 3238 422 3381 
L 1259 3381 
Q 1269 3325 1284 3039 
Q 1300 2753 1300 2659 
L 1313 2659 
Q 1441 3016 1541 3161 
Q 1641 3306 1778 3376 
Q 1916 3447 2122 3447 
Q 2291 3447 2394 3400 
L 2394 2666 
Q 2181 2713 2019 2713 
Q 1691 2713 1508 2447 
Q 1325 2181 1325 1659 
L 1325 0 
L 447 0 
z
" transform="scale(0.015625)"/>
      <path id="LiberationSans-Bold-65" d="M 1831 -63 
Q 1069 -63 659 389 
Q 250 841 250 1706 
Q 250 2544 665 2994 
Q 1081 3444 1844 3444 
Q 2572 3444 2956 2961 
Q 3341 2478 3341 1547 
L 3341 1522 
L 1172 1522 
Q 1172 1028 1355 776 
Q 1538 525 1875 525 
Q 2341 525 2463 928 
L 3291 856 
Q 2931 -63 1831 -63 
z
M 1831 2891 
Q 1522 2891 1355 2675 
Q 1188 2459 1178 2072 
L 2491 2072 
Q 2466 2481 2294 2686 
Q 2122 2891 1831 2891 
z
" transform="scale(0.015625)"/>
      <path id="LiberationSans-Bold-63" d="M 1856 -63 
Q 1088 -63 669 395 
Q 250 853 250 1672 
Q 250 2509 672 2976 
Q 1094 3444 1869 3444 
Q 2466 3444 2856 3144 
Q 3247 2844 3347 2316 
L 2463 2272 
Q 2425 2531 2275 2686 
Q 2125 2841 1850 2841 
Q 1172 2841 1172 1706 
Q 1172 538 1863 538 
Q 2113 538 2281 695 
Q 2450 853 2491 1166 
L 3372 1125 
Q 3325 778 3123 506 
Q 2922 234 2594 85 
Q 2266 -63 1856 -63 
z
" transform="scale(0.015625)"/>
      <path id="LiberationSans-Bold-69" d="M 447 3991 
L 447 4638 
L 1325 4638 
L 1325 3991 
L 447 3991 
z
M 447 0 
L 447 3381 
L 1325 3381 
L 1325 0 
L 447 0 
z
" transform="scale(0.015625)"/>
      <path id="LiberationSans-Bold-6f" d="M 3659 1694 
Q 3659 872 3203 404 
Q 2747 -63 1941 -63 
Q 1150 -63 700 406 
Q 250 875 250 1694 
Q 250 2509 700 2976 
Q 1150 3444 1959 3444 
Q 2788 3444 3223 2992 
Q 3659 2541 3659 1694 
z
M 2741 1694 
Q 2741 2297 2544 2569 
Q 2347 2841 1972 2841 
Q 1172 2841 1172 1694 
Q 1172 1128 1367 833 
Q 1563 538 1931 538 
Q 2741 538 2741 1694 
z
" transform="scale(0.015625)"/>
      <path id="LiberationSans-Bold-20" transform="scale(0.015625)"/>
      <path id="LiberationSans-Bold-64" d="M 2638 0 
Q 2625 47 2608 236 
Q 2591 425 2591 550 
L 2578 550 
Q 2294 -63 1497 -63 
Q 906 -63 584 398 
Q 263 859 263 1688 
Q 263 2528 602 2986 
Q 941 3444 1563 3444 
Q 1922 3444 2183 3294 
Q 2444 3144 2584 2847 
L 2591 2847 
L 2584 3403 
L 2584 4638 
L 3463 4638 
L 3463 738 
Q 3463 425 3488 0 
L 2638 0 
z
M 2597 1709 
Q 2597 2256 2414 2551 
Q 2231 2847 1875 2847 
Q 1522 2847 1350 2561 
Q 1178 2275 1178 1688 
Q 1178 538 1869 538 
Q 2216 538 2406 842 
Q 2597 1147 2597 1709 
z
" transform="scale(0.015625)"/>
      <path id="LiberationSans-Bold-2d" d="M 250 1278 
L 250 2041 
L 1875 2041 
L 1875 1278 
L 250 1278 
z
" transform="scale(0.015625)"/>
      <path id="LiberationSans-Bold-fa" d="M 1275 3381 
L 1275 1484 
Q 1275 594 1875 594 
Q 2194 594 2389 867 
Q 2584 1141 2584 1569 
L 2584 3381 
L 3463 3381 
L 3463 756 
Q 3463 325 3488 0 
L 2650 0 
Q 2613 450 2613 672 
L 2597 672 
Q 2422 288 2151 112 
Q 1881 -63 1509 -63 
Q 972 -63 684 267 
Q 397 597 397 1234 
L 397 3381 
L 1275 3381 
z
M 1448 3697 
L 1448 3794 
L 2235 4694 
L 3042 4694 
L 3042 4559 
L 1979 3697 
L 1448 3697 
z
" transform="scale(0.015625)"/>
      <path id="LiberationSans-Bold-6c" d="M 447 0 
L 447 4638 
L 1325 4638 
L 1325 0 
L 447 0 
z
" transform="scale(0.015625)"/>
      <path id="LiberationSans-Bold-74" d="M 1313 -56 
Q 925 -56 715 155 
Q 506 366 506 794 
L 506 2788 
L 78 2788 
L 78 3381 
L 550 3381 
L 825 4175 
L 1375 4175 
L 1375 3381 
L 2016 3381 
L 2016 2788 
L 1375 2788 
L 1375 1031 
Q 1375 784 1469 667 
Q 1563 550 1759 550 
Q 1863 550 2053 594 
L 2053 50 
Q 1728 -56 1313 -56 
z
" transform="scale(0.015625)"/>
      <path id="LiberationSans-Bold-6d" d="M 2438 0 
L 2438 1897 
Q 2438 2788 1925 2788 
Q 1659 2788 1492 2516 
Q 1325 2244 1325 1813 
L 1325 0 
L 447 0 
L 447 2625 
Q 447 2897 439 3070 
Q 431 3244 422 3381 
L 1259 3381 
Q 1269 3322 1284 3064 
Q 1300 2806 1300 2709 
L 1313 2709 
Q 1475 3097 1717 3272 
Q 1959 3447 2297 3447 
Q 3072 3447 3238 2709 
L 3256 2709 
Q 3428 3103 3668 3275 
Q 3909 3447 4281 3447 
Q 4775 3447 5034 3111 
Q 5294 2775 5294 2147 
L 5294 0 
L 4422 0 
L 4422 1897 
Q 4422 2788 3909 2788 
Q 3653 2788 3489 2539 
Q 3325 2291 3309 1853 
L 3309 0 
L 2438 0 
z
" transform="scale(0.015625)"/>
      <path id="LiberationSans-Bold-73" d="M 3297 988 
Q 3297 497 2895 217 
Q 2494 -63 1784 -63 
Q 1088 -63 717 157 
Q 347 378 225 844 
L 997 959 
Q 1063 719 1223 619 
Q 1384 519 1784 519 
Q 2153 519 2322 612 
Q 2491 706 2491 906 
Q 2491 1069 2355 1164 
Q 2219 1259 1894 1325 
Q 1150 1472 890 1598 
Q 631 1725 495 1926 
Q 359 2128 359 2422 
Q 359 2906 732 3176 
Q 1106 3447 1791 3447 
Q 2394 3447 2761 3212 
Q 3128 2978 3219 2534 
L 2441 2453 
Q 2403 2659 2256 2761 
Q 2109 2863 1791 2863 
Q 1478 2863 1322 2783 
Q 1166 2703 1166 2516 
Q 1166 2369 1286 2283 
Q 1406 2197 1691 2141 
Q 2088 2059 2395 1973 
Q 2703 1888 2889 1769 
Q 3075 1650 3186 1464 
Q 3297 1278 3297 988 
z
" transform="scale(0.015625)"/>
      <path id="LiberationSans-Bold-31" d="M 403 0 
L 403 653 
L 1494 653 
L 1494 3656 
L 438 2997 
L 438 3688 
L 1541 4403 
L 2372 4403 
L 2372 653 
L 3381 653 
L 3381 0 
L 403 0 
z
" transform="scale(0.015625)"/>
      <path id="LiberationSans-Bold-35" d="M 3381 1466 
Q 3381 766 2945 351 
Q 2509 -63 1750 -63 
Q 1088 -63 689 235 
Q 291 534 197 1100 
L 1075 1172 
Q 1144 891 1319 762 
Q 1494 634 1759 634 
Q 2088 634 2283 843 
Q 2478 1053 2478 1447 
Q 2478 1794 2293 2001 
Q 2109 2209 1778 2209 
Q 1413 2209 1181 1925 
L 325 1925 
L 478 4403 
L 3125 4403 
L 3125 3750 
L 1275 3750 
L 1203 2638 
Q 1522 2919 2000 2919 
Q 2628 2919 3004 2528 
Q 3381 2138 3381 1466 
z
" transform="scale(0.015625)"/>
      <path id="LiberationSans-Bold-ed" d="M 453 0 
L 453 3381 
L 1331 3381 
L 1331 0 
L 453 0 
z
M 360 3697 
L 360 3794 
L 1147 4694 
L 1954 4694 
L 1954 4559 
L 891 3697 
L 360 3697 
z
" transform="scale(0.015625)"/>
      <path id="LiberationSans-Bold-61" d="M 1228 -63 
Q 738 -63 463 204 
Q 188 472 188 956 
Q 188 1481 530 1756 
Q 872 2031 1522 2038 
L 2250 2050 
L 2250 2222 
Q 2250 2553 2134 2714 
Q 2019 2875 1756 2875 
Q 1513 2875 1398 2764 
Q 1284 2653 1256 2397 
L 341 2441 
Q 425 2934 792 3189 
Q 1159 3444 1794 3444 
Q 2434 3444 2781 3128 
Q 3128 2813 3128 2231 
L 3128 1000 
Q 3128 716 3192 608 
Q 3256 500 3406 500 
Q 3506 500 3600 519 
L 3600 44 
Q 3522 25 3459 9 
Q 3397 -6 3334 -15 
Q 3272 -25 3201 -31 
Q 3131 -38 3038 -38 
Q 2706 -38 2548 125 
Q 2391 288 2359 603 
L 2341 603 
Q 1972 -63 1228 -63 
z
M 2250 1566 
L 1800 1559 
Q 1494 1547 1366 1492 
Q 1238 1438 1170 1325 
Q 1103 1213 1103 1025 
Q 1103 784 1214 667 
Q 1325 550 1509 550 
Q 1716 550 1886 662 
Q 2056 775 2153 973 
Q 2250 1172 2250 1394 
L 2250 1566 
z
" transform="scale(0.015625)"/>
     </defs>
     <use xlink:href="#LiberationSans-Bold-50"/>
     <use xlink:href="#LiberationSans-Bold-72" x="66.699219"/>
     <use xlink:href="#LiberationSans-Bold-65" x="105.615234"/>
     <use xlink:href="#LiberationSans-Bold-63" x="161.230469"/>
     <use xlink:href="#LiberationSans-Bold-69" x="216.845703"/>
     <use xlink:href="#LiberationSans-Bold-6f" x="244.628906"/>
     <use xlink:href="#LiberationSans-Bold-20" x="305.712891"/>
     <use xlink:href="#LiberationSans-Bold-64" x="333.496094"/>
     <use xlink:href="#LiberationSans-Bold-65" x="394.580078"/>
     <use xlink:href="#LiberationSans-Bold-20" x="450.195312"/>
     <use xlink:href="#LiberationSans-Bold-63" x="477.978516"/>
     <use xlink:href="#LiberationSans-Bold-69" x="533.59375"/>
     <use xlink:href="#LiberationSans-Bold-65" x="561.376953"/>
     <use xlink:href="#LiberationSans-Bold-72" x="616.992188"/>
     <use xlink:href="#LiberationSans-Bold-72" x="655.908203"/>
     <use xlink:href="#LiberationSans-Bold-65" x="694.824219"/>
     <use xlink:href="#LiberationSans-Bold-20" x="750.439453"/>
     <use xlink:href="#LiberationSans-Bold-2d" x="778.222656"/>
     <use xlink:href="#LiberationSans-Bold-20" x="811.523438"/>
     <use xlink:href="#LiberationSans-Bold-fa" x="839.306641"/>
     <use xlink:href="#LiberationSans-Bold-6c" x="900.390625"/>
     <use xlink:href="#LiberationSans-Bold-74" x="928.173828"/>
     <use xlink:href="#LiberationSans-Bold-69" x="961.474609"/>
     <use xlink:href="#LiberationSans-Bold-6d" x="989.257812"/>
     <use xlink:href="#LiberationSans-Bold-6f" x="1078.173828"/>
     <use xlink:href="#LiberationSans-Bold-73" x="1139.257812"/>
     <use xlink:href="#LiberationSans-Bold-20" x="1194.873047"/>
     <use xlink:href="#LiberationSans-Bold-31" x="1222.65625"/>
     <use xlink:href="#LiberationSans-Bold-35" x="1278.271484"/>
     <use xlink:href="#LiberationSans-Bold-20" x="1333.886719"/>
     <use xlink:href="#LiberationSans-Bold-64" x="1361.669922"/>
     <use xlink:href="#LiberationSans-Bold-ed" x="1422.753906"/>
     <use xlink:href="#LiberationSans-Bold-61" x="1450.537109"/>
     <use xlink:href="#LiberationSans-Bold-73" x="1506.152344"/>
    </g>
   </g>
   <g id="legend_1">
    <g id="line2d_61">
     <path style="fill: none; stroke: #1f77b4; stroke-width: 1.5; stroke-linecap: round"/>
    </g>
    <g id="text_19">
     <!-- AAPL -->
     <g style="fill: #262626" transform="translate(-586 405.910875) scale(0.1 -0.1)">
      <defs>
       <path id="LiberationSans-41" d="M 3647 0 
L 3144 1288 
L 1138 1288 
L 631 0 
L 13 0 
L 1809 4403 
L 2488 4403 
L 4256 0 
L 3647 0 
z
M 2141 3953 
L 2113 3866 
Q 2034 3606 1881 3200 
L 1319 1753 
L 2966 1753 
L 2400 3206 
Q 2313 3422 2225 3694 
L 2141 3953 
z
" transform="scale(0.015625)"/>
       <path id="LiberationSans-50" d="M 3931 3078 
Q 3931 2453 3523 2084 
Q 3116 1716 2416 1716 
L 1122 1716 
L 1122 0 
L 525 0 
L 525 4403 
L 2378 4403 
Q 3119 4403 3525 4056 
Q 3931 3709 3931 3078 
z
M 3331 3072 
Q 3331 3925 2306 3925 
L 1122 3925 
L 1122 2188 
L 2331 2188 
Q 3331 2188 3331 3072 
z
" transform="scale(0.015625)"/>
       <path id="LiberationSans-4c" d="M 525 0 
L 525 4403 
L 1122 4403 
L 1122 488 
L 3347 488 
L 3347 0 
L 525 0 
z
" transform="scale(0.015625)"/>
      </defs>
      <use xlink:href="#LiberationSans-41"/>
      <use xlink:href="#LiberationSans-41" x="66.699219"/>
      <use xlink:href="#LiberationSans-50" x="133.398438"/>
      <use xlink:href="#LiberationSans-4c" x="200.097656"/>
     </g>
    </g>
    <g id="line2d_62">
     <path style="fill: none; stroke: #ff7f0e; stroke-width: 1.5; stroke-linecap: round"/>
    </g>
    <g id="text_20">
     <!-- AMD -->
     <g style="fill: #262626" transform="translate(-512.428125 405.910875) scale(0.1 -0.1)">
      <defs>
       <path id="LiberationSans-4d" d="M 4269 0 
L 4269 2938 
Q 4269 3425 4297 3875 
Q 4144 3316 4022 3000 
L 2884 0 
L 2466 0 
L 1313 3000 
L 1138 3531 
L 1034 3875 
L 1044 3528 
L 1056 2938 
L 1056 0 
L 525 0 
L 525 4403 
L 1309 4403 
L 2481 1350 
Q 2544 1166 2601 955 
Q 2659 744 2678 650 
Q 2703 775 2783 1029 
Q 2863 1284 2891 1350 
L 4041 4403 
L 4806 4403 
L 4806 0 
L 4269 0 
z
" transform="scale(0.015625)"/>
       <path id="LiberationSans-44" d="M 4316 2247 
Q 4316 1566 4050 1055 
Q 3784 544 3296 272 
Q 2809 0 2172 0 
L 525 0 
L 525 4403 
L 1981 4403 
Q 3100 4403 3708 3842 
Q 4316 3281 4316 2247 
z
M 3716 2247 
Q 3716 3066 3267 3495 
Q 2819 3925 1969 3925 
L 1122 3925 
L 1122 478 
L 2103 478 
Q 2588 478 2955 690 
Q 3322 903 3519 1303 
Q 3716 1703 3716 2247 
z
" transform="scale(0.015625)"/>
      </defs>
      <use xlink:href="#LiberationSans-41"/>
      <use xlink:href="#LiberationSans-4d" x="66.699219"/>
      <use xlink:href="#LiberationSans-44" x="150"/>
     </g>
    </g>
    <g id="line2d_63">
     <path style="fill: none; stroke: #2ca02c; stroke-width: 1.5; stroke-linecap: round"/>
    </g>
    <g id="text_21">
     <!-- AMZN -->
     <g style="fill: #262626" transform="translate(-442.20625 405.910875) scale(0.1 -0.1)">
      <defs>
       <path id="LiberationSans-5a" d="M 3709 0 
L 203 0 
L 203 447 
L 2884 3916 
L 431 3916 
L 431 4403 
L 3563 4403 
L 3563 3969 
L 881 488 
L 3709 488 
L 3709 0 
z
" transform="scale(0.015625)"/>
       <path id="LiberationSans-4e" d="M 3381 0 
L 1025 3750 
L 1041 3447 
L 1056 2925 
L 1056 0 
L 525 0 
L 525 4403 
L 1219 4403 
L 3600 628 
Q 3563 1241 3563 1516 
L 3563 4403 
L 4100 4403 
L 4100 0 
L 3381 0 
z
" transform="scale(0.015625)"/>
      </defs>
      <use xlink:href="#LiberationSans-41"/>
      <use xlink:href="#LiberationSans-4d" x="66.699219"/>
      <use xlink:href="#LiberationSans-5a" x="150"/>
      <use xlink:href="#LiberationSans-4e" x="211.083984"/>
     </g>
    </g>
    <g id="line2d_64">
     <path style="fill: none; stroke: #d62728; stroke-width: 1.5; stroke-linecap: round"/>
    </g>
    <g id="text_22">
     <!-- ASML -->
     <g style="fill: #262626" transform="translate(-365.876562 405.910875) scale(0.1 -0.1)">
      <defs>
       <path id="LiberationSans-53" d="M 3975 1216 
Q 3975 606 3498 271 
Q 3022 -63 2156 -63 
Q 547 -63 291 1056 
L 869 1172 
Q 969 775 1294 589 
Q 1619 403 2178 403 
Q 2756 403 3070 601 
Q 3384 800 3384 1184 
Q 3384 1400 3286 1534 
Q 3188 1669 3009 1756 
Q 2831 1844 2584 1903 
Q 2338 1963 2038 2031 
Q 1516 2147 1245 2262 
Q 975 2378 819 2520 
Q 663 2663 580 2853 
Q 497 3044 497 3291 
Q 497 3856 930 4162 
Q 1363 4469 2169 4469 
Q 2919 4469 3316 4239 
Q 3713 4009 3872 3456 
L 3284 3353 
Q 3188 3703 2916 3861 
Q 2644 4019 2163 4019 
Q 1634 4019 1356 3844 
Q 1078 3669 1078 3322 
Q 1078 3119 1186 2986 
Q 1294 2853 1497 2761 
Q 1700 2669 2306 2534 
Q 2509 2488 2711 2439 
Q 2913 2391 3097 2323 
Q 3281 2256 3442 2165 
Q 3603 2075 3722 1944 
Q 3841 1813 3908 1634 
Q 3975 1456 3975 1216 
z
" transform="scale(0.015625)"/>
      </defs>
      <use xlink:href="#LiberationSans-41"/>
      <use xlink:href="#LiberationSans-53" x="66.699219"/>
      <use xlink:href="#LiberationSans-4d" x="133.398438"/>
      <use xlink:href="#LiberationSans-4c" x="216.699219"/>
     </g>
    </g>
    <g id="line2d_65">
     <path style="fill: none; stroke: #9467bd; stroke-width: 1.5; stroke-linecap: round"/>
    </g>
    <g id="text_23">
     <!-- AVGO -->
     <g style="fill: #262626" transform="translate(-290.645312 405.910875) scale(0.1 -0.1)">
      <defs>
       <path id="LiberationSans-56" d="M 2444 0 
L 1825 0 
L 28 4403 
L 656 4403 
L 1875 1303 
L 2138 525 
L 2400 1303 
L 3613 4403 
L 4241 4403 
L 2444 0 
z
" transform="scale(0.015625)"/>
       <path id="LiberationSans-47" d="M 322 2222 
Q 322 3294 897 3881 
Q 1472 4469 2513 4469 
Q 3244 4469 3700 4222 
Q 4156 3975 4403 3431 
L 3834 3263 
Q 3647 3638 3317 3809 
Q 2988 3981 2497 3981 
Q 1734 3981 1331 3520 
Q 928 3059 928 2222 
Q 928 1388 1356 905 
Q 1784 422 2541 422 
Q 2972 422 3345 553 
Q 3719 684 3950 909 
L 3950 1703 
L 2634 1703 
L 2634 2203 
L 4500 2203 
L 4500 684 
Q 4150 328 3642 132 
Q 3134 -63 2541 -63 
Q 1850 -63 1350 212 
Q 850 488 586 1005 
Q 322 1522 322 2222 
z
" transform="scale(0.015625)"/>
       <path id="LiberationSans-4f" d="M 4672 2222 
Q 4672 1531 4408 1012 
Q 4144 494 3650 215 
Q 3156 -63 2484 -63 
Q 1806 -63 1314 212 
Q 822 488 562 1008 
Q 303 1528 303 2222 
Q 303 3278 881 3873 
Q 1459 4469 2491 4469 
Q 3163 4469 3656 4201 
Q 4150 3934 4411 3425 
Q 4672 2916 4672 2222 
z
M 4063 2222 
Q 4063 3044 3652 3512 
Q 3241 3981 2491 3981 
Q 1734 3981 1321 3518 
Q 909 3056 909 2222 
Q 909 1394 1326 908 
Q 1744 422 2484 422 
Q 3247 422 3655 892 
Q 4063 1363 4063 2222 
z
" transform="scale(0.015625)"/>
      </defs>
      <use xlink:href="#LiberationSans-41"/>
      <use xlink:href="#LiberationSans-56" x="59.324219"/>
      <use xlink:href="#LiberationSans-47" x="126.023438"/>
      <use xlink:href="#LiberationSans-4f" x="203.806641"/>
     </g>
    </g>
    <g id="line2d_66">
     <path style="fill: none; stroke: #8c564b; stroke-width: 1.5; stroke-linecap: round"/>
    </g>
    <g id="text_24">
     <!-- BRK-B -->
     <g style="fill: #262626" transform="translate(-214.485937 405.910875) scale(0.1 -0.1)">
      <defs>
       <path id="LiberationSans-42" d="M 3931 1241 
Q 3931 653 3503 326 
Q 3075 0 2313 0 
L 525 0 
L 525 4403 
L 2125 4403 
Q 3675 4403 3675 3334 
Q 3675 2944 3456 2678 
Q 3238 2413 2838 2322 
Q 3363 2259 3647 1970 
Q 3931 1681 3931 1241 
z
M 3075 3263 
Q 3075 3619 2831 3772 
Q 2588 3925 2125 3925 
L 1122 3925 
L 1122 2531 
L 2125 2531 
Q 2603 2531 2839 2711 
Q 3075 2891 3075 3263 
z
M 3328 1288 
Q 3328 2066 2234 2066 
L 1122 2066 
L 1122 478 
L 2281 478 
Q 2828 478 3078 681 
Q 3328 884 3328 1288 
z
" transform="scale(0.015625)"/>
       <path id="LiberationSans-52" d="M 3638 0 
L 2494 1828 
L 1122 1828 
L 1122 0 
L 525 0 
L 525 4403 
L 2597 4403 
Q 3341 4403 3745 4070 
Q 4150 3738 4150 3144 
Q 4150 2653 3864 2318 
Q 3578 1984 3075 1897 
L 4325 0 
L 3638 0 
z
M 3550 3138 
Q 3550 3522 3289 3723 
Q 3028 3925 2538 3925 
L 1122 3925 
L 1122 2300 
L 2563 2300 
Q 3034 2300 3292 2520 
Q 3550 2741 3550 3138 
z
" transform="scale(0.015625)"/>
       <path id="LiberationSans-4b" d="M 3456 0 
L 1697 2125 
L 1122 1688 
L 1122 0 
L 525 0 
L 525 4403 
L 1122 4403 
L 1122 2197 
L 3244 4403 
L 3947 4403 
L 2072 2491 
L 4197 0 
L 3456 0 
z
" transform="scale(0.015625)"/>
      </defs>
      <use xlink:href="#LiberationSans-42"/>
      <use xlink:href="#LiberationSans-52" x="66.699219"/>
      <use xlink:href="#LiberationSans-4b" x="138.916016"/>
      <use xlink:href="#LiberationSans-2d" x="205.615234"/>
      <use xlink:href="#LiberationSans-42" x="238.916016"/>
     </g>
    </g>
    <g id="line2d_67">
     <path style="fill: none; stroke: #e377c2; stroke-width: 1.5; stroke-linecap: round"/>
    </g>
    <g id="text_25">
     <!-- CAT -->
     <g style="fill: #262626" transform="translate(-135.923437 405.910875) scale(0.1 -0.1)">
      <defs>
       <path id="LiberationSans-54" d="M 2250 3916 
L 2250 0 
L 1656 0 
L 1656 3916 
L 144 3916 
L 144 4403 
L 3763 4403 
L 3763 3916 
L 2250 3916 
z
" transform="scale(0.015625)"/>
      </defs>
      <use xlink:href="#LiberationSans-43"/>
      <use xlink:href="#LiberationSans-41" x="72.216797"/>
      <use xlink:href="#LiberationSans-54" x="131.541016"/>
     </g>
    </g>
    <g id="line2d_68">
     <path style="fill: none; stroke: #7f7f7f; stroke-width: 1.5; stroke-linecap: round"/>
    </g>
    <g id="text_26">
     <!-- COST -->
     <g style="fill: #262626" transform="translate(-68.660937 405.910875) scale(0.1 -0.1)">
      <use xlink:href="#LiberationSans-43"/>
      <use xlink:href="#LiberationSans-4f" x="72.216797"/>
      <use xlink:href="#LiberationSans-53" x="150"/>
      <use xlink:href="#LiberationSans-54" x="216.699219"/>
     </g>
    </g>
    <g id="line2d_69">
     <path d="M -1 402.410875 
L -0.882812 402.410875 
" style="fill: none; stroke: #bcbd22; stroke-width: 1.5; stroke-linecap: round"/>
    </g>
    <g id="text_27">
     <!-- CRM -->
     <g style="fill: #262626" transform="translate(7.117188 405.910875) scale(0.1 -0.1)">
      <use xlink:href="#LiberationSans-43"/>
      <use xlink:href="#LiberationSans-52" x="72.216797"/>
      <use xlink:href="#LiberationSans-4d" x="144.433594"/>
     </g>
    </g>
    <g id="line2d_70">
     <path d="M 49.890625 402.410875 
L 59.890625 402.410875 
L 69.890625 402.410875 
" style="fill: none; stroke: #17becf; stroke-width: 1.5; stroke-linecap: round"/>
    </g>
    <g id="text_28">
     <!-- GOOGL -->
     <g style="fill: #262626" transform="translate(77.890625 405.910875) scale(0.1 -0.1)">
      <use xlink:href="#LiberationSans-47"/>
      <use xlink:href="#LiberationSans-4f" x="77.783203"/>
      <use xlink:href="#LiberationSans-4f" x="155.566406"/>
      <use xlink:href="#LiberationSans-47" x="233.349609"/>
      <use xlink:href="#LiberationSans-4c" x="311.132812"/>
     </g>
    </g>
    <g id="line2d_71">
     <path d="M 134.564063 402.410875 
L 144.564063 402.410875 
L 154.564063 402.410875 
" style="fill: none; stroke: #1f77b4; stroke-width: 1.5; stroke-linecap: round"/>
    </g>
    <g id="text_29">
     <!-- JNJ -->
     <g style="fill: #262626" transform="translate(162.564063 405.910875) scale(0.1 -0.1)">
      <defs>
       <path id="LiberationSans-4a" d="M 1428 -63 
Q 309 -63 100 1094 
L 684 1191 
Q 741 828 937 625 
Q 1134 422 1431 422 
Q 1756 422 1943 645 
Q 2131 869 2131 1300 
L 2131 3916 
L 1284 3916 
L 1284 4403 
L 2725 4403 
L 2725 1313 
Q 2725 672 2378 304 
Q 2031 -63 1428 -63 
z
" transform="scale(0.015625)"/>
      </defs>
      <use xlink:href="#LiberationSans-4a"/>
      <use xlink:href="#LiberationSans-4e" x="50"/>
      <use xlink:href="#LiberationSans-4a" x="122.216797"/>
     </g>
    </g>
    <g id="line2d_72">
     <path d="M 199.785938 402.410875 
L 209.785938 402.410875 
L 219.785938 402.410875 
" style="fill: none; stroke: #ff7f0e; stroke-width: 1.5; stroke-linecap: round"/>
    </g>
    <g id="text_30">
     <!-- JPM -->
     <g style="fill: #262626" transform="translate(227.785938 405.910875) scale(0.1 -0.1)">
      <use xlink:href="#LiberationSans-4a"/>
      <use xlink:href="#LiberationSans-50" x="50"/>
      <use xlink:href="#LiberationSans-4d" x="116.699219"/>
     </g>
    </g>
    <g id="line2d_73">
     <path d="M 267.785938 402.410875 
L 277.785938 402.410875 
L 287.785938 402.410875 
" style="fill: none; stroke: #2ca02c; stroke-width: 1.5; stroke-linecap: round"/>
    </g>
    <g id="text_31">
     <!-- LLY -->
     <g style="fill: #262626" transform="translate(295.785938 405.910875) scale(0.1 -0.1)">
      <defs>
       <path id="LiberationSans-59" d="M 2428 1825 
L 2428 0 
L 1834 0 
L 1834 1825 
L 141 4403 
L 797 4403 
L 2138 2306 
L 3472 4403 
L 4128 4403 
L 2428 1825 
z
" transform="scale(0.015625)"/>
      </defs>
      <use xlink:href="#LiberationSans-4c"/>
      <use xlink:href="#LiberationSans-4c" x="55.615234"/>
      <use xlink:href="#LiberationSans-59" x="103.855469"/>
     </g>
    </g>
    <g id="line2d_74">
     <path d="M 332.840625 402.410875 
L 342.840625 402.410875 
L 352.840625 402.410875 
" style="fill: none; stroke: #d62728; stroke-width: 1.5; stroke-linecap: round"/>
    </g>
    <g id="text_32">
     <!-- LMT -->
     <g style="fill: #262626" transform="translate(360.840625 405.910875) scale(0.1 -0.1)">
      <use xlink:href="#LiberationSans-4c"/>
      <use xlink:href="#LiberationSans-4d" x="55.615234"/>
      <use xlink:href="#LiberationSans-54" x="138.916016"/>
     </g>
    </g>
    <g id="line2d_75">
     <path d="M 400.839063 402.410875 
L 410.839063 402.410875 
L 420.839063 402.410875 
" style="fill: none; stroke: #9467bd; stroke-width: 1.5; stroke-linecap: round"/>
    </g>
    <g id="text_33">
     <!-- MA -->
     <g style="fill: #262626" transform="translate(428.839063 405.910875) scale(0.1 -0.1)">
      <use xlink:href="#LiberationSans-4d"/>
      <use xlink:href="#LiberationSans-41" x="83.300781"/>
     </g>
    </g>
    <g id="line2d_76">
     <path d="M 463.839063 402.410875 
L 473.839063 402.410875 
L 483.839063 402.410875 
" style="fill: none; stroke: #8c564b; stroke-width: 1.5; stroke-linecap: round"/>
    </g>
    <g id="text_34">
     <!-- MCD -->
     <g style="fill: #262626" transform="translate(491.839063 405.910875) scale(0.1 -0.1)">
      <use xlink:href="#LiberationSans-4d"/>
      <use xlink:href="#LiberationSans-43" x="83.300781"/>
      <use xlink:href="#LiberationSans-44" x="155.517578"/>
     </g>
    </g>
    <g id="line2d_77">
     <path d="M 534.6125 402.410875 
L 544.6125 402.410875 
L 554.6125 402.410875 
" style="fill: none; stroke: #e377c2; stroke-width: 1.5; stroke-linecap: round"/>
    </g>
    <g id="text_35">
     <!-- META -->
     <g style="fill: #262626" transform="translate(562.6125 405.910875) scale(0.1 -0.1)">
      <defs>
       <path id="LiberationSans-45" d="M 525 0 
L 525 4403 
L 3866 4403 
L 3866 3916 
L 1122 3916 
L 1122 2503 
L 3678 2503 
L 3678 2022 
L 1122 2022 
L 1122 488 
L 3994 488 
L 3994 0 
L 525 0 
z
" transform="scale(0.015625)"/>
      </defs>
      <use xlink:href="#LiberationSans-4d"/>
      <use xlink:href="#LiberationSans-45" x="83.300781"/>
      <use xlink:href="#LiberationSans-54" x="150"/>
      <use xlink:href="#LiberationSans-41" x="203.708984"/>
     </g>
    </g>
    <g id="line2d_78">
     <path d="M 609.653125 402.410875 
L 619.653125 402.410875 
L 629.653125 402.410875 
" style="fill: none; stroke: #7f7f7f; stroke-width: 1.5; stroke-linecap: round"/>
    </g>
    <g id="text_36">
     <!-- MRK -->
     <g style="fill: #262626" transform="translate(637.653125 405.910875) scale(0.1 -0.1)">
      <use xlink:href="#LiberationSans-4d"/>
      <use xlink:href="#LiberationSans-52" x="83.300781"/>
      <use xlink:href="#LiberationSans-4b" x="155.517578"/>
     </g>
    </g>
    <g id="line2d_79">
     <path d="M 679.875 402.410875 
L 689.875 402.410875 
L 699.875 402.410875 
" style="fill: none; stroke: #bcbd22; stroke-width: 1.5; stroke-linecap: round"/>
    </g>
    <g id="text_37">
     <!-- MSFT -->
     <g style="fill: #262626" transform="translate(707.875 405.910875) scale(0.1 -0.1)">
      <use xlink:href="#LiberationSans-4d"/>
      <use xlink:href="#LiberationSans-53" x="83.300781"/>
      <use xlink:href="#LiberationSans-46" x="150"/>
      <use xlink:href="#LiberationSans-54" x="211.083984"/>
     </g>
    </g>
    <g id="line2d_80">
     <path d="M 755.090625 402.410875 
L 765.090625 402.410875 
L 775.090625 402.410875 
" style="fill: none; stroke: #17becf; stroke-width: 1.5; stroke-linecap: round"/>
    </g>
    <g id="text_38">
     <!-- NEE -->
     <g style="fill: #262626" transform="translate(783.090625 405.910875) scale(0.1 -0.1)">
      <use xlink:href="#LiberationSans-4e"/>
      <use xlink:href="#LiberationSans-45" x="72.216797"/>
      <use xlink:href="#LiberationSans-45" x="138.916016"/>
     </g>
    </g>
    <g id="line2d_81">
     <path d="M 823.653125 402.410875 
L 833.653125 402.410875 
L 843.653125 402.410875 
" style="fill: none; stroke: #1f77b4; stroke-width: 1.5; stroke-linecap: round"/>
    </g>
    <g id="text_39">
     <!-- NVDA -->
     <g style="fill: #262626" transform="translate(851.653125 405.910875) scale(0.1 -0.1)">
      <use xlink:href="#LiberationSans-4e"/>
      <use xlink:href="#LiberationSans-56" x="72.216797"/>
      <use xlink:href="#LiberationSans-44" x="138.916016"/>
      <use xlink:href="#LiberationSans-41" x="211.132812"/>
     </g>
    </g>
    <g id="line2d_82">
     <path style="fill: none; stroke: #ff7f0e; stroke-width: 1.5; stroke-linecap: round"/>
    </g>
    <g id="text_40">
     <!-- ORCL -->
     <g style="fill: #262626" transform="translate(927.4375 405.910875) scale(0.1 -0.1)">
      <use xlink:href="#LiberationSans-4f"/>
      <use xlink:href="#LiberationSans-52" x="77.783203"/>
      <use xlink:href="#LiberationSans-43" x="150"/>
      <use xlink:href="#LiberationSans-4c" x="222.216797"/>
     </g>
    </g>
    <g id="line2d_83">
     <path style="fill: none; stroke: #2ca02c; stroke-width: 1.5; stroke-linecap: round"/>
    </g>
    <g id="text_41">
     <!-- PG -->
     <g style="fill: #262626" transform="translate(1003.220313 405.910875) scale(0.1 -0.1)">
      <use xlink:href="#LiberationSans-50"/>
      <use xlink:href="#LiberationSans-47" x="66.699219"/>
     </g>
    </g>
    <g id="line2d_84">
     <path style="fill: none; stroke: #d62728; stroke-width: 1.5; stroke-linecap: round"/>
    </g>
    <g id="text_42">
     <!-- PLTR -->
     <g style="fill: #262626" transform="translate(1065.66875 405.910875) scale(0.1 -0.1)">
      <use xlink:href="#LiberationSans-50"/>
      <use xlink:href="#LiberationSans-4c" x="66.699219"/>
      <use xlink:href="#LiberationSans-54" x="114.939453"/>
      <use xlink:href="#LiberationSans-52" x="176.023438"/>
     </g>
    </g>
    <g id="line2d_85">
     <path style="fill: none; stroke: #9467bd; stroke-width: 1.5; stroke-linecap: round"/>
    </g>
    <g id="text_43">
     <!-- TSLA -->
     <g style="fill: #262626" transform="translate(1138.492188 405.910875) scale(0.1 -0.1)">
      <use xlink:href="#LiberationSans-54"/>
      <use xlink:href="#LiberationSans-53" x="61.083984"/>
      <use xlink:href="#LiberationSans-4c" x="127.783203"/>
      <use xlink:href="#LiberationSans-41" x="183.398438"/>
     </g>
    </g>
    <g id="line2d_86">
     <path style="fill: none; stroke: #8c564b; stroke-width: 1.5; stroke-linecap: round"/>
    </g>
    <g id="text_44">
     <!-- TSM -->
     <g style="fill: #262626" transform="translate(1211.501563 405.910875) scale(0.1 -0.1)">
      <use xlink:href="#LiberationSans-54"/>
      <use xlink:href="#LiberationSans-53" x="61.083984"/>
      <use xlink:href="#LiberationSans-4d" x="127.783203"/>
     </g>
    </g>
    <g id="line2d_87">
     <path style="fill: none; stroke: #e377c2; stroke-width: 1.5; stroke-linecap: round"/>
    </g>
    <g id="text_45">
     <!-- UNH -->
     <g style="fill: #262626" transform="translate(1280.609375 405.910875) scale(0.1 -0.1)">
      <defs>
       <path id="LiberationSans-55" d="M 2284 -63 
Q 1744 -63 1341 134 
Q 938 331 716 706 
Q 494 1081 494 1600 
L 494 4403 
L 1091 4403 
L 1091 1650 
Q 1091 1047 1397 734 
Q 1703 422 2281 422 
Q 2875 422 3204 745 
Q 3534 1069 3534 1691 
L 3534 4403 
L 4128 4403 
L 4128 1656 
Q 4128 1122 3901 734 
Q 3675 347 3261 142 
Q 2847 -63 2284 -63 
z
" transform="scale(0.015625)"/>
       <path id="LiberationSans-48" d="M 3503 0 
L 3503 2041 
L 1122 2041 
L 1122 0 
L 525 0 
L 525 4403 
L 1122 4403 
L 1122 2541 
L 3503 2541 
L 3503 4403 
L 4100 4403 
L 4100 0 
L 3503 0 
z
" transform="scale(0.015625)"/>
      </defs>
      <use xlink:href="#LiberationSans-55"/>
      <use xlink:href="#LiberationSans-4e" x="72.216797"/>
      <use xlink:href="#LiberationSans-48" x="144.433594"/>
     </g>
    </g>
    <g id="line2d_88">
     <path style="fill: none; stroke: #7f7f7f; stroke-width: 1.5; stroke-linecap: round"/>
    </g>
    <g id="text_46">
     <!-- V -->
     <g style="fill: #262626" transform="translate(1350.275 405.910875) scale(0.1 -0.1)">
      <use xlink:href="#LiberationSans-56"/>
     </g>
    </g>
    <g id="line2d_89">
     <path style="fill: none; stroke: #bcbd22; stroke-width: 1.5; stroke-linecap: round"/>
    </g>
    <g id="text_47">
     <!-- WMT -->
     <g style="fill: #262626" transform="translate(1404.945313 405.910875) scale(0.1 -0.1)">
      <defs>
       <path id="LiberationSans-57" d="M 4722 0 
L 4009 0 
L 3247 2797 
Q 3172 3059 3028 3738 
Q 2947 3375 2890 3131 
Q 2834 2888 2038 0 
L 1325 0 
L 28 4403 
L 650 4403 
L 1441 1606 
Q 1581 1081 1700 525 
Q 1775 869 1873 1275 
Q 1972 1681 2741 4403 
L 3313 4403 
L 4078 1663 
Q 4253 991 4353 525 
L 4381 634 
Q 4466 994 4519 1220 
Q 4572 1447 5397 4403 
L 6019 4403 
L 4722 0 
z
" transform="scale(0.015625)"/>
      </defs>
      <use xlink:href="#LiberationSans-57"/>
      <use xlink:href="#LiberationSans-4d" x="94.384766"/>
      <use xlink:href="#LiberationSans-54" x="177.685547"/>
     </g>
    </g>
    <g id="line2d_90">
     <path style="fill: none; stroke: #17becf; stroke-width: 1.5; stroke-linecap: round"/>
    </g>
    <g id="text_48">
     <!-- XOM -->
     <g style="fill: #262626" transform="translate(1476.821875 405.910875) scale(0.1 -0.1)">
      <defs>
       <path id="LiberationSans-58" d="M 3475 0 
L 2153 1925 
L 803 0 
L 144 0 
L 1819 2288 
L 272 4403 
L 931 4403 
L 2156 2675 
L 3347 4403 
L 4006 4403 
L 2500 2309 
L 4134 0 
L 3475 0 
z
" transform="scale(0.015625)"/>
      </defs>
      <use xlink:href="#LiberationSans-58"/>
      <use xlink:href="#LiberationSans-4f" x="66.699219"/>
      <use xlink:href="#LiberationSans-4d" x="144.482422"/>
     </g>
    </g>
   </g>
  </g>
 </g>
 <defs>
  <clipPath id="p51dfdb2594">
   <rect x="108" y="51.84" width="669.6" height="293.76"/>
  </clipPath>
 </defs>
</svg>
