<?xml version="1.0" encoding="utf-8" standalone="no"?>
<!DOCTYPE svg PUBLIC "-//W3C//DTD SVG 1.1//EN"
  "http://www.w3.org/Graphics/SVG/1.1/DTD/svg11.dtd">
<svg xmlns:xlink="http://www.w3.org/1999/xlink" width="792pt" height="360pt" viewBox="0 0 792 360" xmlns="http://www.w3.org/2000/svg" version="1.1">
 <metadata>
  <rdf:RDF xmlns:dc="http://purl.org/dc/elements/1.1/" xmlns:cc="http://creativecommons.org/ns#" xmlns:rdf="http://www.w3.org/1999/02/22-rdf-syntax-ns#">
   <cc:Work>
    <dc:type rdf:resource="http://purl.org/dc/dcmitype/StillImage"/>
    <dc:date>2026-03-25T04:56:03.876706</dc:date>
    <dc:format>image/svg+xml</dc:format>
    <dc:creator>
     <cc:Agent>
      <dc:title>Matplotlib v3.8.4, https://matplotlib.org/</dc:title>
     </cc:Agent>
    </dc:creator>
   </cc:Work>
  </rdf:RDF>
 </metadata>
 <defs>
  <style type="text/css">*{stroke-linejoin: round; stroke-linecap: butt}</style>
 </defs>
 <g id="figure_1">
  <g id="patch_1">
   <path d="M 0 360 
L 792 360 
L 792 0 
L 0 0 
z
" style="fill: #ffffff"/>
  </g>
  <g id="axes_1">
   <g id="patch_2">
    <path d="M 48.74 267.96 
L 772 267.96 
L 772 34.64 
L 48.74 34.64 
z
" style="fill: #ffffff"/>
   </g>
   <g id="matplotlib.axis_1">
    <g id="xtick_1">
     <g id="line2d_1">
      <path d="M 119.970152 267.96 
L 119.970152 34.64 
" clip-path="url(#p9d9498921c)" style="fill: none; stroke-dasharray: 2.96,1.28; stroke-dashoffset: 0; stroke: #cccccc; stroke-opacity: 0.5; stroke-width: 0.8"/>
     </g>
     <g id="line2d_2"/>
     <g id="text_1">
      <!-- 2025-12-01 -->
      <g style="fill: #262626" transform="translate(74.638158 303.309415) rotate(-30) scale(0.1 -0.1)">
       <defs>
        <path id="LiberationSans-32" d="M 322 0 
L 322 397 
Q 481 763 711 1042 
Q 941 1322 1194 1548 
Q 1447 1775 1695 1969 
Q 1944 2163 2144 2356 
Q 2344 2550 2467 2762 
Q 2591 2975 2591 3244 
Q 2591 3606 2378 3806 
Q 2166 4006 1788 4006 
Q 1428 4006 1195 3811 
Q 963 3616 922 3263 
L 347 3316 
Q 409 3844 795 4156 
Q 1181 4469 1788 4469 
Q 2453 4469 2811 4155 
Q 3169 3841 3169 3263 
Q 3169 3006 3051 2753 
Q 2934 2500 2703 2247 
Q 2472 1994 1819 1463 
Q 1459 1169 1246 933 
Q 1034 697 941 478 
L 3238 478 
L 3238 0 
L 322 0 
z
" transform="scale(0.015625)"/>
        <path id="LiberationSans-30" d="M 3309 2203 
Q 3309 1100 2920 518 
Q 2531 -63 1772 -63 
Q 1013 -63 631 515 
Q 250 1094 250 2203 
Q 250 3338 620 3903 
Q 991 4469 1791 4469 
Q 2569 4469 2939 3897 
Q 3309 3325 3309 2203 
z
M 2738 2203 
Q 2738 3156 2517 3584 
Q 2297 4013 1791 4013 
Q 1272 4013 1045 3591 
Q 819 3169 819 2203 
Q 819 1266 1048 831 
Q 1278 397 1778 397 
Q 2275 397 2506 840 
Q 2738 1284 2738 2203 
z
" transform="scale(0.015625)"/>
        <path id="LiberationSans-35" d="M 3291 1434 
Q 3291 738 2877 337 
Q 2463 -63 1728 -63 
Q 1113 -63 734 206 
Q 356 475 256 984 
L 825 1050 
Q 1003 397 1741 397 
Q 2194 397 2450 670 
Q 2706 944 2706 1422 
Q 2706 1838 2448 2094 
Q 2191 2350 1753 2350 
Q 1525 2350 1328 2278 
Q 1131 2206 934 2034 
L 384 2034 
L 531 4403 
L 3034 4403 
L 3034 3925 
L 1044 3925 
L 959 2528 
Q 1325 2809 1869 2809 
Q 2519 2809 2905 2428 
Q 3291 2047 3291 1434 
z
" transform="scale(0.015625)"/>
        <path id="LiberationSans-2d" d="M 284 1450 
L 284 1950 
L 1847 1950 
L 1847 1450 
L 284 1450 
z
" transform="scale(0.015625)"/>
        <path id="LiberationSans-31" d="M 488 0 
L 488 478 
L 1609 478 
L 1609 3866 
L 616 3156 
L 616 3688 
L 1656 4403 
L 2175 4403 
L 2175 478 
L 3247 478 
L 3247 0 
L 488 0 
z
" transform="scale(0.015625)"/>
       </defs>
       <use xlink:href="#LiberationSans-32"/>
       <use xlink:href="#LiberationSans-30" x="55.615234"/>
       <use xlink:href="#LiberationSans-32" x="111.230469"/>
       <use xlink:href="#LiberationSans-35" x="166.845703"/>
       <use xlink:href="#LiberationSans-2d" x="222.460938"/>
       <use xlink:href="#LiberationSans-31" x="255.761719"/>
       <use xlink:href="#LiberationSans-32" x="311.376953"/>
       <use xlink:href="#LiberationSans-2d" x="366.992188"/>
       <use xlink:href="#LiberationSans-30" x="400.292969"/>
       <use xlink:href="#LiberationSans-31" x="455.908203"/>
      </g>
     </g>
    </g>
    <g id="xtick_2">
     <g id="line2d_3">
      <path d="M 196.679545 267.96 
L 196.679545 34.64 
" clip-path="url(#p9d9498921c)" style="fill: none; stroke-dasharray: 2.96,1.28; stroke-dashoffset: 0; stroke: #cccccc; stroke-opacity: 0.5; stroke-width: 0.8"/>
     </g>
     <g id="line2d_4"/>
     <g id="text_2">
      <!-- 2025-12-15 -->
      <g style="fill: #262626" transform="translate(151.347552 303.309415) rotate(-30) scale(0.1 -0.1)">
       <use xlink:href="#LiberationSans-32"/>
       <use xlink:href="#LiberationSans-30" x="55.615234"/>
       <use xlink:href="#LiberationSans-32" x="111.230469"/>
       <use xlink:href="#LiberationSans-35" x="166.845703"/>
       <use xlink:href="#LiberationSans-2d" x="222.460938"/>
       <use xlink:href="#LiberationSans-31" x="255.761719"/>
       <use xlink:href="#LiberationSans-32" x="311.376953"/>
       <use xlink:href="#LiberationSans-2d" x="366.992188"/>
       <use xlink:href="#LiberationSans-31" x="400.292969"/>
       <use xlink:href="#LiberationSans-35" x="455.908203"/>
      </g>
     </g>
    </g>
    <g id="xtick_3">
     <g id="line2d_5">
      <path d="M 289.826667 267.96 
L 289.826667 34.64 
" clip-path="url(#p9d9498921c)" style="fill: none; stroke-dasharray: 2.96,1.28; stroke-dashoffset: 0; stroke: #cccccc; stroke-opacity: 0.5; stroke-width: 0.8"/>
     </g>
     <g id="line2d_6"/>
     <g id="text_3">
      <!-- 2026-01-01 -->
      <g style="fill: #262626" transform="translate(244.494674 303.309415) rotate(-30) scale(0.1 -0.1)">
       <defs>
        <path id="LiberationSans-36" d="M 3278 1441 
Q 3278 744 2900 340 
Q 2522 -63 1856 -63 
Q 1113 -63 719 490 
Q 325 1044 325 2100 
Q 325 3244 734 3856 
Q 1144 4469 1900 4469 
Q 2897 4469 3156 3572 
L 2619 3475 
Q 2453 4013 1894 4013 
Q 1413 4013 1148 3564 
Q 884 3116 884 2266 
Q 1038 2550 1316 2698 
Q 1594 2847 1953 2847 
Q 2563 2847 2920 2465 
Q 3278 2084 3278 1441 
z
M 2706 1416 
Q 2706 1894 2472 2153 
Q 2238 2413 1819 2413 
Q 1425 2413 1183 2183 
Q 941 1953 941 1550 
Q 941 1041 1192 716 
Q 1444 391 1838 391 
Q 2244 391 2475 664 
Q 2706 938 2706 1416 
z
" transform="scale(0.015625)"/>
       </defs>
       <use xlink:href="#LiberationSans-32"/>
       <use xlink:href="#LiberationSans-30" x="55.615234"/>
       <use xlink:href="#LiberationSans-32" x="111.230469"/>
       <use xlink:href="#LiberationSans-36" x="166.845703"/>
       <use xlink:href="#LiberationSans-2d" x="222.460938"/>
       <use xlink:href="#LiberationSans-30" x="255.761719"/>
       <use xlink:href="#LiberationSans-31" x="311.376953"/>
       <use xlink:href="#LiberationSans-2d" x="366.992188"/>
       <use xlink:href="#LiberationSans-30" x="400.292969"/>
       <use xlink:href="#LiberationSans-31" x="455.908203"/>
      </g>
     </g>
    </g>
    <g id="xtick_4">
     <g id="line2d_7">
      <path d="M 366.536061 267.96 
L 366.536061 34.64 
" clip-path="url(#p9d9498921c)" style="fill: none; stroke-dasharray: 2.96,1.28; stroke-dashoffset: 0; stroke: #cccccc; stroke-opacity: 0.5; stroke-width: 0.8"/>
     </g>
     <g id="line2d_8"/>
     <g id="text_4">
      <!-- 2026-01-15 -->
      <g style="fill: #262626" transform="translate(321.204068 303.309415) rotate(-30) scale(0.1 -0.1)">
       <use xlink:href="#LiberationSans-32"/>
       <use xlink:href="#LiberationSans-30" x="55.615234"/>
       <use xlink:href="#LiberationSans-32" x="111.230469"/>
       <use xlink:href="#LiberationSans-36" x="166.845703"/>
       <use xlink:href="#LiberationSans-2d" x="222.460938"/>
       <use xlink:href="#LiberationSans-30" x="255.761719"/>
       <use xlink:href="#LiberationSans-31" x="311.376953"/>
       <use xlink:href="#LiberationSans-2d" x="366.992188"/>
       <use xlink:href="#LiberationSans-31" x="400.292969"/>
       <use xlink:href="#LiberationSans-35" x="455.908203"/>
      </g>
     </g>
    </g>
    <g id="xtick_5">
     <g id="line2d_9">
      <path d="M 459.683182 267.96 
L 459.683182 34.64 
" clip-path="url(#p9d9498921c)" style="fill: none; stroke-dasharray: 2.96,1.28; stroke-dashoffset: 0; stroke: #cccccc; stroke-opacity: 0.5; stroke-width: 0.8"/>
     </g>
     <g id="line2d_10"/>
     <g id="text_5">
      <!-- 2026-02-01 -->
      <g style="fill: #262626" transform="translate(414.351189 303.309415) rotate(-30) scale(0.1 -0.1)">
       <use xlink:href="#LiberationSans-32"/>
       <use xlink:href="#LiberationSans-30" x="55.615234"/>
       <use xlink:href="#LiberationSans-32" x="111.230469"/>
       <use xlink:href="#LiberationSans-36" x="166.845703"/>
       <use xlink:href="#LiberationSans-2d" x="222.460938"/>
       <use xlink:href="#LiberationSans-30" x="255.761719"/>
       <use xlink:href="#LiberationSans-32" x="311.376953"/>
       <use xlink:href="#LiberationSans-2d" x="366.992188"/>
       <use xlink:href="#LiberationSans-30" x="400.292969"/>
       <use xlink:href="#LiberationSans-31" x="455.908203"/>
      </g>
     </g>
    </g>
    <g id="xtick_6">
     <g id="line2d_11">
      <path d="M 536.392576 267.96 
L 536.392576 34.64 
" clip-path="url(#p9d9498921c)" style="fill: none; stroke-dasharray: 2.96,1.28; stroke-dashoffset: 0; stroke: #cccccc; stroke-opacity: 0.5; stroke-width: 0.8"/>
     </g>
     <g id="line2d_12"/>
     <g id="text_6">
      <!-- 2026-02-15 -->
      <g style="fill: #262626" transform="translate(491.060583 303.309415) rotate(-30) scale(0.1 -0.1)">
       <use xlink:href="#LiberationSans-32"/>
       <use xlink:href="#LiberationSans-30" x="55.615234"/>
       <use xlink:href="#LiberationSans-32" x="111.230469"/>
       <use xlink:href="#LiberationSans-36" x="166.845703"/>
       <use xlink:href="#LiberationSans-2d" x="222.460938"/>
       <use xlink:href="#LiberationSans-30" x="255.761719"/>
       <use xlink:href="#LiberationSans-32" x="311.376953"/>
       <use xlink:href="#LiberationSans-2d" x="366.992188"/>
       <use xlink:href="#LiberationSans-31" x="400.292969"/>
       <use xlink:href="#LiberationSans-35" x="455.908203"/>
      </g>
     </g>
    </g>
    <g id="xtick_7">
     <g id="line2d_13">
      <path d="M 613.10197 267.96 
L 613.10197 34.64 
" clip-path="url(#p9d9498921c)" style="fill: none; stroke-dasharray: 2.96,1.28; stroke-dashoffset: 0; stroke: #cccccc; stroke-opacity: 0.5; stroke-width: 0.8"/>
     </g>
     <g id="line2d_14"/>
     <g id="text_7">
      <!-- 2026-03-01 -->
      <g style="fill: #262626" transform="translate(567.769977 303.309415) rotate(-30) scale(0.1 -0.1)">
       <defs>
        <path id="LiberationSans-33" d="M 3278 1216 
Q 3278 606 2890 271 
Q 2503 -63 1784 -63 
Q 1116 -63 717 239 
Q 319 541 244 1131 
L 825 1184 
Q 938 403 1784 403 
Q 2209 403 2451 612 
Q 2694 822 2694 1234 
Q 2694 1594 2417 1795 
Q 2141 1997 1619 1997 
L 1300 1997 
L 1300 2484 
L 1606 2484 
Q 2069 2484 2323 2686 
Q 2578 2888 2578 3244 
Q 2578 3597 2370 3801 
Q 2163 4006 1753 4006 
Q 1381 4006 1151 3815 
Q 922 3625 884 3278 
L 319 3322 
Q 381 3863 767 4166 
Q 1153 4469 1759 4469 
Q 2422 4469 2789 4161 
Q 3156 3853 3156 3303 
Q 3156 2881 2920 2617 
Q 2684 2353 2234 2259 
L 2234 2247 
Q 2728 2194 3003 1916 
Q 3278 1638 3278 1216 
z
" transform="scale(0.015625)"/>
       </defs>
       <use xlink:href="#LiberationSans-32"/>
       <use xlink:href="#LiberationSans-30" x="55.615234"/>
       <use xlink:href="#LiberationSans-32" x="111.230469"/>
       <use xlink:href="#LiberationSans-36" x="166.845703"/>
       <use xlink:href="#LiberationSans-2d" x="222.460938"/>
       <use xlink:href="#LiberationSans-30" x="255.761719"/>
       <use xlink:href="#LiberationSans-33" x="311.376953"/>
       <use xlink:href="#LiberationSans-2d" x="366.992188"/>
       <use xlink:href="#LiberationSans-30" x="400.292969"/>
       <use xlink:href="#LiberationSans-31" x="455.908203"/>
      </g>
     </g>
    </g>
    <g id="xtick_8">
     <g id="line2d_15">
      <path d="M 689.811364 267.96 
L 689.811364 34.64 
" clip-path="url(#p9d9498921c)" style="fill: none; stroke-dasharray: 2.96,1.28; stroke-dashoffset: 0; stroke: #cccccc; stroke-opacity: 0.5; stroke-width: 0.8"/>
     </g>
     <g id="line2d_16"/>
     <g id="text_8">
      <!-- 2026-03-15 -->
      <g style="fill: #262626" transform="translate(644.479371 303.309415) rotate(-30) scale(0.1 -0.1)">
       <use xlink:href="#LiberationSans-32"/>
       <use xlink:href="#LiberationSans-30" x="55.615234"/>
       <use xlink:href="#LiberationSans-32" x="111.230469"/>
       <use xlink:href="#LiberationSans-36" x="166.845703"/>
       <use xlink:href="#LiberationSans-2d" x="222.460938"/>
       <use xlink:href="#LiberationSans-30" x="255.761719"/>
       <use xlink:href="#LiberationSans-33" x="311.376953"/>
       <use xlink:href="#LiberationSans-2d" x="366.992188"/>
       <use xlink:href="#LiberationSans-31" x="400.292969"/>
       <use xlink:href="#LiberationSans-35" x="455.908203"/>
      </g>
     </g>
    </g>
    <g id="text_9">
     <!-- Fecha de predicción -->
     <g style="fill: #262626" transform="translate(365.346563 316.470481) scale(0.1 -0.1)">
      <defs>
       <path id="LiberationSans-46" d="M 1122 3916 
L 1122 2278 
L 3578 2278 
L 3578 1784 
L 1122 1784 
L 1122 0 
L 525 0 
L 525 4403 
L 3653 4403 
L 3653 3916 
L 1122 3916 
z
" transform="scale(0.015625)"/>
       <path id="LiberationSans-65" d="M 863 1572 
Q 863 991 1103 675 
Q 1344 359 1806 359 
Q 2172 359 2392 506 
Q 2613 653 2691 878 
L 3184 738 
Q 2881 -63 1806 -63 
Q 1056 -63 664 384 
Q 272 831 272 1713 
Q 272 2550 664 2997 
Q 1056 3444 1784 3444 
Q 3275 3444 3275 1647 
L 3275 1572 
L 863 1572 
z
M 2694 2003 
Q 2647 2538 2422 2783 
Q 2197 3028 1775 3028 
Q 1366 3028 1127 2754 
Q 888 2481 869 2003 
L 2694 2003 
z
" transform="scale(0.015625)"/>
       <path id="LiberationSans-63" d="M 859 1706 
Q 859 1031 1071 706 
Q 1284 381 1713 381 
Q 2013 381 2214 543 
Q 2416 706 2463 1044 
L 3031 1006 
Q 2966 519 2616 228 
Q 2266 -63 1728 -63 
Q 1019 -63 645 385 
Q 272 834 272 1694 
Q 272 2547 647 2995 
Q 1022 3444 1722 3444 
Q 2241 3444 2583 3175 
Q 2925 2906 3013 2434 
L 2434 2391 
Q 2391 2672 2212 2837 
Q 2034 3003 1706 3003 
Q 1259 3003 1059 2706 
Q 859 2409 859 1706 
z
" transform="scale(0.015625)"/>
       <path id="LiberationSans-68" d="M 991 2803 
Q 1172 3134 1426 3289 
Q 1681 3444 2072 3444 
Q 2622 3444 2883 3170 
Q 3144 2897 3144 2253 
L 3144 0 
L 2578 0 
L 2578 2144 
Q 2578 2500 2512 2673 
Q 2447 2847 2297 2928 
Q 2147 3009 1881 3009 
Q 1484 3009 1245 2734 
Q 1006 2459 1006 1994 
L 1006 0 
L 444 0 
L 444 4638 
L 1006 4638 
L 1006 3431 
Q 1006 3241 995 3037 
Q 984 2834 981 2803 
L 991 2803 
z
" transform="scale(0.015625)"/>
       <path id="LiberationSans-61" d="M 1294 -63 
Q 784 -63 528 206 
Q 272 475 272 944 
Q 272 1469 617 1750 
Q 963 2031 1731 2050 
L 2491 2063 
L 2491 2247 
Q 2491 2659 2316 2837 
Q 2141 3016 1766 3016 
Q 1388 3016 1216 2887 
Q 1044 2759 1009 2478 
L 422 2531 
Q 566 3444 1778 3444 
Q 2416 3444 2737 3151 
Q 3059 2859 3059 2306 
L 3059 850 
Q 3059 600 3125 473 
Q 3191 347 3375 347 
Q 3456 347 3559 369 
L 3559 19 
Q 3347 -31 3125 -31 
Q 2813 -31 2670 133 
Q 2528 297 2509 647 
L 2491 647 
Q 2275 259 1989 98 
Q 1703 -63 1294 -63 
z
M 1422 359 
Q 1731 359 1972 500 
Q 2213 641 2352 886 
Q 2491 1131 2491 1391 
L 2491 1669 
L 1875 1656 
Q 1478 1650 1273 1575 
Q 1069 1500 959 1344 
Q 850 1188 850 934 
Q 850 659 998 509 
Q 1147 359 1422 359 
z
" transform="scale(0.015625)"/>
       <path id="LiberationSans-20" transform="scale(0.015625)"/>
       <path id="LiberationSans-64" d="M 2566 544 
Q 2409 219 2151 78 
Q 1894 -63 1513 -63 
Q 872 -63 570 368 
Q 269 800 269 1675 
Q 269 3444 1513 3444 
Q 1897 3444 2153 3303 
Q 2409 3163 2566 2856 
L 2572 2856 
L 2566 3234 
L 2566 4638 
L 3128 4638 
L 3128 697 
Q 3128 169 3147 0 
L 2609 0 
Q 2600 50 2589 231 
Q 2578 413 2578 544 
L 2566 544 
z
M 859 1694 
Q 859 984 1046 678 
Q 1234 372 1656 372 
Q 2134 372 2350 703 
Q 2566 1034 2566 1731 
Q 2566 2403 2350 2715 
Q 2134 3028 1663 3028 
Q 1238 3028 1048 2714 
Q 859 2400 859 1694 
z
" transform="scale(0.015625)"/>
       <path id="LiberationSans-70" d="M 3291 1706 
Q 3291 -63 2047 -63 
Q 1266 -63 997 525 
L 981 525 
Q 994 500 994 -6 
L 994 -1328 
L 431 -1328 
L 431 2691 
Q 431 3213 413 3381 
L 956 3381 
Q 959 3369 965 3292 
Q 972 3216 980 3056 
Q 988 2897 988 2838 
L 1000 2838 
Q 1150 3150 1397 3295 
Q 1644 3441 2047 3441 
Q 2672 3441 2981 3022 
Q 3291 2603 3291 1706 
z
M 2700 1694 
Q 2700 2400 2509 2703 
Q 2319 3006 1903 3006 
Q 1569 3006 1380 2865 
Q 1191 2725 1092 2426 
Q 994 2128 994 1650 
Q 994 984 1206 668 
Q 1419 353 1897 353 
Q 2316 353 2508 661 
Q 2700 969 2700 1694 
z
" transform="scale(0.015625)"/>
       <path id="LiberationSans-72" d="M 444 0 
L 444 2594 
Q 444 2950 425 3381 
L 956 3381 
Q 981 2806 981 2691 
L 994 2691 
Q 1128 3125 1303 3284 
Q 1478 3444 1797 3444 
Q 1909 3444 2025 3413 
L 2025 2897 
Q 1913 2928 1725 2928 
Q 1375 2928 1190 2626 
Q 1006 2325 1006 1763 
L 1006 0 
L 444 0 
z
" transform="scale(0.015625)"/>
       <path id="LiberationSans-69" d="M 428 4100 
L 428 4638 
L 991 4638 
L 991 4100 
L 428 4100 
z
M 428 0 
L 428 3381 
L 991 3381 
L 991 0 
L 428 0 
z
" transform="scale(0.015625)"/>
       <path id="LiberationSans-f3" d="M 3291 1694 
Q 3291 806 2900 371 
Q 2509 -63 1766 -63 
Q 1025 -63 647 389 
Q 269 841 269 1694 
Q 269 3444 1784 3444 
Q 2559 3444 2925 3017 
Q 3291 2591 3291 1694 
z
M 2700 1694 
Q 2700 2394 2492 2711 
Q 2284 3028 1794 3028 
Q 1300 3028 1079 2704 
Q 859 2381 859 1694 
Q 859 1025 1076 689 
Q 1294 353 1759 353 
Q 2266 353 2483 678 
Q 2700 1003 2700 1694 
z
M 1345 3753 
L 1345 3816 
L 2023 4713 
L 2670 4713 
L 2670 4622 
L 1639 3753 
L 1345 3753 
z
" transform="scale(0.015625)"/>
       <path id="LiberationSans-6e" d="M 2578 0 
L 2578 2144 
Q 2578 2478 2512 2662 
Q 2447 2847 2303 2928 
Q 2159 3009 1881 3009 
Q 1475 3009 1240 2731 
Q 1006 2453 1006 1959 
L 1006 0 
L 444 0 
L 444 2659 
Q 444 3250 425 3381 
L 956 3381 
Q 959 3366 962 3297 
Q 966 3228 970 3139 
Q 975 3050 981 2803 
L 991 2803 
Q 1184 3153 1439 3298 
Q 1694 3444 2072 3444 
Q 2628 3444 2886 3167 
Q 3144 2891 3144 2253 
L 3144 0 
L 2578 0 
z
" transform="scale(0.015625)"/>
      </defs>
      <use xlink:href="#LiberationSans-46"/>
      <use xlink:href="#LiberationSans-65" x="61.083984"/>
      <use xlink:href="#LiberationSans-63" x="116.699219"/>
      <use xlink:href="#LiberationSans-68" x="166.699219"/>
      <use xlink:href="#LiberationSans-61" x="222.314453"/>
      <use xlink:href="#LiberationSans-20" x="277.929688"/>
      <use xlink:href="#LiberationSans-64" x="305.712891"/>
      <use xlink:href="#LiberationSans-65" x="361.328125"/>
      <use xlink:href="#LiberationSans-20" x="416.943359"/>
      <use xlink:href="#LiberationSans-70" x="444.726562"/>
      <use xlink:href="#LiberationSans-72" x="500.341797"/>
      <use xlink:href="#LiberationSans-65" x="533.642578"/>
      <use xlink:href="#LiberationSans-64" x="589.257812"/>
      <use xlink:href="#LiberationSans-69" x="644.873047"/>
      <use xlink:href="#LiberationSans-63" x="667.089844"/>
      <use xlink:href="#LiberationSans-63" x="717.089844"/>
      <use xlink:href="#LiberationSans-69" x="767.089844"/>
      <use xlink:href="#LiberationSans-f3" x="789.306641"/>
      <use xlink:href="#LiberationSans-6e" x="844.921875"/>
     </g>
    </g>
   </g>
   <g id="matplotlib.axis_2">
    <g id="ytick_1">
     <g id="line2d_17">
      <path d="M 48.74 257.535482 
L 772 257.535482 
" clip-path="url(#p9d9498921c)" style="fill: none; stroke-dasharray: 2.96,1.28; stroke-dashoffset: 0; stroke: #cccccc; stroke-opacity: 0.5; stroke-width: 0.8"/>
     </g>
     <g id="line2d_18"/>
     <g id="text_10">
      <!-- 0 -->
      <g style="fill: #262626" transform="translate(39.679062 261.15892) scale(0.1 -0.1)">
       <use xlink:href="#LiberationSans-30"/>
      </g>
     </g>
    </g>
    <g id="ytick_2">
     <g id="line2d_19">
      <path d="M 48.74 228.352115 
L 772 228.352115 
" clip-path="url(#p9d9498921c)" style="fill: none; stroke-dasharray: 2.96,1.28; stroke-dashoffset: 0; stroke: #cccccc; stroke-opacity: 0.5; stroke-width: 0.8"/>
     </g>
     <g id="line2d_20"/>
     <g id="text_11">
      <!-- 2 -->
      <g style="fill: #262626" transform="translate(39.679062 231.975553) scale(0.1 -0.1)">
       <use xlink:href="#LiberationSans-32"/>
      </g>
     </g>
    </g>
    <g id="ytick_3">
     <g id="line2d_21">
      <path d="M 48.74 199.168748 
L 772 199.168748 
" clip-path="url(#p9d9498921c)" style="fill: none; stroke-dasharray: 2.96,1.28; stroke-dashoffset: 0; stroke: #cccccc; stroke-opacity: 0.5; stroke-width: 0.8"/>
     </g>
     <g id="line2d_22"/>
     <g id="text_12">
      <!-- 4 -->
      <g style="fill: #262626" transform="translate(39.679062 202.792185) scale(0.1 -0.1)">
       <defs>
        <path id="LiberationSans-34" d="M 2753 997 
L 2753 0 
L 2222 0 
L 2222 997 
L 147 997 
L 147 1434 
L 2163 4403 
L 2753 4403 
L 2753 1441 
L 3372 1441 
L 3372 997 
L 2753 997 
z
M 2222 3769 
Q 2216 3750 2134 3603 
Q 2053 3456 2013 3397 
L 884 1734 
L 716 1503 
L 666 1441 
L 2222 1441 
L 2222 3769 
z
" transform="scale(0.015625)"/>
       </defs>
       <use xlink:href="#LiberationSans-34"/>
      </g>
     </g>
    </g>
    <g id="ytick_4">
     <g id="line2d_23">
      <path d="M 48.74 169.98538 
L 772 169.98538 
" clip-path="url(#p9d9498921c)" style="fill: none; stroke-dasharray: 2.96,1.28; stroke-dashoffset: 0; stroke: #cccccc; stroke-opacity: 0.5; stroke-width: 0.8"/>
     </g>
     <g id="line2d_24"/>
     <g id="text_13">
      <!-- 6 -->
      <g style="fill: #262626" transform="translate(39.679062 173.608818) scale(0.1 -0.1)">
       <use xlink:href="#LiberationSans-36"/>
      </g>
     </g>
    </g>
    <g id="ytick_5">
     <g id="line2d_25">
      <path d="M 48.74 140.802013 
L 772 140.802013 
" clip-path="url(#p9d9498921c)" style="fill: none; stroke-dasharray: 2.96,1.28; stroke-dashoffset: 0; stroke: #cccccc; stroke-opacity: 0.5; stroke-width: 0.8"/>
     </g>
     <g id="line2d_26"/>
     <g id="text_14">
      <!-- 8 -->
      <g style="fill: #262626" transform="translate(39.679062 144.425451) scale(0.1 -0.1)">
       <defs>
        <path id="LiberationSans-38" d="M 3281 1228 
Q 3281 619 2893 278 
Q 2506 -63 1781 -63 
Q 1075 -63 676 271 
Q 278 606 278 1222 
Q 278 1653 525 1947 
Q 772 2241 1156 2303 
L 1156 2316 
Q 797 2400 589 2681 
Q 381 2963 381 3341 
Q 381 3844 757 4156 
Q 1134 4469 1769 4469 
Q 2419 4469 2795 4162 
Q 3172 3856 3172 3334 
Q 3172 2956 2962 2675 
Q 2753 2394 2391 2322 
L 2391 2309 
Q 2813 2241 3047 1952 
Q 3281 1663 3281 1228 
z
M 2588 3303 
Q 2588 4050 1769 4050 
Q 1372 4050 1164 3862 
Q 956 3675 956 3303 
Q 956 2925 1170 2726 
Q 1384 2528 1775 2528 
Q 2172 2528 2380 2711 
Q 2588 2894 2588 3303 
z
M 2697 1281 
Q 2697 1691 2453 1898 
Q 2209 2106 1769 2106 
Q 1341 2106 1100 1882 
Q 859 1659 859 1269 
Q 859 359 1788 359 
Q 2247 359 2472 579 
Q 2697 800 2697 1281 
z
" transform="scale(0.015625)"/>
       </defs>
       <use xlink:href="#LiberationSans-38"/>
      </g>
     </g>
    </g>
    <g id="ytick_6">
     <g id="line2d_27">
      <path d="M 48.74 111.618646 
L 772 111.618646 
" clip-path="url(#p9d9498921c)" style="fill: none; stroke-dasharray: 2.96,1.28; stroke-dashoffset: 0; stroke: #cccccc; stroke-opacity: 0.5; stroke-width: 0.8"/>
     </g>
     <g id="line2d_28"/>
     <g id="text_15">
      <!-- 10 -->
      <g style="fill: #262626" transform="translate(34.118125 115.242083) scale(0.1 -0.1)">
       <use xlink:href="#LiberationSans-31"/>
       <use xlink:href="#LiberationSans-30" x="55.615234"/>
      </g>
     </g>
    </g>
    <g id="ytick_7">
     <g id="line2d_29">
      <path d="M 48.74 82.435279 
L 772 82.435279 
" clip-path="url(#p9d9498921c)" style="fill: none; stroke-dasharray: 2.96,1.28; stroke-dashoffset: 0; stroke: #cccccc; stroke-opacity: 0.5; stroke-width: 0.8"/>
     </g>
     <g id="line2d_30"/>
     <g id="text_16">
      <!-- 12 -->
      <g style="fill: #262626" transform="translate(34.118125 86.058716) scale(0.1 -0.1)">
       <use xlink:href="#LiberationSans-31"/>
       <use xlink:href="#LiberationSans-32" x="55.615234"/>
      </g>
     </g>
    </g>
    <g id="ytick_8">
     <g id="line2d_31">
      <path d="M 48.74 53.251911 
L 772 53.251911 
" clip-path="url(#p9d9498921c)" style="fill: none; stroke-dasharray: 2.96,1.28; stroke-dashoffset: 0; stroke: #cccccc; stroke-opacity: 0.5; stroke-width: 0.8"/>
     </g>
     <g id="line2d_32"/>
     <g id="text_17">
      <!-- 14 -->
      <g style="fill: #262626" transform="translate(34.118125 56.875349) scale(0.1 -0.1)">
       <use xlink:href="#LiberationSans-31"/>
       <use xlink:href="#LiberationSans-34" x="55.615234"/>
      </g>
     </g>
    </g>
    <g id="text_18">
     <!-- MAE -->
     <g style="fill: #262626" transform="translate(28.043125 162.135156) rotate(-90) scale(0.1 -0.1)">
      <defs>
       <path id="LiberationSans-4d" d="M 4269 0 
L 4269 2938 
Q 4269 3425 4297 3875 
Q 4144 3316 4022 3000 
L 2884 0 
L 2466 0 
L 1313 3000 
L 1138 3531 
L 1034 3875 
L 1044 3528 
L 1056 2938 
L 1056 0 
L 525 0 
L 525 4403 
L 1309 4403 
L 2481 1350 
Q 2544 1166 2601 955 
Q 2659 744 2678 650 
Q 2703 775 2783 1029 
Q 2863 1284 2891 1350 
L 4041 4403 
L 4806 4403 
L 4806 0 
L 4269 0 
z
" transform="scale(0.015625)"/>
       <path id="LiberationSans-41" d="M 3647 0 
L 3144 1288 
L 1138 1288 
L 631 0 
L 13 0 
L 1809 4403 
L 2488 4403 
L 4256 0 
L 3647 0 
z
M 2141 3953 
L 2113 3866 
Q 2034 3606 1881 3200 
L 1319 1753 
L 2966 1753 
L 2400 3206 
Q 2313 3422 2225 3694 
L 2141 3953 
z
" transform="scale(0.015625)"/>
       <path id="LiberationSans-45" d="M 525 0 
L 525 4403 
L 3866 4403 
L 3866 3916 
L 1122 3916 
L 1122 2503 
L 3678 2503 
L 3678 2022 
L 1122 2022 
L 1122 488 
L 3994 488 
L 3994 0 
L 525 0 
z
" transform="scale(0.015625)"/>
      </defs>
      <use xlink:href="#LiberationSans-4d"/>
      <use xlink:href="#LiberationSans-41" x="83.300781"/>
      <use xlink:href="#LiberationSans-45" x="150"/>
     </g>
    </g>
   </g>
   <g id="line2d_33">
    <path d="M 81.615455 203.92695 
L 87.094697 227.368198 
L 92.573939 232.952581 
L 98.053182 252.268979 
L 103.532424 229.681782 
L 119.970152 230.546121 
L 125.449394 232.712986 
L 130.928636 243.563362 
L 136.407879 248.428229 
L 141.887121 241.652435 
L 158.324848 243.074248 
L 163.804091 247.713382 
L 169.283333 237.282371 
L 174.762576 231.668659 
L 196.679545 235.335695 
L 202.158788 234.55752 
L 207.63803 212.180006 
L 213.117273 227.800841 
L 218.596515 232.89757 
L 235.034242 232.608363 
L 240.513485 236.108616 
L 245.992727 247.2714 
L 273.388939 221.450686 
L 278.868182 244.447618 
L 284.347424 235.082091 
L 311.743636 220.833604 
L 317.222879 217.406747 
L 322.702121 240.277752 
L 328.181364 238.112346 
L 333.660606 229.626699 
L 350.098333 232.820964 
L 355.577576 249.022986 
L 361.056818 221.763094 
L 366.536061 240.630287 
L 372.015303 245.660332 
L 388.45303 247.772916 
L 393.932273 246.53773 
L 399.411515 211.202217 
L 404.890758 232.062488 
L 410.37 238.861921 
L 426.807727 230.207739 
L 432.28697 217.424695 
L 437.766212 205.992257 
L 443.245455 230.01367 
L 448.724697 156.110586 
L 470.641667 154.962999 
L 476.120909 218.31114 
L 481.600152 204.220389 
L 487.079394 172.148306 
L 503.517121 221.068384 
L 508.996364 240.311167 
L 514.475606 229.453787 
L 519.954848 194.60943 
L 525.434091 216.804548 
L 541.871818 240.169555 
L 547.351061 243.132031 
L 552.830303 218.260069 
L 558.309545 234.163691 
L 563.788788 218.672576 
L 580.226515 212.556326 
L 585.705758 227.627054 
L 591.185 230.711736 
L 596.664242 227.464795 
L 602.143485 235.207142 
L 618.581212 232.384381 
L 624.060455 197.189532 
L 629.539697 205.2742 
L 640.498182 140.578079 
L 733.645303 174.275335 
L 739.124545 172.895351 
" clip-path="url(#p9d9498921c)" style="fill: none; stroke: #1f77b4; stroke-width: 1.7; stroke-linecap: round"/>
   </g>
   <g id="line2d_34">
    <path d="M 81.615455 218.649861 
L 87.094697 241.697426 
L 92.573939 238.006459 
L 98.053182 253.473158 
L 103.532424 250.586923 
L 119.970152 239.084785 
L 125.449394 242.873272 
L 130.928636 250.791206 
L 136.407879 252.104458 
L 141.887121 249.810645 
L 158.324848 242.661206 
L 163.804091 246.259029 
L 169.283333 243.420947 
L 174.762576 245.586839 
L 196.679545 246.067878 
L 202.158788 243.152703 
L 207.63803 224.539795 
L 213.117273 240.506015 
L 218.596515 246.674649 
L 235.034242 226.268666 
L 240.513485 238.187396 
L 245.992727 249.153046 
L 273.388939 200.958175 
L 278.868182 246.484228 
L 284.347424 230.979104 
L 311.743636 218.381618 
L 317.222879 234.447061 
L 322.702121 235.331317 
L 328.181364 240.232664 
L 333.660606 245.755616 
L 350.098333 228.64249 
L 355.577576 250.497184 
L 361.056818 236.380459 
L 366.536061 241.669215 
L 372.015303 239.411882 
L 388.45303 254.161885 
L 393.932273 253.686196 
L 399.411515 230.565673 
L 404.890758 223.384376 
L 410.37 234.245696 
L 426.807727 230.665626 
L 432.28697 214.337532 
L 437.766212 185.946494 
L 443.245455 239.827015 
L 448.724697 66.386615 
L 470.641667 61.582304 
L 476.120909 244.295718 
L 481.600152 206.330346 
L 487.079394 196.143892 
L 503.517121 211.669443 
L 508.996364 229.963767 
L 514.475606 237.031978 
L 519.954848 191.592746 
L 525.434091 211.319243 
L 541.871818 253.476076 
L 547.351061 248.17054 
L 552.830303 213.34238 
L 558.309545 252.885842 
L 563.788788 222.737235 
L 580.226515 208.090103 
L 585.705758 227.753126 
L 591.185 243.930197 
L 596.664242 241.359142 
L 602.143485 231.29088 
L 618.581212 233.567183 
L 624.060455 169.690628 
L 629.539697 239.079921 
L 640.498182 134.931987 
L 733.645303 167.88447 
L 739.124545 180.784199 
" clip-path="url(#p9d9498921c)" style="fill: none; stroke: #ff7f0e; stroke-width: 1.7; stroke-linecap: round"/>
   </g>
   <g id="line2d_35">
    <path d="M 81.615455 185.634961 
L 87.094697 221.997802 
L 92.573939 221.849331 
L 98.053182 256.301026 
L 103.532424 248.020245 
L 119.970152 246.802569 
L 125.449394 205.688312 
L 130.928636 235.840567 
L 136.407879 247.083824 
L 141.887121 219.91338 
L 158.324848 240.689384 
L 163.804091 244.477749 
L 169.283333 240.523403 
L 174.762576 248.181484 
L 196.679545 224.903614 
L 202.158788 248.870211 
L 207.63803 201.809843 
L 213.117273 234.293119 
L 218.596515 212.575222 
L 235.034242 252.887302 
L 240.513485 248.869117 
L 245.992727 250.076214 
L 273.388939 245.432775 
L 278.868182 252.638149 
L 284.347424 225.214903 
L 311.743636 208.637048 
L 317.222879 204.582506 
L 322.702121 234.51394 
L 328.181364 234.919832 
L 333.660606 230.046696 
L 350.098333 226.151932 
L 355.577576 236.201711 
L 361.056818 203.562061 
L 366.536061 227.4771 
L 372.015303 228.878875 
L 388.45303 245.612618 
L 393.932273 242.936016 
L 399.411515 176.450469 
L 404.890758 220.514922 
L 410.37 217.909333 
L 426.807727 209.515954 
L 432.28697 184.689177 
L 437.766212 168.622031 
L 443.245455 205.322547 
L 448.724697 94.681106 
L 470.641667 45.245455 
L 476.120909 189.09854 
L 481.600152 152.388053 
L 487.079394 124.151443 
L 503.517121 210.147044 
L 508.996364 224.817766 
L 514.475606 213.041061 
L 519.954848 160.343439 
L 525.434091 202.486167 
L 541.871818 245.595108 
L 547.351061 238.218039 
L 552.830303 211.034219 
L 558.309545 229.00412 
L 563.788788 197.214192 
L 580.226515 180.043428 
L 585.705758 214.133735 
L 591.185 219.594673 
L 596.664242 220.408646 
L 602.143485 230.123789 
L 618.581212 218.547233 
L 624.060455 169.100395 
L 629.539697 190.797742 
L 640.498182 166.020503 
L 733.645303 171.683852 
L 739.124545 165.026786 
" clip-path="url(#p9d9498921c)" style="fill: none; stroke: #2ca02c; stroke-width: 1.7; stroke-linecap: round"/>
   </g>
   <g id="line2d_36">
    <path d="M 311.743636 244.575149 
L 317.222879 254.843317 
L 322.702121 249.231355 
L 328.181364 257.297638 
L 333.660606 247.30963 
L 350.098333 251.852022 
L 355.577576 249.384568 
L 361.056818 250.184192 
L 366.536061 256.832163 
L 372.015303 257.354545 
M 399.411515 244.586822 
L 404.890758 251.760094 
L 410.37 249.581556 
L 426.807727 249.494005 
L 432.28697 253.915286 
L 437.766212 251.834512 
L 443.245455 249.308691 
L 448.724697 252.603493 
L 470.641667 249.619494 
L 476.120909 250.360751 
L 481.600152 240.937442 
L 487.079394 251.688595 
L 503.517121 250.427873 
L 508.996364 246.549404 
L 514.475606 255.432821 
L 519.954848 245.646179 
L 525.434091 249.092734 
M 552.830303 256.598696 
L 558.309545 253.973652 
L 563.788788 253.877347 
L 580.226515 247.143285 
L 585.705758 256.813194 
L 591.185 253.57384 
L 596.664242 249.899654 
L 602.143485 247.779483 
L 618.581212 249.48525 
L 624.060455 253.408954 
L 629.539697 255.664828 
L 640.498182 235.97627 
L 733.645303 109.531403 
L 739.124545 68.477506 
" clip-path="url(#p9d9498921c)" style="fill: none; stroke: #d62728; stroke-width: 1.7; stroke-linecap: round"/>
   </g>
   <g id="line2d_37">
    <path d="M 81.615455 198.725161 
L 87.094697 227.929767 
L 92.573939 230.902417 
L 98.053182 249.100516 
L 103.532424 195.863731 
L 119.970152 218.546342 
L 125.449394 237.426521 
L 130.928636 242.406663 
L 136.407879 248.30073 
L 141.887121 241.044772 
L 158.324848 242.151308 
L 163.804091 245.996379 
L 169.283333 234.31833 
L 174.762576 227.872211 
L 196.679545 237.950281 
L 202.158788 233.354793 
L 207.63803 206.56284 
L 213.117273 224.011576 
L 218.596515 230.362849 
L 235.034242 227.647499 
L 240.513485 233.619875 
L 245.992727 244.777973 
L 273.388939 217.771685 
L 278.868182 244.526672 
L 284.347424 236.160125 
L 311.743636 216.181338 
L 317.222879 207.200156 
L 322.702121 241.747864 
L 328.181364 229.105192 
L 333.660606 215.960128 
L 350.098333 220.157571 
L 355.577576 251.468406 
L 361.056818 222.057555 
L 366.536061 236.284592 
L 372.015303 236.942093 
L 388.45303 246.771197 
L 393.932273 247.533978 
L 399.411515 213.525651 
L 404.890758 226.923589 
L 410.37 239.884069 
L 426.807727 229.972084 
L 432.28697 218.914798 
L 437.766212 206.571255 
L 443.245455 234.565254 
L 448.724697 158.093596 
L 470.641667 160.247134 
L 476.120909 224.132346 
L 481.600152 220.561615 
L 487.079394 166.366059 
L 503.517121 207.845401 
L 508.996364 232.12567 
L 514.475606 224.648016 
L 519.954848 196.736606 
L 525.434091 206.553161 
L 541.871818 219.881278 
L 547.351061 243.535491 
L 552.830303 205.235678 
L 558.309545 220.25052 
L 563.788788 219.481976 
L 580.226515 215.030783 
L 585.705758 229.008303 
L 591.185 228.930967 
L 596.664242 217.065448 
L 602.143485 222.953484 
L 618.581212 233.328901 
L 624.060455 196.430618 
L 629.539697 188.554465 
L 640.498182 93.523327 
L 733.645303 163.352779 
L 739.124545 167.661071 
" clip-path="url(#p9d9498921c)" style="fill: none; stroke: #9467bd; stroke-width: 1.7; stroke-linecap: round"/>
   </g>
   <g id="line2d_38">
    <path d="M 81.615455 179.1648 
L 87.094697 210.559016 
L 92.573939 223.05179 
L 98.053182 254.525218 
L 103.532424 240.033244 
L 119.970152 226.122506 
L 125.449394 223.537068 
L 130.928636 234.029531 
L 136.407879 240.727947 
L 141.887121 239.166637 
L 158.324848 241.689331 
L 163.804091 242.295511 
L 169.283333 225.791483 
L 174.762576 215.030116 
L 196.679545 222.697838 
L 202.158788 228.642906 
L 207.63803 198.872328 
L 213.117273 211.327789 
L 218.596515 223.050331 
L 235.034242 217.181347 
L 240.513485 219.522896 
L 245.992727 236.059234 
L 273.388939 210.829796 
L 278.868182 237.022493 
L 284.347424 232.273109 
L 311.743636 247.864601 
L 317.222879 251.031969 
L 322.702121 253.313135 
L 328.181364 248.979405 
L 333.660606 251.527113 
L 350.098333 253.418682 
L 355.577576 253.454675 
L 361.056818 250.60881 
L 366.536061 250.418632 
L 372.015303 252.442012 
L 388.45303 253.098151 
L 393.932273 254.271323 
L 399.411515 246.762442 
L 404.890758 253.845732 
L 410.37 252.356894 
L 426.807727 254.345254 
L 432.28697 248.079585 
L 437.766212 249.560641 
L 443.245455 253.220721 
L 448.724697 249.270753 
L 470.641667 253.912367 
L 476.120909 252.999901 
L 481.600152 252.49211 
L 487.079394 248.461887 
L 503.517121 248.389415 
L 508.996364 249.208008 
L 514.475606 248.546519 
L 519.954848 248.776095 
L 525.434091 251.137029 
L 541.871818 253.203211 
L 547.351061 254.151671 
L 552.830303 254.377356 
L 558.309545 255.352566 
L 563.788788 247.830067 
L 580.226515 250.176896 
L 585.705758 249.813563 
L 591.185 250.462893 
L 596.664242 254.687186 
L 602.143485 254.645843 
L 618.581212 248.163244 
L 624.060455 237.825522 
L 629.539697 250.092751 
L 640.498182 116.296403 
L 733.645303 165.781225 
L 739.124545 160.0393 
" clip-path="url(#p9d9498921c)" style="fill: none; stroke: #8c564b; stroke-width: 1.7; stroke-linecap: round"/>
   </g>
   <g id="patch_3">
    <path d="M 48.74 267.96 
L 48.74 34.64 
" style="fill: none; stroke: #cccccc; stroke-linejoin: miter; stroke-linecap: square"/>
   </g>
   <g id="patch_4">
    <path d="M 772 267.96 
L 772 34.64 
" style="fill: none; stroke: #cccccc; stroke-linejoin: miter; stroke-linecap: square"/>
   </g>
   <g id="patch_5">
    <path d="M 48.74 267.96 
L 772 267.96 
" style="fill: none; stroke: #cccccc; stroke-linejoin: miter; stroke-linecap: square"/>
   </g>
   <g id="patch_6">
    <path d="M 48.74 34.64 
L 772 34.64 
" style="fill: none; stroke: #cccccc; stroke-linejoin: miter; stroke-linecap: square"/>
   </g>
   <g id="text_19">
    <!-- Tendencia temporal de MAE por modelo -->
    <g style="fill: #262626" transform="translate(296.136563 28.64) scale(0.12 -0.12)">
     <defs>
      <path id="LiberationSans-Bold-54" d="M 2416 3691 
L 2416 0 
L 1494 0 
L 1494 3691 
L 72 3691 
L 72 4403 
L 3841 4403 
L 3841 3691 
L 2416 3691 
z
" transform="scale(0.015625)"/>
      <path id="LiberationSans-Bold-65" d="M 1831 -63 
Q 1069 -63 659 389 
Q 250 841 250 1706 
Q 250 2544 665 2994 
Q 1081 3444 1844 3444 
Q 2572 3444 2956 2961 
Q 3341 2478 3341 1547 
L 3341 1522 
L 1172 1522 
Q 1172 1028 1355 776 
Q 1538 525 1875 525 
Q 2341 525 2463 928 
L 3291 856 
Q 2931 -63 1831 -63 
z
M 1831 2891 
Q 1522 2891 1355 2675 
Q 1188 2459 1178 2072 
L 2491 2072 
Q 2466 2481 2294 2686 
Q 2122 2891 1831 2891 
z
" transform="scale(0.015625)"/>
      <path id="LiberationSans-Bold-6e" d="M 2638 0 
L 2638 1897 
Q 2638 2788 2034 2788 
Q 1716 2788 1520 2514 
Q 1325 2241 1325 1813 
L 1325 0 
L 447 0 
L 447 2625 
Q 447 2897 439 3070 
Q 431 3244 422 3381 
L 1259 3381 
Q 1269 3322 1284 3064 
Q 1300 2806 1300 2709 
L 1313 2709 
Q 1491 3097 1759 3272 
Q 2028 3447 2400 3447 
Q 2938 3447 3225 3115 
Q 3513 2784 3513 2147 
L 3513 0 
L 2638 0 
z
" transform="scale(0.015625)"/>
      <path id="LiberationSans-Bold-64" d="M 2638 0 
Q 2625 47 2608 236 
Q 2591 425 2591 550 
L 2578 550 
Q 2294 -63 1497 -63 
Q 906 -63 584 398 
Q 263 859 263 1688 
Q 263 2528 602 2986 
Q 941 3444 1563 3444 
Q 1922 3444 2183 3294 
Q 2444 3144 2584 2847 
L 2591 2847 
L 2584 3403 
L 2584 4638 
L 3463 4638 
L 3463 738 
Q 3463 425 3488 0 
L 2638 0 
z
M 2597 1709 
Q 2597 2256 2414 2551 
Q 2231 2847 1875 2847 
Q 1522 2847 1350 2561 
Q 1178 2275 1178 1688 
Q 1178 538 1869 538 
Q 2216 538 2406 842 
Q 2597 1147 2597 1709 
z
" transform="scale(0.015625)"/>
      <path id="LiberationSans-Bold-63" d="M 1856 -63 
Q 1088 -63 669 395 
Q 250 853 250 1672 
Q 250 2509 672 2976 
Q 1094 3444 1869 3444 
Q 2466 3444 2856 3144 
Q 3247 2844 3347 2316 
L 2463 2272 
Q 2425 2531 2275 2686 
Q 2125 2841 1850 2841 
Q 1172 2841 1172 1706 
Q 1172 538 1863 538 
Q 2113 538 2281 695 
Q 2450 853 2491 1166 
L 3372 1125 
Q 3325 778 3123 506 
Q 2922 234 2594 85 
Q 2266 -63 1856 -63 
z
" transform="scale(0.015625)"/>
      <path id="LiberationSans-Bold-69" d="M 447 3991 
L 447 4638 
L 1325 4638 
L 1325 3991 
L 447 3991 
z
M 447 0 
L 447 3381 
L 1325 3381 
L 1325 0 
L 447 0 
z
" transform="scale(0.015625)"/>
      <path id="LiberationSans-Bold-61" d="M 1228 -63 
Q 738 -63 463 204 
Q 188 472 188 956 
Q 188 1481 530 1756 
Q 872 2031 1522 2038 
L 2250 2050 
L 2250 2222 
Q 2250 2553 2134 2714 
Q 2019 2875 1756 2875 
Q 1513 2875 1398 2764 
Q 1284 2653 1256 2397 
L 341 2441 
Q 425 2934 792 3189 
Q 1159 3444 1794 3444 
Q 2434 3444 2781 3128 
Q 3128 2813 3128 2231 
L 3128 1000 
Q 3128 716 3192 608 
Q 3256 500 3406 500 
Q 3506 500 3600 519 
L 3600 44 
Q 3522 25 3459 9 
Q 3397 -6 3334 -15 
Q 3272 -25 3201 -31 
Q 3131 -38 3038 -38 
Q 2706 -38 2548 125 
Q 2391 288 2359 603 
L 2341 603 
Q 1972 -63 1228 -63 
z
M 2250 1566 
L 1800 1559 
Q 1494 1547 1366 1492 
Q 1238 1438 1170 1325 
Q 1103 1213 1103 1025 
Q 1103 784 1214 667 
Q 1325 550 1509 550 
Q 1716 550 1886 662 
Q 2056 775 2153 973 
Q 2250 1172 2250 1394 
L 2250 1566 
z
" transform="scale(0.015625)"/>
      <path id="LiberationSans-Bold-20" transform="scale(0.015625)"/>
      <path id="LiberationSans-Bold-74" d="M 1313 -56 
Q 925 -56 715 155 
Q 506 366 506 794 
L 506 2788 
L 78 2788 
L 78 3381 
L 550 3381 
L 825 4175 
L 1375 4175 
L 1375 3381 
L 2016 3381 
L 2016 2788 
L 1375 2788 
L 1375 1031 
Q 1375 784 1469 667 
Q 1563 550 1759 550 
Q 1863 550 2053 594 
L 2053 50 
Q 1728 -56 1313 -56 
z
" transform="scale(0.015625)"/>
      <path id="LiberationSans-Bold-6d" d="M 2438 0 
L 2438 1897 
Q 2438 2788 1925 2788 
Q 1659 2788 1492 2516 
Q 1325 2244 1325 1813 
L 1325 0 
L 447 0 
L 447 2625 
Q 447 2897 439 3070 
Q 431 3244 422 3381 
L 1259 3381 
Q 1269 3322 1284 3064 
Q 1300 2806 1300 2709 
L 1313 2709 
Q 1475 3097 1717 3272 
Q 1959 3447 2297 3447 
Q 3072 3447 3238 2709 
L 3256 2709 
Q 3428 3103 3668 3275 
Q 3909 3447 4281 3447 
Q 4775 3447 5034 3111 
Q 5294 2775 5294 2147 
L 5294 0 
L 4422 0 
L 4422 1897 
Q 4422 2788 3909 2788 
Q 3653 2788 3489 2539 
Q 3325 2291 3309 1853 
L 3309 0 
L 2438 0 
z
" transform="scale(0.015625)"/>
      <path id="LiberationSans-Bold-70" d="M 3647 1706 
Q 3647 859 3308 398 
Q 2969 -63 2350 -63 
Q 1994 -63 1730 92 
Q 1466 247 1325 538 
L 1306 538 
Q 1325 444 1325 -31 
L 1325 -1328 
L 447 -1328 
L 447 2603 
Q 447 3081 422 3381 
L 1275 3381 
Q 1291 3325 1302 3159 
Q 1313 2994 1313 2831 
L 1325 2831 
Q 1622 3453 2406 3453 
Q 2997 3453 3322 2998 
Q 3647 2544 3647 1706 
z
M 2731 1706 
Q 2731 2844 2034 2844 
Q 1684 2844 1498 2537 
Q 1313 2231 1313 1681 
Q 1313 1134 1498 836 
Q 1684 538 2028 538 
Q 2731 538 2731 1706 
z
" transform="scale(0.015625)"/>
      <path id="LiberationSans-Bold-6f" d="M 3659 1694 
Q 3659 872 3203 404 
Q 2747 -63 1941 -63 
Q 1150 -63 700 406 
Q 250 875 250 1694 
Q 250 2509 700 2976 
Q 1150 3444 1959 3444 
Q 2788 3444 3223 2992 
Q 3659 2541 3659 1694 
z
M 2741 1694 
Q 2741 2297 2544 2569 
Q 2347 2841 1972 2841 
Q 1172 2841 1172 1694 
Q 1172 1128 1367 833 
Q 1563 538 1931 538 
Q 2741 538 2741 1694 
z
" transform="scale(0.015625)"/>
      <path id="LiberationSans-Bold-72" d="M 447 0 
L 447 2588 
Q 447 2866 439 3052 
Q 431 3238 422 3381 
L 1259 3381 
Q 1269 3325 1284 3039 
Q 1300 2753 1300 2659 
L 1313 2659 
Q 1441 3016 1541 3161 
Q 1641 3306 1778 3376 
Q 1916 3447 2122 3447 
Q 2291 3447 2394 3400 
L 2394 2666 
Q 2181 2713 2019 2713 
Q 1691 2713 1508 2447 
Q 1325 2181 1325 1659 
L 1325 0 
L 447 0 
z
" transform="scale(0.015625)"/>
      <path id="LiberationSans-Bold-6c" d="M 447 0 
L 447 4638 
L 1325 4638 
L 1325 0 
L 447 0 
z
" transform="scale(0.015625)"/>
      <path id="LiberationSans-Bold-4d" d="M 4084 0 
L 4084 2669 
Q 4084 2759 4086 2850 
Q 4088 2941 4116 3628 
Q 3894 2788 3788 2456 
L 2994 0 
L 2338 0 
L 1544 2456 
L 1209 3628 
Q 1247 2903 1247 2669 
L 1247 0 
L 428 0 
L 428 4403 
L 1663 4403 
L 2450 1941 
L 2519 1703 
L 2669 1113 
L 2866 1819 
L 3675 4403 
L 4903 4403 
L 4903 0 
L 4084 0 
z
" transform="scale(0.015625)"/>
      <path id="LiberationSans-Bold-41" d="M 3541 0 
L 3150 1125 
L 1472 1125 
L 1081 0 
L 159 0 
L 1766 4403 
L 2853 4403 
L 4453 0 
L 3541 0 
z
M 2309 3725 
L 2291 3656 
Q 2259 3544 2215 3400 
Q 2172 3256 1678 1819 
L 2944 1819 
L 2509 3084 
L 2375 3509 
L 2309 3725 
z
" transform="scale(0.015625)"/>
      <path id="LiberationSans-Bold-45" d="M 428 0 
L 428 4403 
L 3891 4403 
L 3891 3691 
L 1350 3691 
L 1350 2584 
L 3700 2584 
L 3700 1872 
L 1350 1872 
L 1350 713 
L 4019 713 
L 4019 0 
L 428 0 
z
" transform="scale(0.015625)"/>
     </defs>
     <use xlink:href="#LiberationSans-Bold-54"/>
     <use xlink:href="#LiberationSans-Bold-65" x="53.708984"/>
     <use xlink:href="#LiberationSans-Bold-6e" x="109.324219"/>
     <use xlink:href="#LiberationSans-Bold-64" x="170.408203"/>
     <use xlink:href="#LiberationSans-Bold-65" x="231.492188"/>
     <use xlink:href="#LiberationSans-Bold-6e" x="287.107422"/>
     <use xlink:href="#LiberationSans-Bold-63" x="348.191406"/>
     <use xlink:href="#LiberationSans-Bold-69" x="403.806641"/>
     <use xlink:href="#LiberationSans-Bold-61" x="431.589844"/>
     <use xlink:href="#LiberationSans-Bold-20" x="487.205078"/>
     <use xlink:href="#LiberationSans-Bold-74" x="514.988281"/>
     <use xlink:href="#LiberationSans-Bold-65" x="548.289062"/>
     <use xlink:href="#LiberationSans-Bold-6d" x="603.904297"/>
     <use xlink:href="#LiberationSans-Bold-70" x="692.820312"/>
     <use xlink:href="#LiberationSans-Bold-6f" x="753.904297"/>
     <use xlink:href="#LiberationSans-Bold-72" x="814.988281"/>
     <use xlink:href="#LiberationSans-Bold-61" x="853.904297"/>
     <use xlink:href="#LiberationSans-Bold-6c" x="909.519531"/>
     <use xlink:href="#LiberationSans-Bold-20" x="937.302734"/>
     <use xlink:href="#LiberationSans-Bold-64" x="965.085938"/>
     <use xlink:href="#LiberationSans-Bold-65" x="1026.169922"/>
     <use xlink:href="#LiberationSans-Bold-20" x="1081.785156"/>
     <use xlink:href="#LiberationSans-Bold-4d" x="1109.568359"/>
     <use xlink:href="#LiberationSans-Bold-41" x="1192.869141"/>
     <use xlink:href="#LiberationSans-Bold-45" x="1265.085938"/>
     <use xlink:href="#LiberationSans-Bold-20" x="1331.785156"/>
     <use xlink:href="#LiberationSans-Bold-70" x="1359.568359"/>
     <use xlink:href="#LiberationSans-Bold-6f" x="1420.652344"/>
     <use xlink:href="#LiberationSans-Bold-72" x="1481.736328"/>
     <use xlink:href="#LiberationSans-Bold-20" x="1520.652344"/>
     <use xlink:href="#LiberationSans-Bold-6d" x="1548.435547"/>
     <use xlink:href="#LiberationSans-Bold-6f" x="1637.351562"/>
     <use xlink:href="#LiberationSans-Bold-64" x="1698.435547"/>
     <use xlink:href="#LiberationSans-Bold-65" x="1759.519531"/>
     <use xlink:href="#LiberationSans-Bold-6c" x="1815.134766"/>
     <use xlink:href="#LiberationSans-Bold-6f" x="1842.917969"/>
    </g>
   </g>
   <g id="legend_1">
    <g id="line2d_39">
     <path d="M 196.616875 327.370875 
L 206.616875 327.370875 
L 216.616875 327.370875 
" style="fill: none; stroke: #1f77b4; stroke-width: 1.7; stroke-linecap: round"/>
    </g>
    <g id="text_20">
     <!-- Top3Ensamble -->
     <g style="fill: #262626" transform="translate(224.616875 330.870875) scale(0.1 -0.1)">
      <defs>
       <path id="LiberationSans-54" d="M 2250 3916 
L 2250 0 
L 1656 0 
L 1656 3916 
L 144 3916 
L 144 4403 
L 3763 4403 
L 3763 3916 
L 2250 3916 
z
" transform="scale(0.015625)"/>
       <path id="LiberationSans-6f" d="M 3291 1694 
Q 3291 806 2900 371 
Q 2509 -63 1766 -63 
Q 1025 -63 647 389 
Q 269 841 269 1694 
Q 269 3444 1784 3444 
Q 2559 3444 2925 3017 
Q 3291 2591 3291 1694 
z
M 2700 1694 
Q 2700 2394 2492 2711 
Q 2284 3028 1794 3028 
Q 1300 3028 1079 2704 
Q 859 2381 859 1694 
Q 859 1025 1076 689 
Q 1294 353 1759 353 
Q 2266 353 2483 678 
Q 2700 1003 2700 1694 
z
" transform="scale(0.015625)"/>
       <path id="LiberationSans-73" d="M 2969 934 
Q 2969 456 2608 196 
Q 2247 -63 1597 -63 
Q 966 -63 623 145 
Q 281 353 178 794 
L 675 891 
Q 747 619 972 492 
Q 1197 366 1597 366 
Q 2025 366 2223 497 
Q 2422 628 2422 891 
Q 2422 1091 2284 1216 
Q 2147 1341 1841 1422 
L 1438 1528 
Q 953 1653 748 1773 
Q 544 1894 428 2066 
Q 313 2238 313 2488 
Q 313 2950 642 3192 
Q 972 3434 1603 3434 
Q 2163 3434 2492 3237 
Q 2822 3041 2909 2606 
L 2403 2544 
Q 2356 2769 2151 2889 
Q 1947 3009 1603 3009 
Q 1222 3009 1040 2893 
Q 859 2778 859 2544 
Q 859 2400 934 2306 
Q 1009 2213 1156 2147 
Q 1303 2081 1775 1966 
Q 2222 1853 2419 1758 
Q 2616 1663 2730 1547 
Q 2844 1431 2906 1279 
Q 2969 1128 2969 934 
z
" transform="scale(0.015625)"/>
       <path id="LiberationSans-6d" d="M 2400 0 
L 2400 2144 
Q 2400 2634 2265 2821 
Q 2131 3009 1781 3009 
Q 1422 3009 1212 2734 
Q 1003 2459 1003 1959 
L 1003 0 
L 444 0 
L 444 2659 
Q 444 3250 425 3381 
L 956 3381 
Q 959 3366 962 3297 
Q 966 3228 970 3139 
Q 975 3050 981 2803 
L 991 2803 
Q 1172 3163 1406 3303 
Q 1641 3444 1978 3444 
Q 2363 3444 2586 3291 
Q 2809 3138 2897 2803 
L 2906 2803 
Q 3081 3144 3329 3294 
Q 3578 3444 3931 3444 
Q 4444 3444 4676 3166 
Q 4909 2888 4909 2253 
L 4909 0 
L 4353 0 
L 4353 2144 
Q 4353 2634 4218 2821 
Q 4084 3009 3734 3009 
Q 3366 3009 3161 2736 
Q 2956 2463 2956 1959 
L 2956 0 
L 2400 0 
z
" transform="scale(0.015625)"/>
       <path id="LiberationSans-62" d="M 3291 1706 
Q 3291 -63 2047 -63 
Q 1663 -63 1408 76 
Q 1153 216 994 525 
L 988 525 
Q 988 428 975 229 
Q 963 31 956 0 
L 413 0 
Q 431 169 431 697 
L 431 4638 
L 994 4638 
L 994 3316 
Q 994 3113 981 2838 
L 994 2838 
Q 1150 3163 1408 3303 
Q 1666 3444 2047 3444 
Q 2688 3444 2989 3012 
Q 3291 2581 3291 1706 
z
M 2700 1688 
Q 2700 2397 2512 2703 
Q 2325 3009 1903 3009 
Q 1428 3009 1211 2684 
Q 994 2359 994 1653 
Q 994 988 1206 670 
Q 1419 353 1897 353 
Q 2322 353 2511 667 
Q 2700 981 2700 1688 
z
" transform="scale(0.015625)"/>
       <path id="LiberationSans-6c" d="M 431 0 
L 431 4638 
L 994 4638 
L 994 0 
L 431 0 
z
" transform="scale(0.015625)"/>
      </defs>
      <use xlink:href="#LiberationSans-54"/>
      <use xlink:href="#LiberationSans-6f" x="49.958984"/>
      <use xlink:href="#LiberationSans-70" x="105.574219"/>
      <use xlink:href="#LiberationSans-33" x="161.189453"/>
      <use xlink:href="#LiberationSans-45" x="216.804688"/>
      <use xlink:href="#LiberationSans-6e" x="283.503906"/>
      <use xlink:href="#LiberationSans-73" x="339.119141"/>
      <use xlink:href="#LiberationSans-61" x="389.119141"/>
      <use xlink:href="#LiberationSans-6d" x="444.734375"/>
      <use xlink:href="#LiberationSans-62" x="528.035156"/>
      <use xlink:href="#LiberationSans-6c" x="583.650391"/>
      <use xlink:href="#LiberationSans-65" x="605.867188"/>
     </g>
    </g>
    <g id="line2d_40">
     <path d="M 310.760625 327.370875 
L 320.760625 327.370875 
L 330.760625 327.370875 
" style="fill: none; stroke: #ff7f0e; stroke-width: 1.7; stroke-linecap: round"/>
    </g>
    <g id="text_21">
     <!-- arima -->
     <g style="fill: #262626" transform="translate(338.760625 330.870875) scale(0.1 -0.1)">
      <use xlink:href="#LiberationSans-61"/>
      <use xlink:href="#LiberationSans-72" x="55.615234"/>
      <use xlink:href="#LiberationSans-69" x="88.916016"/>
      <use xlink:href="#LiberationSans-6d" x="111.132812"/>
      <use xlink:href="#LiberationSans-61" x="194.433594"/>
     </g>
    </g>
    <g id="line2d_41">
     <path d="M 383.76375 327.370875 
L 393.76375 327.370875 
L 403.76375 327.370875 
" style="fill: none; stroke: #2ca02c; stroke-width: 1.7; stroke-linecap: round"/>
    </g>
    <g id="text_22">
     <!-- lgbm -->
     <g style="fill: #262626" transform="translate(411.76375 330.870875) scale(0.1 -0.1)">
      <defs>
       <path id="LiberationSans-67" d="M 1713 -1328 
Q 1159 -1328 831 -1111 
Q 503 -894 409 -494 
L 975 -413 
Q 1031 -647 1223 -773 
Q 1416 -900 1728 -900 
Q 2569 -900 2569 84 
L 2569 628 
L 2563 628 
Q 2403 303 2125 139 
Q 1847 -25 1475 -25 
Q 853 -25 561 387 
Q 269 800 269 1684 
Q 269 2581 583 3007 
Q 897 3434 1538 3434 
Q 1897 3434 2161 3270 
Q 2425 3106 2569 2803 
L 2575 2803 
Q 2575 2897 2587 3128 
Q 2600 3359 2613 3381 
L 3147 3381 
Q 3128 3213 3128 2681 
L 3128 97 
Q 3128 -1328 1713 -1328 
z
M 2569 1691 
Q 2569 2103 2456 2401 
Q 2344 2700 2139 2858 
Q 1934 3016 1675 3016 
Q 1244 3016 1047 2703 
Q 850 2391 850 1691 
Q 850 997 1034 694 
Q 1219 391 1666 391 
Q 1931 391 2137 547 
Q 2344 703 2456 995 
Q 2569 1288 2569 1691 
z
" transform="scale(0.015625)"/>
      </defs>
      <use xlink:href="#LiberationSans-6c"/>
      <use xlink:href="#LiberationSans-67" x="22.216797"/>
      <use xlink:href="#LiberationSans-62" x="77.832031"/>
      <use xlink:href="#LiberationSans-6d" x="133.447266"/>
     </g>
    </g>
    <g id="line2d_42">
     <path d="M 453.437187 327.370875 
L 463.437187 327.370875 
L 473.437187 327.370875 
" style="fill: none; stroke: #d62728; stroke-width: 1.7; stroke-linecap: round"/>
    </g>
    <g id="text_23">
     <!-- linreg -->
     <g style="fill: #262626" transform="translate(481.437187 330.870875) scale(0.1 -0.1)">
      <use xlink:href="#LiberationSans-6c"/>
      <use xlink:href="#LiberationSans-69" x="22.216797"/>
      <use xlink:href="#LiberationSans-6e" x="44.433594"/>
      <use xlink:href="#LiberationSans-72" x="100.048828"/>
      <use xlink:href="#LiberationSans-65" x="133.349609"/>
      <use xlink:href="#LiberationSans-67" x="188.964844"/>
     </g>
    </g>
    <g id="line2d_43">
     <path d="M 525.893438 327.370875 
L 535.893438 327.370875 
L 545.893438 327.370875 
" style="fill: none; stroke: #9467bd; stroke-width: 1.7; stroke-linecap: round"/>
    </g>
    <g id="text_24">
     <!-- rf -->
     <g style="fill: #262626" transform="translate(553.893438 330.870875) scale(0.1 -0.1)">
      <defs>
       <path id="LiberationSans-66" d="M 1128 2972 
L 1128 0 
L 566 0 
L 566 2972 
L 91 2972 
L 91 3381 
L 566 3381 
L 566 3763 
Q 566 4225 769 4428 
Q 972 4631 1391 4631 
Q 1625 4631 1788 4594 
L 1788 4166 
Q 1647 4191 1538 4191 
Q 1322 4191 1225 4081 
Q 1128 3972 1128 3684 
L 1128 3381 
L 1788 3381 
L 1788 2972 
L 1128 2972 
z
" transform="scale(0.015625)"/>
      </defs>
      <use xlink:href="#LiberationSans-72"/>
      <use xlink:href="#LiberationSans-66" x="33.300781"/>
     </g>
    </g>
    <g id="line2d_44">
     <path d="M 580.00125 327.370875 
L 590.00125 327.370875 
L 600.00125 327.370875 
" style="fill: none; stroke: #8c564b; stroke-width: 1.7; stroke-linecap: round"/>
    </g>
    <g id="text_25">
     <!-- xgb -->
     <g style="fill: #262626" transform="translate(608.00125 330.870875) scale(0.1 -0.1)">
      <defs>
       <path id="LiberationSans-78" d="M 2503 0 
L 1594 1388 
L 678 0 
L 72 0 
L 1275 1738 
L 128 3381 
L 750 3381 
L 1594 2066 
L 2431 3381 
L 3059 3381 
L 1913 1744 
L 3131 0 
L 2503 0 
z
" transform="scale(0.015625)"/>
      </defs>
      <use xlink:href="#LiberationSans-78"/>
      <use xlink:href="#LiberationSans-67" x="50"/>
      <use xlink:href="#LiberationSans-62" x="105.615234"/>
     </g>
    </g>
   </g>
  </g>
 </g>
 <defs>
  <clipPath id="p9d9498921c">
   <rect x="48.74" y="34.64" width="723.26" height="233.32"/>
  </clipPath>
 </defs>
</svg>
