<?xml version="1.0" encoding="utf-8" standalone="no"?>
<!DOCTYPE svg PUBLIC "-//W3C//DTD SVG 1.1//EN"
  "http://www.w3.org/Graphics/SVG/1.1/DTD/svg11.dtd">
<svg xmlns:xlink="http://www.w3.org/1999/xlink" width="792pt" height="360pt" viewBox="0 0 792 360" xmlns="http://www.w3.org/2000/svg" version="1.1">
 <metadata>
  <rdf:RDF xmlns:dc="http://purl.org/dc/elements/1.1/" xmlns:cc="http://creativecommons.org/ns#" xmlns:rdf="http://www.w3.org/1999/02/22-rdf-syntax-ns#">
   <cc:Work>
    <dc:type rdf:resource="http://purl.org/dc/dcmitype/StillImage"/>
    <dc:date>2026-04-03T05:06:10.374376</dc:date>
    <dc:format>image/svg+xml</dc:format>
    <dc:creator>
     <cc:Agent>
      <dc:title>Matplotlib v3.8.4, https://matplotlib.org/</dc:title>
     </cc:Agent>
    </dc:creator>
   </cc:Work>
  </rdf:RDF>
 </metadata>
 <defs>
  <style type="text/css">*{stroke-linejoin: round; stroke-linecap: butt}</style>
 </defs>
 <g id="figure_1">
  <g id="patch_1">
   <path d="M 0 360 
L 792 360 
L 792 0 
L 0 0 
z
" style="fill: #ffffff"/>
  </g>
  <g id="axes_1">
   <g id="patch_2">
    <path d="M 57.02 267.96 
L 772 267.96 
L 772 34.64 
L 57.02 34.64 
z
" style="fill: #ffffff"/>
   </g>
   <g id="matplotlib.axis_1">
    <g id="xtick_1">
     <g id="line2d_1">
      <path d="M 78.686061 267.96 
L 78.686061 34.64 
" clip-path="url(#pcbfa5c2077)" style="fill: none; stroke-dasharray: 2.96,1.28; stroke-dashoffset: 0; stroke: #cccccc; stroke-opacity: 0.5; stroke-width: 0.8"/>
     </g>
     <g id="line2d_2"/>
     <g id="text_1">
      <!-- 2025-12-01 -->
      <g style="fill: #262626" transform="translate(33.354068 303.309415) rotate(-30) scale(0.1 -0.1)">
       <defs>
        <path id="LiberationSans-32" d="M 322 0 
L 322 397 
Q 481 763 711 1042 
Q 941 1322 1194 1548 
Q 1447 1775 1695 1969 
Q 1944 2163 2144 2356 
Q 2344 2550 2467 2762 
Q 2591 2975 2591 3244 
Q 2591 3606 2378 3806 
Q 2166 4006 1788 4006 
Q 1428 4006 1195 3811 
Q 963 3616 922 3263 
L 347 3316 
Q 409 3844 795 4156 
Q 1181 4469 1788 4469 
Q 2453 4469 2811 4155 
Q 3169 3841 3169 3263 
Q 3169 3006 3051 2753 
Q 2934 2500 2703 2247 
Q 2472 1994 1819 1463 
Q 1459 1169 1246 933 
Q 1034 697 941 478 
L 3238 478 
L 3238 0 
L 322 0 
z
" transform="scale(0.015625)"/>
        <path id="LiberationSans-30" d="M 3309 2203 
Q 3309 1100 2920 518 
Q 2531 -63 1772 -63 
Q 1013 -63 631 515 
Q 250 1094 250 2203 
Q 250 3338 620 3903 
Q 991 4469 1791 4469 
Q 2569 4469 2939 3897 
Q 3309 3325 3309 2203 
z
M 2738 2203 
Q 2738 3156 2517 3584 
Q 2297 4013 1791 4013 
Q 1272 4013 1045 3591 
Q 819 3169 819 2203 
Q 819 1266 1048 831 
Q 1278 397 1778 397 
Q 2275 397 2506 840 
Q 2738 1284 2738 2203 
z
" transform="scale(0.015625)"/>
        <path id="LiberationSans-35" d="M 3291 1434 
Q 3291 738 2877 337 
Q 2463 -63 1728 -63 
Q 1113 -63 734 206 
Q 356 475 256 984 
L 825 1050 
Q 1003 397 1741 397 
Q 2194 397 2450 670 
Q 2706 944 2706 1422 
Q 2706 1838 2448 2094 
Q 2191 2350 1753 2350 
Q 1525 2350 1328 2278 
Q 1131 2206 934 2034 
L 384 2034 
L 531 4403 
L 3034 4403 
L 3034 3925 
L 1044 3925 
L 959 2528 
Q 1325 2809 1869 2809 
Q 2519 2809 2905 2428 
Q 3291 2047 3291 1434 
z
" transform="scale(0.015625)"/>
        <path id="LiberationSans-2d" d="M 284 1450 
L 284 1950 
L 1847 1950 
L 1847 1450 
L 284 1450 
z
" transform="scale(0.015625)"/>
        <path id="LiberationSans-31" d="M 488 0 
L 488 478 
L 1609 478 
L 1609 3866 
L 616 3156 
L 616 3688 
L 1656 4403 
L 2175 4403 
L 2175 478 
L 3247 478 
L 3247 0 
L 488 0 
z
" transform="scale(0.015625)"/>
       </defs>
       <use xlink:href="#LiberationSans-32"/>
       <use xlink:href="#LiberationSans-30" x="55.615234"/>
       <use xlink:href="#LiberationSans-32" x="111.230469"/>
       <use xlink:href="#LiberationSans-35" x="166.845703"/>
       <use xlink:href="#LiberationSans-2d" x="222.460938"/>
       <use xlink:href="#LiberationSans-31" x="255.761719"/>
       <use xlink:href="#LiberationSans-32" x="311.376953"/>
       <use xlink:href="#LiberationSans-2d" x="366.992188"/>
       <use xlink:href="#LiberationSans-30" x="400.292969"/>
       <use xlink:href="#LiberationSans-31" x="455.908203"/>
      </g>
     </g>
    </g>
    <g id="xtick_2">
     <g id="line2d_3">
      <path d="M 154.517273 267.96 
L 154.517273 34.64 
" clip-path="url(#pcbfa5c2077)" style="fill: none; stroke-dasharray: 2.96,1.28; stroke-dashoffset: 0; stroke: #cccccc; stroke-opacity: 0.5; stroke-width: 0.8"/>
     </g>
     <g id="line2d_4"/>
     <g id="text_2">
      <!-- 2025-12-15 -->
      <g style="fill: #262626" transform="translate(109.18528 303.309415) rotate(-30) scale(0.1 -0.1)">
       <use xlink:href="#LiberationSans-32"/>
       <use xlink:href="#LiberationSans-30" x="55.615234"/>
       <use xlink:href="#LiberationSans-32" x="111.230469"/>
       <use xlink:href="#LiberationSans-35" x="166.845703"/>
       <use xlink:href="#LiberationSans-2d" x="222.460938"/>
       <use xlink:href="#LiberationSans-31" x="255.761719"/>
       <use xlink:href="#LiberationSans-32" x="311.376953"/>
       <use xlink:href="#LiberationSans-2d" x="366.992188"/>
       <use xlink:href="#LiberationSans-31" x="400.292969"/>
       <use xlink:href="#LiberationSans-35" x="455.908203"/>
      </g>
     </g>
    </g>
    <g id="xtick_3">
     <g id="line2d_5">
      <path d="M 246.59803 267.96 
L 246.59803 34.64 
" clip-path="url(#pcbfa5c2077)" style="fill: none; stroke-dasharray: 2.96,1.28; stroke-dashoffset: 0; stroke: #cccccc; stroke-opacity: 0.5; stroke-width: 0.8"/>
     </g>
     <g id="line2d_6"/>
     <g id="text_3">
      <!-- 2026-01-01 -->
      <g style="fill: #262626" transform="translate(201.266037 303.309415) rotate(-30) scale(0.1 -0.1)">
       <defs>
        <path id="LiberationSans-36" d="M 3278 1441 
Q 3278 744 2900 340 
Q 2522 -63 1856 -63 
Q 1113 -63 719 490 
Q 325 1044 325 2100 
Q 325 3244 734 3856 
Q 1144 4469 1900 4469 
Q 2897 4469 3156 3572 
L 2619 3475 
Q 2453 4013 1894 4013 
Q 1413 4013 1148 3564 
Q 884 3116 884 2266 
Q 1038 2550 1316 2698 
Q 1594 2847 1953 2847 
Q 2563 2847 2920 2465 
Q 3278 2084 3278 1441 
z
M 2706 1416 
Q 2706 1894 2472 2153 
Q 2238 2413 1819 2413 
Q 1425 2413 1183 2183 
Q 941 1953 941 1550 
Q 941 1041 1192 716 
Q 1444 391 1838 391 
Q 2244 391 2475 664 
Q 2706 938 2706 1416 
z
" transform="scale(0.015625)"/>
       </defs>
       <use xlink:href="#LiberationSans-32"/>
       <use xlink:href="#LiberationSans-30" x="55.615234"/>
       <use xlink:href="#LiberationSans-32" x="111.230469"/>
       <use xlink:href="#LiberationSans-36" x="166.845703"/>
       <use xlink:href="#LiberationSans-2d" x="222.460938"/>
       <use xlink:href="#LiberationSans-30" x="255.761719"/>
       <use xlink:href="#LiberationSans-31" x="311.376953"/>
       <use xlink:href="#LiberationSans-2d" x="366.992188"/>
       <use xlink:href="#LiberationSans-30" x="400.292969"/>
       <use xlink:href="#LiberationSans-31" x="455.908203"/>
      </g>
     </g>
    </g>
    <g id="xtick_4">
     <g id="line2d_7">
      <path d="M 322.429242 267.96 
L 322.429242 34.64 
" clip-path="url(#pcbfa5c2077)" style="fill: none; stroke-dasharray: 2.96,1.28; stroke-dashoffset: 0; stroke: #cccccc; stroke-opacity: 0.5; stroke-width: 0.8"/>
     </g>
     <g id="line2d_8"/>
     <g id="text_4">
      <!-- 2026-01-15 -->
      <g style="fill: #262626" transform="translate(277.097249 303.309415) rotate(-30) scale(0.1 -0.1)">
       <use xlink:href="#LiberationSans-32"/>
       <use xlink:href="#LiberationSans-30" x="55.615234"/>
       <use xlink:href="#LiberationSans-32" x="111.230469"/>
       <use xlink:href="#LiberationSans-36" x="166.845703"/>
       <use xlink:href="#LiberationSans-2d" x="222.460938"/>
       <use xlink:href="#LiberationSans-30" x="255.761719"/>
       <use xlink:href="#LiberationSans-31" x="311.376953"/>
       <use xlink:href="#LiberationSans-2d" x="366.992188"/>
       <use xlink:href="#LiberationSans-31" x="400.292969"/>
       <use xlink:href="#LiberationSans-35" x="455.908203"/>
      </g>
     </g>
    </g>
    <g id="xtick_5">
     <g id="line2d_9">
      <path d="M 414.51 267.96 
L 414.51 34.64 
" clip-path="url(#pcbfa5c2077)" style="fill: none; stroke-dasharray: 2.96,1.28; stroke-dashoffset: 0; stroke: #cccccc; stroke-opacity: 0.5; stroke-width: 0.8"/>
     </g>
     <g id="line2d_10"/>
     <g id="text_5">
      <!-- 2026-02-01 -->
      <g style="fill: #262626" transform="translate(369.178007 303.309415) rotate(-30) scale(0.1 -0.1)">
       <use xlink:href="#LiberationSans-32"/>
       <use xlink:href="#LiberationSans-30" x="55.615234"/>
       <use xlink:href="#LiberationSans-32" x="111.230469"/>
       <use xlink:href="#LiberationSans-36" x="166.845703"/>
       <use xlink:href="#LiberationSans-2d" x="222.460938"/>
       <use xlink:href="#LiberationSans-30" x="255.761719"/>
       <use xlink:href="#LiberationSans-32" x="311.376953"/>
       <use xlink:href="#LiberationSans-2d" x="366.992188"/>
       <use xlink:href="#LiberationSans-30" x="400.292969"/>
       <use xlink:href="#LiberationSans-31" x="455.908203"/>
      </g>
     </g>
    </g>
    <g id="xtick_6">
     <g id="line2d_11">
      <path d="M 490.341212 267.96 
L 490.341212 34.64 
" clip-path="url(#pcbfa5c2077)" style="fill: none; stroke-dasharray: 2.96,1.28; stroke-dashoffset: 0; stroke: #cccccc; stroke-opacity: 0.5; stroke-width: 0.8"/>
     </g>
     <g id="line2d_12"/>
     <g id="text_6">
      <!-- 2026-02-15 -->
      <g style="fill: #262626" transform="translate(445.009219 303.309415) rotate(-30) scale(0.1 -0.1)">
       <use xlink:href="#LiberationSans-32"/>
       <use xlink:href="#LiberationSans-30" x="55.615234"/>
       <use xlink:href="#LiberationSans-32" x="111.230469"/>
       <use xlink:href="#LiberationSans-36" x="166.845703"/>
       <use xlink:href="#LiberationSans-2d" x="222.460938"/>
       <use xlink:href="#LiberationSans-30" x="255.761719"/>
       <use xlink:href="#LiberationSans-32" x="311.376953"/>
       <use xlink:href="#LiberationSans-2d" x="366.992188"/>
       <use xlink:href="#LiberationSans-31" x="400.292969"/>
       <use xlink:href="#LiberationSans-35" x="455.908203"/>
      </g>
     </g>
    </g>
    <g id="xtick_7">
     <g id="line2d_13">
      <path d="M 566.172424 267.96 
L 566.172424 34.64 
" clip-path="url(#pcbfa5c2077)" style="fill: none; stroke-dasharray: 2.96,1.28; stroke-dashoffset: 0; stroke: #cccccc; stroke-opacity: 0.5; stroke-width: 0.8"/>
     </g>
     <g id="line2d_14"/>
     <g id="text_7">
      <!-- 2026-03-01 -->
      <g style="fill: #262626" transform="translate(520.840431 303.309415) rotate(-30) scale(0.1 -0.1)">
       <defs>
        <path id="LiberationSans-33" d="M 3278 1216 
Q 3278 606 2890 271 
Q 2503 -63 1784 -63 
Q 1116 -63 717 239 
Q 319 541 244 1131 
L 825 1184 
Q 938 403 1784 403 
Q 2209 403 2451 612 
Q 2694 822 2694 1234 
Q 2694 1594 2417 1795 
Q 2141 1997 1619 1997 
L 1300 1997 
L 1300 2484 
L 1606 2484 
Q 2069 2484 2323 2686 
Q 2578 2888 2578 3244 
Q 2578 3597 2370 3801 
Q 2163 4006 1753 4006 
Q 1381 4006 1151 3815 
Q 922 3625 884 3278 
L 319 3322 
Q 381 3863 767 4166 
Q 1153 4469 1759 4469 
Q 2422 4469 2789 4161 
Q 3156 3853 3156 3303 
Q 3156 2881 2920 2617 
Q 2684 2353 2234 2259 
L 2234 2247 
Q 2728 2194 3003 1916 
Q 3278 1638 3278 1216 
z
" transform="scale(0.015625)"/>
       </defs>
       <use xlink:href="#LiberationSans-32"/>
       <use xlink:href="#LiberationSans-30" x="55.615234"/>
       <use xlink:href="#LiberationSans-32" x="111.230469"/>
       <use xlink:href="#LiberationSans-36" x="166.845703"/>
       <use xlink:href="#LiberationSans-2d" x="222.460938"/>
       <use xlink:href="#LiberationSans-30" x="255.761719"/>
       <use xlink:href="#LiberationSans-33" x="311.376953"/>
       <use xlink:href="#LiberationSans-2d" x="366.992188"/>
       <use xlink:href="#LiberationSans-30" x="400.292969"/>
       <use xlink:href="#LiberationSans-31" x="455.908203"/>
      </g>
     </g>
    </g>
    <g id="xtick_8">
     <g id="line2d_15">
      <path d="M 642.003636 267.96 
L 642.003636 34.64 
" clip-path="url(#pcbfa5c2077)" style="fill: none; stroke-dasharray: 2.96,1.28; stroke-dashoffset: 0; stroke: #cccccc; stroke-opacity: 0.5; stroke-width: 0.8"/>
     </g>
     <g id="line2d_16"/>
     <g id="text_8">
      <!-- 2026-03-15 -->
      <g style="fill: #262626" transform="translate(596.671643 303.309415) rotate(-30) scale(0.1 -0.1)">
       <use xlink:href="#LiberationSans-32"/>
       <use xlink:href="#LiberationSans-30" x="55.615234"/>
       <use xlink:href="#LiberationSans-32" x="111.230469"/>
       <use xlink:href="#LiberationSans-36" x="166.845703"/>
       <use xlink:href="#LiberationSans-2d" x="222.460938"/>
       <use xlink:href="#LiberationSans-30" x="255.761719"/>
       <use xlink:href="#LiberationSans-33" x="311.376953"/>
       <use xlink:href="#LiberationSans-2d" x="366.992188"/>
       <use xlink:href="#LiberationSans-31" x="400.292969"/>
       <use xlink:href="#LiberationSans-35" x="455.908203"/>
      </g>
     </g>
    </g>
    <g id="xtick_9">
     <g id="line2d_17">
      <path d="M 734.084394 267.96 
L 734.084394 34.64 
" clip-path="url(#pcbfa5c2077)" style="fill: none; stroke-dasharray: 2.96,1.28; stroke-dashoffset: 0; stroke: #cccccc; stroke-opacity: 0.5; stroke-width: 0.8"/>
     </g>
     <g id="line2d_18"/>
     <g id="text_9">
      <!-- 2026-04-01 -->
      <g style="fill: #262626" transform="translate(688.752401 303.309415) rotate(-30) scale(0.1 -0.1)">
       <defs>
        <path id="LiberationSans-34" d="M 2753 997 
L 2753 0 
L 2222 0 
L 2222 997 
L 147 997 
L 147 1434 
L 2163 4403 
L 2753 4403 
L 2753 1441 
L 3372 1441 
L 3372 997 
L 2753 997 
z
M 2222 3769 
Q 2216 3750 2134 3603 
Q 2053 3456 2013 3397 
L 884 1734 
L 716 1503 
L 666 1441 
L 2222 1441 
L 2222 3769 
z
" transform="scale(0.015625)"/>
       </defs>
       <use xlink:href="#LiberationSans-32"/>
       <use xlink:href="#LiberationSans-30" x="55.615234"/>
       <use xlink:href="#LiberationSans-32" x="111.230469"/>
       <use xlink:href="#LiberationSans-36" x="166.845703"/>
       <use xlink:href="#LiberationSans-2d" x="222.460938"/>
       <use xlink:href="#LiberationSans-30" x="255.761719"/>
       <use xlink:href="#LiberationSans-34" x="311.376953"/>
       <use xlink:href="#LiberationSans-2d" x="366.992188"/>
       <use xlink:href="#LiberationSans-30" x="400.292969"/>
       <use xlink:href="#LiberationSans-31" x="455.908203"/>
      </g>
     </g>
    </g>
    <g id="text_10">
     <!-- Fecha de predicción -->
     <g style="fill: #262626" transform="translate(369.486562 316.470481) scale(0.1 -0.1)">
      <defs>
       <path id="LiberationSans-46" d="M 1122 3916 
L 1122 2278 
L 3578 2278 
L 3578 1784 
L 1122 1784 
L 1122 0 
L 525 0 
L 525 4403 
L 3653 4403 
L 3653 3916 
L 1122 3916 
z
" transform="scale(0.015625)"/>
       <path id="LiberationSans-65" d="M 863 1572 
Q 863 991 1103 675 
Q 1344 359 1806 359 
Q 2172 359 2392 506 
Q 2613 653 2691 878 
L 3184 738 
Q 2881 -63 1806 -63 
Q 1056 -63 664 384 
Q 272 831 272 1713 
Q 272 2550 664 2997 
Q 1056 3444 1784 3444 
Q 3275 3444 3275 1647 
L 3275 1572 
L 863 1572 
z
M 2694 2003 
Q 2647 2538 2422 2783 
Q 2197 3028 1775 3028 
Q 1366 3028 1127 2754 
Q 888 2481 869 2003 
L 2694 2003 
z
" transform="scale(0.015625)"/>
       <path id="LiberationSans-63" d="M 859 1706 
Q 859 1031 1071 706 
Q 1284 381 1713 381 
Q 2013 381 2214 543 
Q 2416 706 2463 1044 
L 3031 1006 
Q 2966 519 2616 228 
Q 2266 -63 1728 -63 
Q 1019 -63 645 385 
Q 272 834 272 1694 
Q 272 2547 647 2995 
Q 1022 3444 1722 3444 
Q 2241 3444 2583 3175 
Q 2925 2906 3013 2434 
L 2434 2391 
Q 2391 2672 2212 2837 
Q 2034 3003 1706 3003 
Q 1259 3003 1059 2706 
Q 859 2409 859 1706 
z
" transform="scale(0.015625)"/>
       <path id="LiberationSans-68" d="M 991 2803 
Q 1172 3134 1426 3289 
Q 1681 3444 2072 3444 
Q 2622 3444 2883 3170 
Q 3144 2897 3144 2253 
L 3144 0 
L 2578 0 
L 2578 2144 
Q 2578 2500 2512 2673 
Q 2447 2847 2297 2928 
Q 2147 3009 1881 3009 
Q 1484 3009 1245 2734 
Q 1006 2459 1006 1994 
L 1006 0 
L 444 0 
L 444 4638 
L 1006 4638 
L 1006 3431 
Q 1006 3241 995 3037 
Q 984 2834 981 2803 
L 991 2803 
z
" transform="scale(0.015625)"/>
       <path id="LiberationSans-61" d="M 1294 -63 
Q 784 -63 528 206 
Q 272 475 272 944 
Q 272 1469 617 1750 
Q 963 2031 1731 2050 
L 2491 2063 
L 2491 2247 
Q 2491 2659 2316 2837 
Q 2141 3016 1766 3016 
Q 1388 3016 1216 2887 
Q 1044 2759 1009 2478 
L 422 2531 
Q 566 3444 1778 3444 
Q 2416 3444 2737 3151 
Q 3059 2859 3059 2306 
L 3059 850 
Q 3059 600 3125 473 
Q 3191 347 3375 347 
Q 3456 347 3559 369 
L 3559 19 
Q 3347 -31 3125 -31 
Q 2813 -31 2670 133 
Q 2528 297 2509 647 
L 2491 647 
Q 2275 259 1989 98 
Q 1703 -63 1294 -63 
z
M 1422 359 
Q 1731 359 1972 500 
Q 2213 641 2352 886 
Q 2491 1131 2491 1391 
L 2491 1669 
L 1875 1656 
Q 1478 1650 1273 1575 
Q 1069 1500 959 1344 
Q 850 1188 850 934 
Q 850 659 998 509 
Q 1147 359 1422 359 
z
" transform="scale(0.015625)"/>
       <path id="LiberationSans-20" transform="scale(0.015625)"/>
       <path id="LiberationSans-64" d="M 2566 544 
Q 2409 219 2151 78 
Q 1894 -63 1513 -63 
Q 872 -63 570 368 
Q 269 800 269 1675 
Q 269 3444 1513 3444 
Q 1897 3444 2153 3303 
Q 2409 3163 2566 2856 
L 2572 2856 
L 2566 3234 
L 2566 4638 
L 3128 4638 
L 3128 697 
Q 3128 169 3147 0 
L 2609 0 
Q 2600 50 2589 231 
Q 2578 413 2578 544 
L 2566 544 
z
M 859 1694 
Q 859 984 1046 678 
Q 1234 372 1656 372 
Q 2134 372 2350 703 
Q 2566 1034 2566 1731 
Q 2566 2403 2350 2715 
Q 2134 3028 1663 3028 
Q 1238 3028 1048 2714 
Q 859 2400 859 1694 
z
" transform="scale(0.015625)"/>
       <path id="LiberationSans-70" d="M 3291 1706 
Q 3291 -63 2047 -63 
Q 1266 -63 997 525 
L 981 525 
Q 994 500 994 -6 
L 994 -1328 
L 431 -1328 
L 431 2691 
Q 431 3213 413 3381 
L 956 3381 
Q 959 3369 965 3292 
Q 972 3216 980 3056 
Q 988 2897 988 2838 
L 1000 2838 
Q 1150 3150 1397 3295 
Q 1644 3441 2047 3441 
Q 2672 3441 2981 3022 
Q 3291 2603 3291 1706 
z
M 2700 1694 
Q 2700 2400 2509 2703 
Q 2319 3006 1903 3006 
Q 1569 3006 1380 2865 
Q 1191 2725 1092 2426 
Q 994 2128 994 1650 
Q 994 984 1206 668 
Q 1419 353 1897 353 
Q 2316 353 2508 661 
Q 2700 969 2700 1694 
z
" transform="scale(0.015625)"/>
       <path id="LiberationSans-72" d="M 444 0 
L 444 2594 
Q 444 2950 425 3381 
L 956 3381 
Q 981 2806 981 2691 
L 994 2691 
Q 1128 3125 1303 3284 
Q 1478 3444 1797 3444 
Q 1909 3444 2025 3413 
L 2025 2897 
Q 1913 2928 1725 2928 
Q 1375 2928 1190 2626 
Q 1006 2325 1006 1763 
L 1006 0 
L 444 0 
z
" transform="scale(0.015625)"/>
       <path id="LiberationSans-69" d="M 428 4100 
L 428 4638 
L 991 4638 
L 991 4100 
L 428 4100 
z
M 428 0 
L 428 3381 
L 991 3381 
L 991 0 
L 428 0 
z
" transform="scale(0.015625)"/>
       <path id="LiberationSans-f3" d="M 3291 1694 
Q 3291 806 2900 371 
Q 2509 -63 1766 -63 
Q 1025 -63 647 389 
Q 269 841 269 1694 
Q 269 3444 1784 3444 
Q 2559 3444 2925 3017 
Q 3291 2591 3291 1694 
z
M 2700 1694 
Q 2700 2394 2492 2711 
Q 2284 3028 1794 3028 
Q 1300 3028 1079 2704 
Q 859 2381 859 1694 
Q 859 1025 1076 689 
Q 1294 353 1759 353 
Q 2266 353 2483 678 
Q 2700 1003 2700 1694 
z
M 1345 3753 
L 1345 3816 
L 2023 4713 
L 2670 4713 
L 2670 4622 
L 1639 3753 
L 1345 3753 
z
" transform="scale(0.015625)"/>
       <path id="LiberationSans-6e" d="M 2578 0 
L 2578 2144 
Q 2578 2478 2512 2662 
Q 2447 2847 2303 2928 
Q 2159 3009 1881 3009 
Q 1475 3009 1240 2731 
Q 1006 2453 1006 1959 
L 1006 0 
L 444 0 
L 444 2659 
Q 444 3250 425 3381 
L 956 3381 
Q 959 3366 962 3297 
Q 966 3228 970 3139 
Q 975 3050 981 2803 
L 991 2803 
Q 1184 3153 1439 3298 
Q 1694 3444 2072 3444 
Q 2628 3444 2886 3167 
Q 3144 2891 3144 2253 
L 3144 0 
L 2578 0 
z
" transform="scale(0.015625)"/>
      </defs>
      <use xlink:href="#LiberationSans-46"/>
      <use xlink:href="#LiberationSans-65" x="61.083984"/>
      <use xlink:href="#LiberationSans-63" x="116.699219"/>
      <use xlink:href="#LiberationSans-68" x="166.699219"/>
      <use xlink:href="#LiberationSans-61" x="222.314453"/>
      <use xlink:href="#LiberationSans-20" x="277.929688"/>
      <use xlink:href="#LiberationSans-64" x="305.712891"/>
      <use xlink:href="#LiberationSans-65" x="361.328125"/>
      <use xlink:href="#LiberationSans-20" x="416.943359"/>
      <use xlink:href="#LiberationSans-70" x="444.726562"/>
      <use xlink:href="#LiberationSans-72" x="500.341797"/>
      <use xlink:href="#LiberationSans-65" x="533.642578"/>
      <use xlink:href="#LiberationSans-64" x="589.257812"/>
      <use xlink:href="#LiberationSans-69" x="644.873047"/>
      <use xlink:href="#LiberationSans-63" x="667.089844"/>
      <use xlink:href="#LiberationSans-63" x="717.089844"/>
      <use xlink:href="#LiberationSans-69" x="767.089844"/>
      <use xlink:href="#LiberationSans-f3" x="789.306641"/>
      <use xlink:href="#LiberationSans-6e" x="844.921875"/>
     </g>
    </g>
   </g>
   <g id="matplotlib.axis_2">
    <g id="ytick_1">
     <g id="line2d_19">
      <path d="M 57.02 257.501372 
L 772 257.501372 
" clip-path="url(#pcbfa5c2077)" style="fill: none; stroke-dasharray: 2.96,1.28; stroke-dashoffset: 0; stroke: #cccccc; stroke-opacity: 0.5; stroke-width: 0.8"/>
     </g>
     <g id="line2d_20"/>
     <g id="text_11">
      <!-- 0.0 -->
      <g style="fill: #262626" transform="translate(39.62 261.12481) scale(0.1 -0.1)">
       <defs>
        <path id="LiberationSans-2e" d="M 584 0 
L 584 684 
L 1194 684 
L 1194 0 
L 584 0 
z
" transform="scale(0.015625)"/>
       </defs>
       <use xlink:href="#LiberationSans-30"/>
       <use xlink:href="#LiberationSans-2e" x="55.615234"/>
       <use xlink:href="#LiberationSans-30" x="83.398438"/>
      </g>
     </g>
    </g>
    <g id="ytick_2">
     <g id="line2d_21">
      <path d="M 57.02 227.899182 
L 772 227.899182 
" clip-path="url(#pcbfa5c2077)" style="fill: none; stroke-dasharray: 2.96,1.28; stroke-dashoffset: 0; stroke: #cccccc; stroke-opacity: 0.5; stroke-width: 0.8"/>
     </g>
     <g id="line2d_22"/>
     <g id="text_12">
      <!-- 2.5 -->
      <g style="fill: #262626" transform="translate(39.62 231.522619) scale(0.1 -0.1)">
       <use xlink:href="#LiberationSans-32"/>
       <use xlink:href="#LiberationSans-2e" x="55.615234"/>
       <use xlink:href="#LiberationSans-35" x="83.398438"/>
      </g>
     </g>
    </g>
    <g id="ytick_3">
     <g id="line2d_23">
      <path d="M 57.02 198.296991 
L 772 198.296991 
" clip-path="url(#pcbfa5c2077)" style="fill: none; stroke-dasharray: 2.96,1.28; stroke-dashoffset: 0; stroke: #cccccc; stroke-opacity: 0.5; stroke-width: 0.8"/>
     </g>
     <g id="line2d_24"/>
     <g id="text_13">
      <!-- 5.0 -->
      <g style="fill: #262626" transform="translate(39.62 201.920428) scale(0.1 -0.1)">
       <use xlink:href="#LiberationSans-35"/>
       <use xlink:href="#LiberationSans-2e" x="55.615234"/>
       <use xlink:href="#LiberationSans-30" x="83.398438"/>
      </g>
     </g>
    </g>
    <g id="ytick_4">
     <g id="line2d_25">
      <path d="M 57.02 168.6948 
L 772 168.6948 
" clip-path="url(#pcbfa5c2077)" style="fill: none; stroke-dasharray: 2.96,1.28; stroke-dashoffset: 0; stroke: #cccccc; stroke-opacity: 0.5; stroke-width: 0.8"/>
     </g>
     <g id="line2d_26"/>
     <g id="text_14">
      <!-- 7.5 -->
      <g style="fill: #262626" transform="translate(39.62 172.318237) scale(0.1 -0.1)">
       <defs>
        <path id="LiberationSans-37" d="M 3238 3947 
Q 2563 2916 2284 2331 
Q 2006 1747 1867 1178 
Q 1728 609 1728 0 
L 1141 0 
Q 1141 844 1498 1776 
Q 1856 2709 2694 3925 
L 328 3925 
L 328 4403 
L 3238 4403 
L 3238 3947 
z
" transform="scale(0.015625)"/>
       </defs>
       <use xlink:href="#LiberationSans-37"/>
       <use xlink:href="#LiberationSans-2e" x="55.615234"/>
       <use xlink:href="#LiberationSans-35" x="83.398438"/>
      </g>
     </g>
    </g>
    <g id="ytick_5">
     <g id="line2d_27">
      <path d="M 57.02 139.092609 
L 772 139.092609 
" clip-path="url(#pcbfa5c2077)" style="fill: none; stroke-dasharray: 2.96,1.28; stroke-dashoffset: 0; stroke: #cccccc; stroke-opacity: 0.5; stroke-width: 0.8"/>
     </g>
     <g id="line2d_28"/>
     <g id="text_15">
      <!-- 10.0 -->
      <g style="fill: #262626" transform="translate(34.059063 142.716047) scale(0.1 -0.1)">
       <use xlink:href="#LiberationSans-31"/>
       <use xlink:href="#LiberationSans-30" x="55.615234"/>
       <use xlink:href="#LiberationSans-2e" x="111.230469"/>
       <use xlink:href="#LiberationSans-30" x="139.013672"/>
      </g>
     </g>
    </g>
    <g id="ytick_6">
     <g id="line2d_29">
      <path d="M 57.02 109.490418 
L 772 109.490418 
" clip-path="url(#pcbfa5c2077)" style="fill: none; stroke-dasharray: 2.96,1.28; stroke-dashoffset: 0; stroke: #cccccc; stroke-opacity: 0.5; stroke-width: 0.8"/>
     </g>
     <g id="line2d_30"/>
     <g id="text_16">
      <!-- 12.5 -->
      <g style="fill: #262626" transform="translate(34.059063 113.113856) scale(0.1 -0.1)">
       <use xlink:href="#LiberationSans-31"/>
       <use xlink:href="#LiberationSans-32" x="55.615234"/>
       <use xlink:href="#LiberationSans-2e" x="111.230469"/>
       <use xlink:href="#LiberationSans-35" x="139.013672"/>
      </g>
     </g>
    </g>
    <g id="ytick_7">
     <g id="line2d_31">
      <path d="M 57.02 79.888227 
L 772 79.888227 
" clip-path="url(#pcbfa5c2077)" style="fill: none; stroke-dasharray: 2.96,1.28; stroke-dashoffset: 0; stroke: #cccccc; stroke-opacity: 0.5; stroke-width: 0.8"/>
     </g>
     <g id="line2d_32"/>
     <g id="text_17">
      <!-- 15.0 -->
      <g style="fill: #262626" transform="translate(34.059063 83.511665) scale(0.1 -0.1)">
       <use xlink:href="#LiberationSans-31"/>
       <use xlink:href="#LiberationSans-35" x="55.615234"/>
       <use xlink:href="#LiberationSans-2e" x="111.230469"/>
       <use xlink:href="#LiberationSans-30" x="139.013672"/>
      </g>
     </g>
    </g>
    <g id="ytick_8">
     <g id="line2d_33">
      <path d="M 57.02 50.286037 
L 772 50.286037 
" clip-path="url(#pcbfa5c2077)" style="fill: none; stroke-dasharray: 2.96,1.28; stroke-dashoffset: 0; stroke: #cccccc; stroke-opacity: 0.5; stroke-width: 0.8"/>
     </g>
     <g id="line2d_34"/>
     <g id="text_18">
      <!-- 17.5 -->
      <g style="fill: #262626" transform="translate(34.059063 53.909474) scale(0.1 -0.1)">
       <use xlink:href="#LiberationSans-31"/>
       <use xlink:href="#LiberationSans-37" x="55.615234"/>
       <use xlink:href="#LiberationSans-2e" x="111.230469"/>
       <use xlink:href="#LiberationSans-35" x="139.013672"/>
      </g>
     </g>
    </g>
    <g id="text_19">
     <!-- MAE -->
     <g style="fill: #262626" transform="translate(27.984063 162.135156) rotate(-90) scale(0.1 -0.1)">
      <defs>
       <path id="LiberationSans-4d" d="M 4269 0 
L 4269 2938 
Q 4269 3425 4297 3875 
Q 4144 3316 4022 3000 
L 2884 0 
L 2466 0 
L 1313 3000 
L 1138 3531 
L 1034 3875 
L 1044 3528 
L 1056 2938 
L 1056 0 
L 525 0 
L 525 4403 
L 1309 4403 
L 2481 1350 
Q 2544 1166 2601 955 
Q 2659 744 2678 650 
Q 2703 775 2783 1029 
Q 2863 1284 2891 1350 
L 4041 4403 
L 4806 4403 
L 4806 0 
L 4269 0 
z
" transform="scale(0.015625)"/>
       <path id="LiberationSans-41" d="M 3647 0 
L 3144 1288 
L 1138 1288 
L 631 0 
L 13 0 
L 1809 4403 
L 2488 4403 
L 4256 0 
L 3647 0 
z
M 2141 3953 
L 2113 3866 
Q 2034 3606 1881 3200 
L 1319 1753 
L 2966 1753 
L 2400 3206 
Q 2313 3422 2225 3694 
L 2141 3953 
z
" transform="scale(0.015625)"/>
       <path id="LiberationSans-45" d="M 525 0 
L 525 4403 
L 3866 4403 
L 3866 3916 
L 1122 3916 
L 1122 2503 
L 3678 2503 
L 3678 2022 
L 1122 2022 
L 1122 488 
L 3994 488 
L 3994 0 
L 525 0 
z
" transform="scale(0.015625)"/>
      </defs>
      <use xlink:href="#LiberationSans-4d"/>
      <use xlink:href="#LiberationSans-41" x="83.300781"/>
      <use xlink:href="#LiberationSans-45" x="150"/>
     </g>
    </g>
   </g>
   <g id="line2d_35">
    <path d="M 89.519091 246.16326 
L 94.935606 250.111008 
L 100.352121 244.612578 
L 116.601667 245.766353 
L 122.018182 249.530923 
L 127.434697 241.066354 
L 132.851212 236.510932 
L 154.517273 239.486663 
L 159.933788 238.855189 
L 165.350303 220.696258 
L 170.766818 233.372271 
L 176.183333 237.508171 
L 192.432879 237.273485 
L 197.849394 240.113874 
L 203.265909 249.172263 
L 230.348485 228.21924 
L 235.765 246.880817 
L 241.181515 239.280869 
L 268.264091 227.71849 
L 273.680606 224.93766 
L 279.097121 243.497049 
L 284.513636 241.739863 
L 289.930152 234.85392 
L 306.179697 237.446006 
L 311.596212 250.593642 
L 317.012727 228.472754 
L 322.429242 243.783125 
L 327.845758 247.864912 
L 344.095303 249.579234 
L 349.511818 248.576904 
L 354.928333 219.902801 
L 360.344848 236.830518 
L 365.761364 242.348129 
L 382.010909 235.325424 
L 387.427424 224.952224 
L 392.843939 215.675016 
L 398.260455 235.16794 
L 403.67697 175.19698 
L 425.34303 174.265735 
L 430.759545 225.671557 
L 436.176061 214.237178 
L 441.592576 188.211287 
L 457.842121 227.909009 
L 463.258636 243.524165 
L 468.675152 234.713606 
L 474.091667 206.438067 
L 479.508182 224.448987 
L 495.757727 243.409249 
L 501.174242 245.813243 
L 506.590758 225.630114 
L 512.007273 238.535604 
L 517.423788 225.964856 
L 533.673333 221.001634 
L 539.089848 233.231247 
L 544.506364 235.734408 
L 549.922879 233.099576 
L 555.339394 239.382345 
L 571.588939 237.091727 
L 577.005455 208.531771 
L 582.42197 215.092326 
L 593.255 162.592644 
L 685.335758 189.937332 
L 690.752273 188.817501 
L 696.168788 207.330948 
L 701.585303 138.019352 
L 707.001818 158.985044 
L 723.251364 178.770478 
L 728.667879 124.232112 
" clip-path="url(#pcbfa5c2077)" style="fill: none; stroke: #1f77b4; stroke-width: 1.7; stroke-linecap: round"/>
   </g>
   <g id="line2d_36">
    <path d="M 734.084394 182.663048 
L 739.500909 194.421077 
" clip-path="url(#pcbfa5c2077)" style="fill: none; stroke: #ff7f0e; stroke-width: 1.7; stroke-linecap: round"/>
   </g>
   <g id="line2d_37">
    <path d="M 89.519091 252.028519 
L 94.935606 253.094198 
L 100.352121 251.232812 
L 116.601667 245.431178 
L 122.018182 248.350743 
L 127.434697 246.047693 
L 132.851212 247.805273 
L 154.517273 248.195628 
L 159.933788 245.830018 
L 165.350303 230.725993 
L 170.766818 243.68228 
L 176.183333 248.688011 
L 192.432879 232.12894 
L 197.849394 241.800765 
L 203.265909 250.699184 
L 230.348485 211.589953 
L 235.765 248.533487 
L 241.181515 235.951372 
L 268.264091 225.728749 
L 273.680606 238.765554 
L 279.097121 239.483111 
L 284.513636 243.460461 
L 289.930152 247.942233 
L 306.179697 234.055253 
L 311.596212 251.789926 
L 317.012727 240.33447 
L 322.429242 244.626195 
L 327.845758 242.794412 
L 344.095303 254.763762 
L 349.511818 254.377749 
L 354.928333 235.615881 
L 360.344848 229.788393 
L 365.761364 238.60215 
L 382.010909 235.696991 
L 387.427424 222.44705 
L 392.843939 199.408257 
L 398.260455 243.131285 
L 403.67697 102.387669 
L 425.34303 98.48906 
L 430.759545 246.757553 
L 436.176061 215.949369 
L 441.592576 207.683253 
L 457.842121 220.281946 
L 463.258636 235.127444 
L 468.675152 240.863165 
L 474.091667 203.990084 
L 479.508182 219.997765 
L 495.757727 254.207241 
L 501.174242 249.901898 
L 506.590758 221.639502 
L 512.007273 253.728277 
L 517.423788 229.26325 
L 533.673333 217.377379 
L 539.089848 233.333552 
L 544.506364 246.460939 
L 549.922879 244.374577 
L 555.339394 236.204372 
L 571.588939 238.051549 
L 577.005455 186.216929 
L 582.42197 242.525032 
L 593.255 158.010946 
L 685.335758 184.751265 
L 690.752273 195.219152 
L 696.168788 218.251393 
L 701.585303 144.700527 
L 707.001818 167.312891 
L 723.251364 173.059978 
L 728.667879 120.947966 
" clip-path="url(#pcbfa5c2077)" style="fill: none; stroke: #2ca02c; stroke-width: 1.7; stroke-linecap: round"/>
   </g>
   <g id="line2d_38">
    <path d="M 89.519091 239.896357 
L 94.935606 249.020049 
L 100.352121 226.971745 
L 116.601667 243.831081 
L 122.018182 246.905268 
L 127.434697 243.696391 
L 132.851212 249.910779 
L 154.517273 231.021226 
L 159.933788 250.469668 
L 165.350303 212.281066 
L 170.766818 238.640632 
L 176.183333 221.016968 
L 192.432879 253.729461 
L 197.849394 250.46878 
L 203.265909 251.448316 
L 230.348485 247.680253 
L 235.765 253.527278 
L 241.181515 231.273831 
L 268.264091 217.821214 
L 273.680606 214.531029 
L 279.097121 238.819824 
L 284.513636 239.149198 
L 289.930152 235.19474 
L 306.179697 232.034213 
L 311.596212 240.189419 
L 317.012727 213.702958 
L 322.429242 233.109562 
L 327.845758 234.247075 
L 344.095303 247.826192 
L 349.511818 245.654181 
L 354.928333 191.702412 
L 360.344848 227.459885 
L 365.761364 225.345499 
L 382.010909 218.53443 
L 387.427424 198.387968 
L 392.843939 185.349782 
L 398.260455 215.131559 
L 403.67697 125.348115 
L 425.34303 85.232015 
L 430.759545 201.966084 
L 436.176061 172.176215 
L 441.592576 149.262738 
L 457.842121 219.046548 
L 463.258636 230.951562 
L 468.675152 221.394988 
L 474.091667 178.631861 
L 479.508182 212.82989 
L 495.757727 247.811983 
L 501.174242 241.825631 
L 506.590758 219.766473 
L 512.007273 234.348709 
L 517.423788 208.551782 
L 533.673333 194.61803 
L 539.089848 222.281672 
L 544.506364 226.71312 
L 549.922879 227.373644 
L 555.339394 235.257299 
L 571.588939 225.863143 
L 577.005455 185.737965 
L 582.42197 203.344954 
L 593.255 183.238691 
L 685.335758 187.834392 
L 690.752273 182.432308 
L 696.168788 198.147796 
L 701.585303 134.505888 
L 707.001818 154.195765 
L 723.251364 173.173493 
L 728.667879 125.223746 
" clip-path="url(#pcbfa5c2077)" style="fill: none; stroke: #d62728; stroke-width: 1.7; stroke-linecap: round"/>
   </g>
   <g id="line2d_39">
    <path d="M 268.264091 246.984306 
L 273.680606 255.316731 
L 279.097121 250.76273 
L 284.513636 257.308366 
L 289.930152 249.203286 
L 306.179697 252.889351 
L 311.596212 250.887059 
L 317.012727 251.535939 
L 322.429242 256.930642 
L 327.845758 257.354545 
M 354.928333 246.993779 
L 360.344848 252.814753 
L 365.761364 251.046911 
L 382.010909 250.975865 
L 387.427424 254.563651 
L 392.843939 252.875142 
L 398.260455 250.825486 
L 403.67697 253.499156 
L 425.34303 251.077697 
L 430.759545 251.679213 
L 436.176061 244.032376 
L 441.592576 252.756733 
L 457.842121 251.733681 
L 463.258636 248.586377 
L 468.675152 255.795102 
L 474.091667 247.853426 
L 479.508182 250.650241 
M 506.590758 256.741188 
L 512.007273 254.611014 
L 517.423788 254.532865 
L 533.673333 249.0683 
L 539.089848 256.915249 
L 544.506364 254.286574 
L 549.922879 251.305042 
L 555.339394 249.584562 
L 571.588939 250.968761 
L 577.005455 254.152772 
L 582.42197 255.983372 
L 593.255 240.006478 
L 685.335758 137.398851 
L 690.752273 104.084387 
L 696.168788 109.051359 
L 701.585303 45.245455 
L 707.001818 47.96929 
L 723.251364 75.270444 
L 728.667879 101.156296 
" clip-path="url(#pcbfa5c2077)" style="fill: none; stroke: #9467bd; stroke-width: 1.7; stroke-linecap: round"/>
   </g>
   <g id="line2d_40">
    <path d="M 89.519091 245.22462 
L 94.935606 250.007545 
L 100.352121 244.119472 
L 116.601667 245.017405 
L 122.018182 248.137607 
L 127.434697 238.661091 
L 132.851212 233.430186 
L 154.517273 241.608351 
L 159.933788 237.879198 
L 165.350303 216.138034 
L 170.766818 230.297354 
L 176.183333 235.451292 
L 192.432879 233.247837 
L 197.849394 238.094308 
L 203.265909 247.148894 
L 230.348485 225.2338 
L 235.765 246.944968 
L 241.181515 240.155673 
L 268.264091 223.943263 
L 273.680606 216.655204 
L 279.097121 244.690018 
L 284.513636 234.430727 
L 289.930152 223.763755 
L 306.179697 227.169902 
L 311.596212 252.578054 
L 317.012727 228.711702 
L 322.429242 240.256675 
L 327.845758 240.790225 
L 344.095303 248.766358 
L 349.511818 249.38534 
L 354.928333 221.788224 
L 360.344848 232.660398 
L 365.761364 243.177583 
L 382.010909 235.134194 
L 387.427424 226.161415 
L 392.843939 216.144862 
L 398.260455 238.861465 
L 403.67697 176.806155 
L 425.34303 178.553711 
L 430.759545 230.395357 
L 436.176061 227.497776 
L 441.592576 183.519103 
L 457.842121 217.178807 
L 463.258636 236.881789 
L 468.675152 230.813813 
L 474.091667 208.16423 
L 479.508182 216.130179 
L 495.757727 226.945695 
L 501.174242 246.140644 
L 506.590758 215.061067 
L 512.007273 227.245328 
L 517.423788 226.621669 
L 533.673333 223.00961 
L 539.089848 234.352104 
L 544.506364 234.289347 
L 549.922879 224.660702 
L 555.339394 229.438732 
L 571.588939 237.858187 
L 577.005455 207.915927 
L 582.42197 201.524577 
L 593.255 124.408599 
L 685.335758 181.073884 
L 690.752273 184.569981 
L 696.168788 205.429737 
L 701.585303 136.384048 
L 707.001818 158.359767 
L 723.251364 180.781611 
L 728.667879 126.684239 
" clip-path="url(#pcbfa5c2077)" style="fill: none; stroke: #8c564b; stroke-width: 1.7; stroke-linecap: round"/>
   </g>
   <g id="line2d_41">
    <path d="M 89.519091 238.426735 
L 94.935606 243.862374 
L 100.352121 242.595401 
L 116.601667 244.642519 
L 122.018182 245.134423 
L 127.434697 231.741715 
L 132.851212 223.009069 
L 154.517273 229.23128 
L 159.933788 234.055591 
L 165.350303 209.897328 
L 170.766818 220.0047 
L 176.183333 229.517322 
L 192.432879 224.754752 
L 197.849394 226.654875 
L 203.265909 240.073801 
L 230.348485 219.600588 
L 235.765 240.855468 
L 241.181515 237.001432 
L 268.264091 249.653634 
L 273.680606 252.223894 
L 279.097121 254.075017 
L 284.513636 250.558277 
L 289.930152 252.625694 
L 306.179697 254.160666 
L 311.596212 254.189874 
L 317.012727 251.880508 
L 322.429242 251.726182 
L 327.845758 253.368117 
L 344.095303 253.900562 
L 349.511818 254.852568 
L 354.928333 248.759253 
L 360.344848 254.507209 
L 365.761364 253.299045 
L 382.010909 254.912562 
L 387.427424 249.82809 
L 392.843939 251.029939 
L 398.260455 254.000025 
L 403.67697 250.7947 
L 425.34303 254.561283 
L 430.759545 253.820833 
L 436.176061 253.408771 
L 441.592576 250.138321 
L 457.842121 250.079511 
L 463.258636 250.743784 
L 468.675152 250.206998 
L 474.091667 250.393294 
L 479.508182 252.309148 
L 495.757727 253.985816 
L 501.174242 254.755473 
L 506.590758 254.938612 
L 512.007273 255.729977 
L 517.423788 249.625611 
L 533.673333 251.530018 
L 539.089848 251.235181 
L 544.506364 251.7621 
L 549.922879 255.190033 
L 555.339394 255.156484 
L 571.588939 249.895977 
L 577.005455 241.507111 
L 582.42197 251.461736 
L 593.255 142.888521 
L 685.335758 183.044521 
L 690.752273 178.385057 
L 696.168788 189.684569 
L 701.585303 111.694084 
L 707.001818 122.146026 
L 723.251364 163.057477 
L 728.667879 121.999396 
" clip-path="url(#pcbfa5c2077)" style="fill: none; stroke: #e377c2; stroke-width: 1.7; stroke-linecap: round"/>
   </g>
   <g id="patch_3">
    <path d="M 57.02 267.96 
L 57.02 34.64 
" style="fill: none; stroke: #cccccc; stroke-linejoin: miter; stroke-linecap: square"/>
   </g>
   <g id="patch_4">
    <path d="M 772 267.96 
L 772 34.64 
" style="fill: none; stroke: #cccccc; stroke-linejoin: miter; stroke-linecap: square"/>
   </g>
   <g id="patch_5">
    <path d="M 57.02 267.96 
L 772 267.96 
" style="fill: none; stroke: #cccccc; stroke-linejoin: miter; stroke-linecap: square"/>
   </g>
   <g id="patch_6">
    <path d="M 57.02 34.64 
L 772 34.64 
" style="fill: none; stroke: #cccccc; stroke-linejoin: miter; stroke-linecap: square"/>
   </g>
   <g id="text_20">
    <!-- Tendencia temporal de MAE por modelo -->
    <g style="fill: #262626" transform="translate(300.276563 28.64) scale(0.12 -0.12)">
     <defs>
      <path id="LiberationSans-Bold-54" d="M 2416 3691 
L 2416 0 
L 1494 0 
L 1494 3691 
L 72 3691 
L 72 4403 
L 3841 4403 
L 3841 3691 
L 2416 3691 
z
" transform="scale(0.015625)"/>
      <path id="LiberationSans-Bold-65" d="M 1831 -63 
Q 1069 -63 659 389 
Q 250 841 250 1706 
Q 250 2544 665 2994 
Q 1081 3444 1844 3444 
Q 2572 3444 2956 2961 
Q 3341 2478 3341 1547 
L 3341 1522 
L 1172 1522 
Q 1172 1028 1355 776 
Q 1538 525 1875 525 
Q 2341 525 2463 928 
L 3291 856 
Q 2931 -63 1831 -63 
z
M 1831 2891 
Q 1522 2891 1355 2675 
Q 1188 2459 1178 2072 
L 2491 2072 
Q 2466 2481 2294 2686 
Q 2122 2891 1831 2891 
z
" transform="scale(0.015625)"/>
      <path id="LiberationSans-Bold-6e" d="M 2638 0 
L 2638 1897 
Q 2638 2788 2034 2788 
Q 1716 2788 1520 2514 
Q 1325 2241 1325 1813 
L 1325 0 
L 447 0 
L 447 2625 
Q 447 2897 439 3070 
Q 431 3244 422 3381 
L 1259 3381 
Q 1269 3322 1284 3064 
Q 1300 2806 1300 2709 
L 1313 2709 
Q 1491 3097 1759 3272 
Q 2028 3447 2400 3447 
Q 2938 3447 3225 3115 
Q 3513 2784 3513 2147 
L 3513 0 
L 2638 0 
z
" transform="scale(0.015625)"/>
      <path id="LiberationSans-Bold-64" d="M 2638 0 
Q 2625 47 2608 236 
Q 2591 425 2591 550 
L 2578 550 
Q 2294 -63 1497 -63 
Q 906 -63 584 398 
Q 263 859 263 1688 
Q 263 2528 602 2986 
Q 941 3444 1563 3444 
Q 1922 3444 2183 3294 
Q 2444 3144 2584 2847 
L 2591 2847 
L 2584 3403 
L 2584 4638 
L 3463 4638 
L 3463 738 
Q 3463 425 3488 0 
L 2638 0 
z
M 2597 1709 
Q 2597 2256 2414 2551 
Q 2231 2847 1875 2847 
Q 1522 2847 1350 2561 
Q 1178 2275 1178 1688 
Q 1178 538 1869 538 
Q 2216 538 2406 842 
Q 2597 1147 2597 1709 
z
" transform="scale(0.015625)"/>
      <path id="LiberationSans-Bold-63" d="M 1856 -63 
Q 1088 -63 669 395 
Q 250 853 250 1672 
Q 250 2509 672 2976 
Q 1094 3444 1869 3444 
Q 2466 3444 2856 3144 
Q 3247 2844 3347 2316 
L 2463 2272 
Q 2425 2531 2275 2686 
Q 2125 2841 1850 2841 
Q 1172 2841 1172 1706 
Q 1172 538 1863 538 
Q 2113 538 2281 695 
Q 2450 853 2491 1166 
L 3372 1125 
Q 3325 778 3123 506 
Q 2922 234 2594 85 
Q 2266 -63 1856 -63 
z
" transform="scale(0.015625)"/>
      <path id="LiberationSans-Bold-69" d="M 447 3991 
L 447 4638 
L 1325 4638 
L 1325 3991 
L 447 3991 
z
M 447 0 
L 447 3381 
L 1325 3381 
L 1325 0 
L 447 0 
z
" transform="scale(0.015625)"/>
      <path id="LiberationSans-Bold-61" d="M 1228 -63 
Q 738 -63 463 204 
Q 188 472 188 956 
Q 188 1481 530 1756 
Q 872 2031 1522 2038 
L 2250 2050 
L 2250 2222 
Q 2250 2553 2134 2714 
Q 2019 2875 1756 2875 
Q 1513 2875 1398 2764 
Q 1284 2653 1256 2397 
L 341 2441 
Q 425 2934 792 3189 
Q 1159 3444 1794 3444 
Q 2434 3444 2781 3128 
Q 3128 2813 3128 2231 
L 3128 1000 
Q 3128 716 3192 608 
Q 3256 500 3406 500 
Q 3506 500 3600 519 
L 3600 44 
Q 3522 25 3459 9 
Q 3397 -6 3334 -15 
Q 3272 -25 3201 -31 
Q 3131 -38 3038 -38 
Q 2706 -38 2548 125 
Q 2391 288 2359 603 
L 2341 603 
Q 1972 -63 1228 -63 
z
M 2250 1566 
L 1800 1559 
Q 1494 1547 1366 1492 
Q 1238 1438 1170 1325 
Q 1103 1213 1103 1025 
Q 1103 784 1214 667 
Q 1325 550 1509 550 
Q 1716 550 1886 662 
Q 2056 775 2153 973 
Q 2250 1172 2250 1394 
L 2250 1566 
z
" transform="scale(0.015625)"/>
      <path id="LiberationSans-Bold-20" transform="scale(0.015625)"/>
      <path id="LiberationSans-Bold-74" d="M 1313 -56 
Q 925 -56 715 155 
Q 506 366 506 794 
L 506 2788 
L 78 2788 
L 78 3381 
L 550 3381 
L 825 4175 
L 1375 4175 
L 1375 3381 
L 2016 3381 
L 2016 2788 
L 1375 2788 
L 1375 1031 
Q 1375 784 1469 667 
Q 1563 550 1759 550 
Q 1863 550 2053 594 
L 2053 50 
Q 1728 -56 1313 -56 
z
" transform="scale(0.015625)"/>
      <path id="LiberationSans-Bold-6d" d="M 2438 0 
L 2438 1897 
Q 2438 2788 1925 2788 
Q 1659 2788 1492 2516 
Q 1325 2244 1325 1813 
L 1325 0 
L 447 0 
L 447 2625 
Q 447 2897 439 3070 
Q 431 3244 422 3381 
L 1259 3381 
Q 1269 3322 1284 3064 
Q 1300 2806 1300 2709 
L 1313 2709 
Q 1475 3097 1717 3272 
Q 1959 3447 2297 3447 
Q 3072 3447 3238 2709 
L 3256 2709 
Q 3428 3103 3668 3275 
Q 3909 3447 4281 3447 
Q 4775 3447 5034 3111 
Q 5294 2775 5294 2147 
L 5294 0 
L 4422 0 
L 4422 1897 
Q 4422 2788 3909 2788 
Q 3653 2788 3489 2539 
Q 3325 2291 3309 1853 
L 3309 0 
L 2438 0 
z
" transform="scale(0.015625)"/>
      <path id="LiberationSans-Bold-70" d="M 3647 1706 
Q 3647 859 3308 398 
Q 2969 -63 2350 -63 
Q 1994 -63 1730 92 
Q 1466 247 1325 538 
L 1306 538 
Q 1325 444 1325 -31 
L 1325 -1328 
L 447 -1328 
L 447 2603 
Q 447 3081 422 3381 
L 1275 3381 
Q 1291 3325 1302 3159 
Q 1313 2994 1313 2831 
L 1325 2831 
Q 1622 3453 2406 3453 
Q 2997 3453 3322 2998 
Q 3647 2544 3647 1706 
z
M 2731 1706 
Q 2731 2844 2034 2844 
Q 1684 2844 1498 2537 
Q 1313 2231 1313 1681 
Q 1313 1134 1498 836 
Q 1684 538 2028 538 
Q 2731 538 2731 1706 
z
" transform="scale(0.015625)"/>
      <path id="LiberationSans-Bold-6f" d="M 3659 1694 
Q 3659 872 3203 404 
Q 2747 -63 1941 -63 
Q 1150 -63 700 406 
Q 250 875 250 1694 
Q 250 2509 700 2976 
Q 1150 3444 1959 3444 
Q 2788 3444 3223 2992 
Q 3659 2541 3659 1694 
z
M 2741 1694 
Q 2741 2297 2544 2569 
Q 2347 2841 1972 2841 
Q 1172 2841 1172 1694 
Q 1172 1128 1367 833 
Q 1563 538 1931 538 
Q 2741 538 2741 1694 
z
" transform="scale(0.015625)"/>
      <path id="LiberationSans-Bold-72" d="M 447 0 
L 447 2588 
Q 447 2866 439 3052 
Q 431 3238 422 3381 
L 1259 3381 
Q 1269 3325 1284 3039 
Q 1300 2753 1300 2659 
L 1313 2659 
Q 1441 3016 1541 3161 
Q 1641 3306 1778 3376 
Q 1916 3447 2122 3447 
Q 2291 3447 2394 3400 
L 2394 2666 
Q 2181 2713 2019 2713 
Q 1691 2713 1508 2447 
Q 1325 2181 1325 1659 
L 1325 0 
L 447 0 
z
" transform="scale(0.015625)"/>
      <path id="LiberationSans-Bold-6c" d="M 447 0 
L 447 4638 
L 1325 4638 
L 1325 0 
L 447 0 
z
" transform="scale(0.015625)"/>
      <path id="LiberationSans-Bold-4d" d="M 4084 0 
L 4084 2669 
Q 4084 2759 4086 2850 
Q 4088 2941 4116 3628 
Q 3894 2788 3788 2456 
L 2994 0 
L 2338 0 
L 1544 2456 
L 1209 3628 
Q 1247 2903 1247 2669 
L 1247 0 
L 428 0 
L 428 4403 
L 1663 4403 
L 2450 1941 
L 2519 1703 
L 2669 1113 
L 2866 1819 
L 3675 4403 
L 4903 4403 
L 4903 0 
L 4084 0 
z
" transform="scale(0.015625)"/>
      <path id="LiberationSans-Bold-41" d="M 3541 0 
L 3150 1125 
L 1472 1125 
L 1081 0 
L 159 0 
L 1766 4403 
L 2853 4403 
L 4453 0 
L 3541 0 
z
M 2309 3725 
L 2291 3656 
Q 2259 3544 2215 3400 
Q 2172 3256 1678 1819 
L 2944 1819 
L 2509 3084 
L 2375 3509 
L 2309 3725 
z
" transform="scale(0.015625)"/>
      <path id="LiberationSans-Bold-45" d="M 428 0 
L 428 4403 
L 3891 4403 
L 3891 3691 
L 1350 3691 
L 1350 2584 
L 3700 2584 
L 3700 1872 
L 1350 1872 
L 1350 713 
L 4019 713 
L 4019 0 
L 428 0 
z
" transform="scale(0.015625)"/>
     </defs>
     <use xlink:href="#LiberationSans-Bold-54"/>
     <use xlink:href="#LiberationSans-Bold-65" x="53.708984"/>
     <use xlink:href="#LiberationSans-Bold-6e" x="109.324219"/>
     <use xlink:href="#LiberationSans-Bold-64" x="170.408203"/>
     <use xlink:href="#LiberationSans-Bold-65" x="231.492188"/>
     <use xlink:href="#LiberationSans-Bold-6e" x="287.107422"/>
     <use xlink:href="#LiberationSans-Bold-63" x="348.191406"/>
     <use xlink:href="#LiberationSans-Bold-69" x="403.806641"/>
     <use xlink:href="#LiberationSans-Bold-61" x="431.589844"/>
     <use xlink:href="#LiberationSans-Bold-20" x="487.205078"/>
     <use xlink:href="#LiberationSans-Bold-74" x="514.988281"/>
     <use xlink:href="#LiberationSans-Bold-65" x="548.289062"/>
     <use xlink:href="#LiberationSans-Bold-6d" x="603.904297"/>
     <use xlink:href="#LiberationSans-Bold-70" x="692.820312"/>
     <use xlink:href="#LiberationSans-Bold-6f" x="753.904297"/>
     <use xlink:href="#LiberationSans-Bold-72" x="814.988281"/>
     <use xlink:href="#LiberationSans-Bold-61" x="853.904297"/>
     <use xlink:href="#LiberationSans-Bold-6c" x="909.519531"/>
     <use xlink:href="#LiberationSans-Bold-20" x="937.302734"/>
     <use xlink:href="#LiberationSans-Bold-64" x="965.085938"/>
     <use xlink:href="#LiberationSans-Bold-65" x="1026.169922"/>
     <use xlink:href="#LiberationSans-Bold-20" x="1081.785156"/>
     <use xlink:href="#LiberationSans-Bold-4d" x="1109.568359"/>
     <use xlink:href="#LiberationSans-Bold-41" x="1192.869141"/>
     <use xlink:href="#LiberationSans-Bold-45" x="1265.085938"/>
     <use xlink:href="#LiberationSans-Bold-20" x="1331.785156"/>
     <use xlink:href="#LiberationSans-Bold-70" x="1359.568359"/>
     <use xlink:href="#LiberationSans-Bold-6f" x="1420.652344"/>
     <use xlink:href="#LiberationSans-Bold-72" x="1481.736328"/>
     <use xlink:href="#LiberationSans-Bold-20" x="1520.652344"/>
     <use xlink:href="#LiberationSans-Bold-6d" x="1548.435547"/>
     <use xlink:href="#LiberationSans-Bold-6f" x="1637.351562"/>
     <use xlink:href="#LiberationSans-Bold-64" x="1698.435547"/>
     <use xlink:href="#LiberationSans-Bold-65" x="1759.519531"/>
     <use xlink:href="#LiberationSans-Bold-6c" x="1815.134766"/>
     <use xlink:href="#LiberationSans-Bold-6f" x="1842.917969"/>
    </g>
   </g>
   <g id="legend_1">
    <g id="line2d_42">
     <path d="M 200.756875 327.370875 
L 210.756875 327.370875 
L 220.756875 327.370875 
" style="fill: none; stroke: #1f77b4; stroke-width: 1.7; stroke-linecap: round"/>
    </g>
    <g id="text_21">
     <!-- Top3Ensamble -->
     <g style="fill: #262626" transform="translate(228.756875 330.870875) scale(0.1 -0.1)">
      <defs>
       <path id="LiberationSans-54" d="M 2250 3916 
L 2250 0 
L 1656 0 
L 1656 3916 
L 144 3916 
L 144 4403 
L 3763 4403 
L 3763 3916 
L 2250 3916 
z
" transform="scale(0.015625)"/>
       <path id="LiberationSans-6f" d="M 3291 1694 
Q 3291 806 2900 371 
Q 2509 -63 1766 -63 
Q 1025 -63 647 389 
Q 269 841 269 1694 
Q 269 3444 1784 3444 
Q 2559 3444 2925 3017 
Q 3291 2591 3291 1694 
z
M 2700 1694 
Q 2700 2394 2492 2711 
Q 2284 3028 1794 3028 
Q 1300 3028 1079 2704 
Q 859 2381 859 1694 
Q 859 1025 1076 689 
Q 1294 353 1759 353 
Q 2266 353 2483 678 
Q 2700 1003 2700 1694 
z
" transform="scale(0.015625)"/>
       <path id="LiberationSans-73" d="M 2969 934 
Q 2969 456 2608 196 
Q 2247 -63 1597 -63 
Q 966 -63 623 145 
Q 281 353 178 794 
L 675 891 
Q 747 619 972 492 
Q 1197 366 1597 366 
Q 2025 366 2223 497 
Q 2422 628 2422 891 
Q 2422 1091 2284 1216 
Q 2147 1341 1841 1422 
L 1438 1528 
Q 953 1653 748 1773 
Q 544 1894 428 2066 
Q 313 2238 313 2488 
Q 313 2950 642 3192 
Q 972 3434 1603 3434 
Q 2163 3434 2492 3237 
Q 2822 3041 2909 2606 
L 2403 2544 
Q 2356 2769 2151 2889 
Q 1947 3009 1603 3009 
Q 1222 3009 1040 2893 
Q 859 2778 859 2544 
Q 859 2400 934 2306 
Q 1009 2213 1156 2147 
Q 1303 2081 1775 1966 
Q 2222 1853 2419 1758 
Q 2616 1663 2730 1547 
Q 2844 1431 2906 1279 
Q 2969 1128 2969 934 
z
" transform="scale(0.015625)"/>
       <path id="LiberationSans-6d" d="M 2400 0 
L 2400 2144 
Q 2400 2634 2265 2821 
Q 2131 3009 1781 3009 
Q 1422 3009 1212 2734 
Q 1003 2459 1003 1959 
L 1003 0 
L 444 0 
L 444 2659 
Q 444 3250 425 3381 
L 956 3381 
Q 959 3366 962 3297 
Q 966 3228 970 3139 
Q 975 3050 981 2803 
L 991 2803 
Q 1172 3163 1406 3303 
Q 1641 3444 1978 3444 
Q 2363 3444 2586 3291 
Q 2809 3138 2897 2803 
L 2906 2803 
Q 3081 3144 3329 3294 
Q 3578 3444 3931 3444 
Q 4444 3444 4676 3166 
Q 4909 2888 4909 2253 
L 4909 0 
L 4353 0 
L 4353 2144 
Q 4353 2634 4218 2821 
Q 4084 3009 3734 3009 
Q 3366 3009 3161 2736 
Q 2956 2463 2956 1959 
L 2956 0 
L 2400 0 
z
" transform="scale(0.015625)"/>
       <path id="LiberationSans-62" d="M 3291 1706 
Q 3291 -63 2047 -63 
Q 1663 -63 1408 76 
Q 1153 216 994 525 
L 988 525 
Q 988 428 975 229 
Q 963 31 956 0 
L 413 0 
Q 431 169 431 697 
L 431 4638 
L 994 4638 
L 994 3316 
Q 994 3113 981 2838 
L 994 2838 
Q 1150 3163 1408 3303 
Q 1666 3444 2047 3444 
Q 2688 3444 2989 3012 
Q 3291 2581 3291 1706 
z
M 2700 1688 
Q 2700 2397 2512 2703 
Q 2325 3009 1903 3009 
Q 1428 3009 1211 2684 
Q 994 2359 994 1653 
Q 994 988 1206 670 
Q 1419 353 1897 353 
Q 2322 353 2511 667 
Q 2700 981 2700 1688 
z
" transform="scale(0.015625)"/>
       <path id="LiberationSans-6c" d="M 431 0 
L 431 4638 
L 994 4638 
L 994 0 
L 431 0 
z
" transform="scale(0.015625)"/>
      </defs>
      <use xlink:href="#LiberationSans-54"/>
      <use xlink:href="#LiberationSans-6f" x="49.958984"/>
      <use xlink:href="#LiberationSans-70" x="105.574219"/>
      <use xlink:href="#LiberationSans-33" x="161.189453"/>
      <use xlink:href="#LiberationSans-45" x="216.804688"/>
      <use xlink:href="#LiberationSans-6e" x="283.503906"/>
      <use xlink:href="#LiberationSans-73" x="339.119141"/>
      <use xlink:href="#LiberationSans-61" x="389.119141"/>
      <use xlink:href="#LiberationSans-6d" x="444.734375"/>
      <use xlink:href="#LiberationSans-62" x="528.035156"/>
      <use xlink:href="#LiberationSans-6c" x="583.650391"/>
      <use xlink:href="#LiberationSans-65" x="605.867188"/>
     </g>
    </g>
    <g id="line2d_43">
     <path d="M 314.900625 327.370875 
L 324.900625 327.370875 
L 334.900625 327.370875 
" style="fill: none; stroke: #2ca02c; stroke-width: 1.7; stroke-linecap: round"/>
    </g>
    <g id="text_22">
     <!-- arima -->
     <g style="fill: #262626" transform="translate(342.900625 330.870875) scale(0.1 -0.1)">
      <use xlink:href="#LiberationSans-61"/>
      <use xlink:href="#LiberationSans-72" x="55.615234"/>
      <use xlink:href="#LiberationSans-69" x="88.916016"/>
      <use xlink:href="#LiberationSans-6d" x="111.132812"/>
      <use xlink:href="#LiberationSans-61" x="194.433594"/>
     </g>
    </g>
    <g id="line2d_44">
     <path d="M 387.90375 327.370875 
L 397.90375 327.370875 
L 407.90375 327.370875 
" style="fill: none; stroke: #d62728; stroke-width: 1.7; stroke-linecap: round"/>
    </g>
    <g id="text_23">
     <!-- lgbm -->
     <g style="fill: #262626" transform="translate(415.90375 330.870875) scale(0.1 -0.1)">
      <defs>
       <path id="LiberationSans-67" d="M 1713 -1328 
Q 1159 -1328 831 -1111 
Q 503 -894 409 -494 
L 975 -413 
Q 1031 -647 1223 -773 
Q 1416 -900 1728 -900 
Q 2569 -900 2569 84 
L 2569 628 
L 2563 628 
Q 2403 303 2125 139 
Q 1847 -25 1475 -25 
Q 853 -25 561 387 
Q 269 800 269 1684 
Q 269 2581 583 3007 
Q 897 3434 1538 3434 
Q 1897 3434 2161 3270 
Q 2425 3106 2569 2803 
L 2575 2803 
Q 2575 2897 2587 3128 
Q 2600 3359 2613 3381 
L 3147 3381 
Q 3128 3213 3128 2681 
L 3128 97 
Q 3128 -1328 1713 -1328 
z
M 2569 1691 
Q 2569 2103 2456 2401 
Q 2344 2700 2139 2858 
Q 1934 3016 1675 3016 
Q 1244 3016 1047 2703 
Q 850 2391 850 1691 
Q 850 997 1034 694 
Q 1219 391 1666 391 
Q 1931 391 2137 547 
Q 2344 703 2456 995 
Q 2569 1288 2569 1691 
z
" transform="scale(0.015625)"/>
      </defs>
      <use xlink:href="#LiberationSans-6c"/>
      <use xlink:href="#LiberationSans-67" x="22.216797"/>
      <use xlink:href="#LiberationSans-62" x="77.832031"/>
      <use xlink:href="#LiberationSans-6d" x="133.447266"/>
     </g>
    </g>
    <g id="line2d_45">
     <path d="M 457.577187 327.370875 
L 467.577187 327.370875 
L 477.577187 327.370875 
" style="fill: none; stroke: #9467bd; stroke-width: 1.7; stroke-linecap: round"/>
    </g>
    <g id="text_24">
     <!-- linreg -->
     <g style="fill: #262626" transform="translate(485.577187 330.870875) scale(0.1 -0.1)">
      <use xlink:href="#LiberationSans-6c"/>
      <use xlink:href="#LiberationSans-69" x="22.216797"/>
      <use xlink:href="#LiberationSans-6e" x="44.433594"/>
      <use xlink:href="#LiberationSans-72" x="100.048828"/>
      <use xlink:href="#LiberationSans-65" x="133.349609"/>
      <use xlink:href="#LiberationSans-67" x="188.964844"/>
     </g>
    </g>
    <g id="line2d_46">
     <path d="M 530.033437 327.370875 
L 540.033437 327.370875 
L 550.033437 327.370875 
" style="fill: none; stroke: #8c564b; stroke-width: 1.7; stroke-linecap: round"/>
    </g>
    <g id="text_25">
     <!-- rf -->
     <g style="fill: #262626" transform="translate(558.033437 330.870875) scale(0.1 -0.1)">
      <defs>
       <path id="LiberationSans-66" d="M 1128 2972 
L 1128 0 
L 566 0 
L 566 2972 
L 91 2972 
L 91 3381 
L 566 3381 
L 566 3763 
Q 566 4225 769 4428 
Q 972 4631 1391 4631 
Q 1625 4631 1788 4594 
L 1788 4166 
Q 1647 4191 1538 4191 
Q 1322 4191 1225 4081 
Q 1128 3972 1128 3684 
L 1128 3381 
L 1788 3381 
L 1788 2972 
L 1128 2972 
z
" transform="scale(0.015625)"/>
      </defs>
      <use xlink:href="#LiberationSans-72"/>
      <use xlink:href="#LiberationSans-66" x="33.300781"/>
     </g>
    </g>
    <g id="line2d_47">
     <path d="M 584.14125 327.370875 
L 594.14125 327.370875 
L 604.14125 327.370875 
" style="fill: none; stroke: #e377c2; stroke-width: 1.7; stroke-linecap: round"/>
    </g>
    <g id="text_26">
     <!-- xgb -->
     <g style="fill: #262626" transform="translate(612.14125 330.870875) scale(0.1 -0.1)">
      <defs>
       <path id="LiberationSans-78" d="M 2503 0 
L 1594 1388 
L 678 0 
L 72 0 
L 1275 1738 
L 128 3381 
L 750 3381 
L 1594 2066 
L 2431 3381 
L 3059 3381 
L 1913 1744 
L 3131 0 
L 2503 0 
z
" transform="scale(0.015625)"/>
      </defs>
      <use xlink:href="#LiberationSans-78"/>
      <use xlink:href="#LiberationSans-67" x="50"/>
      <use xlink:href="#LiberationSans-62" x="105.615234"/>
     </g>
    </g>
   </g>
  </g>
 </g>
 <defs>
  <clipPath id="pcbfa5c2077">
   <rect x="57.02" y="34.64" width="714.98" height="233.32"/>
  </clipPath>
 </defs>
</svg>
