<?xml version="1.0" encoding="utf-8" standalone="no"?>
<!DOCTYPE svg PUBLIC "-//W3C//DTD SVG 1.1//EN"
  "http://www.w3.org/Graphics/SVG/1.1/DTD/svg11.dtd">
<svg xmlns:xlink="http://www.w3.org/1999/xlink" width="720pt" height="432pt" viewBox="0 0 720 432" xmlns="http://www.w3.org/2000/svg" version="1.1">
 <metadata>
  <rdf:RDF xmlns:dc="http://purl.org/dc/elements/1.1/" xmlns:cc="http://creativecommons.org/ns#" xmlns:rdf="http://www.w3.org/1999/02/22-rdf-syntax-ns#">
   <cc:Work>
    <dc:type rdf:resource="http://purl.org/dc/dcmitype/StillImage"/>
    <dc:date>2026-03-08T04:36:09.867651</dc:date>
    <dc:format>image/svg+xml</dc:format>
    <dc:creator>
     <cc:Agent>
      <dc:title>Matplotlib v3.8.4, https://matplotlib.org/</dc:title>
     </cc:Agent>
    </dc:creator>
   </cc:Work>
  </rdf:RDF>
 </metadata>
 <defs>
  <style type="text/css">*{stroke-linejoin: round; stroke-linecap: butt}</style>
 </defs>
 <g id="figure_1">
  <g id="patch_1">
   <path d="M 0 432 
L 720 432 
L 720 0 
L 0 0 
z
" style="fill: #ffffff"/>
  </g>
  <g id="axes_1">
   <g id="patch_2">
    <path d="M 43.25 307.312 
L 697.488539 307.312 
L 697.488539 34.64 
L 43.25 34.64 
z
" style="fill: #ffffff"/>
   </g>
   <g id="matplotlib.axis_1">
    <g id="xtick_1">
     <g id="line2d_1">
      <path d="M 65.922665 307.312 
L 65.922665 34.64 
" clip-path="url(#pfb5361f11a)" style="fill: none; stroke-dasharray: 2.96,1.28; stroke-dashoffset: 0; stroke: #cccccc; stroke-opacity: 0.5; stroke-width: 0.8"/>
     </g>
     <g id="line2d_2"/>
     <g id="text_1">
      <!-- −2 -->
      <g style="fill: #262626" transform="translate(60.221884 318.058875) scale(0.1 -0.1)">
       <defs>
        <path id="LiberationSans-2212" d="M 316 1900 
L 316 2356 
L 3425 2356 
L 3425 1900 
L 316 1900 
z
" transform="scale(0.015625)"/>
        <path id="LiberationSans-32" d="M 322 0 
L 322 397 
Q 481 763 711 1042 
Q 941 1322 1194 1548 
Q 1447 1775 1695 1969 
Q 1944 2163 2144 2356 
Q 2344 2550 2467 2762 
Q 2591 2975 2591 3244 
Q 2591 3606 2378 3806 
Q 2166 4006 1788 4006 
Q 1428 4006 1195 3811 
Q 963 3616 922 3263 
L 347 3316 
Q 409 3844 795 4156 
Q 1181 4469 1788 4469 
Q 2453 4469 2811 4155 
Q 3169 3841 3169 3263 
Q 3169 3006 3051 2753 
Q 2934 2500 2703 2247 
Q 2472 1994 1819 1463 
Q 1459 1169 1246 933 
Q 1034 697 941 478 
L 3238 478 
L 3238 0 
L 322 0 
z
" transform="scale(0.015625)"/>
       </defs>
       <use xlink:href="#LiberationSans-2212"/>
       <use xlink:href="#LiberationSans-32" x="58.398438"/>
      </g>
     </g>
    </g>
    <g id="xtick_2">
     <g id="line2d_3">
      <path d="M 192.170524 307.312 
L 192.170524 34.64 
" clip-path="url(#pfb5361f11a)" style="fill: none; stroke-dasharray: 2.96,1.28; stroke-dashoffset: 0; stroke: #cccccc; stroke-opacity: 0.5; stroke-width: 0.8"/>
     </g>
     <g id="line2d_4"/>
     <g id="text_2">
      <!-- −1 -->
      <g style="fill: #262626" transform="translate(186.469743 318.058875) scale(0.1 -0.1)">
       <defs>
        <path id="LiberationSans-31" d="M 488 0 
L 488 478 
L 1609 478 
L 1609 3866 
L 616 3156 
L 616 3688 
L 1656 4403 
L 2175 4403 
L 2175 478 
L 3247 478 
L 3247 0 
L 488 0 
z
" transform="scale(0.015625)"/>
       </defs>
       <use xlink:href="#LiberationSans-2212"/>
       <use xlink:href="#LiberationSans-31" x="58.398438"/>
      </g>
     </g>
    </g>
    <g id="xtick_3">
     <g id="line2d_5">
      <path d="M 318.418383 307.312 
L 318.418383 34.64 
" clip-path="url(#pfb5361f11a)" style="fill: none; stroke-dasharray: 2.96,1.28; stroke-dashoffset: 0; stroke: #cccccc; stroke-opacity: 0.5; stroke-width: 0.8"/>
     </g>
     <g id="line2d_6"/>
     <g id="text_3">
      <!-- 0 -->
      <g style="fill: #262626" transform="translate(315.637914 318.058875) scale(0.1 -0.1)">
       <defs>
        <path id="LiberationSans-30" d="M 3309 2203 
Q 3309 1100 2920 518 
Q 2531 -63 1772 -63 
Q 1013 -63 631 515 
Q 250 1094 250 2203 
Q 250 3338 620 3903 
Q 991 4469 1791 4469 
Q 2569 4469 2939 3897 
Q 3309 3325 3309 2203 
z
M 2738 2203 
Q 2738 3156 2517 3584 
Q 2297 4013 1791 4013 
Q 1272 4013 1045 3591 
Q 819 3169 819 2203 
Q 819 1266 1048 831 
Q 1278 397 1778 397 
Q 2275 397 2506 840 
Q 2738 1284 2738 2203 
z
" transform="scale(0.015625)"/>
       </defs>
       <use xlink:href="#LiberationSans-30"/>
      </g>
     </g>
    </g>
    <g id="xtick_4">
     <g id="line2d_7">
      <path d="M 444.666242 307.312 
L 444.666242 34.64 
" clip-path="url(#pfb5361f11a)" style="fill: none; stroke-dasharray: 2.96,1.28; stroke-dashoffset: 0; stroke: #cccccc; stroke-opacity: 0.5; stroke-width: 0.8"/>
     </g>
     <g id="line2d_8"/>
     <g id="text_4">
      <!-- 1 -->
      <g style="fill: #262626" transform="translate(441.885773 318.058875) scale(0.1 -0.1)">
       <use xlink:href="#LiberationSans-31"/>
      </g>
     </g>
    </g>
    <g id="xtick_5">
     <g id="line2d_9">
      <path d="M 570.914101 307.312 
L 570.914101 34.64 
" clip-path="url(#pfb5361f11a)" style="fill: none; stroke-dasharray: 2.96,1.28; stroke-dashoffset: 0; stroke: #cccccc; stroke-opacity: 0.5; stroke-width: 0.8"/>
     </g>
     <g id="line2d_10"/>
     <g id="text_5">
      <!-- 2 -->
      <g style="fill: #262626" transform="translate(568.133632 318.058875) scale(0.1 -0.1)">
       <use xlink:href="#LiberationSans-32"/>
      </g>
     </g>
    </g>
    <g id="xtick_6">
     <g id="line2d_11">
      <path d="M 697.16196 307.312 
L 697.16196 34.64 
" clip-path="url(#pfb5361f11a)" style="fill: none; stroke-dasharray: 2.96,1.28; stroke-dashoffset: 0; stroke: #cccccc; stroke-opacity: 0.5; stroke-width: 0.8"/>
     </g>
     <g id="line2d_12"/>
     <g id="text_6">
      <!-- 3 -->
      <g style="fill: #262626" transform="translate(694.381491 318.058875) scale(0.1 -0.1)">
       <defs>
        <path id="LiberationSans-33" d="M 3278 1216 
Q 3278 606 2890 271 
Q 2503 -63 1784 -63 
Q 1116 -63 717 239 
Q 319 541 244 1131 
L 825 1184 
Q 938 403 1784 403 
Q 2209 403 2451 612 
Q 2694 822 2694 1234 
Q 2694 1594 2417 1795 
Q 2141 1997 1619 1997 
L 1300 1997 
L 1300 2484 
L 1606 2484 
Q 2069 2484 2323 2686 
Q 2578 2888 2578 3244 
Q 2578 3597 2370 3801 
Q 2163 4006 1753 4006 
Q 1381 4006 1151 3815 
Q 922 3625 884 3278 
L 319 3322 
Q 381 3863 767 4166 
Q 1153 4469 1759 4469 
Q 2422 4469 2789 4161 
Q 3156 3853 3156 3303 
Q 3156 2881 2920 2617 
Q 2684 2353 2234 2259 
L 2234 2247 
Q 2728 2194 3003 1916 
Q 3278 1638 3278 1216 
z
" transform="scale(0.015625)"/>
       </defs>
       <use xlink:href="#LiberationSans-33"/>
      </g>
     </g>
    </g>
    <g id="text_7">
     <!-- Retorno esperado (pred_inc, %) -->
     <g style="fill: #262626" transform="translate(299.224738 331.38075) scale(0.1 -0.1)">
      <defs>
       <path id="LiberationSans-52" d="M 3638 0 
L 2494 1828 
L 1122 1828 
L 1122 0 
L 525 0 
L 525 4403 
L 2597 4403 
Q 3341 4403 3745 4070 
Q 4150 3738 4150 3144 
Q 4150 2653 3864 2318 
Q 3578 1984 3075 1897 
L 4325 0 
L 3638 0 
z
M 3550 3138 
Q 3550 3522 3289 3723 
Q 3028 3925 2538 3925 
L 1122 3925 
L 1122 2300 
L 2563 2300 
Q 3034 2300 3292 2520 
Q 3550 2741 3550 3138 
z
" transform="scale(0.015625)"/>
       <path id="LiberationSans-65" d="M 863 1572 
Q 863 991 1103 675 
Q 1344 359 1806 359 
Q 2172 359 2392 506 
Q 2613 653 2691 878 
L 3184 738 
Q 2881 -63 1806 -63 
Q 1056 -63 664 384 
Q 272 831 272 1713 
Q 272 2550 664 2997 
Q 1056 3444 1784 3444 
Q 3275 3444 3275 1647 
L 3275 1572 
L 863 1572 
z
M 2694 2003 
Q 2647 2538 2422 2783 
Q 2197 3028 1775 3028 
Q 1366 3028 1127 2754 
Q 888 2481 869 2003 
L 2694 2003 
z
" transform="scale(0.015625)"/>
       <path id="LiberationSans-74" d="M 1731 25 
Q 1453 -50 1163 -50 
Q 488 -50 488 716 
L 488 2972 
L 97 2972 
L 97 3381 
L 509 3381 
L 675 4138 
L 1050 4138 
L 1050 3381 
L 1675 3381 
L 1675 2972 
L 1050 2972 
L 1050 838 
Q 1050 594 1129 495 
Q 1209 397 1406 397 
Q 1519 397 1731 441 
L 1731 25 
z
" transform="scale(0.015625)"/>
       <path id="LiberationSans-6f" d="M 3291 1694 
Q 3291 806 2900 371 
Q 2509 -63 1766 -63 
Q 1025 -63 647 389 
Q 269 841 269 1694 
Q 269 3444 1784 3444 
Q 2559 3444 2925 3017 
Q 3291 2591 3291 1694 
z
M 2700 1694 
Q 2700 2394 2492 2711 
Q 2284 3028 1794 3028 
Q 1300 3028 1079 2704 
Q 859 2381 859 1694 
Q 859 1025 1076 689 
Q 1294 353 1759 353 
Q 2266 353 2483 678 
Q 2700 1003 2700 1694 
z
" transform="scale(0.015625)"/>
       <path id="LiberationSans-72" d="M 444 0 
L 444 2594 
Q 444 2950 425 3381 
L 956 3381 
Q 981 2806 981 2691 
L 994 2691 
Q 1128 3125 1303 3284 
Q 1478 3444 1797 3444 
Q 1909 3444 2025 3413 
L 2025 2897 
Q 1913 2928 1725 2928 
Q 1375 2928 1190 2626 
Q 1006 2325 1006 1763 
L 1006 0 
L 444 0 
z
" transform="scale(0.015625)"/>
       <path id="LiberationSans-6e" d="M 2578 0 
L 2578 2144 
Q 2578 2478 2512 2662 
Q 2447 2847 2303 2928 
Q 2159 3009 1881 3009 
Q 1475 3009 1240 2731 
Q 1006 2453 1006 1959 
L 1006 0 
L 444 0 
L 444 2659 
Q 444 3250 425 3381 
L 956 3381 
Q 959 3366 962 3297 
Q 966 3228 970 3139 
Q 975 3050 981 2803 
L 991 2803 
Q 1184 3153 1439 3298 
Q 1694 3444 2072 3444 
Q 2628 3444 2886 3167 
Q 3144 2891 3144 2253 
L 3144 0 
L 2578 0 
z
" transform="scale(0.015625)"/>
       <path id="LiberationSans-20" transform="scale(0.015625)"/>
       <path id="LiberationSans-73" d="M 2969 934 
Q 2969 456 2608 196 
Q 2247 -63 1597 -63 
Q 966 -63 623 145 
Q 281 353 178 794 
L 675 891 
Q 747 619 972 492 
Q 1197 366 1597 366 
Q 2025 366 2223 497 
Q 2422 628 2422 891 
Q 2422 1091 2284 1216 
Q 2147 1341 1841 1422 
L 1438 1528 
Q 953 1653 748 1773 
Q 544 1894 428 2066 
Q 313 2238 313 2488 
Q 313 2950 642 3192 
Q 972 3434 1603 3434 
Q 2163 3434 2492 3237 
Q 2822 3041 2909 2606 
L 2403 2544 
Q 2356 2769 2151 2889 
Q 1947 3009 1603 3009 
Q 1222 3009 1040 2893 
Q 859 2778 859 2544 
Q 859 2400 934 2306 
Q 1009 2213 1156 2147 
Q 1303 2081 1775 1966 
Q 2222 1853 2419 1758 
Q 2616 1663 2730 1547 
Q 2844 1431 2906 1279 
Q 2969 1128 2969 934 
z
" transform="scale(0.015625)"/>
       <path id="LiberationSans-70" d="M 3291 1706 
Q 3291 -63 2047 -63 
Q 1266 -63 997 525 
L 981 525 
Q 994 500 994 -6 
L 994 -1328 
L 431 -1328 
L 431 2691 
Q 431 3213 413 3381 
L 956 3381 
Q 959 3369 965 3292 
Q 972 3216 980 3056 
Q 988 2897 988 2838 
L 1000 2838 
Q 1150 3150 1397 3295 
Q 1644 3441 2047 3441 
Q 2672 3441 2981 3022 
Q 3291 2603 3291 1706 
z
M 2700 1694 
Q 2700 2400 2509 2703 
Q 2319 3006 1903 3006 
Q 1569 3006 1380 2865 
Q 1191 2725 1092 2426 
Q 994 2128 994 1650 
Q 994 984 1206 668 
Q 1419 353 1897 353 
Q 2316 353 2508 661 
Q 2700 969 2700 1694 
z
" transform="scale(0.015625)"/>
       <path id="LiberationSans-61" d="M 1294 -63 
Q 784 -63 528 206 
Q 272 475 272 944 
Q 272 1469 617 1750 
Q 963 2031 1731 2050 
L 2491 2063 
L 2491 2247 
Q 2491 2659 2316 2837 
Q 2141 3016 1766 3016 
Q 1388 3016 1216 2887 
Q 1044 2759 1009 2478 
L 422 2531 
Q 566 3444 1778 3444 
Q 2416 3444 2737 3151 
Q 3059 2859 3059 2306 
L 3059 850 
Q 3059 600 3125 473 
Q 3191 347 3375 347 
Q 3456 347 3559 369 
L 3559 19 
Q 3347 -31 3125 -31 
Q 2813 -31 2670 133 
Q 2528 297 2509 647 
L 2491 647 
Q 2275 259 1989 98 
Q 1703 -63 1294 -63 
z
M 1422 359 
Q 1731 359 1972 500 
Q 2213 641 2352 886 
Q 2491 1131 2491 1391 
L 2491 1669 
L 1875 1656 
Q 1478 1650 1273 1575 
Q 1069 1500 959 1344 
Q 850 1188 850 934 
Q 850 659 998 509 
Q 1147 359 1422 359 
z
" transform="scale(0.015625)"/>
       <path id="LiberationSans-64" d="M 2566 544 
Q 2409 219 2151 78 
Q 1894 -63 1513 -63 
Q 872 -63 570 368 
Q 269 800 269 1675 
Q 269 3444 1513 3444 
Q 1897 3444 2153 3303 
Q 2409 3163 2566 2856 
L 2572 2856 
L 2566 3234 
L 2566 4638 
L 3128 4638 
L 3128 697 
Q 3128 169 3147 0 
L 2609 0 
Q 2600 50 2589 231 
Q 2578 413 2578 544 
L 2566 544 
z
M 859 1694 
Q 859 984 1046 678 
Q 1234 372 1656 372 
Q 2134 372 2350 703 
Q 2566 1034 2566 1731 
Q 2566 2403 2350 2715 
Q 2134 3028 1663 3028 
Q 1238 3028 1048 2714 
Q 859 2400 859 1694 
z
" transform="scale(0.015625)"/>
       <path id="LiberationSans-28" d="M 397 1663 
Q 397 2566 680 3284 
Q 963 4003 1550 4638 
L 2094 4638 
Q 1509 3988 1236 3256 
Q 963 2525 963 1656 
Q 963 791 1233 62 
Q 1503 -666 2094 -1325 
L 1550 -1325 
Q 959 -688 678 32 
Q 397 753 397 1650 
L 397 1663 
z
" transform="scale(0.015625)"/>
       <path id="LiberationSans-5f" d="M -97 -1272 
L -97 -866 
L 3631 -866 
L 3631 -1272 
L -97 -1272 
z
" transform="scale(0.015625)"/>
       <path id="LiberationSans-69" d="M 428 4100 
L 428 4638 
L 991 4638 
L 991 4100 
L 428 4100 
z
M 428 0 
L 428 3381 
L 991 3381 
L 991 0 
L 428 0 
z
" transform="scale(0.015625)"/>
       <path id="LiberationSans-63" d="M 859 1706 
Q 859 1031 1071 706 
Q 1284 381 1713 381 
Q 2013 381 2214 543 
Q 2416 706 2463 1044 
L 3031 1006 
Q 2966 519 2616 228 
Q 2266 -63 1728 -63 
Q 1019 -63 645 385 
Q 272 834 272 1694 
Q 272 2547 647 2995 
Q 1022 3444 1722 3444 
Q 2241 3444 2583 3175 
Q 2925 2906 3013 2434 
L 2434 2391 
Q 2391 2672 2212 2837 
Q 2034 3003 1706 3003 
Q 1259 3003 1059 2706 
Q 859 2409 859 1706 
z
" transform="scale(0.015625)"/>
       <path id="LiberationSans-2c" d="M 1203 684 
L 1203 159 
Q 1203 -172 1143 -394 
Q 1084 -616 959 -819 
L 575 -819 
Q 869 -394 869 0 
L 594 0 
L 594 684 
L 1203 684 
z
" transform="scale(0.015625)"/>
       <path id="LiberationSans-25" d="M 5463 1356 
Q 5463 684 5209 323 
Q 4956 -38 4463 -38 
Q 3975 -38 3726 314 
Q 3478 666 3478 1356 
Q 3478 2069 3717 2417 
Q 3956 2766 4475 2766 
Q 4988 2766 5225 2408 
Q 5463 2050 5463 1356 
z
M 1647 0 
L 1163 0 
L 4044 4403 
L 4534 4403 
L 1647 0 
z
M 1231 4441 
Q 1728 4441 1968 4091 
Q 2209 3741 2209 3047 
Q 2209 2369 1961 2003 
Q 1713 1638 1219 1638 
Q 725 1638 476 2000 
Q 228 2363 228 3047 
Q 228 3744 468 4092 
Q 709 4441 1231 4441 
z
M 5000 1356 
Q 5000 1916 4879 2167 
Q 4759 2419 4475 2419 
Q 4191 2419 4064 2172 
Q 3938 1925 3938 1356 
Q 3938 822 4061 564 
Q 4184 306 4469 306 
Q 4744 306 4872 567 
Q 5000 828 5000 1356 
z
M 1750 3047 
Q 1750 3597 1631 3850 
Q 1513 4103 1231 4103 
Q 938 4103 813 3854 
Q 688 3606 688 3047 
Q 688 2506 813 2248 
Q 938 1991 1225 1991 
Q 1497 1991 1623 2253 
Q 1750 2516 1750 3047 
z
" transform="scale(0.015625)"/>
       <path id="LiberationSans-29" d="M 1734 1650 
Q 1734 747 1451 28 
Q 1169 -691 581 -1325 
L 38 -1325 
Q 625 -669 897 57 
Q 1169 784 1169 1656 
Q 1169 2528 895 3256 
Q 622 3984 38 4638 
L 581 4638 
Q 1172 4000 1453 3279 
Q 1734 2559 1734 1663 
L 1734 1650 
z
" transform="scale(0.015625)"/>
      </defs>
      <use xlink:href="#LiberationSans-52"/>
      <use xlink:href="#LiberationSans-65" x="72.216797"/>
      <use xlink:href="#LiberationSans-74" x="127.832031"/>
      <use xlink:href="#LiberationSans-6f" x="155.615234"/>
      <use xlink:href="#LiberationSans-72" x="211.230469"/>
      <use xlink:href="#LiberationSans-6e" x="244.53125"/>
      <use xlink:href="#LiberationSans-6f" x="300.146484"/>
      <use xlink:href="#LiberationSans-20" x="355.761719"/>
      <use xlink:href="#LiberationSans-65" x="383.544922"/>
      <use xlink:href="#LiberationSans-73" x="439.160156"/>
      <use xlink:href="#LiberationSans-70" x="489.160156"/>
      <use xlink:href="#LiberationSans-65" x="544.775391"/>
      <use xlink:href="#LiberationSans-72" x="600.390625"/>
      <use xlink:href="#LiberationSans-61" x="633.691406"/>
      <use xlink:href="#LiberationSans-64" x="689.306641"/>
      <use xlink:href="#LiberationSans-6f" x="744.921875"/>
      <use xlink:href="#LiberationSans-20" x="800.537109"/>
      <use xlink:href="#LiberationSans-28" x="828.320312"/>
      <use xlink:href="#LiberationSans-70" x="861.621094"/>
      <use xlink:href="#LiberationSans-72" x="917.236328"/>
      <use xlink:href="#LiberationSans-65" x="950.537109"/>
      <use xlink:href="#LiberationSans-64" x="1006.152344"/>
      <use xlink:href="#LiberationSans-5f" x="1061.767578"/>
      <use xlink:href="#LiberationSans-69" x="1117.382812"/>
      <use xlink:href="#LiberationSans-6e" x="1139.599609"/>
      <use xlink:href="#LiberationSans-63" x="1195.214844"/>
      <use xlink:href="#LiberationSans-2c" x="1245.214844"/>
      <use xlink:href="#LiberationSans-20" x="1272.998047"/>
      <use xlink:href="#LiberationSans-25" x="1300.78125"/>
      <use xlink:href="#LiberationSans-29" x="1389.697266"/>
     </g>
    </g>
   </g>
   <g id="matplotlib.axis_2">
    <g id="ytick_1">
     <g id="line2d_13">
      <path d="M 43.25 295.274999 
L 697.488539 295.274999 
" clip-path="url(#pfb5361f11a)" style="fill: none; stroke-dasharray: 2.96,1.28; stroke-dashoffset: 0; stroke: #cccccc; stroke-opacity: 0.5; stroke-width: 0.8"/>
     </g>
     <g id="line2d_14"/>
     <g id="text_8">
      <!-- 0 -->
      <g style="fill: #262626" transform="translate(34.189062 298.898437) scale(0.1 -0.1)">
       <use xlink:href="#LiberationSans-30"/>
      </g>
     </g>
    </g>
    <g id="ytick_2">
     <g id="line2d_15">
      <path d="M 43.25 259.556896 
L 697.488539 259.556896 
" clip-path="url(#pfb5361f11a)" style="fill: none; stroke-dasharray: 2.96,1.28; stroke-dashoffset: 0; stroke: #cccccc; stroke-opacity: 0.5; stroke-width: 0.8"/>
     </g>
     <g id="line2d_16"/>
     <g id="text_9">
      <!-- 1 -->
      <g style="fill: #262626" transform="translate(34.189062 263.180333) scale(0.1 -0.1)">
       <use xlink:href="#LiberationSans-31"/>
      </g>
     </g>
    </g>
    <g id="ytick_3">
     <g id="line2d_17">
      <path d="M 43.25 223.838793 
L 697.488539 223.838793 
" clip-path="url(#pfb5361f11a)" style="fill: none; stroke-dasharray: 2.96,1.28; stroke-dashoffset: 0; stroke: #cccccc; stroke-opacity: 0.5; stroke-width: 0.8"/>
     </g>
     <g id="line2d_18"/>
     <g id="text_10">
      <!-- 2 -->
      <g style="fill: #262626" transform="translate(34.189062 227.46223) scale(0.1 -0.1)">
       <use xlink:href="#LiberationSans-32"/>
      </g>
     </g>
    </g>
    <g id="ytick_4">
     <g id="line2d_19">
      <path d="M 43.25 188.12069 
L 697.488539 188.12069 
" clip-path="url(#pfb5361f11a)" style="fill: none; stroke-dasharray: 2.96,1.28; stroke-dashoffset: 0; stroke: #cccccc; stroke-opacity: 0.5; stroke-width: 0.8"/>
     </g>
     <g id="line2d_20"/>
     <g id="text_11">
      <!-- 3 -->
      <g style="fill: #262626" transform="translate(34.189062 191.744127) scale(0.1 -0.1)">
       <use xlink:href="#LiberationSans-33"/>
      </g>
     </g>
    </g>
    <g id="ytick_5">
     <g id="line2d_21">
      <path d="M 43.25 152.402586 
L 697.488539 152.402586 
" clip-path="url(#pfb5361f11a)" style="fill: none; stroke-dasharray: 2.96,1.28; stroke-dashoffset: 0; stroke: #cccccc; stroke-opacity: 0.5; stroke-width: 0.8"/>
     </g>
     <g id="line2d_22"/>
     <g id="text_12">
      <!-- 4 -->
      <g style="fill: #262626" transform="translate(34.189062 156.026024) scale(0.1 -0.1)">
       <defs>
        <path id="LiberationSans-34" d="M 2753 997 
L 2753 0 
L 2222 0 
L 2222 997 
L 147 997 
L 147 1434 
L 2163 4403 
L 2753 4403 
L 2753 1441 
L 3372 1441 
L 3372 997 
L 2753 997 
z
M 2222 3769 
Q 2216 3750 2134 3603 
Q 2053 3456 2013 3397 
L 884 1734 
L 716 1503 
L 666 1441 
L 2222 1441 
L 2222 3769 
z
" transform="scale(0.015625)"/>
       </defs>
       <use xlink:href="#LiberationSans-34"/>
      </g>
     </g>
    </g>
    <g id="ytick_6">
     <g id="line2d_23">
      <path d="M 43.25 116.684483 
L 697.488539 116.684483 
" clip-path="url(#pfb5361f11a)" style="fill: none; stroke-dasharray: 2.96,1.28; stroke-dashoffset: 0; stroke: #cccccc; stroke-opacity: 0.5; stroke-width: 0.8"/>
     </g>
     <g id="line2d_24"/>
     <g id="text_13">
      <!-- 5 -->
      <g style="fill: #262626" transform="translate(34.189062 120.307921) scale(0.1 -0.1)">
       <defs>
        <path id="LiberationSans-35" d="M 3291 1434 
Q 3291 738 2877 337 
Q 2463 -63 1728 -63 
Q 1113 -63 734 206 
Q 356 475 256 984 
L 825 1050 
Q 1003 397 1741 397 
Q 2194 397 2450 670 
Q 2706 944 2706 1422 
Q 2706 1838 2448 2094 
Q 2191 2350 1753 2350 
Q 1525 2350 1328 2278 
Q 1131 2206 934 2034 
L 384 2034 
L 531 4403 
L 3034 4403 
L 3034 3925 
L 1044 3925 
L 959 2528 
Q 1325 2809 1869 2809 
Q 2519 2809 2905 2428 
Q 3291 2047 3291 1434 
z
" transform="scale(0.015625)"/>
       </defs>
       <use xlink:href="#LiberationSans-35"/>
      </g>
     </g>
    </g>
    <g id="ytick_7">
     <g id="line2d_25">
      <path d="M 43.25 80.96638 
L 697.488539 80.96638 
" clip-path="url(#pfb5361f11a)" style="fill: none; stroke-dasharray: 2.96,1.28; stroke-dashoffset: 0; stroke: #cccccc; stroke-opacity: 0.5; stroke-width: 0.8"/>
     </g>
     <g id="line2d_26"/>
     <g id="text_14">
      <!-- 6 -->
      <g style="fill: #262626" transform="translate(34.189062 84.589817) scale(0.1 -0.1)">
       <defs>
        <path id="LiberationSans-36" d="M 3278 1441 
Q 3278 744 2900 340 
Q 2522 -63 1856 -63 
Q 1113 -63 719 490 
Q 325 1044 325 2100 
Q 325 3244 734 3856 
Q 1144 4469 1900 4469 
Q 2897 4469 3156 3572 
L 2619 3475 
Q 2453 4013 1894 4013 
Q 1413 4013 1148 3564 
Q 884 3116 884 2266 
Q 1038 2550 1316 2698 
Q 1594 2847 1953 2847 
Q 2563 2847 2920 2465 
Q 3278 2084 3278 1441 
z
M 2706 1416 
Q 2706 1894 2472 2153 
Q 2238 2413 1819 2413 
Q 1425 2413 1183 2183 
Q 941 1953 941 1550 
Q 941 1041 1192 716 
Q 1444 391 1838 391 
Q 2244 391 2475 664 
Q 2706 938 2706 1416 
z
" transform="scale(0.015625)"/>
       </defs>
       <use xlink:href="#LiberationSans-36"/>
      </g>
     </g>
    </g>
    <g id="ytick_8">
     <g id="line2d_27">
      <path d="M 43.25 45.248277 
L 697.488539 45.248277 
" clip-path="url(#pfb5361f11a)" style="fill: none; stroke-dasharray: 2.96,1.28; stroke-dashoffset: 0; stroke: #cccccc; stroke-opacity: 0.5; stroke-width: 0.8"/>
     </g>
     <g id="line2d_28"/>
     <g id="text_15">
      <!-- 7 -->
      <g style="fill: #262626" transform="translate(34.189062 48.871714) scale(0.1 -0.1)">
       <defs>
        <path id="LiberationSans-37" d="M 3238 3947 
Q 2563 2916 2284 2331 
Q 2006 1747 1867 1178 
Q 1728 609 1728 0 
L 1141 0 
Q 1141 844 1498 1776 
Q 1856 2709 2694 3925 
L 328 3925 
L 328 4403 
L 3238 4403 
L 3238 3947 
z
" transform="scale(0.015625)"/>
       </defs>
       <use xlink:href="#LiberationSans-37"/>
      </g>
     </g>
    </g>
    <g id="text_16">
     <!-- Error de señal (MAPE, %) -->
     <g style="fill: #262626" transform="translate(28.114062 228.490844) rotate(-90) scale(0.1 -0.1)">
      <defs>
       <path id="LiberationSans-45" d="M 525 0 
L 525 4403 
L 3866 4403 
L 3866 3916 
L 1122 3916 
L 1122 2503 
L 3678 2503 
L 3678 2022 
L 1122 2022 
L 1122 488 
L 3994 488 
L 3994 0 
L 525 0 
z
" transform="scale(0.015625)"/>
       <path id="LiberationSans-f1" d="M 2594 0 
L 2594 2144 
Q 2594 2478 2528 2662 
Q 2463 2847 2319 2928 
Q 2175 3009 1897 3009 
Q 1491 3009 1256 2731 
Q 1022 2453 1022 1959 
L 1022 0 
L 460 0 
L 460 2659 
Q 460 3250 441 3381 
L 972 3381 
Q 975 3366 978 3297 
Q 982 3228 986 3139 
Q 991 3050 997 2803 
L 1007 2803 
Q 1200 3153 1455 3298 
Q 1710 3444 2088 3444 
Q 2644 3444 2902 3167 
Q 3160 2891 3160 2253 
L 3160 0 
L 2594 0 
z
M 2306 3753 
Q 2174 3753 2043 3811 
Q 1912 3869 1790 3939 
Q 1668 4009 1557 4067 
Q 1446 4125 1349 4125 
Q 1177 4125 1093 4028 
Q 1009 3931 981 3753 
L 696 3753 
Q 731 4072 806 4236 
Q 881 4400 1007 4495 
Q 1134 4591 1331 4591 
Q 1468 4591 1599 4533 
Q 1731 4475 1852 4404 
Q 1974 4334 2082 4276 
Q 2190 4219 2284 4219 
Q 2596 4219 2649 4591 
L 2937 4591 
Q 2884 4128 2727 3940 
Q 2571 3753 2306 3753 
z
" transform="scale(0.015625)"/>
       <path id="LiberationSans-6c" d="M 431 0 
L 431 4638 
L 994 4638 
L 994 0 
L 431 0 
z
" transform="scale(0.015625)"/>
       <path id="LiberationSans-4d" d="M 4269 0 
L 4269 2938 
Q 4269 3425 4297 3875 
Q 4144 3316 4022 3000 
L 2884 0 
L 2466 0 
L 1313 3000 
L 1138 3531 
L 1034 3875 
L 1044 3528 
L 1056 2938 
L 1056 0 
L 525 0 
L 525 4403 
L 1309 4403 
L 2481 1350 
Q 2544 1166 2601 955 
Q 2659 744 2678 650 
Q 2703 775 2783 1029 
Q 2863 1284 2891 1350 
L 4041 4403 
L 4806 4403 
L 4806 0 
L 4269 0 
z
" transform="scale(0.015625)"/>
       <path id="LiberationSans-41" d="M 3647 0 
L 3144 1288 
L 1138 1288 
L 631 0 
L 13 0 
L 1809 4403 
L 2488 4403 
L 4256 0 
L 3647 0 
z
M 2141 3953 
L 2113 3866 
Q 2034 3606 1881 3200 
L 1319 1753 
L 2966 1753 
L 2400 3206 
Q 2313 3422 2225 3694 
L 2141 3953 
z
" transform="scale(0.015625)"/>
       <path id="LiberationSans-50" d="M 3931 3078 
Q 3931 2453 3523 2084 
Q 3116 1716 2416 1716 
L 1122 1716 
L 1122 0 
L 525 0 
L 525 4403 
L 2378 4403 
Q 3119 4403 3525 4056 
Q 3931 3709 3931 3078 
z
M 3331 3072 
Q 3331 3925 2306 3925 
L 1122 3925 
L 1122 2188 
L 2331 2188 
Q 3331 2188 3331 3072 
z
" transform="scale(0.015625)"/>
      </defs>
      <use xlink:href="#LiberationSans-45"/>
      <use xlink:href="#LiberationSans-72" x="66.699219"/>
      <use xlink:href="#LiberationSans-72" x="100"/>
      <use xlink:href="#LiberationSans-6f" x="133.300781"/>
      <use xlink:href="#LiberationSans-72" x="188.916016"/>
      <use xlink:href="#LiberationSans-20" x="222.216797"/>
      <use xlink:href="#LiberationSans-64" x="250"/>
      <use xlink:href="#LiberationSans-65" x="305.615234"/>
      <use xlink:href="#LiberationSans-20" x="361.230469"/>
      <use xlink:href="#LiberationSans-73" x="389.013672"/>
      <use xlink:href="#LiberationSans-65" x="439.013672"/>
      <use xlink:href="#LiberationSans-f1" x="494.628906"/>
      <use xlink:href="#LiberationSans-61" x="550.244141"/>
      <use xlink:href="#LiberationSans-6c" x="605.859375"/>
      <use xlink:href="#LiberationSans-20" x="628.076172"/>
      <use xlink:href="#LiberationSans-28" x="655.859375"/>
      <use xlink:href="#LiberationSans-4d" x="689.160156"/>
      <use xlink:href="#LiberationSans-41" x="772.460938"/>
      <use xlink:href="#LiberationSans-50" x="839.160156"/>
      <use xlink:href="#LiberationSans-45" x="905.859375"/>
      <use xlink:href="#LiberationSans-2c" x="972.558594"/>
      <use xlink:href="#LiberationSans-20" x="1000.341797"/>
      <use xlink:href="#LiberationSans-25" x="1028.125"/>
      <use xlink:href="#LiberationSans-29" x="1117.041016"/>
     </g>
    </g>
   </g>
   <g id="PathCollection_1">
    <defs>
     <path id="m703fe175f7" d="M 0 3.162278 
C 0.838646 3.162278 1.643056 2.82908 2.236068 2.236068 
C 2.82908 1.643056 3.162278 0.838646 3.162278 0 
C 3.162278 -0.838646 2.82908 -1.643056 2.236068 -2.236068 
C 1.643056 -2.82908 0.838646 -3.162278 0 -3.162278 
C -0.838646 -3.162278 -1.643056 -2.82908 -2.236068 -2.236068 
C -2.82908 -1.643056 -3.162278 -0.838646 -3.162278 0 
C -3.162278 0.838646 -2.82908 1.643056 -2.236068 2.236068 
C -1.643056 2.82908 -0.838646 3.162278 0 3.162278 
z
" style="stroke: #1f77b4; stroke-opacity: 0.72"/>
    </defs>
    <g clip-path="url(#pfb5361f11a)">
     <use xlink:href="#m703fe175f7" x="268.943786" y="270.272327" style="fill: #1f77b4; fill-opacity: 0.72; stroke: #1f77b4; stroke-opacity: 0.72"/>
     <use xlink:href="#m703fe175f7" x="321.795196" y="163.832379" style="fill: #1f77b4; fill-opacity: 0.72; stroke: #1f77b4; stroke-opacity: 0.72"/>
     <use xlink:href="#m703fe175f7" x="238.942106" y="222.410069" style="fill: #1f77b4; fill-opacity: 0.72; stroke: #1f77b4; stroke-opacity: 0.72"/>
     <use xlink:href="#m703fe175f7" x="402.767631" y="61.321423" style="fill: #1f77b4; fill-opacity: 0.72; stroke: #1f77b4; stroke-opacity: 0.72"/>
     <use xlink:href="#m703fe175f7" x="264.632964" y="285.988292" style="fill: #1f77b4; fill-opacity: 0.72; stroke: #1f77b4; stroke-opacity: 0.72"/>
     <use xlink:href="#m703fe175f7" x="300.838387" y="238.183183" style="fill: #1f77b4; fill-opacity: 0.72; stroke: #1f77b4; stroke-opacity: 0.72"/>
     <use xlink:href="#m703fe175f7" x="319.945418" y="284.559568" style="fill: #1f77b4; fill-opacity: 0.72; stroke: #1f77b4; stroke-opacity: 0.72"/>
     <use xlink:href="#m703fe175f7" x="326.943802" y="160.61775" style="fill: #1f77b4; fill-opacity: 0.72; stroke: #1f77b4; stroke-opacity: 0.72"/>
     <use xlink:href="#m703fe175f7" x="290.165679" y="237.421197" style="fill: #1f77b4; fill-opacity: 0.72; stroke: #1f77b4; stroke-opacity: 0.72"/>
     <use xlink:href="#m703fe175f7" x="377.47673" y="255.985086" style="fill: #1f77b4; fill-opacity: 0.72; stroke: #1f77b4; stroke-opacity: 0.72"/>
     <use xlink:href="#m703fe175f7" x="484.469723" y="261.342801" style="fill: #1f77b4; fill-opacity: 0.72; stroke: #1f77b4; stroke-opacity: 0.72"/>
     <use xlink:href="#m703fe175f7" x="353.698048" y="264.969181" style="fill: #1f77b4; fill-opacity: 0.72; stroke: #1f77b4; stroke-opacity: 0.72"/>
     <use xlink:href="#m703fe175f7" x="264.254615" y="240.364369" style="fill: #1f77b4; fill-opacity: 0.72; stroke: #1f77b4; stroke-opacity: 0.72"/>
     <use xlink:href="#m703fe175f7" x="284.029342" y="241.196799" style="fill: #1f77b4; fill-opacity: 0.72; stroke: #1f77b4; stroke-opacity: 0.72"/>
     <use xlink:href="#m703fe175f7" x="415.937328" y="239.197577" style="fill: #1f77b4; fill-opacity: 0.72; stroke: #1f77b4; stroke-opacity: 0.72"/>
     <use xlink:href="#m703fe175f7" x="306.340376" y="286.246256" style="fill: #1f77b4; fill-opacity: 0.72; stroke: #1f77b4; stroke-opacity: 0.72"/>
     <use xlink:href="#m703fe175f7" x="358.216301" y="294.917818" style="fill: #1f77b4; fill-opacity: 0.72; stroke: #1f77b4; stroke-opacity: 0.72"/>
     <use xlink:href="#m703fe175f7" x="256.707606" y="262.771525" style="fill: #1f77b4; fill-opacity: 0.72; stroke: #1f77b4; stroke-opacity: 0.72"/>
     <use xlink:href="#m703fe175f7" x="332.334704" y="273.844137" style="fill: #1f77b4; fill-opacity: 0.72; stroke: #1f77b4; stroke-opacity: 0.72"/>
     <use xlink:href="#m703fe175f7" x="282.591107" y="196.335853" style="fill: #1f77b4; fill-opacity: 0.72; stroke: #1f77b4; stroke-opacity: 0.72"/>
     <use xlink:href="#m703fe175f7" x="342.973652" y="272.415413" style="fill: #1f77b4; fill-opacity: 0.72; stroke: #1f77b4; stroke-opacity: 0.72"/>
     <use xlink:href="#m703fe175f7" x="275.720298" y="276.701586" style="fill: #1f77b4; fill-opacity: 0.72; stroke: #1f77b4; stroke-opacity: 0.72"/>
     <use xlink:href="#m703fe175f7" x="327.252621" y="205.62256" style="fill: #1f77b4; fill-opacity: 0.72; stroke: #1f77b4; stroke-opacity: 0.72"/>
     <use xlink:href="#m703fe175f7" x="240.844352" y="282.059301" style="fill: #1f77b4; fill-opacity: 0.72; stroke: #1f77b4; stroke-opacity: 0.72"/>
     <use xlink:href="#m703fe175f7" x="472.628886" y="236.340129" style="fill: #1f77b4; fill-opacity: 0.72; stroke: #1f77b4; stroke-opacity: 0.72"/>
     <use xlink:href="#m703fe175f7" x="266.292218" y="284.916749" style="fill: #1f77b4; fill-opacity: 0.72; stroke: #1f77b4; stroke-opacity: 0.72"/>
     <use xlink:href="#m703fe175f7" x="187.93817" y="222.410069" style="fill: #1f77b4; fill-opacity: 0.72; stroke: #1f77b4; stroke-opacity: 0.72"/>
     <use xlink:href="#m703fe175f7" x="334.553607" y="247.769922" style="fill: #1f77b4; fill-opacity: 0.72; stroke: #1f77b4; stroke-opacity: 0.72"/>
     <use xlink:href="#m703fe175f7" x="343.698029" y="279.559034" style="fill: #1f77b4; fill-opacity: 0.72; stroke: #1f77b4; stroke-opacity: 0.72"/>
     <use xlink:href="#m703fe175f7" x="395.654389" y="214.552086" style="fill: #1f77b4; fill-opacity: 0.72; stroke: #1f77b4; stroke-opacity: 0.72"/>
     <use xlink:href="#m703fe175f7" x="319.682745" y="264.894768" style="fill: #1f77b4; fill-opacity: 0.72; stroke: #1f77b4; stroke-opacity: 0.72"/>
     <use xlink:href="#m703fe175f7" x="318.732106" y="275.466334" style="fill: #1f77b4; fill-opacity: 0.72; stroke: #1f77b4; stroke-opacity: 0.72"/>
     <use xlink:href="#m703fe175f7" x="278.02972" y="227.410603" style="fill: #1f77b4; fill-opacity: 0.72; stroke: #1f77b4; stroke-opacity: 0.72"/>
     <use xlink:href="#m703fe175f7" x="300.991737" y="142.758698" style="fill: #1f77b4; fill-opacity: 0.72; stroke: #1f77b4; stroke-opacity: 0.72"/>
     <use xlink:href="#m703fe175f7" x="369.20907" y="252.413275" style="fill: #1f77b4; fill-opacity: 0.72; stroke: #1f77b4; stroke-opacity: 0.72"/>
     <use xlink:href="#m703fe175f7" x="386.671577" y="248.484284" style="fill: #1f77b4; fill-opacity: 0.72; stroke: #1f77b4; stroke-opacity: 0.72"/>
     <use xlink:href="#m703fe175f7" x="322.985236" y="274.85615" style="fill: #1f77b4; fill-opacity: 0.72; stroke: #1f77b4; stroke-opacity: 0.72"/>
     <use xlink:href="#m703fe175f7" x="297.233492" y="258.909208" style="fill: #1f77b4; fill-opacity: 0.72; stroke: #1f77b4; stroke-opacity: 0.72"/>
     <use xlink:href="#m703fe175f7" x="331.832318" y="284.916749" style="fill: #1f77b4; fill-opacity: 0.72; stroke: #1f77b4; stroke-opacity: 0.72"/>
     <use xlink:href="#m703fe175f7" x="257.673673" y="267.414879" style="fill: #1f77b4; fill-opacity: 0.72; stroke: #1f77b4; stroke-opacity: 0.72"/>
    </g>
   </g>
   <g id="PathCollection_2">
    <defs>
     <path id="m4c4f750b4d" d="M 0 3.162278 
C 0.838646 3.162278 1.643056 2.82908 2.236068 2.236068 
C 2.82908 1.643056 3.162278 0.838646 3.162278 0 
C 3.162278 -0.838646 2.82908 -1.643056 2.236068 -2.236068 
C 1.643056 -2.82908 0.838646 -3.162278 0 -3.162278 
C -0.838646 -3.162278 -1.643056 -2.82908 -2.236068 -2.236068 
C -2.82908 -1.643056 -3.162278 -0.838646 -3.162278 0 
C -3.162278 0.838646 -2.82908 1.643056 -2.236068 2.236068 
C -1.643056 2.82908 -0.838646 3.162278 0 3.162278 
z
" style="stroke: #ff7f0e; stroke-opacity: 0.72"/>
    </defs>
    <g clip-path="url(#pfb5361f11a)">
     <use xlink:href="#m4c4f750b4d" x="355.359797" y="154.188491" style="fill: #ff7f0e; fill-opacity: 0.72; stroke: #ff7f0e; stroke-opacity: 0.72"/>
     <use xlink:href="#m4c4f750b4d" x="333.601065" y="82.037923" style="fill: #ff7f0e; fill-opacity: 0.72; stroke: #ff7f0e; stroke-opacity: 0.72"/>
     <use xlink:href="#m4c4f750b4d" x="336.566168" y="265.271793" style="fill: #ff7f0e; fill-opacity: 0.72; stroke: #ff7f0e; stroke-opacity: 0.72"/>
     <use xlink:href="#m4c4f750b4d" x="311.119123" y="241.939467" style="fill: #ff7f0e; fill-opacity: 0.72; stroke: #ff7f0e; stroke-opacity: 0.72"/>
     <use xlink:href="#m4c4f750b4d" x="337.034806" y="157.760302" style="fill: #ff7f0e; fill-opacity: 0.72; stroke: #ff7f0e; stroke-opacity: 0.72"/>
     <use xlink:href="#m4c4f750b4d" x="337.475923" y="239.745255" style="fill: #ff7f0e; fill-opacity: 0.72; stroke: #ff7f0e; stroke-opacity: 0.72"/>
     <use xlink:href="#m4c4f750b4d" x="296.415856" y="276.344405" style="fill: #ff7f0e; fill-opacity: 0.72; stroke: #ff7f0e; stroke-opacity: 0.72"/>
     <use xlink:href="#m4c4f750b4d" x="324.637626" y="275.356904" style="fill: #ff7f0e; fill-opacity: 0.72; stroke: #ff7f0e; stroke-opacity: 0.72"/>
     <use xlink:href="#m4c4f750b4d" x="327.904345" y="246.738066" style="fill: #ff7f0e; fill-opacity: 0.72; stroke: #ff7f0e; stroke-opacity: 0.72"/>
     <use xlink:href="#m4c4f750b4d" x="321.449868" y="287.70066" style="fill: #ff7f0e; fill-opacity: 0.72; stroke: #ff7f0e; stroke-opacity: 0.72"/>
     <use xlink:href="#m4c4f750b4d" x="330.776473" y="287.417017" style="fill: #ff7f0e; fill-opacity: 0.72; stroke: #ff7f0e; stroke-opacity: 0.72"/>
     <use xlink:href="#m4c4f750b4d" x="349.34351" y="278.487491" style="fill: #ff7f0e; fill-opacity: 0.72; stroke: #ff7f0e; stroke-opacity: 0.72"/>
     <use xlink:href="#m4c4f750b4d" x="315.522525" y="205.265379" style="fill: #ff7f0e; fill-opacity: 0.72; stroke: #ff7f0e; stroke-opacity: 0.72"/>
     <use xlink:href="#m4c4f750b4d" x="307.537761" y="282.416482" style="fill: #ff7f0e; fill-opacity: 0.72; stroke: #ff7f0e; stroke-opacity: 0.72"/>
     <use xlink:href="#m4c4f750b4d" x="315.274497" y="287.774198" style="fill: #ff7f0e; fill-opacity: 0.72; stroke: #ff7f0e; stroke-opacity: 0.72"/>
     <use xlink:href="#m4c4f750b4d" x="331.89329" y="282.773663" style="fill: #ff7f0e; fill-opacity: 0.72; stroke: #ff7f0e; stroke-opacity: 0.72"/>
     <use xlink:href="#m4c4f750b4d" x="323.550325" y="278.844672" style="fill: #ff7f0e; fill-opacity: 0.72; stroke: #ff7f0e; stroke-opacity: 0.72"/>
     <use xlink:href="#m4c4f750b4d" x="323.903668" y="289.560103" style="fill: #ff7f0e; fill-opacity: 0.72; stroke: #ff7f0e; stroke-opacity: 0.72"/>
     <use xlink:href="#m4c4f750b4d" x="326.65301" y="250.270189" style="fill: #ff7f0e; fill-opacity: 0.72; stroke: #ff7f0e; stroke-opacity: 0.72"/>
     <use xlink:href="#m4c4f750b4d" x="314.399985" y="288.131379" style="fill: #ff7f0e; fill-opacity: 0.72; stroke: #ff7f0e; stroke-opacity: 0.72"/>
     <use xlink:href="#m4c4f750b4d" x="344.696086" y="200.622026" style="fill: #ff7f0e; fill-opacity: 0.72; stroke: #ff7f0e; stroke-opacity: 0.72"/>
     <use xlink:href="#m4c4f750b4d" x="349.282112" y="274.884164" style="fill: #ff7f0e; fill-opacity: 0.72; stroke: #ff7f0e; stroke-opacity: 0.72"/>
     <use xlink:href="#m4c4f750b4d" x="360.34863" y="203.836655" style="fill: #ff7f0e; fill-opacity: 0.72; stroke: #ff7f0e; stroke-opacity: 0.72"/>
     <use xlink:href="#m4c4f750b4d" x="312.995528" y="139.186888" style="fill: #ff7f0e; fill-opacity: 0.72; stroke: #ff7f0e; stroke-opacity: 0.72"/>
     <use xlink:href="#m4c4f750b4d" x="311.401019" y="269.915146" style="fill: #ff7f0e; fill-opacity: 0.72; stroke: #ff7f0e; stroke-opacity: 0.72"/>
     <use xlink:href="#m4c4f750b4d" x="316.457207" y="274.088524" style="fill: #ff7f0e; fill-opacity: 0.72; stroke: #ff7f0e; stroke-opacity: 0.72"/>
     <use xlink:href="#m4c4f750b4d" x="334.782874" y="255.95895" style="fill: #ff7f0e; fill-opacity: 0.72; stroke: #ff7f0e; stroke-opacity: 0.72"/>
     <use xlink:href="#m4c4f750b4d" x="330.998004" y="284.559568" style="fill: #ff7f0e; fill-opacity: 0.72; stroke: #ff7f0e; stroke-opacity: 0.72"/>
     <use xlink:href="#m4c4f750b4d" x="319.825275" y="284.916749" style="fill: #ff7f0e; fill-opacity: 0.72; stroke: #ff7f0e; stroke-opacity: 0.72"/>
    </g>
   </g>
   <g id="PathCollection_3">
    <defs>
     <path id="m44bcb3afe8" d="M 0 3.162278 
C 0.838646 3.162278 1.643056 2.82908 2.236068 2.236068 
C 2.82908 1.643056 3.162278 0.838646 3.162278 0 
C 3.162278 -0.838646 2.82908 -1.643056 2.236068 -2.236068 
C 1.643056 -2.82908 0.838646 -3.162278 0 -3.162278 
C -0.838646 -3.162278 -1.643056 -2.82908 -2.236068 -2.236068 
C -2.82908 -1.643056 -3.162278 -0.838646 -3.162278 0 
C -3.162278 0.838646 -2.82908 1.643056 -2.236068 2.236068 
C -1.643056 2.82908 -0.838646 3.162278 0 3.162278 
z
" style="stroke: #2ca02c; stroke-opacity: 0.72"/>
    </defs>
    <g clip-path="url(#pfb5361f11a)">
     <use xlink:href="#m44bcb3afe8" x="240.918038" y="278.13031" style="fill: #2ca02c; fill-opacity: 0.72; stroke: #2ca02c; stroke-opacity: 0.72"/>
     <use xlink:href="#m44bcb3afe8" x="200.018806" y="199.550483" style="fill: #2ca02c; fill-opacity: 0.72; stroke: #2ca02c; stroke-opacity: 0.72"/>
     <use xlink:href="#m44bcb3afe8" x="219.798184" y="292.06037" style="fill: #2ca02c; fill-opacity: 0.72; stroke: #2ca02c; stroke-opacity: 0.72"/>
     <use xlink:href="#m44bcb3afe8" x="296.769059" y="234.101794" style="fill: #2ca02c; fill-opacity: 0.72; stroke: #2ca02c; stroke-opacity: 0.72"/>
     <use xlink:href="#m44bcb3afe8" x="316.852798" y="163.475198" style="fill: #2ca02c; fill-opacity: 0.72; stroke: #2ca02c; stroke-opacity: 0.72"/>
     <use xlink:href="#m44bcb3afe8" x="386.68114" y="258.842534" style="fill: #2ca02c; fill-opacity: 0.72; stroke: #2ca02c; stroke-opacity: 0.72"/>
     <use xlink:href="#m44bcb3afe8" x="491.802319" y="259.199715" style="fill: #2ca02c; fill-opacity: 0.72; stroke: #2ca02c; stroke-opacity: 0.72"/>
     <use xlink:href="#m44bcb3afe8" x="312.91651" y="247.142677" style="fill: #2ca02c; fill-opacity: 0.72; stroke: #2ca02c; stroke-opacity: 0.72"/>
     <use xlink:href="#m44bcb3afe8" x="295.439255" y="222.673255" style="fill: #2ca02c; fill-opacity: 0.72; stroke: #2ca02c; stroke-opacity: 0.72"/>
     <use xlink:href="#m44bcb3afe8" x="488.63477" y="218.481077" style="fill: #2ca02c; fill-opacity: 0.72; stroke: #2ca02c; stroke-opacity: 0.72"/>
     <use xlink:href="#m44bcb3afe8" x="304.270072" y="286.08284" style="fill: #2ca02c; fill-opacity: 0.72; stroke: #2ca02c; stroke-opacity: 0.72"/>
     <use xlink:href="#m44bcb3afe8" x="362.096344" y="294.560637" style="fill: #2ca02c; fill-opacity: 0.72; stroke: #2ca02c; stroke-opacity: 0.72"/>
     <use xlink:href="#m44bcb3afe8" x="215.867927" y="274.558499" style="fill: #2ca02c; fill-opacity: 0.72; stroke: #2ca02c; stroke-opacity: 0.72"/>
     <use xlink:href="#m44bcb3afe8" x="328.359755" y="272.415413" style="fill: #2ca02c; fill-opacity: 0.72; stroke: #2ca02c; stroke-opacity: 0.72"/>
     <use xlink:href="#m44bcb3afe8" x="249.659689" y="187.049146" style="fill: #2ca02c; fill-opacity: 0.72; stroke: #2ca02c; stroke-opacity: 0.72"/>
     <use xlink:href="#m44bcb3afe8" x="411.50122" y="253.127637" style="fill: #2ca02c; fill-opacity: 0.72; stroke: #2ca02c; stroke-opacity: 0.72"/>
     <use xlink:href="#m44bcb3afe8" x="227.625913" y="263.128706" style="fill: #2ca02c; fill-opacity: 0.72; stroke: #2ca02c; stroke-opacity: 0.72"/>
     <use xlink:href="#m44bcb3afe8" x="337.257999" y="202.765112" style="fill: #2ca02c; fill-opacity: 0.72; stroke: #2ca02c; stroke-opacity: 0.72"/>
     <use xlink:href="#m44bcb3afe8" x="317.65165" y="286.702654" style="fill: #2ca02c; fill-opacity: 0.72; stroke: #2ca02c; stroke-opacity: 0.72"/>
     <use xlink:href="#m44bcb3afe8" x="426.58591" y="249.555827" style="fill: #2ca02c; fill-opacity: 0.72; stroke: #2ca02c; stroke-opacity: 0.72"/>
     <use xlink:href="#m44bcb3afe8" x="217.113712" y="270.986689" style="fill: #2ca02c; fill-opacity: 0.72; stroke: #2ca02c; stroke-opacity: 0.72"/>
     <use xlink:href="#m44bcb3afe8" x="212.546483" y="215.266448" style="fill: #2ca02c; fill-opacity: 0.72; stroke: #2ca02c; stroke-opacity: 0.72"/>
     <use xlink:href="#m44bcb3afe8" x="322.786768" y="261.551157" style="fill: #2ca02c; fill-opacity: 0.72; stroke: #2ca02c; stroke-opacity: 0.72"/>
     <use xlink:href="#m44bcb3afe8" x="327.221404" y="275.29166" style="fill: #2ca02c; fill-opacity: 0.72; stroke: #2ca02c; stroke-opacity: 0.72"/>
     <use xlink:href="#m44bcb3afe8" x="177.42892" y="256.699448" style="fill: #2ca02c; fill-opacity: 0.72; stroke: #2ca02c; stroke-opacity: 0.72"/>
     <use xlink:href="#m44bcb3afe8" x="252.029738" y="157.04594" style="fill: #2ca02c; fill-opacity: 0.72; stroke: #2ca02c; stroke-opacity: 0.72"/>
     <use xlink:href="#m44bcb3afe8" x="395.403018" y="244.912474" style="fill: #2ca02c; fill-opacity: 0.72; stroke: #2ca02c; stroke-opacity: 0.72"/>
     <use xlink:href="#m44bcb3afe8" x="461.942135" y="227.053422" style="fill: #2ca02c; fill-opacity: 0.72; stroke: #2ca02c; stroke-opacity: 0.72"/>
     <use xlink:href="#m44bcb3afe8" x="348.108235" y="274.127781" style="fill: #2ca02c; fill-opacity: 0.72; stroke: #2ca02c; stroke-opacity: 0.72"/>
     <use xlink:href="#m44bcb3afe8" x="305.89255" y="252.962114" style="fill: #2ca02c; fill-opacity: 0.72; stroke: #2ca02c; stroke-opacity: 0.72"/>
     <use xlink:href="#m44bcb3afe8" x="195.522072" y="249.913008" style="fill: #2ca02c; fill-opacity: 0.72; stroke: #2ca02c; stroke-opacity: 0.72"/>
    </g>
   </g>
   <g id="PathCollection_4">
    <defs>
     <path id="m1e6d5aecdc" d="M 0 3.162278 
C 0.838646 3.162278 1.643056 2.82908 2.236068 2.236068 
C 2.82908 1.643056 3.162278 0.838646 3.162278 0 
C 3.162278 -0.838646 2.82908 -1.643056 2.236068 -2.236068 
C 1.643056 -2.82908 0.838646 -3.162278 0 -3.162278 
C -0.838646 -3.162278 -1.643056 -2.82908 -2.236068 -2.236068 
C -2.82908 -1.643056 -3.162278 -0.838646 -3.162278 0 
C -3.162278 0.838646 -2.82908 1.643056 -2.236068 2.236068 
C -1.643056 2.82908 -0.838646 3.162278 0 3.162278 
z
" style="stroke: #d62728; stroke-opacity: 0.72"/>
    </defs>
    <g clip-path="url(#pfb5361f11a)">
     <use xlink:href="#m1e6d5aecdc" x="307.282477" y="288.131379" style="fill: #d62728; fill-opacity: 0.72; stroke: #d62728; stroke-opacity: 0.72"/>
     <use xlink:href="#m1e6d5aecdc" x="270.95828" y="278.807074" style="fill: #d62728; fill-opacity: 0.72; stroke: #d62728; stroke-opacity: 0.72"/>
     <use xlink:href="#m1e6d5aecdc" x="72.988115" y="234.197043" style="fill: #d62728; fill-opacity: 0.72; stroke: #d62728; stroke-opacity: 0.72"/>
    </g>
   </g>
   <g id="PathCollection_5">
    <defs>
     <path id="m3b732b91b1" d="M 0 3.162278 
C 0.838646 3.162278 1.643056 2.82908 2.236068 2.236068 
C 2.82908 1.643056 3.162278 0.838646 3.162278 0 
C 3.162278 -0.838646 2.82908 -1.643056 2.236068 -2.236068 
C 1.643056 -2.82908 0.838646 -3.162278 0 -3.162278 
C -0.838646 -3.162278 -1.643056 -2.82908 -2.236068 -2.236068 
C -2.82908 -1.643056 -3.162278 -0.838646 -3.162278 0 
C -3.162278 0.838646 -2.82908 1.643056 -2.236068 2.236068 
C -1.643056 2.82908 -0.838646 3.162278 0 3.162278 
z
" style="stroke: #9467bd; stroke-opacity: 0.72"/>
    </defs>
    <g clip-path="url(#pfb5361f11a)">
     <use xlink:href="#m3b732b91b1" x="410.006986" y="138.115345" style="fill: #9467bd; fill-opacity: 0.72; stroke: #9467bd; stroke-opacity: 0.72"/>
     <use xlink:href="#m3b732b91b1" x="306.432995" y="202.765112" style="fill: #9467bd; fill-opacity: 0.72; stroke: #9467bd; stroke-opacity: 0.72"/>
     <use xlink:href="#m3b732b91b1" x="424.609727" y="54.892165" style="fill: #9467bd; fill-opacity: 0.72; stroke: #9467bd; stroke-opacity: 0.72"/>
     <use xlink:href="#m3b732b91b1" x="301.808423" y="239.241136" style="fill: #9467bd; fill-opacity: 0.72; stroke: #9467bd; stroke-opacity: 0.72"/>
     <use xlink:href="#m3b732b91b1" x="332.608359" y="280.987758" style="fill: #9467bd; fill-opacity: 0.72; stroke: #9467bd; stroke-opacity: 0.72"/>
     <use xlink:href="#m3b732b91b1" x="249.059922" y="233.949397" style="fill: #9467bd; fill-opacity: 0.72; stroke: #9467bd; stroke-opacity: 0.72"/>
     <use xlink:href="#m3b732b91b1" x="333.638581" y="243.840931" style="fill: #9467bd; fill-opacity: 0.72; stroke: #9467bd; stroke-opacity: 0.72"/>
     <use xlink:href="#m3b732b91b1" x="413.96636" y="256.297619" style="fill: #9467bd; fill-opacity: 0.72; stroke: #9467bd; stroke-opacity: 0.72"/>
     <use xlink:href="#m3b732b91b1" x="226.860134" y="229.191746" style="fill: #9467bd; fill-opacity: 0.72; stroke: #9467bd; stroke-opacity: 0.72"/>
     <use xlink:href="#m3b732b91b1" x="242.750755" y="231.761266" style="fill: #9467bd; fill-opacity: 0.72; stroke: #9467bd; stroke-opacity: 0.72"/>
     <use xlink:href="#m3b732b91b1" x="347.72535" y="258.842534" style="fill: #9467bd; fill-opacity: 0.72; stroke: #9467bd; stroke-opacity: 0.72"/>
     <use xlink:href="#m3b732b91b1" x="316.263374" y="287.600568" style="fill: #9467bd; fill-opacity: 0.72; stroke: #9467bd; stroke-opacity: 0.72"/>
     <use xlink:href="#m3b732b91b1" x="297.547285" y="250.984551" style="fill: #9467bd; fill-opacity: 0.72; stroke: #9467bd; stroke-opacity: 0.72"/>
     <use xlink:href="#m3b732b91b1" x="319.300847" y="269.915146" style="fill: #9467bd; fill-opacity: 0.72; stroke: #9467bd; stroke-opacity: 0.72"/>
     <use xlink:href="#m3b732b91b1" x="284.260485" y="278.844672" style="fill: #9467bd; fill-opacity: 0.72; stroke: #9467bd; stroke-opacity: 0.72"/>
     <use xlink:href="#m3b732b91b1" x="317.247243" y="208.480008" style="fill: #9467bd; fill-opacity: 0.72; stroke: #9467bd; stroke-opacity: 0.72"/>
     <use xlink:href="#m3b732b91b1" x="667.750424" y="180.977069" style="fill: #9467bd; fill-opacity: 0.72; stroke: #9467bd; stroke-opacity: 0.72"/>
     <use xlink:href="#m3b732b91b1" x="342.454204" y="245.626836" style="fill: #9467bd; fill-opacity: 0.72; stroke: #9467bd; stroke-opacity: 0.72"/>
     <use xlink:href="#m3b732b91b1" x="372.996072" y="271.34387" style="fill: #9467bd; fill-opacity: 0.72; stroke: #9467bd; stroke-opacity: 0.72"/>
     <use xlink:href="#m3b732b91b1" x="466.920489" y="234.197043" style="fill: #9467bd; fill-opacity: 0.72; stroke: #9467bd; stroke-opacity: 0.72"/>
     <use xlink:href="#m3b732b91b1" x="315.263182" y="266.531848" style="fill: #9467bd; fill-opacity: 0.72; stroke: #9467bd; stroke-opacity: 0.72"/>
     <use xlink:href="#m3b732b91b1" x="308.613737" y="275.297666" style="fill: #9467bd; fill-opacity: 0.72; stroke: #9467bd; stroke-opacity: 0.72"/>
     <use xlink:href="#m3b732b91b1" x="296.311612" y="222.410069" style="fill: #9467bd; fill-opacity: 0.72; stroke: #9467bd; stroke-opacity: 0.72"/>
     <use xlink:href="#m3b732b91b1" x="337.949944" y="131.686086" style="fill: #9467bd; fill-opacity: 0.72; stroke: #9467bd; stroke-opacity: 0.72"/>
     <use xlink:href="#m3b732b91b1" x="317.061083" y="274.553538" style="fill: #9467bd; fill-opacity: 0.72; stroke: #9467bd; stroke-opacity: 0.72"/>
     <use xlink:href="#m3b732b91b1" x="289.592935" y="258.89492" style="fill: #9467bd; fill-opacity: 0.72; stroke: #9467bd; stroke-opacity: 0.72"/>
     <use xlink:href="#m3b732b91b1" x="332.666631" y="285.27393" style="fill: #9467bd; fill-opacity: 0.72; stroke: #9467bd; stroke-opacity: 0.72"/>
    </g>
   </g>
   <g id="PathCollection_6">
    <defs>
     <path id="m597e10fba2" d="M 0 3.162278 
C 0.838646 3.162278 1.643056 2.82908 2.236068 2.236068 
C 2.82908 1.643056 3.162278 0.838646 3.162278 0 
C 3.162278 -0.838646 2.82908 -1.643056 2.236068 -2.236068 
C 1.643056 -2.82908 0.838646 -3.162278 0 -3.162278 
C -0.838646 -3.162278 -1.643056 -2.82908 -2.236068 -2.236068 
C -2.82908 -1.643056 -3.162278 -0.838646 -3.162278 0 
C -3.162278 0.838646 -2.82908 1.643056 -2.236068 2.236068 
C -1.643056 2.82908 -0.838646 3.162278 0 3.162278 
z
" style="stroke: #8c564b; stroke-opacity: 0.72"/>
    </defs>
    <g clip-path="url(#pfb5361f11a)">
     <use xlink:href="#m597e10fba2" x="296.969534" y="262.057163" style="fill: #8c564b; fill-opacity: 0.72; stroke: #8c564b; stroke-opacity: 0.72"/>
     <use xlink:href="#m597e10fba2" x="171.451217" y="242.055025" style="fill: #8c564b; fill-opacity: 0.72; stroke: #8c564b; stroke-opacity: 0.72"/>
     <use xlink:href="#m597e10fba2" x="450.092102" y="47.034182" style="fill: #8c564b; fill-opacity: 0.72; stroke: #8c564b; stroke-opacity: 0.72"/>
     <use xlink:href="#m597e10fba2" x="237.534542" y="293.489094" style="fill: #8c564b; fill-opacity: 0.72; stroke: #8c564b; stroke-opacity: 0.72"/>
     <use xlink:href="#m597e10fba2" x="296.587893" y="238.041991" style="fill: #8c564b; fill-opacity: 0.72; stroke: #8c564b; stroke-opacity: 0.72"/>
     <use xlink:href="#m597e10fba2" x="274.043371" y="225.110706" style="fill: #8c564b; fill-opacity: 0.72; stroke: #8c564b; stroke-opacity: 0.72"/>
     <use xlink:href="#m597e10fba2" x="412.110469" y="265.628974" style="fill: #8c564b; fill-opacity: 0.72; stroke: #8c564b; stroke-opacity: 0.72"/>
     <use xlink:href="#m597e10fba2" x="665.190994" y="210.265914" style="fill: #8c564b; fill-opacity: 0.72; stroke: #8c564b; stroke-opacity: 0.72"/>
     <use xlink:href="#m597e10fba2" x="265.506887" y="253.306228" style="fill: #8c564b; fill-opacity: 0.72; stroke: #8c564b; stroke-opacity: 0.72"/>
     <use xlink:href="#m597e10fba2" x="288.061921" y="249.534816" style="fill: #8c564b; fill-opacity: 0.72; stroke: #8c564b; stroke-opacity: 0.72"/>
     <use xlink:href="#m597e10fba2" x="265.778792" y="260.17671" style="fill: #8c564b; fill-opacity: 0.72; stroke: #8c564b; stroke-opacity: 0.72"/>
     <use xlink:href="#m597e10fba2" x="411.451862" y="240.626301" style="fill: #8c564b; fill-opacity: 0.72; stroke: #8c564b; stroke-opacity: 0.72"/>
     <use xlink:href="#m597e10fba2" x="311.254364" y="285.696908" style="fill: #8c564b; fill-opacity: 0.72; stroke: #8c564b; stroke-opacity: 0.72"/>
     <use xlink:href="#m597e10fba2" x="381.776086" y="288.845741" style="fill: #8c564b; fill-opacity: 0.72; stroke: #8c564b; stroke-opacity: 0.72"/>
     <use xlink:href="#m597e10fba2" x="309.881975" y="281.70212" style="fill: #8c564b; fill-opacity: 0.72; stroke: #8c564b; stroke-opacity: 0.72"/>
     <use xlink:href="#m597e10fba2" x="257.859275" y="282.416482" style="fill: #8c564b; fill-opacity: 0.72; stroke: #8c564b; stroke-opacity: 0.72"/>
     <use xlink:href="#m597e10fba2" x="163.329858" y="229.553689" style="fill: #8c564b; fill-opacity: 0.72; stroke: #8c564b; stroke-opacity: 0.72"/>
     <use xlink:href="#m597e10fba2" x="375.346592" y="208.837189" style="fill: #8c564b; fill-opacity: 0.72; stroke: #8c564b; stroke-opacity: 0.72"/>
     <use xlink:href="#m597e10fba2" x="320.027974" y="266.280304" style="fill: #8c564b; fill-opacity: 0.72; stroke: #8c564b; stroke-opacity: 0.72"/>
     <use xlink:href="#m597e10fba2" x="300.219648" y="271.963684" style="fill: #8c564b; fill-opacity: 0.72; stroke: #8c564b; stroke-opacity: 0.72"/>
     <use xlink:href="#m597e10fba2" x="343.015123" y="259.556896" style="fill: #8c564b; fill-opacity: 0.72; stroke: #8c564b; stroke-opacity: 0.72"/>
     <use xlink:href="#m597e10fba2" x="321.856587" y="274.316877" style="fill: #8c564b; fill-opacity: 0.72; stroke: #8c564b; stroke-opacity: 0.72"/>
     <use xlink:href="#m597e10fba2" x="277.02832" y="260.933093" style="fill: #8c564b; fill-opacity: 0.72; stroke: #8c564b; stroke-opacity: 0.72"/>
    </g>
   </g>
   <g id="line2d_29">
    <path d="M 318.418383 307.312 
L 318.418383 34.64 
" clip-path="url(#pfb5361f11a)" style="fill: none; stroke-dasharray: 3.7,1.6; stroke-dashoffset: 0; stroke: #808080"/>
   </g>
   <g id="patch_3">
    <path d="M 43.25 307.312 
L 43.25 34.64 
" style="fill: none; stroke: #cccccc; stroke-linejoin: miter; stroke-linecap: square"/>
   </g>
   <g id="patch_4">
    <path d="M 697.488539 307.312 
L 697.488539 34.64 
" style="fill: none; stroke: #cccccc; stroke-linejoin: miter; stroke-linecap: square"/>
   </g>
   <g id="patch_5">
    <path d="M 43.25 307.312 
L 697.488539 307.312 
" style="fill: none; stroke: #cccccc; stroke-linejoin: miter; stroke-linecap: square"/>
   </g>
   <g id="patch_6">
    <path d="M 43.25 34.64 
L 697.488539 34.64 
" style="fill: none; stroke: #cccccc; stroke-linejoin: miter; stroke-linecap: square"/>
   </g>
   <g id="text_17">
    <!-- Dispersión riesgo-retorno de señales -->
    <g style="fill: #262626" transform="translate(264.34552 28.64) scale(0.12 -0.12)">
     <defs>
      <path id="LiberationSans-Bold-44" d="M 4353 2234 
Q 4353 1553 4086 1045 
Q 3819 538 3330 269 
Q 2841 0 2209 0 
L 428 0 
L 428 4403 
L 2022 4403 
Q 3134 4403 3743 3842 
Q 4353 3281 4353 2234 
z
M 3425 2234 
Q 3425 2944 3056 3317 
Q 2688 3691 2003 3691 
L 1350 3691 
L 1350 713 
L 2131 713 
Q 2725 713 3075 1122 
Q 3425 1531 3425 2234 
z
" transform="scale(0.015625)"/>
      <path id="LiberationSans-Bold-69" d="M 447 3991 
L 447 4638 
L 1325 4638 
L 1325 3991 
L 447 3991 
z
M 447 0 
L 447 3381 
L 1325 3381 
L 1325 0 
L 447 0 
z
" transform="scale(0.015625)"/>
      <path id="LiberationSans-Bold-73" d="M 3297 988 
Q 3297 497 2895 217 
Q 2494 -63 1784 -63 
Q 1088 -63 717 157 
Q 347 378 225 844 
L 997 959 
Q 1063 719 1223 619 
Q 1384 519 1784 519 
Q 2153 519 2322 612 
Q 2491 706 2491 906 
Q 2491 1069 2355 1164 
Q 2219 1259 1894 1325 
Q 1150 1472 890 1598 
Q 631 1725 495 1926 
Q 359 2128 359 2422 
Q 359 2906 732 3176 
Q 1106 3447 1791 3447 
Q 2394 3447 2761 3212 
Q 3128 2978 3219 2534 
L 2441 2453 
Q 2403 2659 2256 2761 
Q 2109 2863 1791 2863 
Q 1478 2863 1322 2783 
Q 1166 2703 1166 2516 
Q 1166 2369 1286 2283 
Q 1406 2197 1691 2141 
Q 2088 2059 2395 1973 
Q 2703 1888 2889 1769 
Q 3075 1650 3186 1464 
Q 3297 1278 3297 988 
z
" transform="scale(0.015625)"/>
      <path id="LiberationSans-Bold-70" d="M 3647 1706 
Q 3647 859 3308 398 
Q 2969 -63 2350 -63 
Q 1994 -63 1730 92 
Q 1466 247 1325 538 
L 1306 538 
Q 1325 444 1325 -31 
L 1325 -1328 
L 447 -1328 
L 447 2603 
Q 447 3081 422 3381 
L 1275 3381 
Q 1291 3325 1302 3159 
Q 1313 2994 1313 2831 
L 1325 2831 
Q 1622 3453 2406 3453 
Q 2997 3453 3322 2998 
Q 3647 2544 3647 1706 
z
M 2731 1706 
Q 2731 2844 2034 2844 
Q 1684 2844 1498 2537 
Q 1313 2231 1313 1681 
Q 1313 1134 1498 836 
Q 1684 538 2028 538 
Q 2731 538 2731 1706 
z
" transform="scale(0.015625)"/>
      <path id="LiberationSans-Bold-65" d="M 1831 -63 
Q 1069 -63 659 389 
Q 250 841 250 1706 
Q 250 2544 665 2994 
Q 1081 3444 1844 3444 
Q 2572 3444 2956 2961 
Q 3341 2478 3341 1547 
L 3341 1522 
L 1172 1522 
Q 1172 1028 1355 776 
Q 1538 525 1875 525 
Q 2341 525 2463 928 
L 3291 856 
Q 2931 -63 1831 -63 
z
M 1831 2891 
Q 1522 2891 1355 2675 
Q 1188 2459 1178 2072 
L 2491 2072 
Q 2466 2481 2294 2686 
Q 2122 2891 1831 2891 
z
" transform="scale(0.015625)"/>
      <path id="LiberationSans-Bold-72" d="M 447 0 
L 447 2588 
Q 447 2866 439 3052 
Q 431 3238 422 3381 
L 1259 3381 
Q 1269 3325 1284 3039 
Q 1300 2753 1300 2659 
L 1313 2659 
Q 1441 3016 1541 3161 
Q 1641 3306 1778 3376 
Q 1916 3447 2122 3447 
Q 2291 3447 2394 3400 
L 2394 2666 
Q 2181 2713 2019 2713 
Q 1691 2713 1508 2447 
Q 1325 2181 1325 1659 
L 1325 0 
L 447 0 
z
" transform="scale(0.015625)"/>
      <path id="LiberationSans-Bold-f3" d="M 3659 1694 
Q 3659 872 3203 404 
Q 2747 -63 1941 -63 
Q 1150 -63 700 406 
Q 250 875 250 1694 
Q 250 2509 700 2976 
Q 1150 3444 1959 3444 
Q 2788 3444 3223 2992 
Q 3659 2541 3659 1694 
z
M 2741 1694 
Q 2741 2297 2544 2569 
Q 2347 2841 1972 2841 
Q 1172 2841 1172 1694 
Q 1172 1128 1367 833 
Q 1563 538 1931 538 
Q 2741 538 2741 1694 
z
M 1456 3697 
L 1456 3794 
L 2243 4694 
L 3050 4694 
L 3050 4559 
L 1987 3697 
L 1456 3697 
z
" transform="scale(0.015625)"/>
      <path id="LiberationSans-Bold-6e" d="M 2638 0 
L 2638 1897 
Q 2638 2788 2034 2788 
Q 1716 2788 1520 2514 
Q 1325 2241 1325 1813 
L 1325 0 
L 447 0 
L 447 2625 
Q 447 2897 439 3070 
Q 431 3244 422 3381 
L 1259 3381 
Q 1269 3322 1284 3064 
Q 1300 2806 1300 2709 
L 1313 2709 
Q 1491 3097 1759 3272 
Q 2028 3447 2400 3447 
Q 2938 3447 3225 3115 
Q 3513 2784 3513 2147 
L 3513 0 
L 2638 0 
z
" transform="scale(0.015625)"/>
      <path id="LiberationSans-Bold-20" transform="scale(0.015625)"/>
      <path id="LiberationSans-Bold-67" d="M 1863 -1356 
Q 1244 -1356 867 -1120 
Q 491 -884 403 -447 
L 1281 -344 
Q 1328 -547 1483 -662 
Q 1638 -778 1888 -778 
Q 2253 -778 2422 -553 
Q 2591 -328 2591 116 
L 2591 294 
L 2597 628 
L 2591 628 
Q 2300 6 1503 6 
Q 913 6 588 450 
Q 263 894 263 1719 
Q 263 2547 597 2997 
Q 931 3447 1569 3447 
Q 2306 3447 2591 2838 
L 2606 2838 
Q 2606 2947 2620 3134 
Q 2634 3322 2650 3381 
L 3481 3381 
Q 3463 3044 3463 2600 
L 3463 103 
Q 3463 -619 3053 -987 
Q 2644 -1356 1863 -1356 
z
M 2597 1738 
Q 2597 2259 2411 2551 
Q 2225 2844 1881 2844 
Q 1178 2844 1178 1719 
Q 1178 616 1875 616 
Q 2225 616 2411 908 
Q 2597 1200 2597 1738 
z
" transform="scale(0.015625)"/>
      <path id="LiberationSans-Bold-6f" d="M 3659 1694 
Q 3659 872 3203 404 
Q 2747 -63 1941 -63 
Q 1150 -63 700 406 
Q 250 875 250 1694 
Q 250 2509 700 2976 
Q 1150 3444 1959 3444 
Q 2788 3444 3223 2992 
Q 3659 2541 3659 1694 
z
M 2741 1694 
Q 2741 2297 2544 2569 
Q 2347 2841 1972 2841 
Q 1172 2841 1172 1694 
Q 1172 1128 1367 833 
Q 1563 538 1931 538 
Q 2741 538 2741 1694 
z
" transform="scale(0.015625)"/>
      <path id="LiberationSans-Bold-2d" d="M 250 1278 
L 250 2041 
L 1875 2041 
L 1875 1278 
L 250 1278 
z
" transform="scale(0.015625)"/>
      <path id="LiberationSans-Bold-74" d="M 1313 -56 
Q 925 -56 715 155 
Q 506 366 506 794 
L 506 2788 
L 78 2788 
L 78 3381 
L 550 3381 
L 825 4175 
L 1375 4175 
L 1375 3381 
L 2016 3381 
L 2016 2788 
L 1375 2788 
L 1375 1031 
Q 1375 784 1469 667 
Q 1563 550 1759 550 
Q 1863 550 2053 594 
L 2053 50 
Q 1728 -56 1313 -56 
z
" transform="scale(0.015625)"/>
      <path id="LiberationSans-Bold-64" d="M 2638 0 
Q 2625 47 2608 236 
Q 2591 425 2591 550 
L 2578 550 
Q 2294 -63 1497 -63 
Q 906 -63 584 398 
Q 263 859 263 1688 
Q 263 2528 602 2986 
Q 941 3444 1563 3444 
Q 1922 3444 2183 3294 
Q 2444 3144 2584 2847 
L 2591 2847 
L 2584 3403 
L 2584 4638 
L 3463 4638 
L 3463 738 
Q 3463 425 3488 0 
L 2638 0 
z
M 2597 1709 
Q 2597 2256 2414 2551 
Q 2231 2847 1875 2847 
Q 1522 2847 1350 2561 
Q 1178 2275 1178 1688 
Q 1178 538 1869 538 
Q 2216 538 2406 842 
Q 2597 1147 2597 1709 
z
" transform="scale(0.015625)"/>
      <path id="LiberationSans-Bold-f1" d="M 2638 0 
L 2638 1897 
Q 2638 2788 2034 2788 
Q 1716 2788 1520 2514 
Q 1325 2241 1325 1813 
L 1325 0 
L 447 0 
L 447 2625 
Q 447 2897 439 3070 
Q 431 3244 422 3381 
L 1259 3381 
Q 1269 3322 1284 3064 
Q 1300 2806 1300 2709 
L 1313 2709 
Q 1491 3097 1759 3272 
Q 2028 3447 2400 3447 
Q 2938 3447 3225 3115 
Q 3513 2784 3513 2147 
L 3513 0 
L 2638 0 
z
M 2529 3697 
Q 2391 3697 2252 3756 
Q 2113 3816 1982 3889 
Q 1851 3963 1733 4022 
Q 1616 4081 1523 4081 
Q 1395 4081 1327 4009 
Q 1260 3938 1216 3697 
L 788 3697 
Q 813 4050 889 4226 
Q 966 4403 1110 4508 
Q 1254 4613 1491 4613 
Q 1632 4613 1772 4553 
Q 1913 4494 2044 4420 
Q 2176 4347 2290 4287 
Q 2404 4228 2495 4228 
Q 2620 4228 2690 4304 
Q 2760 4381 2804 4613 
L 3226 4613 
Q 3204 4122 3027 3909 
Q 2851 3697 2529 3697 
z
" transform="scale(0.015625)"/>
      <path id="LiberationSans-Bold-61" d="M 1228 -63 
Q 738 -63 463 204 
Q 188 472 188 956 
Q 188 1481 530 1756 
Q 872 2031 1522 2038 
L 2250 2050 
L 2250 2222 
Q 2250 2553 2134 2714 
Q 2019 2875 1756 2875 
Q 1513 2875 1398 2764 
Q 1284 2653 1256 2397 
L 341 2441 
Q 425 2934 792 3189 
Q 1159 3444 1794 3444 
Q 2434 3444 2781 3128 
Q 3128 2813 3128 2231 
L 3128 1000 
Q 3128 716 3192 608 
Q 3256 500 3406 500 
Q 3506 500 3600 519 
L 3600 44 
Q 3522 25 3459 9 
Q 3397 -6 3334 -15 
Q 3272 -25 3201 -31 
Q 3131 -38 3038 -38 
Q 2706 -38 2548 125 
Q 2391 288 2359 603 
L 2341 603 
Q 1972 -63 1228 -63 
z
M 2250 1566 
L 1800 1559 
Q 1494 1547 1366 1492 
Q 1238 1438 1170 1325 
Q 1103 1213 1103 1025 
Q 1103 784 1214 667 
Q 1325 550 1509 550 
Q 1716 550 1886 662 
Q 2056 775 2153 973 
Q 2250 1172 2250 1394 
L 2250 1566 
z
" transform="scale(0.015625)"/>
      <path id="LiberationSans-Bold-6c" d="M 447 0 
L 447 4638 
L 1325 4638 
L 1325 0 
L 447 0 
z
" transform="scale(0.015625)"/>
     </defs>
     <use xlink:href="#LiberationSans-Bold-44"/>
     <use xlink:href="#LiberationSans-Bold-69" x="72.216797"/>
     <use xlink:href="#LiberationSans-Bold-73" x="100"/>
     <use xlink:href="#LiberationSans-Bold-70" x="155.615234"/>
     <use xlink:href="#LiberationSans-Bold-65" x="216.699219"/>
     <use xlink:href="#LiberationSans-Bold-72" x="272.314453"/>
     <use xlink:href="#LiberationSans-Bold-73" x="311.230469"/>
     <use xlink:href="#LiberationSans-Bold-69" x="366.845703"/>
     <use xlink:href="#LiberationSans-Bold-f3" x="394.628906"/>
     <use xlink:href="#LiberationSans-Bold-6e" x="455.712891"/>
     <use xlink:href="#LiberationSans-Bold-20" x="516.796875"/>
     <use xlink:href="#LiberationSans-Bold-72" x="544.580078"/>
     <use xlink:href="#LiberationSans-Bold-69" x="583.496094"/>
     <use xlink:href="#LiberationSans-Bold-65" x="611.279297"/>
     <use xlink:href="#LiberationSans-Bold-73" x="666.894531"/>
     <use xlink:href="#LiberationSans-Bold-67" x="722.509766"/>
     <use xlink:href="#LiberationSans-Bold-6f" x="783.59375"/>
     <use xlink:href="#LiberationSans-Bold-2d" x="844.677734"/>
     <use xlink:href="#LiberationSans-Bold-72" x="877.978516"/>
     <use xlink:href="#LiberationSans-Bold-65" x="916.894531"/>
     <use xlink:href="#LiberationSans-Bold-74" x="972.509766"/>
     <use xlink:href="#LiberationSans-Bold-6f" x="1005.810547"/>
     <use xlink:href="#LiberationSans-Bold-72" x="1066.894531"/>
     <use xlink:href="#LiberationSans-Bold-6e" x="1105.810547"/>
     <use xlink:href="#LiberationSans-Bold-6f" x="1166.894531"/>
     <use xlink:href="#LiberationSans-Bold-20" x="1227.978516"/>
     <use xlink:href="#LiberationSans-Bold-64" x="1255.761719"/>
     <use xlink:href="#LiberationSans-Bold-65" x="1316.845703"/>
     <use xlink:href="#LiberationSans-Bold-20" x="1372.460938"/>
     <use xlink:href="#LiberationSans-Bold-73" x="1400.244141"/>
     <use xlink:href="#LiberationSans-Bold-65" x="1455.859375"/>
     <use xlink:href="#LiberationSans-Bold-f1" x="1511.474609"/>
     <use xlink:href="#LiberationSans-Bold-61" x="1572.558594"/>
     <use xlink:href="#LiberationSans-Bold-6c" x="1628.173828"/>
     <use xlink:href="#LiberationSans-Bold-65" x="1655.957031"/>
     <use xlink:href="#LiberationSans-Bold-73" x="1711.572266"/>
    </g>
   </g>
   <g id="legend_1">
    <g id="PathCollection_7">
     <g>
      <use xlink:href="#m703fe175f7" x="237.954426" y="375.468275" style="fill: #1f77b4; fill-opacity: 0.72; stroke: #1f77b4; stroke-opacity: 0.72"/>
     </g>
    </g>
    <g id="text_18">
     <!-- Top3Ensamble -->
     <g style="fill: #262626" transform="translate(255.954426 378.093275) scale(0.1 -0.1)">
      <defs>
       <path id="LiberationSans-54" d="M 2250 3916 
L 2250 0 
L 1656 0 
L 1656 3916 
L 144 3916 
L 144 4403 
L 3763 4403 
L 3763 3916 
L 2250 3916 
z
" transform="scale(0.015625)"/>
       <path id="LiberationSans-6d" d="M 2400 0 
L 2400 2144 
Q 2400 2634 2265 2821 
Q 2131 3009 1781 3009 
Q 1422 3009 1212 2734 
Q 1003 2459 1003 1959 
L 1003 0 
L 444 0 
L 444 2659 
Q 444 3250 425 3381 
L 956 3381 
Q 959 3366 962 3297 
Q 966 3228 970 3139 
Q 975 3050 981 2803 
L 991 2803 
Q 1172 3163 1406 3303 
Q 1641 3444 1978 3444 
Q 2363 3444 2586 3291 
Q 2809 3138 2897 2803 
L 2906 2803 
Q 3081 3144 3329 3294 
Q 3578 3444 3931 3444 
Q 4444 3444 4676 3166 
Q 4909 2888 4909 2253 
L 4909 0 
L 4353 0 
L 4353 2144 
Q 4353 2634 4218 2821 
Q 4084 3009 3734 3009 
Q 3366 3009 3161 2736 
Q 2956 2463 2956 1959 
L 2956 0 
L 2400 0 
z
" transform="scale(0.015625)"/>
       <path id="LiberationSans-62" d="M 3291 1706 
Q 3291 -63 2047 -63 
Q 1663 -63 1408 76 
Q 1153 216 994 525 
L 988 525 
Q 988 428 975 229 
Q 963 31 956 0 
L 413 0 
Q 431 169 431 697 
L 431 4638 
L 994 4638 
L 994 3316 
Q 994 3113 981 2838 
L 994 2838 
Q 1150 3163 1408 3303 
Q 1666 3444 2047 3444 
Q 2688 3444 2989 3012 
Q 3291 2581 3291 1706 
z
M 2700 1688 
Q 2700 2397 2512 2703 
Q 2325 3009 1903 3009 
Q 1428 3009 1211 2684 
Q 994 2359 994 1653 
Q 994 988 1206 670 
Q 1419 353 1897 353 
Q 2322 353 2511 667 
Q 2700 981 2700 1688 
z
" transform="scale(0.015625)"/>
      </defs>
      <use xlink:href="#LiberationSans-54"/>
      <use xlink:href="#LiberationSans-6f" x="49.958984"/>
      <use xlink:href="#LiberationSans-70" x="105.574219"/>
      <use xlink:href="#LiberationSans-33" x="161.189453"/>
      <use xlink:href="#LiberationSans-45" x="216.804688"/>
      <use xlink:href="#LiberationSans-6e" x="283.503906"/>
      <use xlink:href="#LiberationSans-73" x="339.119141"/>
      <use xlink:href="#LiberationSans-61" x="389.119141"/>
      <use xlink:href="#LiberationSans-6d" x="444.734375"/>
      <use xlink:href="#LiberationSans-62" x="528.035156"/>
      <use xlink:href="#LiberationSans-6c" x="583.650391"/>
      <use xlink:href="#LiberationSans-65" x="605.867188"/>
     </g>
    </g>
    <g id="PathCollection_8">
     <g>
      <use xlink:href="#m4c4f750b4d" x="237.954426" y="389.79015" style="fill: #ff7f0e; fill-opacity: 0.72; stroke: #ff7f0e; stroke-opacity: 0.72"/>
     </g>
    </g>
    <g id="text_19">
     <!-- arima -->
     <g style="fill: #262626" transform="translate(255.954426 392.41515) scale(0.1 -0.1)">
      <use xlink:href="#LiberationSans-61"/>
      <use xlink:href="#LiberationSans-72" x="55.615234"/>
      <use xlink:href="#LiberationSans-69" x="88.916016"/>
      <use xlink:href="#LiberationSans-6d" x="111.132812"/>
      <use xlink:href="#LiberationSans-61" x="194.433594"/>
     </g>
    </g>
    <g id="PathCollection_9">
     <g>
      <use xlink:href="#m44bcb3afe8" x="352.098176" y="375.468275" style="fill: #2ca02c; fill-opacity: 0.72; stroke: #2ca02c; stroke-opacity: 0.72"/>
     </g>
    </g>
    <g id="text_20">
     <!-- lgbm -->
     <g style="fill: #262626" transform="translate(370.098176 378.093275) scale(0.1 -0.1)">
      <defs>
       <path id="LiberationSans-67" d="M 1713 -1328 
Q 1159 -1328 831 -1111 
Q 503 -894 409 -494 
L 975 -413 
Q 1031 -647 1223 -773 
Q 1416 -900 1728 -900 
Q 2569 -900 2569 84 
L 2569 628 
L 2563 628 
Q 2403 303 2125 139 
Q 1847 -25 1475 -25 
Q 853 -25 561 387 
Q 269 800 269 1684 
Q 269 2581 583 3007 
Q 897 3434 1538 3434 
Q 1897 3434 2161 3270 
Q 2425 3106 2569 2803 
L 2575 2803 
Q 2575 2897 2587 3128 
Q 2600 3359 2613 3381 
L 3147 3381 
Q 3128 3213 3128 2681 
L 3128 97 
Q 3128 -1328 1713 -1328 
z
M 2569 1691 
Q 2569 2103 2456 2401 
Q 2344 2700 2139 2858 
Q 1934 3016 1675 3016 
Q 1244 3016 1047 2703 
Q 850 2391 850 1691 
Q 850 997 1034 694 
Q 1219 391 1666 391 
Q 1931 391 2137 547 
Q 2344 703 2456 995 
Q 2569 1288 2569 1691 
z
" transform="scale(0.015625)"/>
      </defs>
      <use xlink:href="#LiberationSans-6c"/>
      <use xlink:href="#LiberationSans-67" x="22.216797"/>
      <use xlink:href="#LiberationSans-62" x="77.832031"/>
      <use xlink:href="#LiberationSans-6d" x="133.447266"/>
     </g>
    </g>
    <g id="PathCollection_10">
     <g>
      <use xlink:href="#m1e6d5aecdc" x="352.098176" y="389.79015" style="fill: #d62728; fill-opacity: 0.72; stroke: #d62728; stroke-opacity: 0.72"/>
     </g>
    </g>
    <g id="text_21">
     <!-- linreg -->
     <g style="fill: #262626" transform="translate(370.098176 392.41515) scale(0.1 -0.1)">
      <use xlink:href="#LiberationSans-6c"/>
      <use xlink:href="#LiberationSans-69" x="22.216797"/>
      <use xlink:href="#LiberationSans-6e" x="44.433594"/>
      <use xlink:href="#LiberationSans-72" x="100.048828"/>
      <use xlink:href="#LiberationSans-65" x="133.349609"/>
      <use xlink:href="#LiberationSans-67" x="188.964844"/>
     </g>
    </g>
    <g id="PathCollection_11">
     <g>
      <use xlink:href="#m3b732b91b1" x="424.554426" y="375.468275" style="fill: #9467bd; fill-opacity: 0.72; stroke: #9467bd; stroke-opacity: 0.72"/>
     </g>
    </g>
    <g id="text_22">
     <!-- rf -->
     <g style="fill: #262626" transform="translate(442.554426 378.093275) scale(0.1 -0.1)">
      <defs>
       <path id="LiberationSans-66" d="M 1128 2972 
L 1128 0 
L 566 0 
L 566 2972 
L 91 2972 
L 91 3381 
L 566 3381 
L 566 3763 
Q 566 4225 769 4428 
Q 972 4631 1391 4631 
Q 1625 4631 1788 4594 
L 1788 4166 
Q 1647 4191 1538 4191 
Q 1322 4191 1225 4081 
Q 1128 3972 1128 3684 
L 1128 3381 
L 1788 3381 
L 1788 2972 
L 1128 2972 
z
" transform="scale(0.015625)"/>
      </defs>
      <use xlink:href="#LiberationSans-72"/>
      <use xlink:href="#LiberationSans-66" x="33.300781"/>
     </g>
    </g>
    <g id="PathCollection_12">
     <g>
      <use xlink:href="#m597e10fba2" x="478.662238" y="375.468275" style="fill: #8c564b; fill-opacity: 0.72; stroke: #8c564b; stroke-opacity: 0.72"/>
     </g>
    </g>
    <g id="text_23">
     <!-- xgb -->
     <g style="fill: #262626" transform="translate(496.662238 378.093275) scale(0.1 -0.1)">
      <defs>
       <path id="LiberationSans-78" d="M 2503 0 
L 1594 1388 
L 678 0 
L 72 0 
L 1275 1738 
L 128 3381 
L 750 3381 
L 1594 2066 
L 2431 3381 
L 3059 3381 
L 1913 1744 
L 3131 0 
L 2503 0 
z
" transform="scale(0.015625)"/>
      </defs>
      <use xlink:href="#LiberationSans-78"/>
      <use xlink:href="#LiberationSans-67" x="50"/>
      <use xlink:href="#LiberationSans-62" x="105.615234"/>
     </g>
    </g>
   </g>
  </g>
 </g>
 <defs>
  <clipPath id="pfb5361f11a">
   <rect x="43.25" y="34.64" width="654.238539" height="272.672"/>
  </clipPath>
 </defs>
</svg>
