<?xml version="1.0" encoding="utf-8" standalone="no"?>
<!DOCTYPE svg PUBLIC "-//W3C//DTD SVG 1.1//EN"
  "http://www.w3.org/Graphics/SVG/1.1/DTD/svg11.dtd">
<svg xmlns:xlink="http://www.w3.org/1999/xlink" width="576pt" height="360pt" viewBox="0 0 576 360" xmlns="http://www.w3.org/2000/svg" version="1.1">
 <metadata>
  <rdf:RDF xmlns:dc="http://purl.org/dc/elements/1.1/" xmlns:cc="http://creativecommons.org/ns#" xmlns:rdf="http://www.w3.org/1999/02/22-rdf-syntax-ns#">
   <cc:Work>
    <dc:type rdf:resource="http://purl.org/dc/dcmitype/StillImage"/>
    <dc:date>2025-07-22T04:03:56.760043</dc:date>
    <dc:format>image/svg+xml</dc:format>
    <dc:creator>
     <cc:Agent>
      <dc:title>Matplotlib v3.10.3, https://matplotlib.org/</dc:title>
     </cc:Agent>
    </dc:creator>
   </cc:Work>
  </rdf:RDF>
 </metadata>
 <defs>
  <style type="text/css">*{stroke-linejoin: round; stroke-linecap: butt}</style>
 </defs>
 <g id="figure_1">
  <g id="patch_1">
   <path d="M 0 360 
L 576 360 
L 576 0 
L 0 0 
z
" style="fill: #ffffff"/>
  </g>
  <g id="axes_1">
   <g id="patch_2">
    <path d="M 80.42 312.34 
L 556 312.34 
L 556 34.64 
L 80.42 34.64 
z
" style="fill: #ffffff"/>
   </g>
   <g id="matplotlib.axis_1">
    <g id="xtick_1">
     <g id="line2d_1">
      <path d="M 80.42 312.34 
L 80.42 34.64 
" clip-path="url(#pa73b52960a)" style="fill: none; stroke-dasharray: 2.96,1.28; stroke-dashoffset: 0; stroke: #cccccc; stroke-opacity: 0.6; stroke-width: 0.8"/>
     </g>
     <g id="line2d_2"/>
     <g id="text_1">
      <!-- 0.0 -->
      <g style="fill: #262626" transform="translate(73.47 323.086875) scale(0.1 -0.1)">
       <defs>
        <path id="LiberationSans-30" d="M 3309 2203 
Q 3309 1100 2920 518 
Q 2531 -63 1772 -63 
Q 1013 -63 631 515 
Q 250 1094 250 2203 
Q 250 3338 620 3903 
Q 991 4469 1791 4469 
Q 2569 4469 2939 3897 
Q 3309 3325 3309 2203 
z
M 2738 2203 
Q 2738 3156 2517 3584 
Q 2297 4013 1791 4013 
Q 1272 4013 1045 3591 
Q 819 3169 819 2203 
Q 819 1266 1048 831 
Q 1278 397 1778 397 
Q 2275 397 2506 840 
Q 2738 1284 2738 2203 
z
" transform="scale(0.015625)"/>
        <path id="LiberationSans-2e" d="M 584 0 
L 584 684 
L 1194 684 
L 1194 0 
L 584 0 
z
" transform="scale(0.015625)"/>
       </defs>
       <use xlink:href="#LiberationSans-30"/>
       <use xlink:href="#LiberationSans-2e" transform="translate(55.615234 0)"/>
       <use xlink:href="#LiberationSans-30" transform="translate(83.398438 0)"/>
      </g>
     </g>
    </g>
    <g id="xtick_2">
     <g id="line2d_3">
      <path d="M 143.613866 312.34 
L 143.613866 34.64 
" clip-path="url(#pa73b52960a)" style="fill: none; stroke-dasharray: 2.96,1.28; stroke-dashoffset: 0; stroke: #cccccc; stroke-opacity: 0.6; stroke-width: 0.8"/>
     </g>
     <g id="line2d_4"/>
     <g id="text_2">
      <!-- 0.1 -->
      <g style="fill: #262626" transform="translate(136.663866 323.086875) scale(0.1 -0.1)">
       <defs>
        <path id="LiberationSans-31" d="M 488 0 
L 488 478 
L 1609 478 
L 1609 3866 
L 616 3156 
L 616 3688 
L 1656 4403 
L 2175 4403 
L 2175 478 
L 3247 478 
L 3247 0 
L 488 0 
z
" transform="scale(0.015625)"/>
       </defs>
       <use xlink:href="#LiberationSans-30"/>
       <use xlink:href="#LiberationSans-2e" transform="translate(55.615234 0)"/>
       <use xlink:href="#LiberationSans-31" transform="translate(83.398438 0)"/>
      </g>
     </g>
    </g>
    <g id="xtick_3">
     <g id="line2d_5">
      <path d="M 206.807731 312.34 
L 206.807731 34.64 
" clip-path="url(#pa73b52960a)" style="fill: none; stroke-dasharray: 2.96,1.28; stroke-dashoffset: 0; stroke: #cccccc; stroke-opacity: 0.6; stroke-width: 0.8"/>
     </g>
     <g id="line2d_6"/>
     <g id="text_3">
      <!-- 0.2 -->
      <g style="fill: #262626" transform="translate(199.857731 323.086875) scale(0.1 -0.1)">
       <defs>
        <path id="LiberationSans-32" d="M 322 0 
L 322 397 
Q 481 763 711 1042 
Q 941 1322 1194 1548 
Q 1447 1775 1695 1969 
Q 1944 2163 2144 2356 
Q 2344 2550 2467 2762 
Q 2591 2975 2591 3244 
Q 2591 3606 2378 3806 
Q 2166 4006 1788 4006 
Q 1428 4006 1195 3811 
Q 963 3616 922 3263 
L 347 3316 
Q 409 3844 795 4156 
Q 1181 4469 1788 4469 
Q 2453 4469 2811 4155 
Q 3169 3841 3169 3263 
Q 3169 3006 3051 2753 
Q 2934 2500 2703 2247 
Q 2472 1994 1819 1463 
Q 1459 1169 1246 933 
Q 1034 697 941 478 
L 3238 478 
L 3238 0 
L 322 0 
z
" transform="scale(0.015625)"/>
       </defs>
       <use xlink:href="#LiberationSans-30"/>
       <use xlink:href="#LiberationSans-2e" transform="translate(55.615234 0)"/>
       <use xlink:href="#LiberationSans-32" transform="translate(83.398438 0)"/>
      </g>
     </g>
    </g>
    <g id="xtick_4">
     <g id="line2d_7">
      <path d="M 270.001597 312.34 
L 270.001597 34.64 
" clip-path="url(#pa73b52960a)" style="fill: none; stroke-dasharray: 2.96,1.28; stroke-dashoffset: 0; stroke: #cccccc; stroke-opacity: 0.6; stroke-width: 0.8"/>
     </g>
     <g id="line2d_8"/>
     <g id="text_4">
      <!-- 0.3 -->
      <g style="fill: #262626" transform="translate(263.051597 323.086875) scale(0.1 -0.1)">
       <defs>
        <path id="LiberationSans-33" d="M 3278 1216 
Q 3278 606 2890 271 
Q 2503 -63 1784 -63 
Q 1116 -63 717 239 
Q 319 541 244 1131 
L 825 1184 
Q 938 403 1784 403 
Q 2209 403 2451 612 
Q 2694 822 2694 1234 
Q 2694 1594 2417 1795 
Q 2141 1997 1619 1997 
L 1300 1997 
L 1300 2484 
L 1606 2484 
Q 2069 2484 2323 2686 
Q 2578 2888 2578 3244 
Q 2578 3597 2370 3801 
Q 2163 4006 1753 4006 
Q 1381 4006 1151 3815 
Q 922 3625 884 3278 
L 319 3322 
Q 381 3863 767 4166 
Q 1153 4469 1759 4469 
Q 2422 4469 2789 4161 
Q 3156 3853 3156 3303 
Q 3156 2881 2920 2617 
Q 2684 2353 2234 2259 
L 2234 2247 
Q 2728 2194 3003 1916 
Q 3278 1638 3278 1216 
z
" transform="scale(0.015625)"/>
       </defs>
       <use xlink:href="#LiberationSans-30"/>
       <use xlink:href="#LiberationSans-2e" transform="translate(55.615234 0)"/>
       <use xlink:href="#LiberationSans-33" transform="translate(83.398438 0)"/>
      </g>
     </g>
    </g>
    <g id="xtick_5">
     <g id="line2d_9">
      <path d="M 333.195462 312.34 
L 333.195462 34.64 
" clip-path="url(#pa73b52960a)" style="fill: none; stroke-dasharray: 2.96,1.28; stroke-dashoffset: 0; stroke: #cccccc; stroke-opacity: 0.6; stroke-width: 0.8"/>
     </g>
     <g id="line2d_10"/>
     <g id="text_5">
      <!-- 0.4 -->
      <g style="fill: #262626" transform="translate(326.245462 323.086875) scale(0.1 -0.1)">
       <defs>
        <path id="LiberationSans-34" d="M 2753 997 
L 2753 0 
L 2222 0 
L 2222 997 
L 147 997 
L 147 1434 
L 2163 4403 
L 2753 4403 
L 2753 1441 
L 3372 1441 
L 3372 997 
L 2753 997 
z
M 2222 3769 
Q 2216 3750 2134 3603 
Q 2053 3456 2013 3397 
L 884 1734 
L 716 1503 
L 666 1441 
L 2222 1441 
L 2222 3769 
z
" transform="scale(0.015625)"/>
       </defs>
       <use xlink:href="#LiberationSans-30"/>
       <use xlink:href="#LiberationSans-2e" transform="translate(55.615234 0)"/>
       <use xlink:href="#LiberationSans-34" transform="translate(83.398438 0)"/>
      </g>
     </g>
    </g>
    <g id="xtick_6">
     <g id="line2d_11">
      <path d="M 396.389328 312.34 
L 396.389328 34.64 
" clip-path="url(#pa73b52960a)" style="fill: none; stroke-dasharray: 2.96,1.28; stroke-dashoffset: 0; stroke: #cccccc; stroke-opacity: 0.6; stroke-width: 0.8"/>
     </g>
     <g id="line2d_12"/>
     <g id="text_6">
      <!-- 0.5 -->
      <g style="fill: #262626" transform="translate(389.439328 323.086875) scale(0.1 -0.1)">
       <defs>
        <path id="LiberationSans-35" d="M 3291 1434 
Q 3291 738 2877 337 
Q 2463 -63 1728 -63 
Q 1113 -63 734 206 
Q 356 475 256 984 
L 825 1050 
Q 1003 397 1741 397 
Q 2194 397 2450 670 
Q 2706 944 2706 1422 
Q 2706 1838 2448 2094 
Q 2191 2350 1753 2350 
Q 1525 2350 1328 2278 
Q 1131 2206 934 2034 
L 384 2034 
L 531 4403 
L 3034 4403 
L 3034 3925 
L 1044 3925 
L 959 2528 
Q 1325 2809 1869 2809 
Q 2519 2809 2905 2428 
Q 3291 2047 3291 1434 
z
" transform="scale(0.015625)"/>
       </defs>
       <use xlink:href="#LiberationSans-30"/>
       <use xlink:href="#LiberationSans-2e" transform="translate(55.615234 0)"/>
       <use xlink:href="#LiberationSans-35" transform="translate(83.398438 0)"/>
      </g>
     </g>
    </g>
    <g id="xtick_7">
     <g id="line2d_13">
      <path d="M 459.583194 312.34 
L 459.583194 34.64 
" clip-path="url(#pa73b52960a)" style="fill: none; stroke-dasharray: 2.96,1.28; stroke-dashoffset: 0; stroke: #cccccc; stroke-opacity: 0.6; stroke-width: 0.8"/>
     </g>
     <g id="line2d_14"/>
     <g id="text_7">
      <!-- 0.6 -->
      <g style="fill: #262626" transform="translate(452.633194 323.086875) scale(0.1 -0.1)">
       <defs>
        <path id="LiberationSans-36" d="M 3278 1441 
Q 3278 744 2900 340 
Q 2522 -63 1856 -63 
Q 1113 -63 719 490 
Q 325 1044 325 2100 
Q 325 3244 734 3856 
Q 1144 4469 1900 4469 
Q 2897 4469 3156 3572 
L 2619 3475 
Q 2453 4013 1894 4013 
Q 1413 4013 1148 3564 
Q 884 3116 884 2266 
Q 1038 2550 1316 2698 
Q 1594 2847 1953 2847 
Q 2563 2847 2920 2465 
Q 3278 2084 3278 1441 
z
M 2706 1416 
Q 2706 1894 2472 2153 
Q 2238 2413 1819 2413 
Q 1425 2413 1183 2183 
Q 941 1953 941 1550 
Q 941 1041 1192 716 
Q 1444 391 1838 391 
Q 2244 391 2475 664 
Q 2706 938 2706 1416 
z
" transform="scale(0.015625)"/>
       </defs>
       <use xlink:href="#LiberationSans-30"/>
       <use xlink:href="#LiberationSans-2e" transform="translate(55.615234 0)"/>
       <use xlink:href="#LiberationSans-36" transform="translate(83.398438 0)"/>
      </g>
     </g>
    </g>
    <g id="xtick_8">
     <g id="line2d_15">
      <path d="M 522.777059 312.34 
L 522.777059 34.64 
" clip-path="url(#pa73b52960a)" style="fill: none; stroke-dasharray: 2.96,1.28; stroke-dashoffset: 0; stroke: #cccccc; stroke-opacity: 0.6; stroke-width: 0.8"/>
     </g>
     <g id="line2d_16"/>
     <g id="text_8">
      <!-- 0.7 -->
      <g style="fill: #262626" transform="translate(515.827059 323.086875) scale(0.1 -0.1)">
       <defs>
        <path id="LiberationSans-37" d="M 3238 3947 
Q 2563 2916 2284 2331 
Q 2006 1747 1867 1178 
Q 1728 609 1728 0 
L 1141 0 
Q 1141 844 1498 1776 
Q 1856 2709 2694 3925 
L 328 3925 
L 328 4403 
L 3238 4403 
L 3238 3947 
z
" transform="scale(0.015625)"/>
       </defs>
       <use xlink:href="#LiberationSans-30"/>
       <use xlink:href="#LiberationSans-2e" transform="translate(55.615234 0)"/>
       <use xlink:href="#LiberationSans-37" transform="translate(83.398438 0)"/>
      </g>
     </g>
    </g>
    <g id="text_9">
     <!-- Importancia -->
     <g style="fill: #262626" transform="translate(292.088906 336.40875) scale(0.1 -0.1)">
      <defs>
       <path id="LiberationSans-49" d="M 591 0 
L 591 4403 
L 1188 4403 
L 1188 0 
L 591 0 
z
" transform="scale(0.015625)"/>
       <path id="LiberationSans-6d" d="M 2400 0 
L 2400 2144 
Q 2400 2634 2265 2821 
Q 2131 3009 1781 3009 
Q 1422 3009 1212 2734 
Q 1003 2459 1003 1959 
L 1003 0 
L 444 0 
L 444 2659 
Q 444 3250 425 3381 
L 956 3381 
Q 959 3366 962 3297 
Q 966 3228 970 3139 
Q 975 3050 981 2803 
L 991 2803 
Q 1172 3163 1406 3303 
Q 1641 3444 1978 3444 
Q 2363 3444 2586 3291 
Q 2809 3138 2897 2803 
L 2906 2803 
Q 3081 3144 3329 3294 
Q 3578 3444 3931 3444 
Q 4444 3444 4676 3166 
Q 4909 2888 4909 2253 
L 4909 0 
L 4353 0 
L 4353 2144 
Q 4353 2634 4218 2821 
Q 4084 3009 3734 3009 
Q 3366 3009 3161 2736 
Q 2956 2463 2956 1959 
L 2956 0 
L 2400 0 
z
" transform="scale(0.015625)"/>
       <path id="LiberationSans-70" d="M 3291 1706 
Q 3291 -63 2047 -63 
Q 1266 -63 997 525 
L 981 525 
Q 994 500 994 -6 
L 994 -1328 
L 431 -1328 
L 431 2691 
Q 431 3213 413 3381 
L 956 3381 
Q 959 3369 965 3292 
Q 972 3216 980 3056 
Q 988 2897 988 2838 
L 1000 2838 
Q 1150 3150 1397 3295 
Q 1644 3441 2047 3441 
Q 2672 3441 2981 3022 
Q 3291 2603 3291 1706 
z
M 2700 1694 
Q 2700 2400 2509 2703 
Q 2319 3006 1903 3006 
Q 1569 3006 1380 2865 
Q 1191 2725 1092 2426 
Q 994 2128 994 1650 
Q 994 984 1206 668 
Q 1419 353 1897 353 
Q 2316 353 2508 661 
Q 2700 969 2700 1694 
z
" transform="scale(0.015625)"/>
       <path id="LiberationSans-6f" d="M 3291 1694 
Q 3291 806 2900 371 
Q 2509 -63 1766 -63 
Q 1025 -63 647 389 
Q 269 841 269 1694 
Q 269 3444 1784 3444 
Q 2559 3444 2925 3017 
Q 3291 2591 3291 1694 
z
M 2700 1694 
Q 2700 2394 2492 2711 
Q 2284 3028 1794 3028 
Q 1300 3028 1079 2704 
Q 859 2381 859 1694 
Q 859 1025 1076 689 
Q 1294 353 1759 353 
Q 2266 353 2483 678 
Q 2700 1003 2700 1694 
z
" transform="scale(0.015625)"/>
       <path id="LiberationSans-72" d="M 444 0 
L 444 2594 
Q 444 2950 425 3381 
L 956 3381 
Q 981 2806 981 2691 
L 994 2691 
Q 1128 3125 1303 3284 
Q 1478 3444 1797 3444 
Q 1909 3444 2025 3413 
L 2025 2897 
Q 1913 2928 1725 2928 
Q 1375 2928 1190 2626 
Q 1006 2325 1006 1763 
L 1006 0 
L 444 0 
z
" transform="scale(0.015625)"/>
       <path id="LiberationSans-74" d="M 1731 25 
Q 1453 -50 1163 -50 
Q 488 -50 488 716 
L 488 2972 
L 97 2972 
L 97 3381 
L 509 3381 
L 675 4138 
L 1050 4138 
L 1050 3381 
L 1675 3381 
L 1675 2972 
L 1050 2972 
L 1050 838 
Q 1050 594 1129 495 
Q 1209 397 1406 397 
Q 1519 397 1731 441 
L 1731 25 
z
" transform="scale(0.015625)"/>
       <path id="LiberationSans-61" d="M 1294 -63 
Q 784 -63 528 206 
Q 272 475 272 944 
Q 272 1469 617 1750 
Q 963 2031 1731 2050 
L 2491 2063 
L 2491 2247 
Q 2491 2659 2316 2837 
Q 2141 3016 1766 3016 
Q 1388 3016 1216 2887 
Q 1044 2759 1009 2478 
L 422 2531 
Q 566 3444 1778 3444 
Q 2416 3444 2737 3151 
Q 3059 2859 3059 2306 
L 3059 850 
Q 3059 600 3125 473 
Q 3191 347 3375 347 
Q 3456 347 3559 369 
L 3559 19 
Q 3347 -31 3125 -31 
Q 2813 -31 2670 133 
Q 2528 297 2509 647 
L 2491 647 
Q 2275 259 1989 98 
Q 1703 -63 1294 -63 
z
M 1422 359 
Q 1731 359 1972 500 
Q 2213 641 2352 886 
Q 2491 1131 2491 1391 
L 2491 1669 
L 1875 1656 
Q 1478 1650 1273 1575 
Q 1069 1500 959 1344 
Q 850 1188 850 934 
Q 850 659 998 509 
Q 1147 359 1422 359 
z
" transform="scale(0.015625)"/>
       <path id="LiberationSans-6e" d="M 2578 0 
L 2578 2144 
Q 2578 2478 2512 2662 
Q 2447 2847 2303 2928 
Q 2159 3009 1881 3009 
Q 1475 3009 1240 2731 
Q 1006 2453 1006 1959 
L 1006 0 
L 444 0 
L 444 2659 
Q 444 3250 425 3381 
L 956 3381 
Q 959 3366 962 3297 
Q 966 3228 970 3139 
Q 975 3050 981 2803 
L 991 2803 
Q 1184 3153 1439 3298 
Q 1694 3444 2072 3444 
Q 2628 3444 2886 3167 
Q 3144 2891 3144 2253 
L 3144 0 
L 2578 0 
z
" transform="scale(0.015625)"/>
       <path id="LiberationSans-63" d="M 859 1706 
Q 859 1031 1071 706 
Q 1284 381 1713 381 
Q 2013 381 2214 543 
Q 2416 706 2463 1044 
L 3031 1006 
Q 2966 519 2616 228 
Q 2266 -63 1728 -63 
Q 1019 -63 645 385 
Q 272 834 272 1694 
Q 272 2547 647 2995 
Q 1022 3444 1722 3444 
Q 2241 3444 2583 3175 
Q 2925 2906 3013 2434 
L 2434 2391 
Q 2391 2672 2212 2837 
Q 2034 3003 1706 3003 
Q 1259 3003 1059 2706 
Q 859 2409 859 1706 
z
" transform="scale(0.015625)"/>
       <path id="LiberationSans-69" d="M 428 4100 
L 428 4638 
L 991 4638 
L 991 4100 
L 428 4100 
z
M 428 0 
L 428 3381 
L 991 3381 
L 991 0 
L 428 0 
z
" transform="scale(0.015625)"/>
      </defs>
      <use xlink:href="#LiberationSans-49"/>
      <use xlink:href="#LiberationSans-6d" transform="translate(27.783203 0)"/>
      <use xlink:href="#LiberationSans-70" transform="translate(111.083984 0)"/>
      <use xlink:href="#LiberationSans-6f" transform="translate(166.699219 0)"/>
      <use xlink:href="#LiberationSans-72" transform="translate(222.314453 0)"/>
      <use xlink:href="#LiberationSans-74" transform="translate(255.615234 0)"/>
      <use xlink:href="#LiberationSans-61" transform="translate(283.398438 0)"/>
      <use xlink:href="#LiberationSans-6e" transform="translate(339.013672 0)"/>
      <use xlink:href="#LiberationSans-63" transform="translate(394.628906 0)"/>
      <use xlink:href="#LiberationSans-69" transform="translate(444.628906 0)"/>
      <use xlink:href="#LiberationSans-61" transform="translate(466.845703 0)"/>
     </g>
    </g>
   </g>
   <g id="matplotlib.axis_2">
    <g id="ytick_1">
     <g id="line2d_17">
      <path d="M 80.42 48.525 
L 556 48.525 
" clip-path="url(#pa73b52960a)" style="fill: none; stroke: #cccccc; stroke-width: 0.8; stroke-linecap: round"/>
     </g>
     <g id="line2d_18"/>
     <g id="text_10">
      <!-- q25_20 -->
      <g style="fill: #262626" transform="translate(43.554375 52.148438) scale(0.1 -0.1)">
       <defs>
        <path id="LiberationSans-71" d="M 1513 -63 
Q 869 -63 569 371 
Q 269 806 269 1675 
Q 269 3444 1513 3444 
Q 1897 3444 2147 3308 
Q 2397 3172 2566 2856 
L 2572 2856 
Q 2572 2950 2584 3179 
Q 2597 3409 2609 3425 
L 3150 3425 
Q 3128 3241 3128 2503 
L 3128 -1328 
L 2566 -1328 
L 2566 44 
L 2578 556 
L 2572 556 
Q 2403 222 2156 79 
Q 1909 -63 1513 -63 
z
M 2566 1731 
Q 2566 2391 2350 2709 
Q 2134 3028 1663 3028 
Q 1234 3028 1046 2709 
Q 859 2391 859 1694 
Q 859 984 1048 678 
Q 1238 372 1656 372 
Q 2134 372 2350 712 
Q 2566 1053 2566 1731 
z
" transform="scale(0.015625)"/>
        <path id="LiberationSans-5f" d="M -97 -1272 
L -97 -866 
L 3631 -866 
L 3631 -1272 
L -97 -1272 
z
" transform="scale(0.015625)"/>
       </defs>
       <use xlink:href="#LiberationSans-71"/>
       <use xlink:href="#LiberationSans-32" transform="translate(55.615234 0)"/>
       <use xlink:href="#LiberationSans-35" transform="translate(111.230469 0)"/>
       <use xlink:href="#LiberationSans-5f" transform="translate(166.845703 0)"/>
       <use xlink:href="#LiberationSans-32" transform="translate(222.460938 0)"/>
       <use xlink:href="#LiberationSans-30" transform="translate(278.076172 0)"/>
      </g>
     </g>
    </g>
    <g id="ytick_2">
     <g id="line2d_19">
      <path d="M 80.42 76.295 
L 556 76.295 
" clip-path="url(#pa73b52960a)" style="fill: none; stroke: #cccccc; stroke-width: 0.8; stroke-linecap: round"/>
     </g>
     <g id="line2d_20"/>
     <g id="text_11">
      <!-- ma_50 -->
      <g style="fill: #262626" transform="translate(46.346563 79.918437) scale(0.1 -0.1)">
       <use xlink:href="#LiberationSans-6d"/>
       <use xlink:href="#LiberationSans-61" transform="translate(83.300781 0)"/>
       <use xlink:href="#LiberationSans-5f" transform="translate(138.916016 0)"/>
       <use xlink:href="#LiberationSans-35" transform="translate(194.53125 0)"/>
       <use xlink:href="#LiberationSans-30" transform="translate(250.146484 0)"/>
      </g>
     </g>
    </g>
    <g id="ytick_3">
     <g id="line2d_21">
      <path d="M 80.42 104.065 
L 556 104.065 
" clip-path="url(#pa73b52960a)" style="fill: none; stroke: #cccccc; stroke-width: 0.8; stroke-linecap: round"/>
     </g>
     <g id="line2d_22"/>
     <g id="text_12">
      <!-- sma_50 -->
      <g style="fill: #262626" transform="translate(41.346562 107.688437) scale(0.1 -0.1)">
       <defs>
        <path id="LiberationSans-73" d="M 2969 934 
Q 2969 456 2608 196 
Q 2247 -63 1597 -63 
Q 966 -63 623 145 
Q 281 353 178 794 
L 675 891 
Q 747 619 972 492 
Q 1197 366 1597 366 
Q 2025 366 2223 497 
Q 2422 628 2422 891 
Q 2422 1091 2284 1216 
Q 2147 1341 1841 1422 
L 1438 1528 
Q 953 1653 748 1773 
Q 544 1894 428 2066 
Q 313 2238 313 2488 
Q 313 2950 642 3192 
Q 972 3434 1603 3434 
Q 2163 3434 2492 3237 
Q 2822 3041 2909 2606 
L 2403 2544 
Q 2356 2769 2151 2889 
Q 1947 3009 1603 3009 
Q 1222 3009 1040 2893 
Q 859 2778 859 2544 
Q 859 2400 934 2306 
Q 1009 2213 1156 2147 
Q 1303 2081 1775 1966 
Q 2222 1853 2419 1758 
Q 2616 1663 2730 1547 
Q 2844 1431 2906 1279 
Q 2969 1128 2969 934 
z
" transform="scale(0.015625)"/>
       </defs>
       <use xlink:href="#LiberationSans-73"/>
       <use xlink:href="#LiberationSans-6d" transform="translate(50 0)"/>
       <use xlink:href="#LiberationSans-61" transform="translate(133.300781 0)"/>
       <use xlink:href="#LiberationSans-5f" transform="translate(188.916016 0)"/>
       <use xlink:href="#LiberationSans-35" transform="translate(244.53125 0)"/>
       <use xlink:href="#LiberationSans-30" transform="translate(300.146484 0)"/>
      </g>
     </g>
    </g>
    <g id="ytick_4">
     <g id="line2d_23">
      <path d="M 80.42 131.835 
L 556 131.835 
" clip-path="url(#pa73b52960a)" style="fill: none; stroke: #cccccc; stroke-width: 0.8; stroke-linecap: round"/>
     </g>
     <g id="line2d_24"/>
     <g id="text_13">
      <!-- ma_10 -->
      <g style="fill: #262626" transform="translate(46.346563 135.458437) scale(0.1 -0.1)">
       <use xlink:href="#LiberationSans-6d"/>
       <use xlink:href="#LiberationSans-61" transform="translate(83.300781 0)"/>
       <use xlink:href="#LiberationSans-5f" transform="translate(138.916016 0)"/>
       <use xlink:href="#LiberationSans-31" transform="translate(194.53125 0)"/>
       <use xlink:href="#LiberationSans-30" transform="translate(250.146484 0)"/>
      </g>
     </g>
    </g>
    <g id="ytick_5">
     <g id="line2d_25">
      <path d="M 80.42 159.605 
L 556 159.605 
" clip-path="url(#pa73b52960a)" style="fill: none; stroke: #cccccc; stroke-width: 0.8; stroke-linecap: round"/>
     </g>
     <g id="line2d_26"/>
     <g id="text_14">
      <!-- ema_50 -->
      <g style="fill: #262626" transform="translate(40.785625 163.228438) scale(0.1 -0.1)">
       <defs>
        <path id="LiberationSans-65" d="M 863 1572 
Q 863 991 1103 675 
Q 1344 359 1806 359 
Q 2172 359 2392 506 
Q 2613 653 2691 878 
L 3184 738 
Q 2881 -63 1806 -63 
Q 1056 -63 664 384 
Q 272 831 272 1713 
Q 272 2550 664 2997 
Q 1056 3444 1784 3444 
Q 3275 3444 3275 1647 
L 3275 1572 
L 863 1572 
z
M 2694 2003 
Q 2647 2538 2422 2783 
Q 2197 3028 1775 3028 
Q 1366 3028 1127 2754 
Q 888 2481 869 2003 
L 2694 2003 
z
" transform="scale(0.015625)"/>
       </defs>
       <use xlink:href="#LiberationSans-65"/>
       <use xlink:href="#LiberationSans-6d" transform="translate(55.615234 0)"/>
       <use xlink:href="#LiberationSans-61" transform="translate(138.916016 0)"/>
       <use xlink:href="#LiberationSans-5f" transform="translate(194.53125 0)"/>
       <use xlink:href="#LiberationSans-35" transform="translate(250.146484 0)"/>
       <use xlink:href="#LiberationSans-30" transform="translate(305.761719 0)"/>
      </g>
     </g>
    </g>
    <g id="ytick_6">
     <g id="line2d_27">
      <path d="M 80.42 187.375 
L 556 187.375 
" clip-path="url(#pa73b52960a)" style="fill: none; stroke: #cccccc; stroke-width: 0.8; stroke-linecap: round"/>
     </g>
     <g id="line2d_28"/>
     <g id="text_15">
      <!-- q25_50 -->
      <g style="fill: #262626" transform="translate(43.554375 190.998437) scale(0.1 -0.1)">
       <use xlink:href="#LiberationSans-71"/>
       <use xlink:href="#LiberationSans-32" transform="translate(55.615234 0)"/>
       <use xlink:href="#LiberationSans-35" transform="translate(111.230469 0)"/>
       <use xlink:href="#LiberationSans-5f" transform="translate(166.845703 0)"/>
       <use xlink:href="#LiberationSans-35" transform="translate(222.460938 0)"/>
       <use xlink:href="#LiberationSans-30" transform="translate(278.076172 0)"/>
      </g>
     </g>
    </g>
    <g id="ytick_7">
     <g id="line2d_29">
      <path d="M 80.42 215.145 
L 556 215.145 
" clip-path="url(#pa73b52960a)" style="fill: none; stroke: #cccccc; stroke-width: 0.8; stroke-linecap: round"/>
     </g>
     <g id="line2d_30"/>
     <g id="text_16">
      <!-- max_5 -->
      <g style="fill: #262626" transform="translate(46.9075 218.768438) scale(0.1 -0.1)">
       <defs>
        <path id="LiberationSans-78" d="M 2503 0 
L 1594 1388 
L 678 0 
L 72 0 
L 1275 1738 
L 128 3381 
L 750 3381 
L 1594 2066 
L 2431 3381 
L 3059 3381 
L 1913 1744 
L 3131 0 
L 2503 0 
z
" transform="scale(0.015625)"/>
       </defs>
       <use xlink:href="#LiberationSans-6d"/>
       <use xlink:href="#LiberationSans-61" transform="translate(83.300781 0)"/>
       <use xlink:href="#LiberationSans-78" transform="translate(138.916016 0)"/>
       <use xlink:href="#LiberationSans-5f" transform="translate(188.916016 0)"/>
       <use xlink:href="#LiberationSans-35" transform="translate(244.53125 0)"/>
      </g>
     </g>
    </g>
    <g id="ytick_8">
     <g id="line2d_31">
      <path d="M 80.42 242.915 
L 556 242.915 
" clip-path="url(#pa73b52960a)" style="fill: none; stroke: #cccccc; stroke-width: 0.8; stroke-linecap: round"/>
     </g>
     <g id="line2d_32"/>
     <g id="text_17">
      <!-- q75_50 -->
      <g style="fill: #262626" transform="translate(43.554375 246.538438) scale(0.1 -0.1)">
       <use xlink:href="#LiberationSans-71"/>
       <use xlink:href="#LiberationSans-37" transform="translate(55.615234 0)"/>
       <use xlink:href="#LiberationSans-35" transform="translate(111.230469 0)"/>
       <use xlink:href="#LiberationSans-5f" transform="translate(166.845703 0)"/>
       <use xlink:href="#LiberationSans-35" transform="translate(222.460938 0)"/>
       <use xlink:href="#LiberationSans-30" transform="translate(278.076172 0)"/>
      </g>
     </g>
    </g>
    <g id="ytick_9">
     <g id="line2d_33">
      <path d="M 80.42 270.685 
L 556 270.685 
" clip-path="url(#pa73b52960a)" style="fill: none; stroke: #cccccc; stroke-width: 0.8; stroke-linecap: round"/>
     </g>
     <g id="line2d_34"/>
     <g id="text_18">
      <!-- Open -->
      <g style="fill: #262626" transform="translate(52.459063 274.308438) scale(0.1 -0.1)">
       <defs>
        <path id="LiberationSans-4f" d="M 4672 2222 
Q 4672 1531 4408 1012 
Q 4144 494 3650 215 
Q 3156 -63 2484 -63 
Q 1806 -63 1314 212 
Q 822 488 562 1008 
Q 303 1528 303 2222 
Q 303 3278 881 3873 
Q 1459 4469 2491 4469 
Q 3163 4469 3656 4201 
Q 4150 3934 4411 3425 
Q 4672 2916 4672 2222 
z
M 4063 2222 
Q 4063 3044 3652 3512 
Q 3241 3981 2491 3981 
Q 1734 3981 1321 3518 
Q 909 3056 909 2222 
Q 909 1394 1326 908 
Q 1744 422 2484 422 
Q 3247 422 3655 892 
Q 4063 1363 4063 2222 
z
" transform="scale(0.015625)"/>
       </defs>
       <use xlink:href="#LiberationSans-4f"/>
       <use xlink:href="#LiberationSans-70" transform="translate(77.783203 0)"/>
       <use xlink:href="#LiberationSans-65" transform="translate(133.398438 0)"/>
       <use xlink:href="#LiberationSans-6e" transform="translate(189.013672 0)"/>
      </g>
     </g>
    </g>
    <g id="ytick_10">
     <g id="line2d_35">
      <path d="M 80.42 298.455 
L 556 298.455 
" clip-path="url(#pa73b52960a)" style="fill: none; stroke: #cccccc; stroke-width: 0.8; stroke-linecap: round"/>
     </g>
     <g id="line2d_36"/>
     <g id="text_19">
      <!-- Adj Close -->
      <g style="fill: #262626" transform="translate(34.123125 302.078438) scale(0.1 -0.1)">
       <defs>
        <path id="LiberationSans-41" d="M 3647 0 
L 3144 1288 
L 1138 1288 
L 631 0 
L 13 0 
L 1809 4403 
L 2488 4403 
L 4256 0 
L 3647 0 
z
M 2141 3953 
L 2113 3866 
Q 2034 3606 1881 3200 
L 1319 1753 
L 2966 1753 
L 2400 3206 
Q 2313 3422 2225 3694 
L 2141 3953 
z
" transform="scale(0.015625)"/>
        <path id="LiberationSans-64" d="M 2566 544 
Q 2409 219 2151 78 
Q 1894 -63 1513 -63 
Q 872 -63 570 368 
Q 269 800 269 1675 
Q 269 3444 1513 3444 
Q 1897 3444 2153 3303 
Q 2409 3163 2566 2856 
L 2572 2856 
L 2566 3234 
L 2566 4638 
L 3128 4638 
L 3128 697 
Q 3128 169 3147 0 
L 2609 0 
Q 2600 50 2589 231 
Q 2578 413 2578 544 
L 2566 544 
z
M 859 1694 
Q 859 984 1046 678 
Q 1234 372 1656 372 
Q 2134 372 2350 703 
Q 2566 1034 2566 1731 
Q 2566 2403 2350 2715 
Q 2134 3028 1663 3028 
Q 1238 3028 1048 2714 
Q 859 2400 859 1694 
z
" transform="scale(0.015625)"/>
        <path id="LiberationSans-6a" d="M 428 4100 
L 428 4638 
L 991 4638 
L 991 4100 
L 428 4100 
z
M 991 -419 
Q 991 -897 803 -1112 
Q 616 -1328 241 -1328 
Q 0 -1328 -156 -1300 
L -156 -866 
L 38 -884 
Q 253 -884 340 -771 
Q 428 -659 428 -334 
L 428 3381 
L 991 3381 
L 991 -419 
z
" transform="scale(0.015625)"/>
        <path id="LiberationSans-20" transform="scale(0.015625)"/>
        <path id="LiberationSans-43" d="M 2475 3981 
Q 1744 3981 1337 3511 
Q 931 3041 931 2222 
Q 931 1413 1354 920 
Q 1778 428 2500 428 
Q 3425 428 3891 1344 
L 4378 1100 
Q 4106 531 3614 234 
Q 3122 -63 2472 -63 
Q 1806 -63 1320 214 
Q 834 491 579 1005 
Q 325 1519 325 2222 
Q 325 3275 894 3872 
Q 1463 4469 2469 4469 
Q 3172 4469 3644 4194 
Q 4116 3919 4338 3378 
L 3772 3191 
Q 3619 3575 3280 3778 
Q 2941 3981 2475 3981 
z
" transform="scale(0.015625)"/>
        <path id="LiberationSans-6c" d="M 431 0 
L 431 4638 
L 994 4638 
L 994 0 
L 431 0 
z
" transform="scale(0.015625)"/>
       </defs>
       <use xlink:href="#LiberationSans-41"/>
       <use xlink:href="#LiberationSans-64" transform="translate(66.699219 0)"/>
       <use xlink:href="#LiberationSans-6a" transform="translate(122.314453 0)"/>
       <use xlink:href="#LiberationSans-20" transform="translate(144.53125 0)"/>
       <use xlink:href="#LiberationSans-43" transform="translate(172.314453 0)"/>
       <use xlink:href="#LiberationSans-6c" transform="translate(244.53125 0)"/>
       <use xlink:href="#LiberationSans-6f" transform="translate(266.748047 0)"/>
       <use xlink:href="#LiberationSans-73" transform="translate(322.363281 0)"/>
       <use xlink:href="#LiberationSans-65" transform="translate(372.363281 0)"/>
      </g>
     </g>
    </g>
    <g id="text_20">
     <!-- Variable -->
     <g style="fill: #262626" transform="translate(28.048125 191.465) rotate(-90) scale(0.1 -0.1)">
      <defs>
       <path id="LiberationSans-56" d="M 2444 0 
L 1825 0 
L 28 4403 
L 656 4403 
L 1875 1303 
L 2138 525 
L 2400 1303 
L 3613 4403 
L 4241 4403 
L 2444 0 
z
" transform="scale(0.015625)"/>
       <path id="LiberationSans-62" d="M 3291 1706 
Q 3291 -63 2047 -63 
Q 1663 -63 1408 76 
Q 1153 216 994 525 
L 988 525 
Q 988 428 975 229 
Q 963 31 956 0 
L 413 0 
Q 431 169 431 697 
L 431 4638 
L 994 4638 
L 994 3316 
Q 994 3113 981 2838 
L 994 2838 
Q 1150 3163 1408 3303 
Q 1666 3444 2047 3444 
Q 2688 3444 2989 3012 
Q 3291 2581 3291 1706 
z
M 2700 1688 
Q 2700 2397 2512 2703 
Q 2325 3009 1903 3009 
Q 1428 3009 1211 2684 
Q 994 2359 994 1653 
Q 994 988 1206 670 
Q 1419 353 1897 353 
Q 2322 353 2511 667 
Q 2700 981 2700 1688 
z
" transform="scale(0.015625)"/>
      </defs>
      <use xlink:href="#LiberationSans-56"/>
      <use xlink:href="#LiberationSans-61" transform="translate(59.324219 0)"/>
      <use xlink:href="#LiberationSans-72" transform="translate(114.939453 0)"/>
      <use xlink:href="#LiberationSans-69" transform="translate(148.240234 0)"/>
      <use xlink:href="#LiberationSans-61" transform="translate(170.457031 0)"/>
      <use xlink:href="#LiberationSans-62" transform="translate(226.072266 0)"/>
      <use xlink:href="#LiberationSans-6c" transform="translate(281.6875 0)"/>
      <use xlink:href="#LiberationSans-65" transform="translate(303.904297 0)"/>
     </g>
    </g>
   </g>
   <g id="patch_3">
    <path d="M 80.42 41.5825 
L 533.353333 41.5825 
L 533.353333 55.4675 
L 80.42 55.4675 
z
" clip-path="url(#pa73b52960a)" style="fill: #348abd"/>
   </g>
   <g id="patch_4">
    <path d="M 80.42 69.3525 
L 480.513341 69.3525 
L 480.513341 83.2375 
L 80.42 83.2375 
z
" clip-path="url(#pa73b52960a)" style="fill: #348abd"/>
   </g>
   <g id="patch_5">
    <path d="M 80.42 97.1225 
L 480.38717 97.1225 
L 480.38717 111.0075 
L 80.42 111.0075 
z
" clip-path="url(#pa73b52960a)" style="fill: #348abd"/>
   </g>
   <g id="patch_6">
    <path d="M 80.42 124.8925 
L 353.420145 124.8925 
L 353.420145 138.7775 
L 80.42 138.7775 
z
" clip-path="url(#pa73b52960a)" style="fill: #348abd"/>
   </g>
   <g id="patch_7">
    <path d="M 80.42 152.6625 
L 349.467436 152.6625 
L 349.467436 166.5475 
L 80.42 166.5475 
z
" clip-path="url(#pa73b52960a)" style="fill: #348abd"/>
   </g>
   <g id="patch_8">
    <path d="M 80.42 180.4325 
L 320.707964 180.4325 
L 320.707964 194.3175 
L 80.42 194.3175 
z
" clip-path="url(#pa73b52960a)" style="fill: #348abd"/>
   </g>
   <g id="patch_9">
    <path d="M 80.42 208.2025 
L 262.342821 208.2025 
L 262.342821 222.0875 
L 80.42 222.0875 
z
" clip-path="url(#pa73b52960a)" style="fill: #348abd"/>
   </g>
   <g id="patch_10">
    <path d="M 80.42 235.9725 
L 223.816746 235.9725 
L 223.816746 249.8575 
L 80.42 249.8575 
z
" clip-path="url(#pa73b52960a)" style="fill: #348abd"/>
   </g>
   <g id="patch_11">
    <path d="M 80.42 263.7425 
L 208.347736 263.7425 
L 208.347736 277.6275 
L 80.42 277.6275 
z
" clip-path="url(#pa73b52960a)" style="fill: #348abd"/>
   </g>
   <g id="patch_12">
    <path d="M 80.42 291.5125 
L 205.890132 291.5125 
L 205.890132 305.3975 
L 80.42 305.3975 
z
" clip-path="url(#pa73b52960a)" style="fill: #348abd"/>
   </g>
   <g id="patch_13">
    <path d="M 80.42 312.34 
L 80.42 34.64 
" style="fill: none; stroke: #cccccc; stroke-linejoin: miter; stroke-linecap: square"/>
   </g>
   <g id="patch_14">
    <path d="M 556 312.34 
L 556 34.64 
" style="fill: none; stroke: #cccccc; stroke-linejoin: miter; stroke-linecap: square"/>
   </g>
   <g id="patch_15">
    <path d="M 80.42 312.34 
L 556 312.34 
" style="fill: none; stroke: #cccccc; stroke-linejoin: miter; stroke-linecap: square"/>
   </g>
   <g id="patch_16">
    <path d="M 80.42 34.64 
L 556 34.64 
" style="fill: none; stroke: #cccccc; stroke-linejoin: miter; stroke-linecap: square"/>
   </g>
   <g id="text_21">
    <!-- Variables más importantes -->
    <g style="fill: #262626" transform="translate(242.17875 28.64) scale(0.12 -0.12)">
     <defs>
      <path id="LiberationSans-Bold-56" d="M 2606 0 
L 1672 0 
L 44 4403 
L 1006 4403 
L 1913 1575 
Q 1997 1300 2144 744 
L 2209 1013 
L 2369 1575 
L 3272 4403 
L 4225 4403 
L 2606 0 
z
" transform="scale(0.015625)"/>
      <path id="LiberationSans-Bold-61" d="M 1228 -63 
Q 738 -63 463 204 
Q 188 472 188 956 
Q 188 1481 530 1756 
Q 872 2031 1522 2038 
L 2250 2050 
L 2250 2222 
Q 2250 2553 2134 2714 
Q 2019 2875 1756 2875 
Q 1513 2875 1398 2764 
Q 1284 2653 1256 2397 
L 341 2441 
Q 425 2934 792 3189 
Q 1159 3444 1794 3444 
Q 2434 3444 2781 3128 
Q 3128 2813 3128 2231 
L 3128 1000 
Q 3128 716 3192 608 
Q 3256 500 3406 500 
Q 3506 500 3600 519 
L 3600 44 
Q 3522 25 3459 9 
Q 3397 -6 3334 -15 
Q 3272 -25 3201 -31 
Q 3131 -38 3038 -38 
Q 2706 -38 2548 125 
Q 2391 288 2359 603 
L 2341 603 
Q 1972 -63 1228 -63 
z
M 2250 1566 
L 1800 1559 
Q 1494 1547 1366 1492 
Q 1238 1438 1170 1325 
Q 1103 1213 1103 1025 
Q 1103 784 1214 667 
Q 1325 550 1509 550 
Q 1716 550 1886 662 
Q 2056 775 2153 973 
Q 2250 1172 2250 1394 
L 2250 1566 
z
" transform="scale(0.015625)"/>
      <path id="LiberationSans-Bold-72" d="M 447 0 
L 447 2588 
Q 447 2866 439 3052 
Q 431 3238 422 3381 
L 1259 3381 
Q 1269 3325 1284 3039 
Q 1300 2753 1300 2659 
L 1313 2659 
Q 1441 3016 1541 3161 
Q 1641 3306 1778 3376 
Q 1916 3447 2122 3447 
Q 2291 3447 2394 3400 
L 2394 2666 
Q 2181 2713 2019 2713 
Q 1691 2713 1508 2447 
Q 1325 2181 1325 1659 
L 1325 0 
L 447 0 
z
" transform="scale(0.015625)"/>
      <path id="LiberationSans-Bold-69" d="M 447 3991 
L 447 4638 
L 1325 4638 
L 1325 3991 
L 447 3991 
z
M 447 0 
L 447 3381 
L 1325 3381 
L 1325 0 
L 447 0 
z
" transform="scale(0.015625)"/>
      <path id="LiberationSans-Bold-62" d="M 3647 1703 
Q 3647 866 3311 401 
Q 2975 -63 2350 -63 
Q 1991 -63 1728 93 
Q 1466 250 1325 544 
L 1319 544 
Q 1319 434 1305 243 
Q 1291 53 1275 0 
L 422 0 
Q 447 291 447 772 
L 447 4638 
L 1325 4638 
L 1325 3344 
L 1313 2794 
L 1325 2794 
Q 1622 3444 2406 3444 
Q 3006 3444 3326 2989 
Q 3647 2534 3647 1703 
z
M 2731 1703 
Q 2731 2278 2562 2556 
Q 2394 2834 2041 2834 
Q 1684 2834 1498 2536 
Q 1313 2238 1313 1675 
Q 1313 1138 1495 838 
Q 1678 538 2034 538 
Q 2731 538 2731 1703 
z
" transform="scale(0.015625)"/>
      <path id="LiberationSans-Bold-6c" d="M 447 0 
L 447 4638 
L 1325 4638 
L 1325 0 
L 447 0 
z
" transform="scale(0.015625)"/>
      <path id="LiberationSans-Bold-65" d="M 1831 -63 
Q 1069 -63 659 389 
Q 250 841 250 1706 
Q 250 2544 665 2994 
Q 1081 3444 1844 3444 
Q 2572 3444 2956 2961 
Q 3341 2478 3341 1547 
L 3341 1522 
L 1172 1522 
Q 1172 1028 1355 776 
Q 1538 525 1875 525 
Q 2341 525 2463 928 
L 3291 856 
Q 2931 -63 1831 -63 
z
M 1831 2891 
Q 1522 2891 1355 2675 
Q 1188 2459 1178 2072 
L 2491 2072 
Q 2466 2481 2294 2686 
Q 2122 2891 1831 2891 
z
" transform="scale(0.015625)"/>
      <path id="LiberationSans-Bold-73" d="M 3297 988 
Q 3297 497 2895 217 
Q 2494 -63 1784 -63 
Q 1088 -63 717 157 
Q 347 378 225 844 
L 997 959 
Q 1063 719 1223 619 
Q 1384 519 1784 519 
Q 2153 519 2322 612 
Q 2491 706 2491 906 
Q 2491 1069 2355 1164 
Q 2219 1259 1894 1325 
Q 1150 1472 890 1598 
Q 631 1725 495 1926 
Q 359 2128 359 2422 
Q 359 2906 732 3176 
Q 1106 3447 1791 3447 
Q 2394 3447 2761 3212 
Q 3128 2978 3219 2534 
L 2441 2453 
Q 2403 2659 2256 2761 
Q 2109 2863 1791 2863 
Q 1478 2863 1322 2783 
Q 1166 2703 1166 2516 
Q 1166 2369 1286 2283 
Q 1406 2197 1691 2141 
Q 2088 2059 2395 1973 
Q 2703 1888 2889 1769 
Q 3075 1650 3186 1464 
Q 3297 1278 3297 988 
z
" transform="scale(0.015625)"/>
      <path id="LiberationSans-Bold-20" transform="scale(0.015625)"/>
      <path id="LiberationSans-Bold-6d" d="M 2438 0 
L 2438 1897 
Q 2438 2788 1925 2788 
Q 1659 2788 1492 2516 
Q 1325 2244 1325 1813 
L 1325 0 
L 447 0 
L 447 2625 
Q 447 2897 439 3070 
Q 431 3244 422 3381 
L 1259 3381 
Q 1269 3322 1284 3064 
Q 1300 2806 1300 2709 
L 1313 2709 
Q 1475 3097 1717 3272 
Q 1959 3447 2297 3447 
Q 3072 3447 3238 2709 
L 3256 2709 
Q 3428 3103 3668 3275 
Q 3909 3447 4281 3447 
Q 4775 3447 5034 3111 
Q 5294 2775 5294 2147 
L 5294 0 
L 4422 0 
L 4422 1897 
Q 4422 2788 3909 2788 
Q 3653 2788 3489 2539 
Q 3325 2291 3309 1853 
L 3309 0 
L 2438 0 
z
" transform="scale(0.015625)"/>
      <path id="LiberationSans-Bold-e1" d="M 1204 -63 
Q 714 -63 439 204 
Q 164 472 164 956 
Q 164 1481 506 1756 
Q 848 2031 1498 2038 
L 2226 2050 
L 2226 2222 
Q 2226 2553 2110 2714 
Q 1995 2875 1732 2875 
Q 1489 2875 1374 2764 
Q 1260 2653 1232 2397 
L 317 2441 
Q 401 2934 768 3189 
Q 1135 3444 1770 3444 
Q 2410 3444 2757 3128 
Q 3104 2813 3104 2231 
L 3104 1000 
Q 3104 716 3168 608 
Q 3232 500 3382 500 
Q 3482 500 3576 519 
L 3576 44 
Q 3498 25 3435 9 
Q 3373 -6 3310 -15 
Q 3248 -25 3177 -31 
Q 3107 -38 3014 -38 
Q 2682 -38 2524 125 
Q 2367 288 2335 603 
L 2317 603 
Q 1948 -63 1204 -63 
z
M 2226 1566 
L 1776 1559 
Q 1470 1547 1342 1492 
Q 1214 1438 1146 1325 
Q 1079 1213 1079 1025 
Q 1079 784 1190 667 
Q 1301 550 1485 550 
Q 1692 550 1862 662 
Q 2032 775 2129 973 
Q 2226 1172 2226 1394 
L 2226 1566 
z
M 1176 3697 
L 1176 3794 
L 1963 4694 
L 2770 4694 
L 2770 4559 
L 1707 3697 
L 1176 3697 
z
" transform="scale(0.015625)"/>
      <path id="LiberationSans-Bold-70" d="M 3647 1706 
Q 3647 859 3308 398 
Q 2969 -63 2350 -63 
Q 1994 -63 1730 92 
Q 1466 247 1325 538 
L 1306 538 
Q 1325 444 1325 -31 
L 1325 -1328 
L 447 -1328 
L 447 2603 
Q 447 3081 422 3381 
L 1275 3381 
Q 1291 3325 1302 3159 
Q 1313 2994 1313 2831 
L 1325 2831 
Q 1622 3453 2406 3453 
Q 2997 3453 3322 2998 
Q 3647 2544 3647 1706 
z
M 2731 1706 
Q 2731 2844 2034 2844 
Q 1684 2844 1498 2537 
Q 1313 2231 1313 1681 
Q 1313 1134 1498 836 
Q 1684 538 2028 538 
Q 2731 538 2731 1706 
z
" transform="scale(0.015625)"/>
      <path id="LiberationSans-Bold-6f" d="M 3659 1694 
Q 3659 872 3203 404 
Q 2747 -63 1941 -63 
Q 1150 -63 700 406 
Q 250 875 250 1694 
Q 250 2509 700 2976 
Q 1150 3444 1959 3444 
Q 2788 3444 3223 2992 
Q 3659 2541 3659 1694 
z
M 2741 1694 
Q 2741 2297 2544 2569 
Q 2347 2841 1972 2841 
Q 1172 2841 1172 1694 
Q 1172 1128 1367 833 
Q 1563 538 1931 538 
Q 2741 538 2741 1694 
z
" transform="scale(0.015625)"/>
      <path id="LiberationSans-Bold-74" d="M 1313 -56 
Q 925 -56 715 155 
Q 506 366 506 794 
L 506 2788 
L 78 2788 
L 78 3381 
L 550 3381 
L 825 4175 
L 1375 4175 
L 1375 3381 
L 2016 3381 
L 2016 2788 
L 1375 2788 
L 1375 1031 
Q 1375 784 1469 667 
Q 1563 550 1759 550 
Q 1863 550 2053 594 
L 2053 50 
Q 1728 -56 1313 -56 
z
" transform="scale(0.015625)"/>
      <path id="LiberationSans-Bold-6e" d="M 2638 0 
L 2638 1897 
Q 2638 2788 2034 2788 
Q 1716 2788 1520 2514 
Q 1325 2241 1325 1813 
L 1325 0 
L 447 0 
L 447 2625 
Q 447 2897 439 3070 
Q 431 3244 422 3381 
L 1259 3381 
Q 1269 3322 1284 3064 
Q 1300 2806 1300 2709 
L 1313 2709 
Q 1491 3097 1759 3272 
Q 2028 3447 2400 3447 
Q 2938 3447 3225 3115 
Q 3513 2784 3513 2147 
L 3513 0 
L 2638 0 
z
" transform="scale(0.015625)"/>
     </defs>
     <use xlink:href="#LiberationSans-Bold-56"/>
     <use xlink:href="#LiberationSans-Bold-61" transform="translate(61.199219 0)"/>
     <use xlink:href="#LiberationSans-Bold-72" transform="translate(116.814453 0)"/>
     <use xlink:href="#LiberationSans-Bold-69" transform="translate(155.730469 0)"/>
     <use xlink:href="#LiberationSans-Bold-61" transform="translate(183.513672 0)"/>
     <use xlink:href="#LiberationSans-Bold-62" transform="translate(239.128906 0)"/>
     <use xlink:href="#LiberationSans-Bold-6c" transform="translate(300.212891 0)"/>
     <use xlink:href="#LiberationSans-Bold-65" transform="translate(327.996094 0)"/>
     <use xlink:href="#LiberationSans-Bold-73" transform="translate(383.611328 0)"/>
     <use xlink:href="#LiberationSans-Bold-20" transform="translate(439.226562 0)"/>
     <use xlink:href="#LiberationSans-Bold-6d" transform="translate(467.009766 0)"/>
     <use xlink:href="#LiberationSans-Bold-e1" transform="translate(555.925781 0)"/>
     <use xlink:href="#LiberationSans-Bold-73" transform="translate(611.541016 0)"/>
     <use xlink:href="#LiberationSans-Bold-20" transform="translate(667.15625 0)"/>
     <use xlink:href="#LiberationSans-Bold-69" transform="translate(694.939453 0)"/>
     <use xlink:href="#LiberationSans-Bold-6d" transform="translate(722.722656 0)"/>
     <use xlink:href="#LiberationSans-Bold-70" transform="translate(811.638672 0)"/>
     <use xlink:href="#LiberationSans-Bold-6f" transform="translate(872.722656 0)"/>
     <use xlink:href="#LiberationSans-Bold-72" transform="translate(933.806641 0)"/>
     <use xlink:href="#LiberationSans-Bold-74" transform="translate(972.722656 0)"/>
     <use xlink:href="#LiberationSans-Bold-61" transform="translate(1006.023438 0)"/>
     <use xlink:href="#LiberationSans-Bold-6e" transform="translate(1061.638672 0)"/>
     <use xlink:href="#LiberationSans-Bold-74" transform="translate(1122.722656 0)"/>
     <use xlink:href="#LiberationSans-Bold-65" transform="translate(1156.023438 0)"/>
     <use xlink:href="#LiberationSans-Bold-73" transform="translate(1211.638672 0)"/>
    </g>
   </g>
  </g>
 </g>
 <defs>
  <clipPath id="pa73b52960a">
   <rect x="80.42" y="34.64" width="475.58" height="277.7"/>
  </clipPath>
 </defs>
</svg>
