<?xml version="1.0" encoding="utf-8" standalone="no"?>
<!DOCTYPE svg PUBLIC "-//W3C//DTD SVG 1.1//EN"
  "http://www.w3.org/Graphics/SVG/1.1/DTD/svg11.dtd">
<svg xmlns:xlink="http://www.w3.org/1999/xlink" width="720pt" height="288pt" viewBox="0 0 720 288" xmlns="http://www.w3.org/2000/svg" version="1.1">
 <metadata>
  <rdf:RDF xmlns:dc="http://purl.org/dc/elements/1.1/" xmlns:cc="http://creativecommons.org/ns#" xmlns:rdf="http://www.w3.org/1999/02/22-rdf-syntax-ns#">
   <cc:Work>
    <dc:type rdf:resource="http://purl.org/dc/dcmitype/StillImage"/>
    <dc:date>2025-07-18T04:52:44.981138</dc:date>
    <dc:format>image/svg+xml</dc:format>
    <dc:creator>
     <cc:Agent>
      <dc:title>Matplotlib v3.10.3, https://matplotlib.org/</dc:title>
     </cc:Agent>
    </dc:creator>
   </cc:Work>
  </rdf:RDF>
 </metadata>
 <defs>
  <style type="text/css">*{stroke-linejoin: round; stroke-linecap: butt}</style>
 </defs>
 <g id="figure_1">
  <g id="patch_1">
   <path d="M 0 288 
L 720 288 
L 720 0 
L 0 0 
z
" style="fill: #ffffff"/>
  </g>
  <g id="axes_1">
   <g id="patch_2">
    <path d="M 50.87 234.745464 
L 709.2 234.745464 
L 709.2 26.88 
L 50.87 26.88 
z
" style="fill: #ffffff"/>
   </g>
   <g id="matplotlib.axis_1">
    <g id="xtick_1">
     <g id="line2d_1">
      <defs>
       <path id="m0dc21d79ae" d="M 0 0 
L 0 3.5 
" style="stroke: #000000; stroke-width: 0.8"/>
      </defs>
      <g>
       <use xlink:href="#m0dc21d79ae" x="135.559276" y="234.745464" style="stroke: #000000; stroke-width: 0.8"/>
      </g>
     </g>
     <g id="text_1">
      <!-- 2021 -->
      <g transform="translate(112.479086 261.050904) rotate(-30) scale(0.1 -0.1)">
       <defs>
        <path id="DejaVuSans-32" d="M 1228 531 
L 3431 531 
L 3431 0 
L 469 0 
L 469 531 
Q 828 903 1448 1529 
Q 2069 2156 2228 2338 
Q 2531 2678 2651 2914 
Q 2772 3150 2772 3378 
Q 2772 3750 2511 3984 
Q 2250 4219 1831 4219 
Q 1534 4219 1204 4116 
Q 875 4013 500 3803 
L 500 4441 
Q 881 4594 1212 4672 
Q 1544 4750 1819 4750 
Q 2544 4750 2975 4387 
Q 3406 4025 3406 3419 
Q 3406 3131 3298 2873 
Q 3191 2616 2906 2266 
Q 2828 2175 2409 1742 
Q 1991 1309 1228 531 
z
" transform="scale(0.015625)"/>
        <path id="DejaVuSans-30" d="M 2034 4250 
Q 1547 4250 1301 3770 
Q 1056 3291 1056 2328 
Q 1056 1369 1301 889 
Q 1547 409 2034 409 
Q 2525 409 2770 889 
Q 3016 1369 3016 2328 
Q 3016 3291 2770 3770 
Q 2525 4250 2034 4250 
z
M 2034 4750 
Q 2819 4750 3233 4129 
Q 3647 3509 3647 2328 
Q 3647 1150 3233 529 
Q 2819 -91 2034 -91 
Q 1250 -91 836 529 
Q 422 1150 422 2328 
Q 422 3509 836 4129 
Q 1250 4750 2034 4750 
z
" transform="scale(0.015625)"/>
        <path id="DejaVuSans-31" d="M 794 531 
L 1825 531 
L 1825 4091 
L 703 3866 
L 703 4441 
L 1819 4666 
L 2450 4666 
L 2450 531 
L 3481 531 
L 3481 0 
L 794 0 
L 794 531 
z
" transform="scale(0.015625)"/>
       </defs>
       <use xlink:href="#DejaVuSans-32"/>
       <use xlink:href="#DejaVuSans-30" transform="translate(63.623047 0)"/>
       <use xlink:href="#DejaVuSans-32" transform="translate(127.246094 0)"/>
       <use xlink:href="#DejaVuSans-31" transform="translate(190.869141 0)"/>
      </g>
     </g>
    </g>
    <g id="xtick_2">
     <g id="line2d_2">
      <g>
       <use xlink:href="#m0dc21d79ae" x="255.25564" y="234.745464" style="stroke: #000000; stroke-width: 0.8"/>
      </g>
     </g>
     <g id="text_2">
      <!-- 2022 -->
      <g transform="translate(232.17545 261.050904) rotate(-30) scale(0.1 -0.1)">
       <use xlink:href="#DejaVuSans-32"/>
       <use xlink:href="#DejaVuSans-30" transform="translate(63.623047 0)"/>
       <use xlink:href="#DejaVuSans-32" transform="translate(127.246094 0)"/>
       <use xlink:href="#DejaVuSans-32" transform="translate(190.869141 0)"/>
      </g>
     </g>
    </g>
    <g id="xtick_3">
     <g id="line2d_3">
      <g>
       <use xlink:href="#m0dc21d79ae" x="374.952004" y="234.745464" style="stroke: #000000; stroke-width: 0.8"/>
      </g>
     </g>
     <g id="text_3">
      <!-- 2023 -->
      <g transform="translate(351.871813 261.050904) rotate(-30) scale(0.1 -0.1)">
       <defs>
        <path id="DejaVuSans-33" d="M 2597 2516 
Q 3050 2419 3304 2112 
Q 3559 1806 3559 1356 
Q 3559 666 3084 287 
Q 2609 -91 1734 -91 
Q 1441 -91 1130 -33 
Q 819 25 488 141 
L 488 750 
Q 750 597 1062 519 
Q 1375 441 1716 441 
Q 2309 441 2620 675 
Q 2931 909 2931 1356 
Q 2931 1769 2642 2001 
Q 2353 2234 1838 2234 
L 1294 2234 
L 1294 2753 
L 1863 2753 
Q 2328 2753 2575 2939 
Q 2822 3125 2822 3475 
Q 2822 3834 2567 4026 
Q 2313 4219 1838 4219 
Q 1578 4219 1281 4162 
Q 984 4106 628 3988 
L 628 4550 
Q 988 4650 1302 4700 
Q 1616 4750 1894 4750 
Q 2613 4750 3031 4423 
Q 3450 4097 3450 3541 
Q 3450 3153 3228 2886 
Q 3006 2619 2597 2516 
z
" transform="scale(0.015625)"/>
       </defs>
       <use xlink:href="#DejaVuSans-32"/>
       <use xlink:href="#DejaVuSans-30" transform="translate(63.623047 0)"/>
       <use xlink:href="#DejaVuSans-32" transform="translate(127.246094 0)"/>
       <use xlink:href="#DejaVuSans-33" transform="translate(190.869141 0)"/>
      </g>
     </g>
    </g>
    <g id="xtick_4">
     <g id="line2d_4">
      <g>
       <use xlink:href="#m0dc21d79ae" x="494.648367" y="234.745464" style="stroke: #000000; stroke-width: 0.8"/>
      </g>
     </g>
     <g id="text_4">
      <!-- 2024 -->
      <g transform="translate(471.568177 261.050904) rotate(-30) scale(0.1 -0.1)">
       <defs>
        <path id="DejaVuSans-34" d="M 2419 4116 
L 825 1625 
L 2419 1625 
L 2419 4116 
z
M 2253 4666 
L 3047 4666 
L 3047 1625 
L 3713 1625 
L 3713 1100 
L 3047 1100 
L 3047 0 
L 2419 0 
L 2419 1100 
L 313 1100 
L 313 1709 
L 2253 4666 
z
" transform="scale(0.015625)"/>
       </defs>
       <use xlink:href="#DejaVuSans-32"/>
       <use xlink:href="#DejaVuSans-30" transform="translate(63.623047 0)"/>
       <use xlink:href="#DejaVuSans-32" transform="translate(127.246094 0)"/>
       <use xlink:href="#DejaVuSans-34" transform="translate(190.869141 0)"/>
      </g>
     </g>
    </g>
    <g id="xtick_5">
     <g id="line2d_5">
      <g>
       <use xlink:href="#m0dc21d79ae" x="614.672666" y="234.745464" style="stroke: #000000; stroke-width: 0.8"/>
      </g>
     </g>
     <g id="text_5">
      <!-- 2025 -->
      <g transform="translate(591.592476 261.050904) rotate(-30) scale(0.1 -0.1)">
       <defs>
        <path id="DejaVuSans-35" d="M 691 4666 
L 3169 4666 
L 3169 4134 
L 1269 4134 
L 1269 2991 
Q 1406 3038 1543 3061 
Q 1681 3084 1819 3084 
Q 2600 3084 3056 2656 
Q 3513 2228 3513 1497 
Q 3513 744 3044 326 
Q 2575 -91 1722 -91 
Q 1428 -91 1123 -41 
Q 819 9 494 109 
L 494 744 
Q 775 591 1075 516 
Q 1375 441 1709 441 
Q 2250 441 2565 725 
Q 2881 1009 2881 1497 
Q 2881 1984 2565 2268 
Q 2250 2553 1709 2553 
Q 1456 2553 1204 2497 
Q 953 2441 691 2322 
L 691 4666 
z
" transform="scale(0.015625)"/>
       </defs>
       <use xlink:href="#DejaVuSans-32"/>
       <use xlink:href="#DejaVuSans-30" transform="translate(63.623047 0)"/>
       <use xlink:href="#DejaVuSans-32" transform="translate(127.246094 0)"/>
       <use xlink:href="#DejaVuSans-35" transform="translate(190.869141 0)"/>
      </g>
     </g>
    </g>
    <g id="text_6">
     <!-- Fecha -->
     <g transform="translate(365.375625 274.450404) scale(0.1 -0.1)">
      <defs>
       <path id="DejaVuSans-46" d="M 628 4666 
L 3309 4666 
L 3309 4134 
L 1259 4134 
L 1259 2759 
L 3109 2759 
L 3109 2228 
L 1259 2228 
L 1259 0 
L 628 0 
L 628 4666 
z
" transform="scale(0.015625)"/>
       <path id="DejaVuSans-65" d="M 3597 1894 
L 3597 1613 
L 953 1613 
Q 991 1019 1311 708 
Q 1631 397 2203 397 
Q 2534 397 2845 478 
Q 3156 559 3463 722 
L 3463 178 
Q 3153 47 2828 -22 
Q 2503 -91 2169 -91 
Q 1331 -91 842 396 
Q 353 884 353 1716 
Q 353 2575 817 3079 
Q 1281 3584 2069 3584 
Q 2775 3584 3186 3129 
Q 3597 2675 3597 1894 
z
M 3022 2063 
Q 3016 2534 2758 2815 
Q 2500 3097 2075 3097 
Q 1594 3097 1305 2825 
Q 1016 2553 972 2059 
L 3022 2063 
z
" transform="scale(0.015625)"/>
       <path id="DejaVuSans-63" d="M 3122 3366 
L 3122 2828 
Q 2878 2963 2633 3030 
Q 2388 3097 2138 3097 
Q 1578 3097 1268 2742 
Q 959 2388 959 1747 
Q 959 1106 1268 751 
Q 1578 397 2138 397 
Q 2388 397 2633 464 
Q 2878 531 3122 666 
L 3122 134 
Q 2881 22 2623 -34 
Q 2366 -91 2075 -91 
Q 1284 -91 818 406 
Q 353 903 353 1747 
Q 353 2603 823 3093 
Q 1294 3584 2113 3584 
Q 2378 3584 2631 3529 
Q 2884 3475 3122 3366 
z
" transform="scale(0.015625)"/>
       <path id="DejaVuSans-68" d="M 3513 2113 
L 3513 0 
L 2938 0 
L 2938 2094 
Q 2938 2591 2744 2837 
Q 2550 3084 2163 3084 
Q 1697 3084 1428 2787 
Q 1159 2491 1159 1978 
L 1159 0 
L 581 0 
L 581 4863 
L 1159 4863 
L 1159 2956 
Q 1366 3272 1645 3428 
Q 1925 3584 2291 3584 
Q 2894 3584 3203 3211 
Q 3513 2838 3513 2113 
z
" transform="scale(0.015625)"/>
       <path id="DejaVuSans-61" d="M 2194 1759 
Q 1497 1759 1228 1600 
Q 959 1441 959 1056 
Q 959 750 1161 570 
Q 1363 391 1709 391 
Q 2188 391 2477 730 
Q 2766 1069 2766 1631 
L 2766 1759 
L 2194 1759 
z
M 3341 1997 
L 3341 0 
L 2766 0 
L 2766 531 
Q 2569 213 2275 61 
Q 1981 -91 1556 -91 
Q 1019 -91 701 211 
Q 384 513 384 1019 
Q 384 1609 779 1909 
Q 1175 2209 1959 2209 
L 2766 2209 
L 2766 2266 
Q 2766 2663 2505 2880 
Q 2244 3097 1772 3097 
Q 1472 3097 1187 3025 
Q 903 2953 641 2809 
L 641 3341 
Q 956 3463 1253 3523 
Q 1550 3584 1831 3584 
Q 2591 3584 2966 3190 
Q 3341 2797 3341 1997 
z
" transform="scale(0.015625)"/>
      </defs>
      <use xlink:href="#DejaVuSans-46"/>
      <use xlink:href="#DejaVuSans-65" transform="translate(52.019531 0)"/>
      <use xlink:href="#DejaVuSans-63" transform="translate(113.542969 0)"/>
      <use xlink:href="#DejaVuSans-68" transform="translate(168.523438 0)"/>
      <use xlink:href="#DejaVuSans-61" transform="translate(231.902344 0)"/>
     </g>
    </g>
   </g>
   <g id="matplotlib.axis_2">
    <g id="ytick_1">
     <g id="line2d_6">
      <defs>
       <path id="mbd31a23198" d="M 0 0 
L -3.5 0 
" style="stroke: #000000; stroke-width: 0.8"/>
      </defs>
      <g>
       <use xlink:href="#mbd31a23198" x="50.87" y="225.5984" style="stroke: #000000; stroke-width: 0.8"/>
      </g>
     </g>
     <g id="text_7">
      <!-- 0 -->
      <g transform="translate(37.5075 229.397619) scale(0.1 -0.1)">
       <use xlink:href="#DejaVuSans-30"/>
      </g>
     </g>
    </g>
    <g id="ytick_2">
     <g id="line2d_7">
      <g>
       <use xlink:href="#mbd31a23198" x="50.87" y="195.461788" style="stroke: #000000; stroke-width: 0.8"/>
      </g>
     </g>
     <g id="text_8">
      <!-- 100 -->
      <g transform="translate(24.7825 199.261007) scale(0.1 -0.1)">
       <use xlink:href="#DejaVuSans-31"/>
       <use xlink:href="#DejaVuSans-30" transform="translate(63.623047 0)"/>
       <use xlink:href="#DejaVuSans-30" transform="translate(127.246094 0)"/>
      </g>
     </g>
    </g>
    <g id="ytick_3">
     <g id="line2d_8">
      <g>
       <use xlink:href="#mbd31a23198" x="50.87" y="165.325176" style="stroke: #000000; stroke-width: 0.8"/>
      </g>
     </g>
     <g id="text_9">
      <!-- 200 -->
      <g transform="translate(24.7825 169.124395) scale(0.1 -0.1)">
       <use xlink:href="#DejaVuSans-32"/>
       <use xlink:href="#DejaVuSans-30" transform="translate(63.623047 0)"/>
       <use xlink:href="#DejaVuSans-30" transform="translate(127.246094 0)"/>
      </g>
     </g>
    </g>
    <g id="ytick_4">
     <g id="line2d_9">
      <g>
       <use xlink:href="#mbd31a23198" x="50.87" y="135.188565" style="stroke: #000000; stroke-width: 0.8"/>
      </g>
     </g>
     <g id="text_10">
      <!-- 300 -->
      <g transform="translate(24.7825 138.987783) scale(0.1 -0.1)">
       <use xlink:href="#DejaVuSans-33"/>
       <use xlink:href="#DejaVuSans-30" transform="translate(63.623047 0)"/>
       <use xlink:href="#DejaVuSans-30" transform="translate(127.246094 0)"/>
      </g>
     </g>
    </g>
    <g id="ytick_5">
     <g id="line2d_10">
      <g>
       <use xlink:href="#mbd31a23198" x="50.87" y="105.051953" style="stroke: #000000; stroke-width: 0.8"/>
      </g>
     </g>
     <g id="text_11">
      <!-- 400 -->
      <g transform="translate(24.7825 108.851172) scale(0.1 -0.1)">
       <use xlink:href="#DejaVuSans-34"/>
       <use xlink:href="#DejaVuSans-30" transform="translate(63.623047 0)"/>
       <use xlink:href="#DejaVuSans-30" transform="translate(127.246094 0)"/>
      </g>
     </g>
    </g>
    <g id="ytick_6">
     <g id="line2d_11">
      <g>
       <use xlink:href="#mbd31a23198" x="50.87" y="74.915341" style="stroke: #000000; stroke-width: 0.8"/>
      </g>
     </g>
     <g id="text_12">
      <!-- 500 -->
      <g transform="translate(24.7825 78.71456) scale(0.1 -0.1)">
       <use xlink:href="#DejaVuSans-35"/>
       <use xlink:href="#DejaVuSans-30" transform="translate(63.623047 0)"/>
       <use xlink:href="#DejaVuSans-30" transform="translate(127.246094 0)"/>
      </g>
     </g>
    </g>
    <g id="ytick_7">
     <g id="line2d_12">
      <g>
       <use xlink:href="#mbd31a23198" x="50.87" y="44.778729" style="stroke: #000000; stroke-width: 0.8"/>
      </g>
     </g>
     <g id="text_13">
      <!-- 600 -->
      <g transform="translate(24.7825 48.577948) scale(0.1 -0.1)">
       <defs>
        <path id="DejaVuSans-36" d="M 2113 2584 
Q 1688 2584 1439 2293 
Q 1191 2003 1191 1497 
Q 1191 994 1439 701 
Q 1688 409 2113 409 
Q 2538 409 2786 701 
Q 3034 994 3034 1497 
Q 3034 2003 2786 2293 
Q 2538 2584 2113 2584 
z
M 3366 4563 
L 3366 3988 
Q 3128 4100 2886 4159 
Q 2644 4219 2406 4219 
Q 1781 4219 1451 3797 
Q 1122 3375 1075 2522 
Q 1259 2794 1537 2939 
Q 1816 3084 2150 3084 
Q 2853 3084 3261 2657 
Q 3669 2231 3669 1497 
Q 3669 778 3244 343 
Q 2819 -91 2113 -91 
Q 1303 -91 875 529 
Q 447 1150 447 2328 
Q 447 3434 972 4092 
Q 1497 4750 2381 4750 
Q 2619 4750 2861 4703 
Q 3103 4656 3366 4563 
z
" transform="scale(0.015625)"/>
       </defs>
       <use xlink:href="#DejaVuSans-36"/>
       <use xlink:href="#DejaVuSans-30" transform="translate(63.623047 0)"/>
       <use xlink:href="#DejaVuSans-30" transform="translate(127.246094 0)"/>
      </g>
     </g>
    </g>
    <g id="text_14">
     <!-- Cierre -->
     <g transform="translate(18.702813 145.757263) rotate(-90) scale(0.1 -0.1)">
      <defs>
       <path id="DejaVuSans-43" d="M 4122 4306 
L 4122 3641 
Q 3803 3938 3442 4084 
Q 3081 4231 2675 4231 
Q 1875 4231 1450 3742 
Q 1025 3253 1025 2328 
Q 1025 1406 1450 917 
Q 1875 428 2675 428 
Q 3081 428 3442 575 
Q 3803 722 4122 1019 
L 4122 359 
Q 3791 134 3420 21 
Q 3050 -91 2638 -91 
Q 1578 -91 968 557 
Q 359 1206 359 2328 
Q 359 3453 968 4101 
Q 1578 4750 2638 4750 
Q 3056 4750 3426 4639 
Q 3797 4528 4122 4306 
z
" transform="scale(0.015625)"/>
       <path id="DejaVuSans-69" d="M 603 3500 
L 1178 3500 
L 1178 0 
L 603 0 
L 603 3500 
z
M 603 4863 
L 1178 4863 
L 1178 4134 
L 603 4134 
L 603 4863 
z
" transform="scale(0.015625)"/>
       <path id="DejaVuSans-72" d="M 2631 2963 
Q 2534 3019 2420 3045 
Q 2306 3072 2169 3072 
Q 1681 3072 1420 2755 
Q 1159 2438 1159 1844 
L 1159 0 
L 581 0 
L 581 3500 
L 1159 3500 
L 1159 2956 
Q 1341 3275 1631 3429 
Q 1922 3584 2338 3584 
Q 2397 3584 2469 3576 
Q 2541 3569 2628 3553 
L 2631 2963 
z
" transform="scale(0.015625)"/>
      </defs>
      <use xlink:href="#DejaVuSans-43"/>
      <use xlink:href="#DejaVuSans-69" transform="translate(69.824219 0)"/>
      <use xlink:href="#DejaVuSans-65" transform="translate(97.607422 0)"/>
      <use xlink:href="#DejaVuSans-72" transform="translate(159.130859 0)"/>
      <use xlink:href="#DejaVuSans-72" transform="translate(198.494141 0)"/>
      <use xlink:href="#DejaVuSans-65" transform="translate(237.357422 0)"/>
     </g>
    </g>
   </g>
   <g id="line2d_13">
    <path d="M 80.794091 225.297034 
L 81.122026 224.995668 
L 81.449961 224.694302 
L 81.777897 224.392935 
L 82.105832 224.091569 
L 82.433767 223.790203 
L 82.761702 223.488837 
L 83.089638 223.187471 
L 83.417573 222.886105 
L 83.745508 222.584739 
L 84.073443 222.283373 
L 84.401379 221.982006 
L 84.729314 221.68064 
L 85.057249 221.379274 
L 85.385184 221.077908 
L 85.71312 220.776542 
L 86.041055 220.475176 
L 86.36899 220.17381 
L 86.696925 219.872444 
L 87.024861 219.571078 
L 87.352796 219.269711 
L 87.680731 218.968345 
L 88.008666 218.666979 
L 88.336601 218.365613 
L 88.664537 218.064247 
L 88.992472 217.762881 
L 89.320407 217.461515 
L 89.648342 217.160149 
L 89.976278 216.858782 
L 90.304213 216.557416 
" clip-path="url(#pe0d90947f2)" style="fill: none; stroke: #1f77b4; stroke-width: 1.5; stroke-linecap: square"/>
   </g>
   <g id="line2d_14">
    <path d="M 651.729349 205.253173 
L 652.057284 205.554539 
L 653.04109 205.289337 
L 653.369025 206.521925 
L 653.69696 207.615884 
M 654.352831 208.052864 
L 655.336636 208.010673 
L 655.664572 207.356709 
L 655.992507 207.423009 
L 656.320442 207.561638 
L 656.648377 207.887113 
L 657.632183 208.022728 
L 657.960118 208.070947 
L 658.288054 208.227657 
L 658.615989 208.266835 
L 658.943924 208.269848 
L 659.92773 208.055878 
L 660.255665 208.899703 
L 660.5836 208.815321 
L 660.911535 208.884635 
L 661.239471 208.721897 
L 662.223276 208.727925 
L 662.551212 208.881621 
L 662.879147 208.99614 
L 663.207082 208.972032 
L 663.535017 209.249288 
L 664.518823 209.806815 
L 664.846758 209.674214 
L 665.174694 209.927362 
L 665.502629 209.864075 
L 665.830564 209.864075 
L 666.81437 210.237769 
L 667.142305 210.038867 
L 667.47024 210.249823 
L 667.798176 210.008731 
L 668.126111 210.020786 
L 669.109917 210.069004 
L 669.437852 210.059962 
L 669.765787 210.132291 
L 670.093722 209.993663 
L 670.421658 209.815857 
L 671.405463 209.861061 
L 671.733399 209.87613 
L 672.061334 209.493395 
L 672.389269 209.45723 
L 672.717204 209.622982 
L 673.70101 209.824897 
L 674.028945 209.873116 
L 674.35688 209.812842 
L 674.684816 209.833938 
L 675.012751 209.894211 
L 675.996557 210.237769 
L 676.324492 210.114208 
L 676.652427 210.322152 
L 676.980362 210.331192 
L 677.308298 210.31311 
L 678.292103 210.355301 
L 678.620039 210.31311 
L 678.947974 210.481875 
L 679.275909 210.301056 
" clip-path="url(#pe0d90947f2)" style="fill: none; stroke: #ff7f0e; stroke-width: 1.5; stroke-linecap: square"/>
   </g>
   <g id="line2d_15">
    <path d="M 651.729349 222.229127 
L 652.057284 222.081457 
L 653.04109 221.95187 
L 653.369025 222.003102 
L 653.69696 221.942829 
M 654.352831 221.948856 
L 655.336636 221.972966 
L 655.664572 221.921733 
L 655.992507 221.792146 
L 656.320442 221.8042 
L 656.648377 221.846392 
L 657.632183 221.707763 
L 657.960118 221.620367 
L 658.288054 221.587217 
L 658.615989 221.560094 
L 658.943924 221.572149 
L 659.92773 221.563107 
L 660.255665 221.505848 
L 660.5836 221.505848 
L 660.911535 221.517903 
L 661.239471 221.439547 
L 662.223276 221.382288 
L 662.551212 221.418452 
L 662.879147 221.448588 
L 663.207082 221.505848 
L 663.535017 221.59023 
L 664.518823 221.644476 
L 664.846758 221.656531 
L 665.174694 221.674613 
L 665.502629 221.662558 
L 665.830564 221.716804 
L 666.81437 221.710777 
L 667.142305 221.611326 
L 667.47024 221.61434 
L 667.798176 221.602285 
L 668.126111 221.722832 
L 669.109917 221.677627 
L 669.437852 221.692695 
L 669.765787 221.662558 
L 670.093722 221.707763 
L 670.421658 221.698722 
L 671.405463 221.683654 
L 671.733399 221.617353 
L 672.061334 221.743927 
L 672.389269 221.692695 
L 672.717204 221.722832 
L 673.70101 221.683654 
L 674.028945 221.596258 
L 674.35688 221.538998 
L 674.684816 221.532971 
L 675.012751 221.548039 
L 675.996557 221.58119 
L 676.324492 221.569135 
L 676.652427 221.469684 
L 676.980362 221.454616 
L 677.308298 221.460643 
L 678.292103 221.436534 
L 678.620039 221.46667 
L 678.947974 221.451602 
L 679.275909 221.21955 
" clip-path="url(#pe0d90947f2)" style="fill: none; stroke: #2ca02c; stroke-width: 1.5; stroke-linecap: square"/>
   </g>
   <g id="line2d_16">
    <path d="M 651.073478 212.778285 
L 651.401413 212.630616 
L 651.729349 212.479933 
L 652.057284 212.504042 
L 653.04109 212.479933 
L 653.369025 212.443768 
L 653.69696 212.410619 
L 654.024895 212.413632 
L 654.352831 212.036925 
L 655.336636 211.93446 
L 655.664572 211.988706 
L 655.992507 212.145417 
L 656.320442 212.154457 
L 656.648377 212.064048 
L 657.632183 211.771722 
L 657.960118 211.747613 
L 658.288054 211.642135 
L 658.615989 211.648162 
L 658.943924 211.657204 
L 659.92773 211.627066 
L 660.255665 211.642135 
L 660.5836 211.678299 
L 660.911535 211.723504 
L 661.239471 211.666244 
M 662.551212 211.699395 
L 662.879147 211.762681 
L 663.207082 211.711449 
L 663.535017 211.880214 
L 664.518823 211.780764 
L 664.846758 211.747613 
L 665.174694 211.575835 
L 665.502629 211.503506 
L 665.830564 211.458302 
L 666.81437 211.337755 
L 667.142305 211.256386 
L 667.47024 211.196113 
L 667.798176 211.172004 
L 668.126111 211.401042 
L 669.109917 211.364878 
L 669.437852 211.551725 
L 669.765787 211.554739 
M 670.421658 211.636107 
L 671.405463 211.521589 
L 671.733399 211.156936 
L 672.061334 211.144881 
L 672.389269 211.048444 
L 672.717204 211.105703 
L 673.70101 211.060498 
L 674.028945 211.033375 
L 674.35688 210.970088 
L 674.684816 210.903788 
M 675.996557 211.111731 
L 676.324492 211.021321 
L 676.652427 211.04543 
L 676.980362 211.006253 
L 677.308298 211.054472 
L 678.292103 211.033375 
L 678.620039 210.927897 
L 678.947974 210.858583 
L 679.275909 210.774201 
" clip-path="url(#pe0d90947f2)" style="fill: none; stroke: #d62728; stroke-width: 1.5; stroke-linecap: square"/>
   </g>
   <g id="line2d_17">
    <path d="M 651.729349 177.081467 
L 652.057284 176.117096 
L 653.04109 174.971904 
L 653.369025 175.794637 
L 653.69696 174.923689 
M 654.352831 176.27682 
L 655.336636 176.743938 
L 655.664572 174.408351 
L 655.992507 174.712729 
L 656.320442 176.629418 
L 656.648377 176.635446 
L 657.632183 176.108056 
L 657.960118 174.543965 
L 658.288054 174.088904 
L 658.615989 173.154667 
L 658.943924 173.157683 
L 659.92773 172.253585 
L 660.255665 173.609733 
L 660.5836 174.067806 
L 660.911535 173.96233 
L 661.239471 173.314391 
L 662.223276 173.498224 
L 662.551212 172.738785 
L 662.879147 172.437419 
L 663.207082 172.563992 
L 663.535017 173.757399 
L 664.518823 173.763428 
L 664.846758 173.519322 
L 665.174694 174.004522 
L 665.502629 173.89603 
L 665.830564 173.859867 
L 666.81437 173.365622 
L 667.142305 172.991931 
L 667.47024 173.688086 
L 667.798176 172.859329 
L 668.126111 173.278228 
L 669.109917 174.314928 
L 669.437852 174.510814 
L 669.765787 174.161233 
L 670.093722 174.724786 
L 670.421658 174.700677 
L 671.405463 175.294368 
L 671.733399 173.902058 
L 672.061334 173.013024 
L 672.389269 173.341517 
L 672.717204 173.010012 
L 673.70101 173.706167 
L 674.028945 173.471102 
L 674.35688 172.681524 
L 674.684816 173.45905 
L 675.012751 173.772468 
L 675.996557 173.236037 
L 676.324492 173.052203 
L 676.652427 173.615757 
L 676.980362 175.571624 
L 677.308298 176.481751 
L 678.292103 176.960922 
L 678.620039 176.623394 
L 678.947974 175.993535 
L 679.275909 176.448601 
" clip-path="url(#pe0d90947f2)" style="fill: none; stroke: #9467bd; stroke-width: 1.5; stroke-linecap: square"/>
   </g>
   <g id="line2d_18">
    <path d="M 651.073478 131.840392 
L 651.401413 134.08858 
L 651.729349 132.756538 
L 652.057284 133.7631 
L 653.04109 132.455172 
L 653.369025 133.362287 
L 653.69696 134.052418 
L 654.024895 135.954037 
L 654.352831 135.797321 
L 655.336636 133.115164 
L 655.664572 130.523414 
L 655.992507 131.948879 
L 656.320442 133.793238 
L 656.648377 133.127222 
L 657.632183 135.734037 
L 657.960118 135.351305 
L 658.288054 137.249908 
L 658.615989 135.839517 
L 658.943924 136.924436 
L 659.92773 135.782256 
L 660.255665 134.109678 
L 660.5836 133.434612 
L 660.911535 134.25132 
L 661.239471 132.250245 
M 662.551212 133.832417 
L 662.879147 134.040361 
L 663.207082 133.497905 
L 663.535017 134.103645 
L 664.518823 131.671618 
L 664.846758 132.503391 
L 665.174694 131.903676 
L 665.502629 132.376823 
L 665.830564 133.62749 
L 666.81437 133.193522 
L 667.142305 133.166401 
L 667.47024 132.666132 
L 667.798176 131.511894 
L 668.126111 130.279308 
L 669.109917 131.638472 
L 669.437852 131.590253 
L 669.765787 132.096545 
M 670.421658 132.135724 
L 671.405463 131.849432 
L 671.733399 133.323108 
L 672.061334 133.042839 
L 672.389269 133.145303 
L 672.717204 134.820898 
L 673.70101 133.73297 
L 674.028945 132.913254 
L 674.35688 132.400928 
L 674.684816 133.036806 
M 675.996557 132.967498 
L 676.324492 133.934881 
L 676.652427 133.525027 
L 676.980362 133.320091 
L 677.308298 132.434074 
L 678.292103 132.774619 
L 678.620039 133.160367 
L 678.947974 132.699278 
L 679.275909 132.901197 
" clip-path="url(#pe0d90947f2)" style="fill: none; stroke: #8c564b; stroke-width: 1.5; stroke-linecap: square"/>
   </g>
   <g id="line2d_19">
    <path d="M 651.073478 197.197658 
L 651.401413 197.167521 
L 651.729349 197.013824 
L 652.057284 196.905332 
L 653.04109 196.790814 
L 653.369025 196.691362 
L 653.69696 196.646157 
L 654.024895 196.866155 
L 654.352831 197.059029 
L 655.336636 197.110261 
L 655.664572 197.037934 
L 655.992507 196.962592 
L 656.320442 197.185603 
L 656.648377 197.164507 
L 657.632183 197.345326 
L 657.960118 197.366422 
L 658.288054 197.4719 
L 658.615989 197.288066 
L 658.943924 197.279025 
L 659.92773 197.294095 
L 660.255665 197.330257 
L 660.5836 197.526146 
L 660.911535 197.420668 
L 661.239471 197.3393 
M 662.551212 197.221765 
L 662.879147 197.300121 
L 663.207082 197.182588 
L 663.535017 197.098206 
L 664.518823 197.288066 
L 664.846758 197.31519 
L 665.174694 197.107247 
L 665.502629 197.191629 
L 665.830564 197.417654 
L 666.81437 197.366422 
L 667.142305 197.318205 
L 667.47024 197.20067 
L 667.798176 197.077111 
L 668.126111 197.182588 
L 669.109917 197.263959 
L 669.437852 197.125328 
L 669.765787 197.107247 
M 670.421658 197.089166 
L 671.405463 196.989714 
L 671.733399 196.890263 
L 672.061334 196.878208 
L 672.389269 196.775745 
L 672.717204 196.851086 
L 673.70101 196.736568 
L 674.028945 196.881222 
L 674.35688 196.941497 
L 674.684816 197.040946 
M 675.996557 197.131357 
L 676.324492 197.173548 
L 676.652427 197.025879 
L 676.980362 197.040946 
L 677.308298 197.173548 
L 678.292103 197.185603 
L 678.620039 197.297107 
L 678.947974 197.218753 
L 679.275909 197.227794 
" clip-path="url(#pe0d90947f2)" style="fill: none; stroke: #e377c2; stroke-width: 1.5; stroke-linecap: square"/>
   </g>
   <g id="line2d_20">
    <path d="M 651.073478 91.647185 
L 651.401413 88.609418 
L 651.729349 84.754943 
L 652.057284 83.184828 
L 653.04109 83.230031 
L 653.369025 82.28977 
L 653.69696 82.307852 
L 654.024895 80.436371 
L 654.352831 78.281605 
L 655.336636 79.155565 
L 655.664572 80.517736 
L 655.992507 79.948159 
L 656.320442 78.444336 
L 656.648377 78.540775 
L 657.632183 72.549615 
L 657.960118 70.217035 
L 658.288054 69.285824 
L 658.615989 69.114043 
L 658.943924 68.432953 
L 659.92773 68.28227 
L 660.255665 68.806644 
L 660.5836 70.985534 
L 660.911535 70.696216 
L 661.239471 72.130721 
M 662.551212 68.520361 
L 662.879147 69.216516 
L 663.207082 68.909117 
L 663.535017 69.156239 
L 664.518823 67.920627 
L 664.846758 66.68805 
L 665.174694 66.245032 
L 665.502629 67.444482 
L 665.830564 65.898472 
L 666.81437 65.663398 
L 667.142305 64.6056 
L 667.47024 65.148073 
L 667.798176 64.771366 
L 668.126111 66.790504 
L 669.109917 64.581504 
L 669.437852 66.151609 
L 669.765787 66.17874 
M 670.421658 66.829683 
L 671.405463 65.377096 
L 671.733399 62.926988 
L 672.061334 62.51112 
L 672.389269 60.986208 
L 672.717204 60.422637 
L 673.70101 59.352791 
L 674.028945 60.75415 
L 674.35688 59.605946 
L 674.684816 57.972547 
M 675.996557 59.235253 
L 676.324492 59.141831 
L 676.652427 57.963497 
L 676.980362 58.204586 
L 677.308298 58.581294 
L 678.292103 57.975545 
L 678.620039 57.821864 
L 678.947974 57.650083 
L 679.275909 56.290919 
" clip-path="url(#pe0d90947f2)" style="fill: none; stroke: #7f7f7f; stroke-width: 1.5; stroke-linecap: square"/>
   </g>
   <g id="line2d_21">
    <path d="M 651.073478 66.703115 
L 651.401413 64.240958 
L 651.729349 60.844556 
L 652.057284 59.654157 
L 653.04109 59.590882 
L 653.369025 58.545132 
L 653.69696 58.47884 
L 654.024895 57.294473 
L 654.352831 54.796136 
L 655.336636 55.775576 
L 655.664572 57.195017 
L 655.992507 56.486796 
L 656.320442 55.308462 
L 656.648377 55.525437 
L 657.632183 49.90497 
L 657.960118 48.744699 
L 658.288054 48.518675 
L 658.615989 47.653756 
L 658.943924 46.526649 
L 659.92773 46.330772 
L 660.255665 46.933505 
L 660.5836 49.944149 
L 660.911535 49.874822 
L 661.239471 51.074272 
M 662.551212 47.445812 
L 662.879147 48.476498 
L 663.207082 47.777326 
L 663.535017 47.97622 
L 664.518823 46.975682 
L 664.846758 45.957063 
L 665.174694 46.005292 
L 665.502629 46.873228 
L 665.830564 45.0379 
L 666.81437 44.875169 
L 667.142305 43.850517 
L 667.47024 44.368876 
L 667.798176 43.648607 
L 668.126111 45.682828 
L 669.109917 43.97107 
L 669.437852 45.523095 
L 669.765787 45.550226 
M 670.421658 46.502535 
L 671.405463 44.733517 
L 671.733399 42.735458 
L 672.061334 42.633004 
L 672.389269 41.201515 
L 672.717204 40.285369 
L 673.70101 39.399352 
L 674.028945 39.45961 
L 674.35688 38.615789 
L 674.684816 37.142104 
M 675.996557 38.54648 
L 676.324492 38.648935 
L 676.652427 37.527861 
L 676.980362 36.997454 
L 677.308298 37.660463 
L 678.292103 37.301837 
L 678.620039 38.106479 
L 678.947974 37.479651 
L 679.275909 36.32843 
" clip-path="url(#pe0d90947f2)" style="fill: none; stroke: #bcbd22; stroke-width: 1.5; stroke-linecap: square"/>
   </g>
   <g id="line2d_22">
    <path d="M 651.073478 199.475985 
L 651.401413 199.427767 
L 651.729349 199.331328 
L 652.057284 199.376533 
L 653.04109 199.213795 
L 653.369025 199.072155 
L 653.69696 198.97873 
L 654.024895 198.891334 
L 654.352831 198.562846 
L 655.336636 198.623118 
L 655.664572 198.831061 
L 655.992507 198.800925 
L 656.320442 198.906403 
L 656.648377 198.728596 
L 657.632183 198.595996 
L 657.960118 198.939553 
L 658.288054 199.201743 
L 658.615989 198.719555 
L 658.943924 198.385039 
L 659.92773 198.379012 
L 660.255665 198.538736 
L 660.5836 199.259001 
L 660.911535 199.379548 
L 661.239471 199.352426 
M 662.551212 198.894348 
L 662.879147 198.921472 
L 663.207082 198.680378 
L 663.535017 198.680378 
L 664.518823 198.644214 
L 664.846758 198.69846 
L 665.174694 198.623118 
L 665.502629 198.644214 
L 665.830564 198.514626 
L 666.81437 198.478464 
L 667.142305 198.24641 
L 667.47024 198.394081 
L 667.798176 198.26148 
L 668.126111 198.526681 
L 669.109917 198.505585 
L 669.437852 198.602023 
L 669.765787 198.5086 
M 670.421658 198.526681 
L 671.405463 198.119837 
L 671.733399 198.04751 
L 672.061334 198.710515 
L 672.389269 198.996814 
L 672.717204 198.930513 
L 673.70101 198.758734 
L 674.028945 198.562846 
L 674.35688 198.499559 
L 674.684816 198.469423 
M 675.996557 198.701474 
L 676.324492 198.740651 
L 676.652427 198.719555 
L 676.980362 198.550791 
L 677.308298 198.547777 
L 678.292103 198.372986 
L 678.620039 198.773801 
L 678.947974 198.520655 
L 679.275909 198.550791 
" clip-path="url(#pe0d90947f2)" style="fill: none; stroke: #17becf; stroke-width: 1.5; stroke-linecap: square"/>
   </g>
   <g id="line2d_23">
    <path d="M 651.729349 206.72384 
L 652.057284 207.097534 
L 653.04109 206.766031 
L 653.369025 207.492323 
L 653.69696 206.874523 
M 654.352831 207.314518 
L 655.336636 207.142738 
L 655.664572 206.1633 
L 655.992507 205.940287 
L 656.320442 206.612334 
L 656.648377 206.841372 
L 657.632183 206.521925 
L 657.960118 206.371242 
L 658.288054 206.045767 
L 658.615989 206.389323 
L 658.943924 206.268777 
L 659.92773 206.081929 
L 660.255665 205.858919 
L 660.5836 205.714262 
L 660.911535 206.036724 
L 661.239471 205.834809 
L 662.223276 205.804673 
L 662.551212 205.84385 
L 662.879147 205.798647 
L 663.207082 205.765496 
L 663.535017 206.506857 
L 664.518823 206.208505 
L 664.846758 206.292887 
L 665.174694 206.193436 
L 665.502629 205.92522 
L 665.830564 206.335078 
L 666.81437 206.1633 
L 667.142305 206.096999 
L 667.47024 206.407405 
L 667.798176 206.606307 
L 668.126111 206.687676 
L 669.109917 207.073424 
L 669.437852 207.184931 
L 669.765787 206.943837 
L 670.093722 207.308491 
L 670.421658 207.257258 
L 671.405463 207.215067 
L 671.733399 206.621375 
L 672.061334 206.350146 
L 672.389269 206.437542 
L 672.717204 206.280832 
L 673.70101 206.889591 
L 674.028945 206.705758 
L 674.35688 206.741922 
L 674.684816 207.12767 
L 675.012751 207.224107 
L 675.996557 207.652048 
L 676.324492 207.908209 
L 676.652427 207.974509 
L 676.980362 207.881086 
L 677.308298 207.956427 
L 678.292103 208.224643 
L 678.620039 208.269848 
L 678.947974 208.330122 
L 679.275909 209.535586 
" clip-path="url(#pe0d90947f2)" style="fill: none; stroke: #1f77b4; stroke-width: 1.5; stroke-linecap: square"/>
   </g>
   <g id="patch_3">
    <path d="M 50.87 234.745464 
L 50.87 26.88 
" style="fill: none; stroke: #000000; stroke-width: 0.8; stroke-linejoin: miter; stroke-linecap: square"/>
   </g>
   <g id="patch_4">
    <path d="M 709.2 234.745464 
L 709.2 26.88 
" style="fill: none; stroke: #000000; stroke-width: 0.8; stroke-linejoin: miter; stroke-linecap: square"/>
   </g>
   <g id="patch_5">
    <path d="M 50.87 234.745464 
L 709.2 234.745464 
" style="fill: none; stroke: #000000; stroke-width: 0.8; stroke-linejoin: miter; stroke-linecap: square"/>
   </g>
   <g id="patch_6">
    <path d="M 50.87 26.88 
L 709.2 26.88 
" style="fill: none; stroke: #000000; stroke-width: 0.8; stroke-linejoin: miter; stroke-linecap: square"/>
   </g>
   <g id="text_15">
    <!-- Precio de cierre - últimos 60 días -->
    <g transform="translate(281.66875 20.88) scale(0.12 -0.12)">
     <defs>
      <path id="DejaVuSans-50" d="M 1259 4147 
L 1259 2394 
L 2053 2394 
Q 2494 2394 2734 2622 
Q 2975 2850 2975 3272 
Q 2975 3691 2734 3919 
Q 2494 4147 2053 4147 
L 1259 4147 
z
M 628 4666 
L 2053 4666 
Q 2838 4666 3239 4311 
Q 3641 3956 3641 3272 
Q 3641 2581 3239 2228 
Q 2838 1875 2053 1875 
L 1259 1875 
L 1259 0 
L 628 0 
L 628 4666 
z
" transform="scale(0.015625)"/>
      <path id="DejaVuSans-6f" d="M 1959 3097 
Q 1497 3097 1228 2736 
Q 959 2375 959 1747 
Q 959 1119 1226 758 
Q 1494 397 1959 397 
Q 2419 397 2687 759 
Q 2956 1122 2956 1747 
Q 2956 2369 2687 2733 
Q 2419 3097 1959 3097 
z
M 1959 3584 
Q 2709 3584 3137 3096 
Q 3566 2609 3566 1747 
Q 3566 888 3137 398 
Q 2709 -91 1959 -91 
Q 1206 -91 779 398 
Q 353 888 353 1747 
Q 353 2609 779 3096 
Q 1206 3584 1959 3584 
z
" transform="scale(0.015625)"/>
      <path id="DejaVuSans-20" transform="scale(0.015625)"/>
      <path id="DejaVuSans-64" d="M 2906 2969 
L 2906 4863 
L 3481 4863 
L 3481 0 
L 2906 0 
L 2906 525 
Q 2725 213 2448 61 
Q 2172 -91 1784 -91 
Q 1150 -91 751 415 
Q 353 922 353 1747 
Q 353 2572 751 3078 
Q 1150 3584 1784 3584 
Q 2172 3584 2448 3432 
Q 2725 3281 2906 2969 
z
M 947 1747 
Q 947 1113 1208 752 
Q 1469 391 1925 391 
Q 2381 391 2643 752 
Q 2906 1113 2906 1747 
Q 2906 2381 2643 2742 
Q 2381 3103 1925 3103 
Q 1469 3103 1208 2742 
Q 947 2381 947 1747 
z
" transform="scale(0.015625)"/>
      <path id="DejaVuSans-2d" d="M 313 2009 
L 1997 2009 
L 1997 1497 
L 313 1497 
L 313 2009 
z
" transform="scale(0.015625)"/>
      <path id="DejaVuSans-fa" d="M 544 1381 
L 544 3500 
L 1119 3500 
L 1119 1403 
Q 1119 906 1312 657 
Q 1506 409 1894 409 
Q 2359 409 2629 706 
Q 2900 1003 2900 1516 
L 2900 3500 
L 3475 3500 
L 3475 0 
L 2900 0 
L 2900 538 
Q 2691 219 2414 64 
Q 2138 -91 1772 -91 
Q 1169 -91 856 284 
Q 544 659 544 1381 
z
M 1991 3584 
L 1991 3584 
z
M 2418 5119 
L 3040 5119 
L 2022 3944 
L 1543 3944 
L 2418 5119 
z
" transform="scale(0.015625)"/>
      <path id="DejaVuSans-6c" d="M 603 4863 
L 1178 4863 
L 1178 0 
L 603 0 
L 603 4863 
z
" transform="scale(0.015625)"/>
      <path id="DejaVuSans-74" d="M 1172 4494 
L 1172 3500 
L 2356 3500 
L 2356 3053 
L 1172 3053 
L 1172 1153 
Q 1172 725 1289 603 
Q 1406 481 1766 481 
L 2356 481 
L 2356 0 
L 1766 0 
Q 1100 0 847 248 
Q 594 497 594 1153 
L 594 3053 
L 172 3053 
L 172 3500 
L 594 3500 
L 594 4494 
L 1172 4494 
z
" transform="scale(0.015625)"/>
      <path id="DejaVuSans-6d" d="M 3328 2828 
Q 3544 3216 3844 3400 
Q 4144 3584 4550 3584 
Q 5097 3584 5394 3201 
Q 5691 2819 5691 2113 
L 5691 0 
L 5113 0 
L 5113 2094 
Q 5113 2597 4934 2840 
Q 4756 3084 4391 3084 
Q 3944 3084 3684 2787 
Q 3425 2491 3425 1978 
L 3425 0 
L 2847 0 
L 2847 2094 
Q 2847 2600 2669 2842 
Q 2491 3084 2119 3084 
Q 1678 3084 1418 2786 
Q 1159 2488 1159 1978 
L 1159 0 
L 581 0 
L 581 3500 
L 1159 3500 
L 1159 2956 
Q 1356 3278 1631 3431 
Q 1906 3584 2284 3584 
Q 2666 3584 2933 3390 
Q 3200 3197 3328 2828 
z
" transform="scale(0.015625)"/>
      <path id="DejaVuSans-73" d="M 2834 3397 
L 2834 2853 
Q 2591 2978 2328 3040 
Q 2066 3103 1784 3103 
Q 1356 3103 1142 2972 
Q 928 2841 928 2578 
Q 928 2378 1081 2264 
Q 1234 2150 1697 2047 
L 1894 2003 
Q 2506 1872 2764 1633 
Q 3022 1394 3022 966 
Q 3022 478 2636 193 
Q 2250 -91 1575 -91 
Q 1294 -91 989 -36 
Q 684 19 347 128 
L 347 722 
Q 666 556 975 473 
Q 1284 391 1588 391 
Q 1994 391 2212 530 
Q 2431 669 2431 922 
Q 2431 1156 2273 1281 
Q 2116 1406 1581 1522 
L 1381 1569 
Q 847 1681 609 1914 
Q 372 2147 372 2553 
Q 372 3047 722 3315 
Q 1072 3584 1716 3584 
Q 2034 3584 2315 3537 
Q 2597 3491 2834 3397 
z
" transform="scale(0.015625)"/>
      <path id="DejaVuSans-ed" d="M 1322 5119 
L 1944 5119 
L 926 3944 
L 447 3944 
L 1322 5119 
z
M 603 3500 
L 1178 3500 
L 1178 0 
L 603 0 
L 603 3500 
z
M 891 3584 
L 891 3584 
z
" transform="scale(0.015625)"/>
     </defs>
     <use xlink:href="#DejaVuSans-50"/>
     <use xlink:href="#DejaVuSans-72" transform="translate(58.552734 0)"/>
     <use xlink:href="#DejaVuSans-65" transform="translate(97.416016 0)"/>
     <use xlink:href="#DejaVuSans-63" transform="translate(158.939453 0)"/>
     <use xlink:href="#DejaVuSans-69" transform="translate(213.919922 0)"/>
     <use xlink:href="#DejaVuSans-6f" transform="translate(241.703125 0)"/>
     <use xlink:href="#DejaVuSans-20" transform="translate(302.884766 0)"/>
     <use xlink:href="#DejaVuSans-64" transform="translate(334.671875 0)"/>
     <use xlink:href="#DejaVuSans-65" transform="translate(398.148438 0)"/>
     <use xlink:href="#DejaVuSans-20" transform="translate(459.671875 0)"/>
     <use xlink:href="#DejaVuSans-63" transform="translate(491.458984 0)"/>
     <use xlink:href="#DejaVuSans-69" transform="translate(546.439453 0)"/>
     <use xlink:href="#DejaVuSans-65" transform="translate(574.222656 0)"/>
     <use xlink:href="#DejaVuSans-72" transform="translate(635.746094 0)"/>
     <use xlink:href="#DejaVuSans-72" transform="translate(675.109375 0)"/>
     <use xlink:href="#DejaVuSans-65" transform="translate(713.972656 0)"/>
     <use xlink:href="#DejaVuSans-20" transform="translate(775.496094 0)"/>
     <use xlink:href="#DejaVuSans-2d" transform="translate(807.283203 0)"/>
     <use xlink:href="#DejaVuSans-20" transform="translate(843.367188 0)"/>
     <use xlink:href="#DejaVuSans-fa" transform="translate(875.154297 0)"/>
     <use xlink:href="#DejaVuSans-6c" transform="translate(938.533203 0)"/>
     <use xlink:href="#DejaVuSans-74" transform="translate(966.316406 0)"/>
     <use xlink:href="#DejaVuSans-69" transform="translate(1005.525391 0)"/>
     <use xlink:href="#DejaVuSans-6d" transform="translate(1033.308594 0)"/>
     <use xlink:href="#DejaVuSans-6f" transform="translate(1130.720703 0)"/>
     <use xlink:href="#DejaVuSans-73" transform="translate(1191.902344 0)"/>
     <use xlink:href="#DejaVuSans-20" transform="translate(1244.001953 0)"/>
     <use xlink:href="#DejaVuSans-36" transform="translate(1275.789062 0)"/>
     <use xlink:href="#DejaVuSans-30" transform="translate(1339.412109 0)"/>
     <use xlink:href="#DejaVuSans-20" transform="translate(1403.035156 0)"/>
     <use xlink:href="#DejaVuSans-64" transform="translate(1434.822266 0)"/>
     <use xlink:href="#DejaVuSans-ed" transform="translate(1498.298828 0)"/>
     <use xlink:href="#DejaVuSans-61" transform="translate(1526.082031 0)"/>
     <use xlink:href="#DejaVuSans-73" transform="translate(1587.361328 0)"/>
    </g>
   </g>
   <g id="legend_1">
    <g id="patch_7">
     <path d="M 57.87 211.0175 
L 163.50125 211.0175 
Q 165.50125 211.0175 165.50125 209.0175 
L 165.50125 33.88 
Q 165.50125 31.88 163.50125 31.88 
L 57.87 31.88 
Q 55.87 31.88 55.87 33.88 
L 55.87 209.0175 
Q 55.87 211.0175 57.87 211.0175 
z
" style="fill: #ffffff; opacity: 0.8; stroke: #cccccc; stroke-linejoin: miter"/>
    </g>
    <g id="text_16">
     <!-- ticker -->
     <g transform="translate(96.741094 43.478437) scale(0.1 -0.1)">
      <defs>
       <path id="DejaVuSans-6b" d="M 581 4863 
L 1159 4863 
L 1159 1991 
L 2875 3500 
L 3609 3500 
L 1753 1863 
L 3688 0 
L 2938 0 
L 1159 1709 
L 1159 0 
L 581 0 
L 581 4863 
z
" transform="scale(0.015625)"/>
      </defs>
      <use xlink:href="#DejaVuSans-74"/>
      <use xlink:href="#DejaVuSans-69" transform="translate(39.208984 0)"/>
      <use xlink:href="#DejaVuSans-63" transform="translate(66.992188 0)"/>
      <use xlink:href="#DejaVuSans-6b" transform="translate(121.972656 0)"/>
      <use xlink:href="#DejaVuSans-65" transform="translate(176.257812 0)"/>
      <use xlink:href="#DejaVuSans-72" transform="translate(237.78125 0)"/>
     </g>
    </g>
    <g id="line2d_24">
     <path d="M 59.87 54.656562 
L 69.87 54.656562 
L 79.87 54.656562 
" style="fill: none; stroke: #1f77b4; stroke-width: 1.5; stroke-linecap: square"/>
    </g>
    <g id="text_17">
     <!-- AMXL.MX -->
     <g transform="translate(87.87 58.156562) scale(0.1 -0.1)">
      <defs>
       <path id="DejaVuSans-41" d="M 2188 4044 
L 1331 1722 
L 3047 1722 
L 2188 4044 
z
M 1831 4666 
L 2547 4666 
L 4325 0 
L 3669 0 
L 3244 1197 
L 1141 1197 
L 716 0 
L 50 0 
L 1831 4666 
z
" transform="scale(0.015625)"/>
       <path id="DejaVuSans-4d" d="M 628 4666 
L 1569 4666 
L 2759 1491 
L 3956 4666 
L 4897 4666 
L 4897 0 
L 4281 0 
L 4281 4097 
L 3078 897 
L 2444 897 
L 1241 4097 
L 1241 0 
L 628 0 
L 628 4666 
z
" transform="scale(0.015625)"/>
       <path id="DejaVuSans-58" d="M 403 4666 
L 1081 4666 
L 2241 2931 
L 3406 4666 
L 4084 4666 
L 2584 2425 
L 4184 0 
L 3506 0 
L 2194 1984 
L 872 0 
L 191 0 
L 1856 2491 
L 403 4666 
z
" transform="scale(0.015625)"/>
       <path id="DejaVuSans-4c" d="M 628 4666 
L 1259 4666 
L 1259 531 
L 3531 531 
L 3531 0 
L 628 0 
L 628 4666 
z
" transform="scale(0.015625)"/>
       <path id="DejaVuSans-2e" d="M 684 794 
L 1344 794 
L 1344 0 
L 684 0 
L 684 794 
z
" transform="scale(0.015625)"/>
      </defs>
      <use xlink:href="#DejaVuSans-41"/>
      <use xlink:href="#DejaVuSans-4d" transform="translate(68.408203 0)"/>
      <use xlink:href="#DejaVuSans-58" transform="translate(154.6875 0)"/>
      <use xlink:href="#DejaVuSans-4c" transform="translate(223.193359 0)"/>
      <use xlink:href="#DejaVuSans-2e" transform="translate(278.90625 0)"/>
      <use xlink:href="#DejaVuSans-4d" transform="translate(310.693359 0)"/>
      <use xlink:href="#DejaVuSans-58" transform="translate(396.972656 0)"/>
     </g>
    </g>
    <g id="line2d_25">
     <path d="M 59.87 69.334688 
L 69.87 69.334688 
L 79.87 69.334688 
" style="fill: none; stroke: #ff7f0e; stroke-width: 1.5; stroke-linecap: square"/>
    </g>
    <g id="text_18">
     <!-- BIMBOA.MX -->
     <g transform="translate(87.87 72.834688) scale(0.1 -0.1)">
      <defs>
       <path id="DejaVuSans-42" d="M 1259 2228 
L 1259 519 
L 2272 519 
Q 2781 519 3026 730 
Q 3272 941 3272 1375 
Q 3272 1813 3026 2020 
Q 2781 2228 2272 2228 
L 1259 2228 
z
M 1259 4147 
L 1259 2741 
L 2194 2741 
Q 2656 2741 2882 2914 
Q 3109 3088 3109 3444 
Q 3109 3797 2882 3972 
Q 2656 4147 2194 4147 
L 1259 4147 
z
M 628 4666 
L 2241 4666 
Q 2963 4666 3353 4366 
Q 3744 4066 3744 3513 
Q 3744 3084 3544 2831 
Q 3344 2578 2956 2516 
Q 3422 2416 3680 2098 
Q 3938 1781 3938 1306 
Q 3938 681 3513 340 
Q 3088 0 2303 0 
L 628 0 
L 628 4666 
z
" transform="scale(0.015625)"/>
       <path id="DejaVuSans-49" d="M 628 4666 
L 1259 4666 
L 1259 0 
L 628 0 
L 628 4666 
z
" transform="scale(0.015625)"/>
       <path id="DejaVuSans-4f" d="M 2522 4238 
Q 1834 4238 1429 3725 
Q 1025 3213 1025 2328 
Q 1025 1447 1429 934 
Q 1834 422 2522 422 
Q 3209 422 3611 934 
Q 4013 1447 4013 2328 
Q 4013 3213 3611 3725 
Q 3209 4238 2522 4238 
z
M 2522 4750 
Q 3503 4750 4090 4092 
Q 4678 3434 4678 2328 
Q 4678 1225 4090 567 
Q 3503 -91 2522 -91 
Q 1538 -91 948 565 
Q 359 1222 359 2328 
Q 359 3434 948 4092 
Q 1538 4750 2522 4750 
z
" transform="scale(0.015625)"/>
      </defs>
      <use xlink:href="#DejaVuSans-42"/>
      <use xlink:href="#DejaVuSans-49" transform="translate(68.603516 0)"/>
      <use xlink:href="#DejaVuSans-4d" transform="translate(98.095703 0)"/>
      <use xlink:href="#DejaVuSans-42" transform="translate(184.375 0)"/>
      <use xlink:href="#DejaVuSans-4f" transform="translate(251.228516 0)"/>
      <use xlink:href="#DejaVuSans-41" transform="translate(328.189453 0)"/>
      <use xlink:href="#DejaVuSans-2e" transform="translate(394.847656 0)"/>
      <use xlink:href="#DejaVuSans-4d" transform="translate(426.634766 0)"/>
      <use xlink:href="#DejaVuSans-58" transform="translate(512.914062 0)"/>
     </g>
    </g>
    <g id="line2d_26">
     <path d="M 59.87 84.012812 
L 69.87 84.012812 
L 79.87 84.012812 
" style="fill: none; stroke: #2ca02c; stroke-width: 1.5; stroke-linecap: square"/>
    </g>
    <g id="text_19">
     <!-- CEMEXCPO.MX -->
     <g transform="translate(87.87 87.512812) scale(0.1 -0.1)">
      <defs>
       <path id="DejaVuSans-45" d="M 628 4666 
L 3578 4666 
L 3578 4134 
L 1259 4134 
L 1259 2753 
L 3481 2753 
L 3481 2222 
L 1259 2222 
L 1259 531 
L 3634 531 
L 3634 0 
L 628 0 
L 628 4666 
z
" transform="scale(0.015625)"/>
      </defs>
      <use xlink:href="#DejaVuSans-43"/>
      <use xlink:href="#DejaVuSans-45" transform="translate(69.824219 0)"/>
      <use xlink:href="#DejaVuSans-4d" transform="translate(133.007812 0)"/>
      <use xlink:href="#DejaVuSans-45" transform="translate(219.287109 0)"/>
      <use xlink:href="#DejaVuSans-58" transform="translate(282.470703 0)"/>
      <use xlink:href="#DejaVuSans-43" transform="translate(343.726562 0)"/>
      <use xlink:href="#DejaVuSans-50" transform="translate(413.550781 0)"/>
      <use xlink:href="#DejaVuSans-4f" transform="translate(473.853516 0)"/>
      <use xlink:href="#DejaVuSans-2e" transform="translate(548.564453 0)"/>
      <use xlink:href="#DejaVuSans-4d" transform="translate(580.351562 0)"/>
      <use xlink:href="#DejaVuSans-58" transform="translate(666.630859 0)"/>
     </g>
    </g>
    <g id="line2d_27">
     <path d="M 59.87 98.690937 
L 69.87 98.690937 
L 79.87 98.690937 
" style="fill: none; stroke: #d62728; stroke-width: 1.5; stroke-linecap: square"/>
    </g>
    <g id="text_20">
     <!-- EEM -->
     <g transform="translate(87.87 102.190937) scale(0.1 -0.1)">
      <use xlink:href="#DejaVuSans-45"/>
      <use xlink:href="#DejaVuSans-45" transform="translate(63.183594 0)"/>
      <use xlink:href="#DejaVuSans-4d" transform="translate(126.367188 0)"/>
     </g>
    </g>
    <g id="line2d_28">
     <path d="M 59.87 113.369062 
L 69.87 113.369062 
L 79.87 113.369062 
" style="fill: none; stroke: #9467bd; stroke-width: 1.5; stroke-linecap: square"/>
    </g>
    <g id="text_21">
     <!-- GFNORTEO.MX -->
     <g transform="translate(87.87 116.869062) scale(0.1 -0.1)">
      <defs>
       <path id="DejaVuSans-47" d="M 3809 666 
L 3809 1919 
L 2778 1919 
L 2778 2438 
L 4434 2438 
L 4434 434 
Q 4069 175 3628 42 
Q 3188 -91 2688 -91 
Q 1594 -91 976 548 
Q 359 1188 359 2328 
Q 359 3472 976 4111 
Q 1594 4750 2688 4750 
Q 3144 4750 3555 4637 
Q 3966 4525 4313 4306 
L 4313 3634 
Q 3963 3931 3569 4081 
Q 3175 4231 2741 4231 
Q 1884 4231 1454 3753 
Q 1025 3275 1025 2328 
Q 1025 1384 1454 906 
Q 1884 428 2741 428 
Q 3075 428 3337 486 
Q 3600 544 3809 666 
z
" transform="scale(0.015625)"/>
       <path id="DejaVuSans-4e" d="M 628 4666 
L 1478 4666 
L 3547 763 
L 3547 4666 
L 4159 4666 
L 4159 0 
L 3309 0 
L 1241 3903 
L 1241 0 
L 628 0 
L 628 4666 
z
" transform="scale(0.015625)"/>
       <path id="DejaVuSans-52" d="M 2841 2188 
Q 3044 2119 3236 1894 
Q 3428 1669 3622 1275 
L 4263 0 
L 3584 0 
L 2988 1197 
Q 2756 1666 2539 1819 
Q 2322 1972 1947 1972 
L 1259 1972 
L 1259 0 
L 628 0 
L 628 4666 
L 2053 4666 
Q 2853 4666 3247 4331 
Q 3641 3997 3641 3322 
Q 3641 2881 3436 2590 
Q 3231 2300 2841 2188 
z
M 1259 4147 
L 1259 2491 
L 2053 2491 
Q 2509 2491 2742 2702 
Q 2975 2913 2975 3322 
Q 2975 3731 2742 3939 
Q 2509 4147 2053 4147 
L 1259 4147 
z
" transform="scale(0.015625)"/>
       <path id="DejaVuSans-54" d="M -19 4666 
L 3928 4666 
L 3928 4134 
L 2272 4134 
L 2272 0 
L 1638 0 
L 1638 4134 
L -19 4134 
L -19 4666 
z
" transform="scale(0.015625)"/>
      </defs>
      <use xlink:href="#DejaVuSans-47"/>
      <use xlink:href="#DejaVuSans-46" transform="translate(77.490234 0)"/>
      <use xlink:href="#DejaVuSans-4e" transform="translate(135.009766 0)"/>
      <use xlink:href="#DejaVuSans-4f" transform="translate(209.814453 0)"/>
      <use xlink:href="#DejaVuSans-52" transform="translate(288.525391 0)"/>
      <use xlink:href="#DejaVuSans-54" transform="translate(350.757812 0)"/>
      <use xlink:href="#DejaVuSans-45" transform="translate(411.841797 0)"/>
      <use xlink:href="#DejaVuSans-4f" transform="translate(475.025391 0)"/>
      <use xlink:href="#DejaVuSans-2e" transform="translate(549.736328 0)"/>
      <use xlink:href="#DejaVuSans-4d" transform="translate(581.523438 0)"/>
      <use xlink:href="#DejaVuSans-58" transform="translate(667.802734 0)"/>
     </g>
    </g>
    <g id="line2d_29">
     <path d="M 59.87 128.047188 
L 69.87 128.047188 
L 79.87 128.047188 
" style="fill: none; stroke: #8c564b; stroke-width: 1.5; stroke-linecap: square"/>
    </g>
    <g id="text_22">
     <!-- GLD -->
     <g transform="translate(87.87 131.547188) scale(0.1 -0.1)">
      <defs>
       <path id="DejaVuSans-44" d="M 1259 4147 
L 1259 519 
L 2022 519 
Q 2988 519 3436 956 
Q 3884 1394 3884 2338 
Q 3884 3275 3436 3711 
Q 2988 4147 2022 4147 
L 1259 4147 
z
M 628 4666 
L 1925 4666 
Q 3281 4666 3915 4102 
Q 4550 3538 4550 2338 
Q 4550 1131 3912 565 
Q 3275 0 1925 0 
L 628 0 
L 628 4666 
z
" transform="scale(0.015625)"/>
      </defs>
      <use xlink:href="#DejaVuSans-47"/>
      <use xlink:href="#DejaVuSans-4c" transform="translate(77.490234 0)"/>
      <use xlink:href="#DejaVuSans-44" transform="translate(133.203125 0)"/>
     </g>
    </g>
    <g id="line2d_30">
     <path d="M 59.87 142.725312 
L 69.87 142.725312 
L 79.87 142.725312 
" style="fill: none; stroke: #e377c2; stroke-width: 1.5; stroke-linecap: square"/>
    </g>
    <g id="text_23">
     <!-- IEF -->
     <g transform="translate(87.87 146.225312) scale(0.1 -0.1)">
      <use xlink:href="#DejaVuSans-49"/>
      <use xlink:href="#DejaVuSans-45" transform="translate(29.492188 0)"/>
      <use xlink:href="#DejaVuSans-46" transform="translate(92.675781 0)"/>
     </g>
    </g>
    <g id="line2d_31">
     <path d="M 59.87 157.403437 
L 69.87 157.403437 
L 79.87 157.403437 
" style="fill: none; stroke: #7f7f7f; stroke-width: 1.5; stroke-linecap: square"/>
    </g>
    <g id="text_24">
     <!-- QQQ -->
     <g transform="translate(87.87 160.903437) scale(0.1 -0.1)">
      <defs>
       <path id="DejaVuSans-51" d="M 2522 4238 
Q 1834 4238 1429 3725 
Q 1025 3213 1025 2328 
Q 1025 1447 1429 934 
Q 1834 422 2522 422 
Q 3209 422 3611 934 
Q 4013 1447 4013 2328 
Q 4013 3213 3611 3725 
Q 3209 4238 2522 4238 
z
M 3406 84 
L 4238 -825 
L 3475 -825 
L 2784 -78 
Q 2681 -84 2626 -87 
Q 2572 -91 2522 -91 
Q 1538 -91 948 567 
Q 359 1225 359 2328 
Q 359 3434 948 4092 
Q 1538 4750 2522 4750 
Q 3503 4750 4090 4092 
Q 4678 3434 4678 2328 
Q 4678 1516 4351 937 
Q 4025 359 3406 84 
z
" transform="scale(0.015625)"/>
      </defs>
      <use xlink:href="#DejaVuSans-51"/>
      <use xlink:href="#DejaVuSans-51" transform="translate(78.710938 0)"/>
      <use xlink:href="#DejaVuSans-51" transform="translate(157.421875 0)"/>
     </g>
    </g>
    <g id="line2d_32">
     <path d="M 59.87 172.081562 
L 69.87 172.081562 
L 79.87 172.081562 
" style="fill: none; stroke: #bcbd22; stroke-width: 1.5; stroke-linecap: square"/>
    </g>
    <g id="text_25">
     <!-- SPY -->
     <g transform="translate(87.87 175.581562) scale(0.1 -0.1)">
      <defs>
       <path id="DejaVuSans-53" d="M 3425 4513 
L 3425 3897 
Q 3066 4069 2747 4153 
Q 2428 4238 2131 4238 
Q 1616 4238 1336 4038 
Q 1056 3838 1056 3469 
Q 1056 3159 1242 3001 
Q 1428 2844 1947 2747 
L 2328 2669 
Q 3034 2534 3370 2195 
Q 3706 1856 3706 1288 
Q 3706 609 3251 259 
Q 2797 -91 1919 -91 
Q 1588 -91 1214 -16 
Q 841 59 441 206 
L 441 856 
Q 825 641 1194 531 
Q 1563 422 1919 422 
Q 2459 422 2753 634 
Q 3047 847 3047 1241 
Q 3047 1584 2836 1778 
Q 2625 1972 2144 2069 
L 1759 2144 
Q 1053 2284 737 2584 
Q 422 2884 422 3419 
Q 422 4038 858 4394 
Q 1294 4750 2059 4750 
Q 2388 4750 2728 4690 
Q 3069 4631 3425 4513 
z
" transform="scale(0.015625)"/>
       <path id="DejaVuSans-59" d="M -13 4666 
L 666 4666 
L 1959 2747 
L 3244 4666 
L 3922 4666 
L 2272 2222 
L 2272 0 
L 1638 0 
L 1638 2222 
L -13 4666 
z
" transform="scale(0.015625)"/>
      </defs>
      <use xlink:href="#DejaVuSans-53"/>
      <use xlink:href="#DejaVuSans-50" transform="translate(63.476562 0)"/>
      <use xlink:href="#DejaVuSans-59" transform="translate(121.529297 0)"/>
     </g>
    </g>
    <g id="line2d_33">
     <path d="M 59.87 186.759687 
L 69.87 186.759687 
L 79.87 186.759687 
" style="fill: none; stroke: #17becf; stroke-width: 1.5; stroke-linecap: square"/>
    </g>
    <g id="text_26">
     <!-- VNQ -->
     <g transform="translate(87.87 190.259687) scale(0.1 -0.1)">
      <defs>
       <path id="DejaVuSans-56" d="M 1831 0 
L 50 4666 
L 709 4666 
L 2188 738 
L 3669 4666 
L 4325 4666 
L 2547 0 
L 1831 0 
z
" transform="scale(0.015625)"/>
      </defs>
      <use xlink:href="#DejaVuSans-56"/>
      <use xlink:href="#DejaVuSans-4e" transform="translate(68.408203 0)"/>
      <use xlink:href="#DejaVuSans-51" transform="translate(143.212891 0)"/>
     </g>
    </g>
    <g id="line2d_34">
     <path d="M 59.87 201.437812 
L 69.87 201.437812 
L 79.87 201.437812 
" style="fill: none; stroke: #1f77b4; stroke-width: 1.5; stroke-linecap: square"/>
    </g>
    <g id="text_27">
     <!-- WALMEX.MX -->
     <g transform="translate(87.87 204.937812) scale(0.1 -0.1)">
      <defs>
       <path id="DejaVuSans-57" d="M 213 4666 
L 850 4666 
L 1831 722 
L 2809 4666 
L 3519 4666 
L 4500 722 
L 5478 4666 
L 6119 4666 
L 4947 0 
L 4153 0 
L 3169 4050 
L 2175 0 
L 1381 0 
L 213 4666 
z
" transform="scale(0.015625)"/>
      </defs>
      <use xlink:href="#DejaVuSans-57"/>
      <use xlink:href="#DejaVuSans-41" transform="translate(93.376953 0)"/>
      <use xlink:href="#DejaVuSans-4c" transform="translate(161.785156 0)"/>
      <use xlink:href="#DejaVuSans-4d" transform="translate(217.498047 0)"/>
      <use xlink:href="#DejaVuSans-45" transform="translate(303.777344 0)"/>
      <use xlink:href="#DejaVuSans-58" transform="translate(366.960938 0)"/>
      <use xlink:href="#DejaVuSans-2e" transform="translate(435.466797 0)"/>
      <use xlink:href="#DejaVuSans-4d" transform="translate(467.253906 0)"/>
      <use xlink:href="#DejaVuSans-58" transform="translate(553.533203 0)"/>
     </g>
    </g>
   </g>
  </g>
 </g>
 <defs>
  <clipPath id="pe0d90947f2">
   <rect x="50.87" y="26.88" width="658.33" height="207.865464"/>
  </clipPath>
 </defs>
</svg>
